<svg viewBox="0 0 785 834" fill="none" xmlns="http://www.w3.org/2000/svg">
<path d="M4.20004 827.651L5.01955 826.012L5.32692 825.5L5.83912 824.579C-1.02438 825.193 9.01476 815.977 10.7562 814.338C10.9611 814.236 11.0636 814.133 11.0636 814.133C13.4197 812.597 14.4441 811.675 15.0587 810.959C15.7758 810.139 15.8783 809.627 16.9027 808.91C17.5173 808.501 18.1319 807.989 18.7466 807.477C19.0539 807.272 19.3612 806.965 19.771 806.657C23.971 803.278 28.6833 799.489 26.4296 801.947C27.9662 800.206 34.3175 799.284 34.3175 799.284C34.3175 799.284 38.1078 800.82 38.1078 797.953C38.1078 797.134 38.3127 796.212 38.5175 795.393C38.8249 794.369 39.1322 793.447 39.337 792.73C39.6444 792.013 39.8493 791.501 39.8493 791.501L43.3322 789.863C43.1274 788.634 43.1274 787.2 43.2298 785.664C43.2298 785.357 43.3322 784.947 43.3322 784.64C43.4347 783.514 43.6395 782.387 43.9469 781.261C42.0005 781.875 40.259 782.899 39.2346 784.538C38.9273 784.947 38.7224 785.357 38.4151 785.767C35.9566 789.351 34.6248 788.429 34.9321 785.767C34.9321 785.357 35.0346 784.947 35.2394 784.435C35.6492 782.899 36.3663 781.158 37.5956 779.315L37.0834 779.52L30.6296 784.435L28.6833 785.971L27.7613 786.688V785.971V784.538L27.8638 781.158L24.2784 784.64L22.7418 786.074L18.4393 790.375L14.4441 792.321L9.42453 794.881L8.40013 795.393C8.40013 795.393 8.50252 795.188 8.60496 794.881C8.91228 794.369 9.42452 793.447 10.244 792.321C11.4733 790.682 13.3173 788.634 16.0832 786.279C16.1856 786.279 16.1855 786.176 16.288 786.176C16.8002 785.767 17.3124 785.357 17.8246 784.845C20.5905 782.592 23.8686 779.929 26.6345 777.779C27.0443 777.472 27.5564 777.062 27.9662 776.755C30.2199 775.014 31.859 773.682 32.4736 773.273C32.576 773.17 32.6784 773.068 32.6784 773.068C32.6784 773.068 34.1126 772.761 36.1614 772.249C38.7224 771.532 42.103 770.508 45.0737 769.177C45.4835 768.152 45.8933 767.026 46.4055 765.9C46.8152 764.876 47.225 763.851 47.7372 762.827C48.0445 762.213 48.3518 761.496 48.6592 760.882C46.9177 761.598 45.381 762.213 43.9469 762.827C41.0785 763.954 39.1322 764.671 38.9273 764.773L41.5907 762.827L45.9957 759.448L46.2006 759.346L49.2738 757.093L51.4251 755.557C51.8348 754.84 52.2446 754.02 52.5519 753.304C53.3714 751.87 54.0885 750.436 54.7031 749.31C56.3421 746.34 57.469 744.394 57.469 744.394L61.3617 738.045C61.3617 737.84 61.3617 737.533 61.2593 737.328C61.2593 737.226 61.2593 737.226 61.2593 737.123C61.2593 737.123 61.2593 737.123 61.2593 737.021L61.1569 737.123C61.0544 737.123 60.952 737.226 60.952 737.226C60.8495 737.226 60.7471 737.226 60.7471 737.123C60.2349 736.714 60.3373 734.666 60.5422 732.105C60.5422 732.003 60.5422 731.901 60.5422 731.696C60.6446 730.672 60.8495 729.443 60.952 728.316C60.952 728.214 60.952 728.214 60.952 728.111C60.952 727.907 60.952 727.702 60.952 727.702L60.3373 728.214L59.5178 728.828L58.6983 731.593L58.5959 732.003L57.9812 733.846C57.9812 733.846 57.6739 735.178 57.2641 736.918C57.2641 736.918 57.2641 736.919 57.2641 737.021C56.3421 740.81 54.8056 746.75 53.5763 749.105C53.0641 750.027 52.6543 750.334 52.2446 749.617C52.2446 749.514 52.1421 749.412 52.1421 749.31C51.6299 750.539 51.3226 750.231 51.1177 749.002C50.9128 747.569 50.8104 744.804 50.9129 742.244C49.8884 745.623 48.7616 748.593 47.9421 747.876C47.225 747.262 48.1469 742.346 49.5811 736.509L46.4055 738.762C46.4055 738.762 44.1518 745.418 42.2054 748.798C41.7957 749.617 41.2835 750.231 40.9761 750.539C40.3615 751.051 40.259 750.231 40.3615 748.798C40.6688 745.623 42.3078 739.479 42.3078 739.479L35.0346 745.521C35.0346 745.521 34.4199 746.852 33.6004 748.593C32.9858 749.924 32.1662 751.358 31.3467 752.587C30.3223 754.123 29.2979 755.352 28.6833 755.352C27.9662 755.352 28.0687 754.123 28.6833 752.587C29.0931 751.358 29.8101 749.822 30.3223 748.593C30.937 747.364 31.4492 746.34 31.5516 746.238L29.5028 748.593L26.0198 752.484L25.3028 753.304C20.4881 760.472 14.5465 755.454 18.7466 752.894C18.9515 752.792 19.2588 752.587 19.5661 752.382C20.6929 751.563 22.1271 750.231 23.8686 748.593C29.4004 743.268 36.5712 735.382 36.5712 735.382C36.5712 735.382 37.2883 734.153 38.4151 732.208C38.62 731.901 38.8249 731.491 39.0297 731.081C39.6444 730.057 40.3615 728.931 41.0785 727.702C41.2834 727.395 41.4883 727.088 41.5907 726.78C42.3078 725.654 43.0249 724.527 43.742 723.298C44.0494 722.889 44.3566 722.377 44.664 721.967C46.2006 719.714 47.7372 717.564 49.0689 715.925C49.1713 715.823 49.2738 715.72 49.2738 715.618C51.0153 713.672 53.7811 712.238 56.7519 711.317L56.8544 710.907L59.4154 703.022C59.1081 703.022 58.9032 702.715 58.6983 702.407L52.0397 709.371L49.0689 706.401L47.3274 711.01L46.303 713.672L43.8444 715.72L42.2054 717.154V715.72L42.3078 711.214L42.4103 709.781C42.4103 709.781 41.7956 710.293 41.0785 711.317C40.3615 712.238 39.542 713.467 38.7224 715.208C38.62 715.413 38.5176 715.618 38.4151 715.72C36.6736 718.895 32.9858 719.509 32.9858 719.509L34.6248 715.618L36.4687 711.419L38.4151 706.811L35.2394 711.419L34.7272 712.136C33.3955 713.979 32.1663 715.004 31.0394 715.516C28.7857 716.744 27.3515 715.618 27.0442 715.413L28.376 711.624L30.4248 705.48C30.4248 705.48 35.2395 701.691 40.4639 698.516C42.7176 697.185 44.9713 695.956 46.9177 695.239C47.5323 695.034 48.2494 694.522 49.0689 693.908C50.0933 693.088 51.2201 691.962 52.5519 690.528C54.1909 688.787 56.0348 686.637 57.9812 684.282C59.4154 682.541 60.8495 680.595 62.3861 678.752C64.1276 676.499 65.8691 674.143 67.4057 671.993C68.5326 670.354 69.6594 668.818 70.6838 667.487V667.384C70.6838 666.463 70.6838 664.517 70.8887 662.264C71.0936 660.216 71.4009 657.963 71.9131 656.017C69.6594 657.348 66.6886 659.397 65.152 662.059C64.5374 663.083 64.1276 664.21 64.1276 665.439C64.1276 666.36 63.9228 666.975 63.513 667.487C61.5666 669.842 56.0349 668.511 53.4739 667.692C52.6543 667.487 52.2446 667.282 52.2446 667.282L55.0105 661.957L57.1617 657.861C57.1617 657.861 51.0153 660.318 48.6592 661.547C48.4543 661.65 48.2494 661.752 48.0445 661.854C45.8932 662.776 43.3322 662.674 43.3322 662.674C43.3322 662.674 43.5371 662.366 44.0493 661.957C45.7908 660.011 50.8104 654.788 54.2934 652.228C55.2153 651.614 56.0348 651.102 56.6495 650.897C57.7763 650.59 60.3373 647.313 63.4105 642.909C64.3325 641.68 65.152 640.349 66.074 638.915C66.2789 638.608 66.4837 638.301 66.6886 638.096C68.5325 635.229 70.4789 632.259 72.3228 629.289C72.6302 628.777 72.9375 628.367 73.2448 627.855C74.4741 625.91 75.7034 623.964 76.7278 622.325C77.0351 621.404 77.4449 620.482 77.8546 619.458C78.0595 619.151 78.162 618.741 78.3668 618.434C78.4693 618.229 78.4693 618.127 78.5717 618.024L79.801 612.904L80.3132 610.958L80.723 609.217L82.4645 599.796L82.5669 599.489L83.1815 596.109L84.1035 591.296L84.4108 589.965C84.4108 589.965 84.6157 590.477 84.8206 591.296C85.2303 592.423 85.7426 594.164 86.2548 596.212C86.5621 597.338 86.7669 598.465 86.9718 599.591C86.9718 599.694 86.9718 599.693 86.9718 599.693C87.2791 601.332 87.484 603.073 87.5865 604.609L97.3183 596.519C96.7037 596.519 95.9865 596.519 95.3719 596.417C92.5036 595.802 89.9426 593.754 90.045 591.399C90.045 589.862 91.2743 588.224 94.3475 586.893C96.1914 586.073 98.0353 585.664 99.7768 585.459C101.109 585.357 102.338 585.357 103.567 585.459C108.075 585.869 111.353 587.61 111.353 587.61C111.865 586.893 112.684 586.176 113.709 585.357C114.016 585.152 114.323 584.845 114.733 584.64C116.782 583.206 119.445 581.67 122.314 580.236C123.85 579.417 125.387 578.7 126.924 577.983C133.275 575.014 139.933 572.249 143.826 570.712C145.977 569.893 147.412 569.381 147.412 569.381C148.436 569.279 149.255 569.074 149.973 568.767C151.612 567.947 152.636 566.514 153.558 565.285C154.787 563.749 155.709 562.418 157.451 563.032C157.348 559.243 158.27 555.966 159.704 553.201C159.704 553.099 159.807 552.996 159.909 552.894C160.934 550.948 162.061 549.207 163.187 547.569C163.187 547.466 163.29 547.466 163.29 547.364C163.802 546.544 164.314 545.828 164.826 545.008C165.339 544.292 165.748 543.677 166.158 542.96C163.802 542.96 161.446 543.063 159.5 543.267C156.734 543.575 154.48 544.087 153.251 544.804C152.943 545.008 152.738 545.213 152.534 545.418C151.919 546.135 151.304 546.852 150.69 547.569C147.002 551.767 143.314 555.454 143.109 555.659L146.182 547.569L147.309 544.599L148.641 541.219L148.743 540.912L148.846 540.605L146.08 537.533C145.977 537.635 144.543 538.454 142.597 541.015C142.597 541.015 142.597 541.117 142.494 541.117C141.777 542.039 141.06 543.165 140.241 544.496C139.626 545.418 139.011 546.544 138.397 547.773C134.197 556.171 126.206 558.219 126.206 558.219L126.616 557.195L127.231 555.454L129.177 550.231L129.997 547.876L131.328 544.189L131.841 542.858L132.66 540.503C132.763 540.093 132.967 539.478 133.275 538.864L133.48 538.249L132.558 538.659L130.099 539.683L124.567 542.039C124.567 542.039 124.055 542.858 123.236 544.087C122.519 545.213 121.392 546.647 120.162 548.081C119.753 548.593 119.343 549.002 118.933 549.514C118.626 549.821 118.421 550.026 118.114 550.334C116.372 552.074 114.426 553.508 112.479 554.123C109.816 554.942 110.533 551.972 112.172 548.285C112.787 546.852 113.606 545.316 114.426 543.882C115.86 541.219 117.397 538.762 118.011 537.84C118.114 537.635 118.216 537.533 118.216 537.533L117.909 537.84L112.479 543.779L110.431 546.032C109.304 546.852 108.382 547.364 107.562 547.671C104.796 548.49 104.182 545.93 104.079 544.292C104.079 543.984 104.079 543.78 104.079 543.575C104.079 543.267 104.079 543.063 104.079 543.063L107.972 537.942L110.123 535.177L113.401 530.876L116.167 527.292L118.728 523.913L119.548 522.786L125.592 520.328L135.016 516.539L135.631 516.335L136.451 516.027L138.909 515.003L142.597 513.57L143.212 513.262C144.236 512.853 145.568 512.238 146.899 511.317C148.436 510.395 150.177 509.166 152.021 507.732C152.124 507.63 152.329 507.528 152.431 507.425C152.534 507.323 152.739 507.22 152.841 507.118C153.148 506.913 153.456 506.708 153.763 506.401C154.07 506.196 154.378 505.889 154.685 505.684C156.017 504.558 157.451 503.431 158.885 502.202C160.421 500.871 161.958 499.54 163.495 498.209C163.7 498.004 163.904 497.901 164.007 497.696C165.339 496.57 166.568 495.444 167.797 494.317C168.514 493.703 169.129 493.088 169.846 492.474C171.075 491.245 172.305 490.118 173.534 488.992C173.636 488.889 173.841 488.685 173.944 488.582C175.275 487.353 176.505 486.227 177.631 485.101C178.349 484.384 179.066 483.769 179.68 483.155C182.856 480.185 184.802 478.137 184.802 478.137C184.802 478.137 184.905 477.932 185.007 477.522C185.314 476.703 185.724 474.86 186.032 471.89L170.358 474.348L168.822 469.535L166.465 461.957L165.441 458.68L165.339 458.27C165.339 458.27 165.236 458.372 165.134 458.68C164.826 459.192 164.109 460.42 163.29 461.854C162.163 463.902 160.729 466.565 159.397 469.33C158.475 471.276 157.553 473.324 156.836 475.065C156.529 475.781 156.221 476.396 155.914 477.01C152.943 481.823 147.309 482.131 147.309 482.131L148.538 476.908L150.382 469.125L152.021 462.264C152.021 462.264 149.768 464.517 145.67 469.023C144.748 470.047 143.621 471.276 142.494 472.607C140.958 474.348 139.421 475.679 138.09 476.703C134.094 479.673 131.124 479.775 131.124 479.775L133.07 476.601L137.782 468.92L139.729 465.746C139.626 465.541 139.524 465.336 139.421 465.029C137.68 465.643 133.377 467.077 126.309 468.715C126.206 468.715 126.206 468.715 126.104 468.715C123.85 469.227 122.416 469.125 121.494 468.715C118.523 467.384 121.802 462.776 125.182 463.902C127.231 464.517 129.894 463.083 132.25 461.342C133.275 460.625 134.197 459.806 134.914 459.089C136.451 457.758 137.475 456.631 137.475 456.631C137.475 456.631 137.68 456.222 138.192 455.607C139.011 454.378 140.651 452.126 142.802 449.77C143.929 448.541 145.26 447.21 146.592 445.981C147.719 445.059 148.846 444.138 149.973 443.319C151.612 442.294 153.251 441.475 154.89 441.066C163.7 438.915 179.988 418.434 179.988 418.434C179.988 418.434 194.534 386.483 193.305 375.116C193.202 374.399 193.202 373.58 193.202 372.76C192.998 361.291 199.041 343.779 199.041 343.779L205.495 377.573L210.208 396.928C211.027 398.26 211.949 399.693 212.871 401.229C213.486 402.253 214.1 403.175 214.715 404.302C214.817 404.506 214.92 404.609 215.022 404.711C215.329 405.223 215.637 405.735 215.944 406.247C216.661 407.271 217.276 408.398 217.993 409.524C225.369 421.301 234.281 434.921 240.632 443.216C241.247 443.933 241.759 444.65 242.271 445.264C244.832 448.439 246.779 450.385 247.906 450.794C248.11 450.794 248.213 450.897 248.315 450.999C249.647 451.511 251.388 452.535 253.13 453.969C253.232 454.071 253.232 454.071 253.335 454.174C254.154 454.788 255.076 455.505 255.896 456.222C256.306 456.529 256.715 456.939 257.023 457.246C257.125 457.348 257.125 457.348 257.228 457.451C259.071 459.089 261.018 460.933 262.759 462.673C264.296 464.21 265.73 465.643 266.959 466.974C267.164 467.179 267.472 467.487 267.676 467.691C269.213 469.33 270.34 470.559 270.852 471.173C271.057 471.378 271.159 471.583 271.159 471.583C271.159 471.583 268.701 471.685 265.935 471.173C264.603 470.866 263.067 470.456 261.735 469.74C260.608 469.125 259.072 468.408 257.33 467.691C257.023 467.589 256.613 467.384 256.306 467.179C256.306 467.179 256.306 467.179 256.203 467.179C255.589 466.872 254.974 466.667 254.462 466.36C251.901 465.234 249.442 464.312 248.008 463.697C248.008 463.697 247.906 463.698 247.906 463.595C247.291 463.288 246.881 463.185 246.881 463.185L247.188 463.8L247.291 464.005L248.93 467.179L249.032 467.486L249.852 469.125L250.774 470.866V470.968L254.564 478.444L255.281 479.878C255.281 479.878 253.847 480.39 251.696 481.004C246.164 482.643 236.022 484.588 234.383 478.444C234.281 477.932 234.179 477.318 234.179 476.703C234.179 474.553 233.461 472.504 232.335 470.661C230.593 467.691 227.725 465.029 224.856 462.981C223.32 461.854 221.886 460.932 220.554 460.216C220.861 461.137 221.066 462.059 221.271 462.981C221.783 465.438 222.193 468.101 222.398 470.559C222.705 473.631 222.808 476.396 222.808 478.342C222.808 479.161 222.808 479.775 222.808 480.287C223.627 481.414 224.447 482.643 225.369 483.872C225.574 484.179 225.778 484.486 225.983 484.793C226.803 485.92 227.622 487.046 228.442 488.173C228.544 488.378 228.647 488.48 228.852 488.685C229.671 489.811 230.491 490.938 231.31 492.064C232.232 493.293 233.052 494.419 233.974 495.648C234.178 495.956 234.383 496.263 234.588 496.57C235.305 497.492 235.92 498.311 236.637 499.233C237.047 499.745 237.354 500.257 237.764 500.666C237.969 500.871 238.071 501.076 238.276 501.281C239.198 502.407 240.018 503.534 240.94 504.66C241.349 505.172 241.657 505.582 242.066 506.094C244.423 509.064 246.779 512.033 249.032 514.696C249.545 515.31 250.159 516.027 250.671 516.539C251.491 517.461 252.31 518.383 253.13 519.202C254.154 520.226 255.076 521.25 255.998 522.172C257.535 523.708 258.969 525.039 260.198 526.166C261.837 527.599 263.374 528.521 264.501 528.931C267.164 529.852 270.033 531.286 273.003 532.924C273.516 533.232 274.13 533.539 274.642 533.846C277.716 535.587 280.686 537.533 283.452 539.376C285.604 540.81 287.652 542.243 289.291 543.472C291.955 545.418 293.696 546.749 293.696 546.749L295.233 551.358L296.36 554.532L297.794 558.833L298.204 559.96L299.638 564.261C299.638 564.261 294.926 568.972 287.243 560.062C286.935 559.653 286.526 559.243 286.218 558.833C286.116 558.731 286.116 558.731 286.013 558.628L283.145 554.43L281.096 551.46L279.56 549.309L280.482 551.46L281.813 554.43L283.76 558.833L284.374 560.165L287.038 566.411L288.165 568.971L289.291 571.532C289.291 571.532 286.321 571.02 283.452 568.971C282.53 568.357 281.608 567.538 280.789 566.514C280.174 565.797 279.662 564.978 279.252 563.954C278.638 562.52 277.921 561.291 277.306 560.267C276.999 559.755 276.691 559.243 276.384 558.833C274.438 555.966 272.696 554.635 272.696 554.635L272.799 558.833V560.369L273.003 566.719V567.64L271.877 566.719L265.628 561.598L265.218 560.472L264.603 558.936L262.862 554.43L261.837 551.767L260.711 548.797L257.74 551.767L255.486 554.02L253.437 551.87L244.935 542.96L243.705 541.731C243.398 542.346 242.988 542.755 242.476 542.858V542.96L245.345 551.87L246.062 554.225L247.086 557.502C248.623 558.014 250.057 558.526 251.491 559.14C252.618 559.653 253.642 560.165 254.667 560.677C256.818 561.905 258.764 563.339 260.198 564.978C260.711 565.592 261.223 566.207 261.837 566.923C262.452 567.64 263.067 568.46 263.681 569.279C264.501 570.303 265.32 571.429 266.14 572.658C266.55 573.273 267.062 573.989 267.472 574.604C270.955 579.622 274.335 585.152 277.101 589.658C277.511 590.272 277.818 590.887 278.228 591.501C278.945 592.73 279.662 593.959 280.277 594.88C280.686 595.597 281.096 596.212 281.403 596.724C282.325 598.362 282.838 599.284 282.838 599.284C282.838 599.284 286.116 602.868 290.623 607.579C291.443 608.501 292.365 609.422 293.287 610.446C294.516 611.675 295.745 613.006 297.077 614.338C297.794 615.055 298.409 615.771 299.126 616.386C301.174 618.536 303.326 620.585 305.272 622.428C307.218 624.374 309.062 626.012 310.701 627.343C312.033 628.47 313.262 629.392 314.184 630.006C314.901 630.416 315.516 630.928 315.926 631.542C316.131 631.849 316.336 632.054 316.438 632.361C316.95 633.59 316.643 634.819 315.721 635.741C315.619 635.843 315.619 635.843 315.516 635.945C313.98 637.277 311.214 637.789 308.038 636.048C307.833 635.945 307.731 635.843 307.526 635.741C306.296 634.921 305.067 633.795 303.838 632.259C303.633 631.952 303.428 631.644 303.223 631.44C303.018 631.235 302.916 630.928 302.711 630.723L299.843 627.548L295.335 622.633L291.545 618.434C291.648 618.741 292.569 620.482 293.696 622.735C294.413 624.271 295.233 626.012 295.95 627.753C296.462 629.084 296.974 630.416 297.179 631.542C297.282 631.849 297.282 632.156 297.384 632.361C297.589 633.59 297.384 634.409 296.565 634.512C295.745 634.512 294.721 633.693 293.696 632.361C293.491 632.054 293.287 631.747 292.979 631.44C292.16 630.416 291.443 629.084 290.623 627.753C289.701 626.114 288.779 624.374 287.96 622.735C286.423 619.663 285.296 617.103 285.296 617.103L284.272 616.283L282.325 614.645L277.101 610.241L273.925 607.579L272.491 606.35C272.491 606.35 272.594 606.76 272.799 607.579C273.003 608.296 273.208 609.115 273.516 610.139C273.823 611.47 274.233 613.006 274.54 614.645C274.642 615.157 274.745 615.567 274.847 616.079C275.36 618.536 275.769 620.892 275.974 622.735C276.281 625.193 276.077 626.729 274.847 625.705C274.13 625.193 273.413 624.066 272.594 622.735C271.467 620.892 270.34 618.434 269.316 615.976C269.111 615.567 269.008 615.157 268.803 614.747C268.086 613.109 267.472 611.47 266.959 610.037C266.652 609.115 266.345 608.296 266.037 607.579C265.525 606.043 265.115 605.121 265.115 605.121L259.584 601.127C260.198 603.38 260.711 605.633 261.12 607.681C261.325 608.501 261.428 609.217 261.633 609.934C262.042 611.777 262.35 613.416 262.554 614.85C262.657 615.157 262.657 615.567 262.657 615.874C263.067 618.639 263.067 620.482 262.452 620.892C261.428 621.813 260.096 619.356 258.764 615.771C258.662 615.464 258.559 615.157 258.457 614.85C258.047 613.621 257.637 612.29 257.228 610.958C257.228 612.29 257.228 613.621 257.228 614.85C257.228 615.157 257.228 615.464 257.228 615.669C257.228 618.536 257.125 621.097 256.818 622.838C256.511 625.09 255.896 625.705 254.974 623.452C254.871 623.657 254.871 623.759 254.769 623.964C254.154 625.193 253.335 624.578 252.413 622.94C251.491 621.301 250.569 618.639 249.647 615.669C249.545 615.464 249.545 615.259 249.442 615.054C248.93 613.314 248.418 611.573 247.906 609.729C247.701 609.115 247.598 608.5 247.393 607.784C246.164 602.971 245.14 598.669 244.832 596.929C244.73 596.417 244.627 596.212 244.627 596.212L243.91 594.061L242.784 590.682L242.476 589.555L241.862 587.507L239.301 585.357C239.301 585.357 239.301 585.664 239.301 585.971C239.505 587.2 239.71 588.429 239.813 589.555C239.915 589.965 239.915 590.272 239.915 590.579C240.018 591.808 240.222 592.935 240.325 593.959C240.427 595.085 240.53 596.007 240.53 596.929C240.632 599.796 240.427 601.742 239.505 601.639C239.301 601.639 238.993 601.537 238.788 601.332C238.481 605.531 237.969 608.091 237.149 604.814C236.33 601.639 235.305 598.977 234.281 596.929C233.666 595.597 232.949 594.471 232.539 593.652C231.822 592.628 231.413 592.013 231.413 592.013L231.72 590.17L231.822 589.248L232.744 583.308C232.744 583.206 232.642 583.104 232.642 583.104L230.9 589.35L230.696 590.17L229.774 593.549L228.852 596.929L227.417 602.049C227.417 602.049 226.291 600.206 225.471 597.031C225.164 596.007 224.959 594.88 224.754 593.549C224.549 592.525 224.447 591.399 224.447 590.17C224.447 589.965 224.447 589.658 224.447 589.453C224.447 588.838 224.447 588.122 224.447 587.507C224.139 586.176 223.832 584.845 223.422 583.411C223.115 585.254 223.013 587.302 222.91 589.453C222.91 589.658 222.91 589.863 222.91 590.067C222.91 591.194 222.91 592.32 223.013 593.447C223.115 594.573 223.217 595.802 223.32 597.031C223.627 599.284 224.037 601.537 224.754 603.995L227.725 607.784L228.749 609.115L233.257 614.952L233.359 615.054L236.637 619.356L241.247 622.735L246.984 626.934L252.618 631.03L253.028 631.337L257.74 634.819L259.071 635.843L259.891 636.458L267.369 641.988L268.394 642.807L273.823 646.801L278.228 650.078C278.228 650.078 274.745 648.746 269.52 646.801C266.55 645.674 263.169 644.24 259.481 642.704C258.867 642.397 258.15 642.192 257.535 641.885C255.281 640.963 252.925 639.939 250.569 638.813C251.184 639.735 251.798 640.759 252.413 641.783C252.618 642.09 252.72 642.295 252.925 642.602C253.745 643.933 254.462 645.265 255.179 646.493C255.691 647.517 256.203 648.542 256.613 649.463C257.228 650.692 258.15 651.921 259.481 653.047C263.272 656.324 269.725 659.089 275.667 661.035C277.511 661.65 279.355 662.162 280.994 662.674C285.706 664.005 289.189 664.722 289.189 664.722C289.189 664.722 291.75 666.668 295.438 669.535C296.565 670.457 297.896 671.378 299.228 672.505C303.018 675.475 307.423 678.956 311.521 682.233C311.931 682.541 312.34 682.848 312.648 683.155C314.082 684.384 315.516 685.51 316.848 686.637C317.258 686.944 317.565 687.251 317.872 687.456C320.945 690.016 323.404 692.474 325.35 694.625C330.165 699.95 331.702 703.534 331.804 703.739L314.184 695.034L313.877 694.727L305.375 686.432L301.789 682.95L300.97 682.131L297.487 678.752L297.589 682.131V682.848L297.691 686.227L297.794 688.48L294.721 686.125L290.213 682.643L289.496 682.028L279.969 674.758C281.711 677.215 283.043 679.776 283.964 682.028C283.964 682.131 284.067 682.336 284.169 682.438C284.579 683.667 284.886 684.794 285.091 685.818C286.116 691.45 283.555 693.703 278.433 685.715C278.228 685.305 277.921 684.998 277.716 684.589C277.203 683.769 276.589 682.95 275.872 682.233C275.769 682.131 275.667 682.029 275.564 681.926C273.925 680.492 271.774 679.468 269.418 678.752C269.623 679.776 269.93 680.902 270.033 682.028C270.033 682.131 270.033 682.131 270.033 682.233C270.237 683.36 270.34 684.486 270.442 685.613C270.75 688.685 270.75 691.552 270.442 693.908L271.159 694.215L276.691 696.775C276.691 696.775 277.921 699.54 278.842 702.715C278.842 702.817 278.842 702.817 278.945 702.919C279.252 704.148 279.56 705.48 279.662 706.708C279.764 707.118 279.764 707.528 279.764 707.937C279.764 708.654 279.969 709.166 280.174 709.576C281.608 712.136 286.526 710.19 286.526 710.19C286.526 710.19 294.004 711.214 298.204 713.365C298.613 713.57 298.921 713.775 299.228 713.979C299.74 714.287 300.15 714.594 300.355 714.901C299.945 714.491 299.74 714.184 299.535 713.979C299.126 713.365 299.433 713.467 300.252 713.979C301.174 714.594 302.814 715.823 304.76 717.359C304.965 717.564 305.272 717.768 305.477 717.973C305.477 717.768 305.579 717.564 305.579 717.359C305.989 715.618 306.399 714.389 306.399 714.389L306.911 717.256L307.014 717.973C309.062 717.666 310.906 717.871 312.443 718.28C315.106 718.997 316.848 720.124 316.848 720.124C317.258 719.509 317.667 718.895 318.384 718.178C318.692 717.871 319.102 717.461 319.511 717.052C320.741 715.925 322.175 714.799 323.814 713.672C323.814 713.672 323.814 713.672 323.916 713.57C325.555 712.443 327.297 711.317 329.141 710.19C330.882 709.064 332.726 708.04 334.468 707.016C341.126 703.227 346.965 700.462 346.965 700.462C350.96 700.154 351.985 695.034 353.726 693.703C354.239 693.396 354.648 693.293 355.365 693.498C355.263 690.938 355.57 688.583 356.082 686.432C356.39 685.203 356.697 684.077 357.107 683.053C357.312 682.541 357.517 682.028 357.722 681.516C359.156 678.239 360.897 675.372 362.229 672.607C362.331 672.402 362.331 672.3 362.434 672.095C359.975 672.095 357.722 672.198 355.775 672.607C353.521 673.017 351.78 673.734 351.063 674.758C349.424 677.215 347.682 679.673 346.351 681.619C345.941 682.131 345.634 682.541 345.326 683.053C344.199 684.589 343.38 685.613 343.277 685.818L344.097 683.053L344.507 681.619L347.273 672.505L348.092 669.74L347.273 668.613L345.736 666.36C345.736 666.36 344.916 666.872 343.79 668.613C343.175 669.535 342.355 670.764 341.536 672.402C340.819 673.734 340.102 675.372 339.385 677.318C338.77 678.956 338.053 680.39 337.233 681.516C336.926 681.926 336.619 682.438 336.311 682.848C335.185 684.281 334.058 685.408 333.033 686.227C330.882 687.968 329.243 688.48 329.243 688.48L329.96 686.125L330.985 682.745L331.292 681.516L333.955 672.197L334.672 669.535C334.672 669.228 334.775 668.92 334.877 668.511C334.98 668.204 335.082 667.999 335.185 667.692L335.39 666.975L332.624 668.511L328.014 670.969C328.014 670.969 327.809 671.378 327.502 671.993C326.477 673.938 324.121 678.444 321.253 681.312C320.843 681.721 320.536 682.029 320.126 682.336C319.409 682.95 318.589 683.462 317.872 683.769C316.643 684.282 316.336 683.565 316.438 682.233C316.438 681.926 316.541 681.619 316.541 681.209C317.053 678.752 318.589 674.962 319.921 671.788C320.433 670.559 321.048 669.33 321.458 668.408C322.072 667.077 322.482 666.258 322.585 666.053L320.945 668.408L318.589 671.788L316.131 675.27C310.292 680.902 310.804 672.197 310.804 672.197L311.111 671.788L312.955 668.613L316.643 662.366L317.565 660.728L322.994 651.409L323.609 650.385L330.37 646.903L338.155 642.909L339.18 642.397L343.482 640.144C345.941 639.018 349.629 635.638 353.829 631.337C354.034 631.132 354.341 630.825 354.546 630.62C356.082 629.084 357.517 627.446 359.053 625.705C360.487 624.066 362.024 622.325 363.458 620.687C365.097 618.741 366.736 616.898 368.273 615.054C368.785 614.542 369.195 613.928 369.605 613.416C371.039 611.675 372.473 609.934 373.6 608.501C374.112 607.886 374.522 607.374 374.932 606.862C376.98 604.302 378.21 602.766 378.21 602.766C378.21 602.766 378.619 601.332 379.029 598.055V597.953C379.132 597.441 379.132 596.724 379.234 596.109L369.4 598.055L368.58 598.26L366.224 598.772L366.122 598.362V598.157L364.483 591.296L363.663 588.122L362.126 581.67C362.024 581.875 360.795 584.64 359.361 588.122C358.951 589.043 358.541 590.17 358.131 591.194C357.722 592.32 357.209 593.447 356.8 594.573C356.8 594.573 356.8 594.573 356.8 594.676C356.39 595.905 355.98 597.031 355.57 598.157C355.57 598.26 355.57 598.26 355.468 598.362C355.365 598.772 355.263 599.182 355.058 599.489C353.624 604.507 350.141 606.248 348.297 606.76C347.58 606.964 347.068 607.067 347.068 607.067L347.17 606.76L348.707 598.362V598.157L349.321 594.676V594.471L349.936 591.091L350.448 588.122L350.858 585.869C350.858 585.869 350.243 586.586 349.219 588.122C348.604 588.941 347.887 589.863 347.068 591.091C346.351 592.116 345.531 593.242 344.712 594.471C344.609 594.573 344.609 594.676 344.507 594.778C343.995 595.495 343.585 596.212 342.97 596.929C342.663 597.441 342.355 597.85 341.946 598.26C341.843 598.362 341.843 598.465 341.741 598.465C337.233 604.302 333.443 604.507 333.443 604.507L336.311 598.567L336.414 598.26L338.053 594.778L338.258 594.266L339.897 590.887L340.614 589.453C340.512 589.248 340.409 588.941 340.409 588.634C339.487 589.043 337.746 589.863 335.082 590.784C333.546 591.296 331.702 591.911 329.448 592.628C325.658 593.754 324.326 592.32 324.531 590.682C324.633 589.76 325.145 588.736 325.965 588.019C326.682 587.405 327.604 587.097 328.628 587.405C331.394 588.429 335.594 583.82 337.643 581.26C337.746 581.158 337.848 581.056 337.951 580.953C338.565 580.134 338.975 579.622 338.975 579.622C338.975 579.622 340.307 576.857 342.458 573.58C343.175 572.556 343.892 571.429 344.712 570.405C345.634 569.176 346.556 568.05 347.58 567.026C348.399 566.207 349.219 565.387 350.141 564.773C351.268 563.954 352.292 563.339 353.419 563.032C355.263 562.418 357.517 560.677 359.873 558.219C359.975 558.116 360.078 558.014 360.18 557.912C361.512 556.478 362.946 554.839 364.278 553.201C365.2 552.074 366.122 550.846 366.941 549.719C368.99 547.057 370.731 544.394 372.063 542.448C373.497 540.298 374.317 538.966 374.317 538.966C374.317 538.966 374.419 538.557 374.727 537.737C375.034 536.816 375.546 535.382 376.161 533.539C376.468 532.72 376.673 531.9 376.98 530.979C377.39 529.852 377.8 528.623 378.21 527.292C378.414 526.78 378.517 526.268 378.722 525.756C379.132 524.527 379.439 523.298 379.849 521.967C380.361 520.124 380.975 518.28 381.488 516.335C381.693 515.515 381.897 514.798 382.102 513.979C382.41 512.853 382.717 511.726 382.922 510.6C383.024 510.292 383.024 509.985 383.127 509.678C383.639 507.425 384.151 505.275 384.561 503.124C384.663 502.817 384.663 502.612 384.663 502.305C385.073 500.154 385.278 498.106 385.483 496.263C385.585 494.931 385.585 493.805 385.483 492.781C385.38 491.962 385.38 491.04 385.38 490.118C385.38 488.992 385.38 487.865 385.483 486.739C385.483 486.432 385.483 486.125 385.585 485.817C385.585 485.305 385.688 484.896 385.688 484.384C385.893 481.721 386.302 478.854 386.712 476.191C387.019 474.553 387.224 473.016 387.532 471.48C387.737 470.252 388.044 469.125 388.249 468.101C388.351 467.794 388.351 467.487 388.454 467.179C389.068 464.619 389.58 462.469 389.888 461.137C390.195 460.113 390.298 459.601 390.298 459.601L390.502 461.137L391.424 467.282L391.629 468.306L392.141 471.685L392.859 476.396L393.985 483.769L394.293 486.022L394.395 486.944L394.907 490.323L395.727 495.751L395.932 496.672L397.059 502.612L397.161 503.329L398.39 509.883L398.595 510.907L399.21 514.286L399.62 516.437C399.62 516.539 399.722 516.642 399.722 516.744C400.542 518.485 401.464 520.431 402.488 522.479C403 523.605 403.615 524.732 404.127 525.858C404.844 527.394 405.664 529.033 406.483 530.671C406.586 530.876 406.688 531.081 406.79 531.286C407.303 532.208 407.712 533.129 408.225 534.153C408.839 535.485 409.556 536.816 410.171 538.147C410.888 539.581 411.605 541.117 412.425 542.551C413.756 545.111 414.986 547.671 416.317 550.129C416.932 551.255 417.444 552.382 418.059 553.406C418.981 555.147 419.903 556.888 420.825 558.526V558.628C422.361 561.291 423.693 563.851 425.025 566.002C425.332 566.514 425.639 567.026 425.947 567.435C426.766 568.767 427.483 569.893 428.2 570.815C429.532 572.761 430.557 573.887 431.274 574.194C431.479 574.297 431.786 574.399 431.991 574.604C433.937 575.73 436.498 578.291 439.162 581.26C439.469 581.568 439.674 581.875 439.981 582.182C441.825 584.333 443.771 586.688 445.41 588.838C446.435 590.17 447.357 591.399 448.176 592.525C448.279 592.627 448.279 592.628 448.381 592.73C448.381 592.628 448.484 592.627 448.484 592.525C449.098 591.296 449.713 590.17 450.328 588.941C451.454 586.688 452.581 584.435 453.606 582.182C453.708 581.875 453.913 581.568 454.118 581.26C455.04 579.417 455.859 577.676 456.576 576.14C456.679 575.628 456.884 575.116 456.986 574.604C457.293 573.375 457.806 572.146 458.318 570.917C458.318 570.815 458.42 570.713 458.42 570.61L459.035 567.538L459.342 566.207L460.674 559.243L460.776 558.731V558.526L461.494 553.406L462.006 550.231L463.235 542.141L463.85 538.249L464.055 537.021L464.464 534.46C464.464 534.46 464.772 535.485 465.181 537.225C465.284 537.533 465.386 537.942 465.489 538.352C465.796 539.478 466.001 540.81 466.308 542.243C466.82 544.701 467.333 547.569 467.538 550.334C467.64 551.358 467.742 552.382 467.742 553.406L470.611 550.334L477.474 542.96C476.347 543.063 475.118 542.755 473.991 542.141C472.455 541.322 471.123 539.888 470.508 538.249C470.406 538.045 470.406 537.84 470.303 537.737C469.996 536.611 470.099 535.485 470.611 534.358C471.02 533.334 471.84 532.412 473.172 531.491C473.582 531.183 473.991 530.876 474.503 530.671C483.313 525.858 491.509 531.491 491.509 531.491C492.533 529.75 494.684 527.702 497.348 525.654C498.679 524.629 500.011 523.605 501.548 522.581C504.416 520.636 507.489 518.69 510.562 516.949C512.304 515.925 514.148 514.901 515.787 513.979C522.241 510.395 527.465 507.937 527.465 507.937C528.387 507.835 529.207 507.63 529.924 507.118C530.333 506.913 530.641 506.606 530.948 506.401C533.919 503.636 534.738 498.311 537.607 499.642C537.607 498.823 537.607 497.901 537.607 497.184C537.709 495.136 538.016 493.191 538.426 491.45C538.734 490.221 539.041 489.094 539.451 488.07C539.655 487.558 539.758 487.149 539.963 486.637C540.782 484.588 541.704 482.745 542.626 481.004C542.831 480.697 542.934 480.39 543.138 480.083C543.753 478.956 544.368 477.83 544.88 476.703C545.392 475.781 545.802 474.962 546.212 474.041C540.27 474.041 535.046 474.655 532.997 476.703C532.792 476.908 532.69 477.01 532.587 477.215C531.972 478.137 531.358 479.161 530.641 480.083C530.436 480.39 530.231 480.697 530.026 481.004C528.592 483.052 527.158 484.998 526.031 486.637C525.621 487.149 525.314 487.558 525.007 487.968C523.982 489.402 523.265 490.323 523.06 490.426L523.777 487.968L524.187 486.637L525.826 481.107L526.133 480.185L527.158 476.805L528.387 472.914L528.797 471.378L528.285 470.661L527.465 469.535L526.441 468.101L526.031 467.486C526.031 467.486 525.724 467.691 525.314 468.101C525.007 468.408 524.597 468.92 524.085 469.535C523.777 469.944 523.367 470.456 522.958 471.071C522.65 471.583 522.241 472.197 521.831 472.914C521.216 474.041 520.602 475.269 519.885 476.805C519.372 477.83 518.963 478.956 518.45 480.185C518.45 480.287 518.348 480.39 518.348 480.492C518.245 480.697 518.143 480.902 518.041 481.107C517.119 483.257 516.094 485.101 514.967 486.637C514.66 487.149 514.25 487.558 513.943 487.968C512.714 489.402 511.587 490.528 510.46 491.347C508.001 493.293 506.157 493.907 506.157 493.907L506.875 491.347L507.899 487.968L508.309 486.637L509.948 481.107L510.255 480.185L511.28 476.805L512.406 472.914L512.714 471.992L512.919 471.276C513.021 470.764 513.123 470.149 513.431 469.432C513.431 469.33 513.533 469.227 513.533 469.125L513.738 468.306L511.587 469.432L505.85 472.504L505.338 472.812L504.826 473.119C504.826 473.119 504.109 474.655 502.982 476.703C502.367 477.727 501.753 478.854 500.933 480.083C500.728 480.39 500.523 480.697 500.318 481.004C498.987 483.052 497.45 484.998 495.811 486.534C495.299 487.046 494.787 487.353 494.274 487.763C493.762 488.07 493.25 488.377 492.738 488.582C491.611 488.992 491.099 488.685 490.996 487.661C490.996 487.353 490.996 486.944 490.996 486.432C491.201 484.998 491.713 483.052 492.533 480.902C492.635 480.595 492.738 480.287 492.84 480.083C493.25 478.956 493.762 477.83 494.172 476.703C494.582 475.577 495.094 474.553 495.504 473.529C495.606 473.324 495.709 473.017 495.811 472.812C496.426 471.48 496.938 470.354 497.348 469.432C497.655 468.92 497.86 468.408 498.065 468.101C498.27 467.691 498.372 467.487 498.372 467.384L497.86 468.101L496.938 469.432L494.582 472.812L493.967 473.631L491.816 476.601L490.689 478.239C489.87 479.058 489.152 479.571 488.435 479.98C487.104 480.799 486.182 480.595 485.567 479.98C484.85 479.263 484.543 477.83 484.338 476.601C484.235 475.474 484.235 474.553 484.235 474.553L485.26 472.709L487.308 469.33L488.128 467.999L491.713 461.854L495.196 455.915L498.884 449.565L499.601 448.336L500.523 447.927L507.079 444.547L510.255 442.909L523.47 436.15C534.021 431.132 565.163 391.296 565.163 391.296C565.163 391.296 565.88 388.941 566.392 383.308L550.719 386.38L545.699 365.899C545.699 365.899 539.758 378.802 537.299 387.405C534.841 395.904 527.67 396.416 527.67 396.416L532.382 371.019C532.382 371.019 528.899 375.423 522.958 384.23C516.914 393.037 511.587 393.446 511.587 393.446L520.192 375.423C520.089 375.116 519.987 374.808 519.885 374.501C518.143 375.32 513.841 377.164 506.772 379.212C497.04 382.079 501.24 371.327 505.748 373.068C510.255 374.809 518.041 363.851 518.041 363.851C518.041 363.851 526.543 346.544 535.353 343.779C544.163 341.014 560.451 314.798 560.451 314.798C560.451 314.798 574.997 273.835 573.768 259.294C572.539 244.752 579.402 219.253 579.402 219.253L585.856 262.571L590.568 287.353C601.222 309.473 623.247 354.43 628.369 356.478C628.471 356.478 628.676 356.58 628.779 356.683L633.491 333.846C633.491 333.846 650.906 311.419 662.584 304.455C670.677 299.642 691.882 252.842 704.277 224.271C704.277 219.458 704.379 202.97 706.531 191.193C701.101 196.416 692.906 206.247 692.804 218.433C692.701 236.764 671.701 223.554 671.701 223.554L680.306 196.211C680.306 196.211 669.447 203.277 665.35 206.861C661.252 210.446 655.925 209.934 655.925 209.934C655.925 209.934 672.623 179.314 679.384 175.935C684.506 173.375 706.531 115.617 717.185 87.1481L722.409 55.7093L728.863 0C728.863 0 735.829 32.8726 734.497 51.5106C733.268 70.1486 747.814 122.786 747.814 122.786C747.814 122.786 764.102 156.477 772.912 160.062C777.317 161.803 781.722 168.357 784.898 174.399V211.572C779.058 200.717 775.78 195.187 775.78 195.187L780.493 227.855C780.493 227.855 773.322 227.138 770.863 216.283C768.405 205.325 762.463 188.633 762.463 188.633L757.444 214.952L741.77 210.958C742.282 218.229 742.999 221.301 742.999 221.301C742.999 221.301 774.141 272.504 784.693 278.853L785 278.956V322.786C783.361 319.816 782.337 318.894 782.337 318.894L779.571 324.015L785 347.159V348.08C783.771 346.032 779.468 338.864 775.883 331.695C774.346 328.623 768.712 327.599 762.258 327.599C765.434 336.713 771.171 345.827 770.863 360.676C774.551 358.526 774.858 370.712 780.902 371.327C780.902 371.327 782.541 372.351 785 373.989V433.897L783.054 441.27C783.054 441.27 779.878 422.223 776.395 416.488C772.912 410.856 769.327 410.446 769.327 410.446L767.073 416.59L767.688 420.891C774.244 425.193 777.932 436.15 779.776 443.421C779.776 443.523 779.878 443.728 779.878 443.831C780.493 446.493 780.902 448.644 781.107 449.77C781.21 450.282 781.21 450.589 781.21 450.589L781.107 453.354L781.005 456.324C782.337 457.143 783.566 457.86 784.898 458.68V834H53.5763L53.8836 832.771C53.6787 832.976 53.0641 833.386 52.2446 834H26.1223L28.1711 831.235C26.9418 831.338 25.9174 831.03 25.3028 830.518C24.7906 830.109 24.3808 829.392 24.1759 828.675C23.8686 829.187 23.5613 829.801 23.254 830.518C23.1515 830.723 23.1515 830.928 23.0491 831.133C22.7418 832.054 22.5369 832.976 22.332 834H17.9271C18.1319 832.976 18.3368 831.952 18.6442 831.03C18.6442 830.825 18.7466 830.723 18.7466 830.518C19.2588 828.47 19.771 826.934 19.771 826.729L17.1076 830.518L16.8002 831.03L14.649 834H1.19685e-05C2.2537 830.518 4.20004 827.651 4.20004 827.651ZM475.221 634.205C475.221 634.205 474.811 634.409 474.299 634.819C474.606 635.126 474.811 635.536 475.221 635.945V634.205ZM642.506 558.424C642.608 559.038 642.71 559.653 642.813 560.165C642.915 559.55 643.018 559.038 643.223 558.424C643.632 556.58 644.145 554.737 644.759 552.791L643.018 551.153L641.584 552.894C641.891 554.942 642.198 556.785 642.506 558.424ZM626.013 543.267L625.91 542.96L625.398 540.707L624.578 537.225L624.476 536.816L623.247 531.9L620.686 529.238C620.686 529.238 620.686 529.545 620.686 530.057C620.993 532.412 621.198 534.768 621.403 536.918C621.403 537.021 621.403 537.123 621.403 537.225C621.505 538.454 621.608 539.581 621.71 540.707C621.71 541.527 621.813 542.243 621.813 542.96C621.915 544.599 621.915 546.032 621.813 547.261C621.813 547.978 621.71 548.593 621.608 549.105C621.608 549.31 621.505 549.514 621.505 549.617C621.3 550.129 621.096 550.334 620.788 550.334C620.583 550.334 620.378 550.129 620.071 549.924C620.071 550.641 619.969 551.358 619.969 551.972C620.583 551.153 621.198 550.436 621.813 549.617C621.915 549.412 622.12 549.31 622.222 549.105C622.735 548.49 623.247 547.773 623.759 547.159C624.579 546.135 625.296 545.111 626.115 544.189C626.115 543.575 626.013 543.267 626.013 543.267ZM653.672 490.733L653.774 494.215L653.876 496.058L653.979 499.13L656.54 496.058L657.359 495.034C657.257 494.829 657.155 494.624 656.95 494.317C656.028 492.781 655.311 491.552 654.696 490.835C654.081 490.016 653.672 489.606 653.672 489.606V490.733ZM660.637 482.847L661.047 484.076L661.559 485.51L662.584 488.48L663.301 487.661L662.174 485.51L661.355 484.076L660.637 482.847ZM642.813 454.686C643.837 455.71 644.862 456.427 645.681 456.734C646.603 457.143 647.628 457.655 648.652 458.27C649.676 458.884 650.701 459.499 651.725 460.216C651.725 459.601 651.828 459.089 651.828 458.372C651.93 457.348 652.032 456.119 652.135 454.891C652.237 453.969 652.34 453.15 652.442 452.228C652.647 450.589 652.852 448.848 653.057 447.21C653.262 445.981 653.364 444.855 653.569 443.626C653.569 443.523 653.569 443.421 653.569 443.319C654.389 437.277 655.208 432.259 655.208 432.259L647.115 443.319L647.013 443.421L644.452 446.903L642.301 449.873C642.301 449.873 642.096 450.794 641.584 452.33C641.481 452.638 641.379 452.945 641.379 453.252C641.891 453.764 642.403 454.276 642.813 454.686ZM618.432 553.201C618.33 552.996 618.33 552.689 618.227 552.484C618.022 551.46 617.715 550.436 617.408 549.514C617.408 549.412 617.305 549.207 617.305 549.105C617.1 548.49 616.998 547.978 616.793 547.364C616.281 545.623 615.666 544.189 615.154 542.96C614.744 542.039 614.437 541.219 614.13 540.605C613.412 539.069 612.9 538.352 612.9 538.352L614.232 527.19C614.232 527.087 614.13 526.985 614.13 526.882L611.159 540.503L610.647 542.858L609.622 547.466L609.315 548.9L609.212 549.105L608.803 551.05C608.803 551.05 608.495 550.333 607.983 549.002L607.881 548.797C607.778 548.388 607.573 547.978 607.471 547.466C607.061 546.237 606.754 544.599 606.344 542.755C606.242 541.936 606.037 541.117 605.934 540.298C605.729 538.352 605.525 536.201 605.525 533.846C605.525 533.744 605.525 533.641 605.525 533.539C605.525 533.129 605.525 532.72 605.525 532.208C605.217 530.569 604.91 528.828 604.5 526.985C604.295 529.033 604.09 531.183 603.988 533.436V533.744C603.886 535.792 603.988 537.942 604.09 540.195C604.09 541.014 604.193 541.834 604.295 542.653C604.398 544.189 604.603 545.725 604.808 547.364C604.91 547.773 604.91 548.183 605.012 548.593V548.695C605.217 549.822 605.422 550.846 605.627 551.972C605.729 552.382 605.832 552.791 605.832 553.303C605.832 553.303 605.832 553.303 605.832 553.406L608.495 557.809L610.032 560.369L611.569 562.827C612.183 562.008 612.798 561.189 613.413 560.369C614.027 559.55 614.642 558.731 615.256 557.912C616.281 556.58 617.305 555.249 618.33 553.918C618.535 553.815 618.432 553.508 618.432 553.201ZM648.14 338.352L641.584 353.713C639.535 358.116 637.588 360.984 635.949 362.724C637.384 364.261 638.92 366.002 640.354 367.742L648.14 338.352ZM683.891 325.551L672.111 345.827L666.886 337.328L661.969 358.321L654.696 368.357L655.106 346.954C655.106 346.954 651.418 351.972 648.55 362.417C647.32 366.821 645.374 369.688 643.53 371.531C648.345 377.676 652.34 383.308 652.34 383.308C652.34 383.308 647.013 383.718 642.915 380.85C638.818 377.983 627.959 372.556 627.959 372.556L636.564 393.856C636.564 393.856 615.666 404.097 615.461 389.862C615.359 380.338 607.266 372.76 601.734 368.664C603.886 377.778 603.988 390.579 603.988 394.368C611.876 408.5 623.247 428.367 632.671 441.885C639.227 430.722 644.759 420.687 644.759 420.687C644.759 420.687 657.974 381.772 667.296 363.851C670.267 358.116 675.184 354.225 680.511 351.562L685.121 327.394C684.609 327.189 684.199 326.575 683.891 325.551ZM676.618 486.739C676.618 486.637 676.721 486.432 676.721 486.329C676.618 486.329 676.618 486.432 676.516 486.432L676.618 486.739ZM676.413 471.685L681.433 465.643L681.535 465.541L683.687 462.981L684.506 462.059L686.657 459.499L689.423 456.119L690.755 454.481L691.984 451.818L693.828 447.824L695.16 444.957L695.877 443.421L702.536 429.289C704.687 415.976 704.789 404.609 703.97 395.187C703.662 397.44 703.355 399.693 702.945 401.844C703.355 416.488 699.975 426.012 699.975 426.012L694.648 394.88C694.648 394.983 694.545 395.085 694.545 395.29L695.877 409.627C695.877 409.627 692.189 417.307 690.14 430.518C689.321 435.843 688.809 431.644 688.501 424.783C688.296 425.09 688.091 425.193 687.784 425.295C685.94 425.5 686.76 412.392 687.989 399.284C687.989 398.669 687.989 398.26 687.989 398.26L685.428 401.741L682.662 416.283C682.662 416.283 680.716 430.825 678.462 443.728C678.36 444.035 678.36 444.343 678.257 444.752C678.052 445.981 677.847 447.108 677.643 448.336C677.438 449.668 677.13 450.897 676.925 452.125C676.618 453.559 676.311 454.891 676.004 456.119C675.696 457.451 675.389 458.577 675.082 459.499C674.569 461.24 674.057 462.366 673.647 462.878C673.443 463.185 673.135 463.185 672.93 462.878C672.725 462.673 672.623 462.366 672.521 461.957C672.418 461.752 672.418 461.445 672.316 461.137C672.111 461.957 671.906 462.469 671.701 462.878C671.291 463.697 671.086 463.697 670.779 462.878C670.574 462.161 670.369 460.932 670.267 459.294C670.164 458.27 670.164 457.143 670.062 455.812C670.062 454.686 669.96 453.457 669.96 452.228C669.96 450.897 669.96 449.463 669.96 448.029C669.96 446.903 669.96 445.674 669.96 444.445C669.96 444.24 669.96 443.933 669.96 443.728C669.96 442.704 669.96 441.578 669.96 440.554C669.755 441.68 669.55 442.704 669.345 443.728C669.345 443.933 669.242 444.24 669.242 444.445C669.038 445.674 668.73 446.903 668.525 448.029C668.218 449.565 667.808 450.999 667.501 452.33C667.091 453.764 666.681 454.89 666.374 455.812C665.759 457.143 665.247 457.553 664.735 456.939C664.53 456.734 664.428 456.324 664.428 455.71C664.325 454.89 664.325 453.764 664.325 452.433C664.325 451.204 664.428 449.668 664.633 448.029C664.735 446.903 664.838 445.776 664.94 444.445C664.94 444.24 664.94 444.035 665.042 443.831C665.657 438.301 666.579 431.542 667.603 424.168L662.072 430.825C662.072 430.825 660.842 436.867 659.203 443.831C659.203 443.933 659.101 444.138 659.101 444.24C658.794 445.367 658.486 446.596 658.179 447.722C657.769 449.361 657.359 450.999 656.95 452.535C656.642 453.559 656.437 454.481 656.13 455.403C655.72 456.631 655.413 457.758 655.003 458.884C654.593 460.216 654.184 461.342 653.774 462.264C654.286 462.571 654.798 462.981 655.208 463.288C655.618 463.595 655.925 463.8 656.335 464.107C659.818 466.77 663.301 469.637 666.169 472.197C668.321 474.143 670.267 475.884 671.701 477.318L676.413 471.685ZM670.779 503.943C670.882 503.738 670.882 503.534 670.984 503.329C671.189 502.51 671.394 501.69 671.701 500.974C671.189 500.462 670.677 499.847 670.062 499.233C669.345 498.311 668.525 497.185 667.603 495.853C667.399 495.546 667.296 495.239 667.091 495.034L666.989 494.829L666.477 493.907C666.067 494.215 665.555 494.522 665.145 494.829C664.94 494.932 664.838 495.034 664.633 495.136L664.94 495.956L666.067 499.437L667.399 503.329L669.038 508.142C669.857 506.606 670.369 505.275 670.779 503.943ZM664.325 513.979C665.555 512.75 666.681 511.521 667.603 510.19C665.452 509.064 662.481 506.913 660.74 502.817C660.535 502.407 660.33 501.998 660.228 501.486C659.92 500.666 659.716 499.949 659.408 499.335C659.306 499.028 659.203 498.823 659.101 498.618C658.691 498.925 658.281 499.13 657.872 499.437C656.437 500.359 655.106 501.178 653.979 501.895V502.714L654.081 506.196L651.52 503.431C650.086 504.353 649.164 504.865 649.164 504.865L650.906 502.817L650.701 502.612L647.935 499.745L646.706 498.516L646.091 496.365L645.374 494.01L644.349 490.528L643.735 488.48L642.71 485.101L642.506 484.384L641.788 482.131L640.047 484.384L639.535 484.998L636.871 488.377L636.564 488.787L636.257 488.377L633.696 484.896L633.286 484.384L628.471 477.932L624.783 472.914C624.579 473.221 624.476 473.528 624.271 473.733C624.066 474.143 623.861 474.553 623.657 474.962L624.374 477.83L626.013 484.384L626.115 484.691L626.935 488.07L627.447 489.914L628.164 492.986C628.471 493.088 628.779 493.293 629.086 493.395C631.135 494.215 632.979 495.239 634.823 496.365C636.359 497.389 637.793 498.516 639.023 499.745C639.74 500.461 640.457 501.281 641.071 502.202C641.174 502.305 641.276 502.51 641.379 502.612C642.403 504.148 643.428 505.889 644.554 507.732C644.759 508.04 644.862 508.244 645.067 508.552C645.989 510.088 646.91 511.726 647.73 513.365C648.14 514.082 648.447 514.798 648.857 515.515C649.779 517.256 650.701 518.895 651.52 520.636C651.828 521.25 652.135 521.864 652.442 522.376C653.467 521.762 654.593 521.148 655.618 520.431C658.179 518.792 660.74 517.051 662.994 515.003C663.506 514.798 663.916 514.389 664.325 513.979ZM656.233 570.815C656.335 571.429 656.437 572.044 656.54 572.658C656.54 572.044 656.54 571.429 656.54 570.815C656.54 568.972 656.642 567.026 656.745 564.978C656.847 563.749 656.847 562.52 656.95 561.291C657.052 560.779 657.052 560.267 657.052 559.755L656.028 558.731L653.467 556.068C653.467 556.068 653.672 557.092 653.979 558.731C654.081 559.448 654.286 560.369 654.491 561.291C654.696 562.417 654.901 563.646 655.208 564.978C655.618 566.821 655.925 568.869 656.233 570.815ZM647.73 597.031C647.73 596.724 647.832 596.416 647.832 596.109C648.14 593.856 648.447 591.603 648.857 589.555C648.959 589.146 649.062 588.736 649.062 588.326C649.779 584.845 650.496 582.284 650.496 582.284L653.159 580.236L654.696 579.11C654.491 578.803 654.286 578.393 654.184 578.086C653.159 576.14 652.135 573.477 651.213 570.61C650.598 568.767 649.984 566.821 649.369 564.978C649.267 564.568 649.062 564.158 648.959 563.646C648.754 564.056 648.55 564.568 648.447 564.978C647.423 567.435 646.603 569.176 645.784 570.405C645.169 571.429 644.554 572.044 644.145 572.351C644.145 573.58 644.042 574.399 643.735 574.706C642.813 575.628 641.788 573.682 640.662 570.303C640.149 568.869 639.74 567.128 639.227 565.285C638.92 564.261 638.715 563.237 638.51 562.11C638.51 563.134 638.51 564.261 638.51 565.285C638.51 567.026 638.51 568.664 638.51 570.303C638.408 573.785 638.305 576.857 637.998 578.495C637.691 580.236 637.179 580.543 636.462 578.495C636.462 578.393 636.359 578.188 636.359 578.086C636.359 578.188 636.257 578.393 636.257 578.495C636.257 578.598 636.257 578.598 636.154 578.7C635.642 579.929 635.027 579.724 634.413 578.598C633.491 577.062 632.569 573.99 631.544 570.098C631.237 568.972 630.93 567.845 630.725 566.719L629.496 568.357L629.598 565.592L629.701 561.701C629.598 561.496 629.598 561.189 629.598 560.984C629.393 560.062 629.188 559.243 629.086 558.321C628.881 557.092 628.574 555.966 628.369 554.839L626.218 558.219L624.578 560.779L621.505 565.592L618.944 569.791L617.51 572.146L618.227 573.273L618.535 573.477L624.271 578.803L625.296 579.724L634.208 588.019L635.335 589.146L639.227 592.832L639.33 592.935L641.686 595.085L642.915 596.212L643.735 596.929L647.935 600.922V600.82C647.525 599.694 647.628 598.362 647.73 597.031ZM635.744 606.145C638.51 605.121 640.764 604.609 640.764 604.609C640.764 604.609 643.53 606.452 645.579 605.531C641.379 603.38 636.666 600.82 631.954 598.157C633.286 600.718 634.618 603.483 635.744 606.145ZM499.294 589.965C502.879 587.712 506.772 585.357 511.075 583.001C511.689 582.694 512.304 582.284 512.919 581.977C517.323 579.622 522.036 577.164 527.055 574.809C527.26 574.706 527.363 574.706 527.568 574.604L527.465 571.839L527.363 570.098C527.363 570.098 527.465 569.484 527.772 568.357C527.875 567.845 528.08 567.231 528.285 566.514C528.797 564.568 529.616 562.11 530.846 559.448C531.05 559.141 531.153 558.731 531.358 558.424C532.075 556.888 532.894 555.454 533.816 554.02C534.431 552.996 535.148 552.074 535.865 551.255C537.299 549.514 539.041 548.081 540.987 547.057L541.397 544.804L541.602 543.779L540.987 542.551L539.451 539.376L539.246 538.966C539.246 538.966 538.734 538.966 537.812 539.376C536.685 539.786 534.943 540.707 533.202 542.551C532.894 542.858 532.587 543.267 532.28 543.677C532.177 543.779 532.075 543.984 531.972 544.087C530.846 545.725 529.719 548.388 528.797 551.255C528.489 552.177 528.182 553.098 527.875 554.02C527.363 555.659 526.953 557.195 526.646 558.526C526.543 558.833 526.441 559.243 526.441 559.55C525.928 561.598 525.621 563.032 525.621 563.032L524.494 559.55L524.187 558.628L522.65 554.123L521.728 551.255L519.065 543.063L518.963 542.653L518.655 543.063L511.587 551.153L511.177 551.562C511.177 551.562 511.382 552.586 511.484 554.02C511.587 555.351 511.689 556.99 511.587 558.731C511.587 559.038 511.587 559.243 511.484 559.55C511.177 562.11 510.46 564.67 508.821 566.411C508.616 566.616 508.514 566.719 508.309 566.821C507.694 567.231 507.182 567.128 506.772 566.821C505.543 565.899 504.621 562.622 504.006 559.55C504.006 559.345 503.904 559.141 503.904 558.936C503.597 557.092 503.392 555.454 503.289 554.123C503.187 552.996 503.084 552.279 503.084 552.279C503.084 552.279 502.879 552.996 502.572 554.123C502.265 555.249 501.855 556.99 501.343 558.936C501.343 559.141 501.24 559.345 501.24 559.55C500.728 561.701 500.114 564.261 499.396 566.923L498.987 568.459C498.679 569.586 498.474 570.712 498.167 571.839C497.86 572.965 497.655 574.092 497.348 575.218C497.348 575.321 497.245 575.526 497.245 575.628C496.528 578.7 496.118 577.881 495.913 575.218C495.811 574.297 495.709 573.068 495.709 571.839C495.709 570.815 495.606 569.586 495.606 568.357C495.606 567.845 495.606 567.435 495.606 566.923C495.606 564.466 495.606 561.905 495.606 559.55C495.606 559.345 495.606 559.141 495.606 559.038C495.606 557.195 495.606 555.556 495.709 554.225C495.709 552.894 495.709 551.767 495.811 551.255C495.811 550.948 495.811 550.846 495.811 550.846L495.709 551.255L494.684 554.225L493.045 559.14L492.84 559.653L490.279 567.026L489.972 567.947C489.972 568.152 489.972 568.255 489.972 568.459C489.972 569.688 489.767 570.815 489.562 571.839C489.255 573.17 488.743 574.297 488.128 575.321C486.079 579.007 483.211 580.953 483.211 580.953L484.03 575.321L484.543 571.839L485.055 568.459L485.26 567.026L486.284 559.55L486.387 559.14L487.104 554.225L487.206 553.61L486.796 554.225L483.826 559.14L483.621 559.55L479.216 567.026L478.396 568.459L476.86 571.122C476.655 571.429 476.347 571.634 476.143 571.941C472.967 575.218 471.942 574.092 471.635 571.941C471.533 570.917 471.533 569.688 471.738 568.562C471.84 568.05 471.84 567.64 471.942 567.231C472.045 566.309 472.25 565.49 472.25 565.387L471.123 567.231L470.303 568.562L469.689 569.586C469.894 570.405 470.099 571.122 470.303 571.941C470.611 573.17 470.918 574.399 471.225 575.628C471.942 577.983 472.557 580.339 473.274 582.387C473.377 582.694 473.479 583.104 473.581 583.411C474.811 587.405 475.835 590.17 475.835 590.17C475.835 590.17 475.835 590.17 475.938 590.272C476.245 590.682 477.064 592.115 478.294 593.856C479.728 596.007 481.777 598.772 483.826 601.23C486.796 598.977 490.279 596.519 494.07 593.959C495.606 592.32 497.348 591.194 499.294 589.965ZM487.308 650.282C487.513 650.078 487.616 649.873 487.821 649.668C489.152 648.132 490.689 645.981 492.431 643.319C493.045 642.397 493.66 641.988 494.172 641.885H494.274V641.578L495.504 632.771L495.606 632.156L496.118 628.163C495.811 627.753 495.606 627.446 495.401 627.036C494.787 627.446 493.865 628.06 492.84 628.572L493.455 632.054L493.557 632.669L494.172 636.15C494.172 636.15 491.099 635.946 489.357 632.669C489.255 632.464 489.152 632.259 489.05 632.054C488.948 631.747 488.743 631.337 488.64 631.03C488.64 630.928 488.538 630.825 488.538 630.723C487.718 631.03 487.104 631.235 486.591 631.337C486.182 631.337 485.874 631.644 485.669 632.156C485.567 632.361 485.465 632.566 485.362 632.771C484.645 634.614 484.235 637.891 483.621 641.578C483.621 641.68 483.621 641.783 483.621 641.885C483.416 643.114 483.211 644.24 482.904 645.572C484.133 647.005 485.362 648.439 486.591 649.77C487.001 649.873 487.104 650.078 487.308 650.282ZM426.357 632.156C426.459 632.361 426.664 632.566 426.766 632.873C428.61 635.843 430.454 638.711 432.196 641.373C433.015 642.602 433.732 643.728 434.449 644.752C434.449 644.855 434.552 644.855 434.552 644.957C435.576 646.493 436.703 648.029 437.625 649.361C438.24 650.18 438.854 650.999 439.469 651.716C439.879 652.228 440.288 652.74 440.596 653.15C440.903 652.638 441.21 652.126 441.518 651.716C442.03 650.999 442.44 650.18 442.952 649.361C443.771 647.927 444.693 646.493 445.513 644.957C445.513 644.957 445.513 644.855 445.615 644.855C446.332 643.728 446.947 642.602 447.562 641.475C447.562 641.475 447.562 641.373 447.664 641.373C448.996 639.018 450.225 636.765 451.352 634.717C451.352 634.307 451.352 633.59 451.352 632.771C451.352 632.566 451.352 632.361 451.352 632.156C451.352 630.62 451.454 628.572 451.659 626.422C451.762 624.783 451.967 623.145 452.274 621.609C452.376 621.097 452.479 620.584 452.581 620.072C451.967 620.482 451.352 620.994 450.737 621.609C449.303 622.94 447.664 624.578 446.537 626.422C445.513 628.163 444.796 630.006 444.796 632.156C444.796 632.361 444.796 632.566 444.796 632.771C444.079 639.939 432.913 634.409 432.913 634.409L433.63 632.771L433.937 632.156L436.191 626.524L437.83 622.325C437.523 622.428 432.81 624.886 430.147 626.524C429.839 626.729 429.532 626.934 429.327 627.036C427.381 628.367 425.025 628.47 424.205 628.47C424.82 629.699 425.639 630.928 426.357 632.156ZM424 628.265C424.205 627.958 424.615 627.343 425.23 626.524C426.152 625.295 427.483 623.452 428.918 621.609C430.454 619.663 432.196 617.512 433.835 615.976C434.142 615.669 434.449 615.362 434.859 615.054C435.781 614.235 436.601 613.621 437.215 613.314C437.932 613.006 439.059 611.47 440.596 609.013C440.801 608.705 440.903 608.501 441.108 608.193C442.952 605.121 445.206 600.922 447.562 596.417C446.332 596.109 445.001 595.597 443.771 594.778C443.054 594.266 442.132 593.652 441.005 593.037C438.854 591.808 436.191 590.375 434.244 589.35C432.605 588.531 431.479 587.917 431.274 587.814L431.888 589.35L433.322 592.935L438.444 605.531C438.444 605.531 434.962 607.272 431.069 608.091C428.815 608.603 426.357 608.705 424.513 608.091C422.464 607.374 420.927 605.633 420.927 602.151C420.927 601.025 420.722 599.898 420.517 598.772C420.005 596.621 418.981 594.573 417.752 592.832C416.83 591.501 415.908 590.375 414.883 589.248C413.142 587.405 411.195 585.766 409.556 584.537C409.864 585.971 410.171 587.61 410.376 589.248C410.581 590.375 410.683 591.603 410.786 592.832C410.99 594.983 411.093 597.031 411.195 598.874C411.298 602.049 411.4 604.609 411.4 605.94C411.81 606.657 412.22 607.374 412.63 608.091C412.834 608.398 413.039 608.808 413.244 609.217C414.269 611.061 415.293 612.904 416.42 614.85C416.625 615.157 416.83 615.567 417.034 615.976C418.059 617.82 419.186 619.663 420.313 621.609C421.235 623.247 422.259 624.886 423.181 626.524C423.283 627.139 423.591 627.651 424 628.265ZM89.5328 618.332C89.6352 618.741 89.7377 619.048 89.9426 619.458C91.0694 622.735 92.2987 626.012 93.3231 628.47C93.528 628.982 93.7329 629.391 93.9378 629.903C94.6549 631.542 95.167 632.566 95.167 632.566C95.167 632.566 99.0598 637.482 103.157 641.271C106.948 639.018 111.25 636.662 116.372 634.102C116.679 634 116.987 633.795 117.294 633.693C119.65 632.566 122.109 631.337 124.67 630.108C125.387 629.801 126.104 629.392 126.924 629.084C129.382 627.958 131.841 626.934 134.504 625.807C135.324 625.5 136.041 625.193 136.86 624.783C140.138 623.452 143.519 622.121 147.104 620.892L147.002 618.639L146.899 617.615V617.41C146.899 617.41 147.309 615.874 148.129 613.723C148.334 613.109 148.641 612.494 148.948 611.88C150.28 608.91 152.431 605.326 155.402 602.561C155.607 602.356 155.812 602.254 156.017 602.049C157.348 600.922 158.782 600.103 160.421 599.386L160.831 597.85L161.139 596.826L158.885 593.14C158.885 593.14 155.3 593.344 151.817 596.826C151.509 597.133 151.304 597.441 150.997 597.748C150.075 598.977 149.256 600.513 148.538 602.254C148.538 602.356 148.436 602.459 148.436 602.561C146.592 606.862 145.26 611.573 145.158 611.88L141.163 602.459L139.114 597.543L138.499 596.007L136.86 597.543L130.714 602.971C130.714 602.971 131.943 607.886 130.406 611.675C130.099 612.597 129.587 613.416 128.87 614.03C128.665 614.235 128.563 614.338 128.358 614.44C127.128 615.362 126.206 615.055 125.387 613.928C124.977 613.314 124.567 612.494 124.26 611.47C123.133 608.091 122.621 603.38 122.621 603.38C122.621 603.38 121.494 606.862 120.06 611.368C119.855 612.187 119.548 612.904 119.343 613.723C118.933 615.055 118.523 616.386 118.114 617.717C118.011 618.127 117.806 618.536 117.704 619.048C117.397 619.868 117.192 620.687 116.987 621.506C116.065 624.578 115.655 622.633 115.45 619.048C115.45 618.639 115.45 618.229 115.348 617.82C115.348 616.488 115.245 615.157 115.245 613.723C115.245 612.904 115.245 612.085 115.245 611.266C115.245 606.452 115.45 602.151 115.45 602.151L111.455 611.266L110.431 613.621L109.611 615.464C109.611 616.386 109.509 617.205 109.304 617.922C109.201 618.332 109.099 618.741 108.894 619.151C107.153 623.349 102.748 625.602 102.748 625.602L103.874 619.253L104.079 618.024L104.899 613.416L105.309 611.061L106.538 604.199L101.416 610.958L99.572 613.314L96.1914 617.82C95.9865 617.922 95.8841 618.127 95.7817 618.229C95.167 618.741 94.6548 619.048 94.2451 619.356C92.606 620.38 91.7865 620.175 91.3768 619.356C91.1719 619.048 91.0694 618.639 91.0694 618.229C90.8645 616.181 91.6841 613.109 91.6841 613.109L89.1231 616.488C89.1231 617.205 89.3279 617.717 89.5328 618.332ZM65.4593 731.491L65.9715 730.672L65.5618 729.34C65.4594 729.34 65.2545 729.34 65.152 729.34L65.4593 731.491Z" fill="#152E33"/>
</svg>
