<svg viewBox="0 0 1724 1023" fill="none" xmlns="http://www.w3.org/2000/svg">
<path opacity="0.7" d="M1635.93 641.677C1634.02 642.76 1628.67 643.91 1621.31 645.06C1618.35 653.382 1614.24 662.516 1612.72 663.598C1609.47 665.899 1606.6 648.375 1600.68 652.57C1597.81 654.6 1597.24 675.506 1595.9 675.506C1587.39 675.506 1586.53 655.953 1581.47 655.953C1575.55 655.953 1574.59 677.333 1574.3 677.198C1565.03 673.882 1559.4 661.095 1555.1 655.073C1554.81 654.735 1554.62 654.397 1554.43 653.991C1552.14 654.329 1550.03 654.667 1548.03 655.006C1548.12 664.004 1558.73 679.701 1553.86 683.151C1553.57 683.354 1544.78 677.536 1544.2 677.198C1537.52 673.003 1531.5 667.793 1526.81 662.177C1520.13 666.44 1514.3 671.988 1508.18 675.235C1504.65 677.198 1501.68 684.708 1499.01 682.204C1497.86 681.122 1497.96 670.905 1494.9 670.635C1484.1 669.552 1453.62 688.835 1448.37 699.66C1446.65 703.178 1445.69 711.432 1439.67 712.244C1431.45 713.394 1427.63 699.525 1419.7 701.419C1417.79 701.893 1415.97 702.299 1414.06 702.637C1414.54 715.492 1417.6 729.159 1409.76 740.187C1408.62 741.743 1396.39 717.251 1389.32 718.942C1382.91 720.499 1379.09 728.009 1376.13 731.73C1375.94 731.933 1371.92 737.819 1371.35 736.804C1370.4 735.18 1365.43 718.875 1365.33 718.942C1350.43 729.497 1346.13 746.073 1337.72 729.159C1336.48 726.791 1335.23 724.423 1333.9 722.055C1323.29 733.354 1317.75 747.968 1300.07 750.336C1296.53 750.809 1282.97 752.974 1279.34 751.689C1276.66 750.742 1278.76 749.659 1278.38 748.238C1278.19 747.562 1293.57 722.934 1289.56 722.528C1287.17 722.258 1284.02 723.881 1280.67 725.776C1279.62 733.895 1277.33 741.608 1273.98 750.403C1273.32 752.162 1262.9 779.293 1261.94 779.293C1260.99 779.293 1259.94 774.963 1259.56 774.219C1252.2 761.229 1252.68 745.735 1243.98 733.421C1242.74 731.73 1242.74 727.467 1240.35 728.347C1229.84 732.068 1245.99 758.252 1234.33 762.379C1231.75 763.326 1225.06 755.139 1217.8 745.6C1201.94 768.603 1195.25 805.003 1186.65 807.642C1178.82 810.01 1176.9 797.493 1176.33 795.463C1174.9 790.051 1172.51 782.405 1170.41 777.061C1167.64 769.889 1165.72 788.156 1159.9 782.744C1146.04 769.889 1141.93 767.182 1128.55 769.618C1129.13 774.963 1129.99 780.308 1128.94 785.45C1127.98 789.983 1127.22 794.178 1125.5 798.508C1125.12 799.591 1124.35 802.906 1124.35 801.756C1124.35 789.848 1116.52 783.759 1107.82 778.549C1095.11 787.277 1074.57 802.026 1072.18 804.462C1070.84 805.815 1070.17 809.469 1068.26 808.521C1062.34 805.68 1054.41 789.713 1046.38 790.795C1029.95 793.028 1026.51 813.46 1011.7 815.423C1003.76 816.437 995.929 809.469 987.712 808.657C964.111 806.424 949.873 829.089 934.967 837.141C933.438 837.953 927.323 842.147 926.177 841.877C917.577 839.712 911.748 830.24 901.333 831.66C890.727 833.149 894.167 853.311 884.803 852.431C874.77 851.484 872.19 836.735 864.259 835.991C844.767 834.164 830.338 882.269 811.801 887.952C793.647 893.5 796.035 876.721 786.48 872.12C778.932 868.466 775.3 884.298 769.854 885.042C765.745 885.651 749.884 864.88 742.622 862.377C734.118 859.4 694.942 866.572 686.151 869.278C673.347 873.135 669.238 882.336 658.919 887.884C643.917 895.935 598.052 901.01 589.357 913.594C586.681 917.518 587.064 931.726 579.42 932.741C567.667 934.297 566.807 906.558 559.641 904.054C550.563 900.874 541.008 928.411 522.758 923.946C506.992 920.157 501.832 933.959 488.455 938.56C473.453 943.77 436.188 941.537 398.445 955.677C368.824 966.773 378.761 998.64 336.241 1008.92C310.537 1015.15 297.733 999.114 271.17 1002.7C259.417 1004.26 261.328 1016.57 252.346 1018.73C239.829 1021.78 222.821 1009.19 208.106 1011.16C199.793 1012.31 191.958 1020.29 183.931 1022.25C171.127 1025.36 141.029 1010.28 124.594 1011.02C28.8512 1015.35 -32.2064 1047.22 -125.847 984.906C-133.205 980.034 -103.106 950.197 -98.9015 942.822C-84.2821 916.909 -78.6445 880.171 -76.9246 852.228C-74.1536 807.439 -85.6198 755.613 -44.8193 716.845C-28.1933 701.081 -1.43869 681.46 23.5958 672.056C111.026 639.377 226.834 636.535 321.335 615.629C403.7 597.361 493.805 576.523 569.387 546.618C590.121 538.364 609.805 525.576 631.4 519.013C664.365 509 713.383 513.736 748.451 509L1156.36 541.07C1157.6 540.935 1168.78 540.326 1171.27 540.393C1183.5 540.867 1194.1 540.055 1206.14 539.243C1234.9 537.349 1262.14 541.679 1289.75 547.227L1298.64 550.339C1309.72 555.684 1283.54 565.494 1292.23 567.592C1365.71 585.453 1497.38 580.988 1578.79 585.995C1614.15 588.16 1649.88 589.648 1685.33 589.445C1687.63 589.445 1723.94 593.369 1722.98 598.647C1722.98 615 1684.1 616.332 1675.5 621C1661.45 628.51 1660.97 643.91 1650.17 649.728C1648.07 650.879 1643.29 637.753 1635.93 641.677Z" fill="#A6D6D9"/>
<path d="M1636.24 538.603C1634.33 537.074 1628.98 535.45 1621.62 533.825C1618.66 522.071 1614.55 509.169 1613.02 507.64C1609.77 504.391 1606.91 529.142 1600.98 523.217C1598.11 520.35 1597.54 490.821 1596.2 490.821C1587.7 490.821 1586.84 518.439 1581.77 518.439C1575.85 518.439 1574.89 488.241 1574.6 488.432C1565.34 493.115 1559.7 511.176 1555.4 519.681C1555.11 520.159 1554.92 520.637 1554.73 521.21C1552.43 520.733 1550.33 520.255 1548.32 519.777C1548.42 507.067 1559.03 484.896 1554.15 480.022C1553.87 479.736 1545.08 487.954 1544.5 488.432C1537.81 494.357 1531.79 501.715 1527.11 509.647C1520.42 503.627 1514.59 495.791 1508.47 491.203C1504.94 488.432 1501.98 477.825 1499.3 481.36C1498.15 482.889 1498.25 497.319 1495.19 497.702C1484.39 499.231 1453.91 471.995 1448.65 456.705C1446.93 451.736 1445.98 440.077 1439.96 438.93C1431.74 437.305 1427.91 456.896 1419.98 454.22C1418.07 453.551 1416.26 452.978 1414.34 452.5C1414.82 434.343 1417.88 415.039 1410.04 399.462C1408.9 397.264 1396.67 431.858 1389.59 429.469C1383.19 427.271 1379.37 416.664 1376.41 411.408C1376.21 411.121 1372.2 402.807 1371.63 404.24C1370.67 406.534 1365.7 429.565 1365.61 429.469C1350.7 414.561 1346.4 391.148 1337.99 415.039C1336.75 418.384 1335.5 421.729 1334.17 425.073C1323.56 409.114 1318.02 388.472 1300.34 385.128C1296.8 384.459 1283.23 381.401 1279.6 383.216C1276.92 384.554 1279.03 386.083 1278.64 388.09C1278.45 389.046 1293.84 423.831 1289.82 424.404C1287.44 424.787 1284.28 422.493 1280.94 419.817C1279.89 408.35 1277.59 397.455 1274.25 385.032C1273.58 382.547 1263.16 344.226 1262.21 344.226C1261.25 344.226 1260.2 350.342 1259.82 351.394C1252.46 369.742 1252.94 391.626 1244.24 409.019C1243 411.408 1243 417.428 1240.61 416.186C1230.1 410.93 1246.25 373.947 1234.59 368.117C1232.01 366.779 1225.32 378.343 1218.06 391.817C1202.19 359.325 1195.5 307.912 1186.9 304.185C1179.07 300.84 1177.16 318.52 1176.58 321.387C1175.15 329.032 1172.76 339.83 1170.66 347.38C1167.89 357.51 1165.97 331.707 1160.14 339.353C1146.29 357.51 1142.18 361.332 1128.8 357.892C1129.37 350.342 1130.23 342.793 1129.18 335.53C1128.23 329.127 1127.46 323.202 1125.74 317.086C1125.36 315.557 1124.59 310.875 1124.59 312.499C1124.59 329.318 1116.76 337.919 1108.06 345.278C1095.35 332.95 1074.81 312.117 1072.42 308.677C1071.08 306.765 1070.41 301.605 1068.5 302.943C1062.57 306.956 1054.64 329.509 1046.61 327.98C1030.18 324.827 1026.74 295.967 1011.93 293.195C1003.99 291.762 996.157 301.605 987.939 302.752C964.334 305.905 950.095 273.891 935.188 262.519C933.658 261.372 927.542 255.447 926.396 255.83C917.795 258.888 911.966 272.267 901.549 270.26C890.941 268.158 894.382 239.679 885.017 240.922C874.982 242.26 872.402 263.093 864.47 264.144C844.975 266.724 830.545 198.778 812.006 190.751C793.849 182.915 796.238 206.614 786.681 213.113C779.132 218.273 775.5 195.911 770.053 194.86C765.944 194 750.081 223.338 742.818 226.874C734.312 231.079 695.131 220.949 686.339 217.126C673.534 211.679 669.425 198.683 659.104 190.846C644.1 179.474 598.229 172.307 589.533 154.532C586.857 148.989 587.24 128.921 579.595 127.488C567.84 125.29 566.98 164.471 559.813 168.007C550.734 172.498 541.178 133.604 522.925 139.911C507.157 145.262 501.997 125.767 488.618 119.269C473.614 111.911 436.344 115.064 398.597 95.0914C368.972 79.419 378.911 34.4084 336.385 19.8827C310.678 11.0908 297.872 33.7395 271.306 28.6746C259.551 26.4766 261.463 9.08401 252.48 6.02596C239.961 1.72559 222.951 19.5005 208.234 16.7291C199.92 15.1045 192.083 3.828 184.056 1.05665C171.25 -3.33929 141.148 17.9715 124.711 16.9202C28.956 10.8042 -32.1094 -34.2064 -125.762 53.8079C-133.12 60.6885 -103.018 102.832 -98.813 113.249C-84.1917 149.85 -78.5534 201.741 -76.8332 241.209C-74.0619 304.472 -85.5296 377.674 -44.7238 432.432C-28.0957 454.698 -1.33774 482.412 23.7 495.695C111.141 541.852 226.964 545.866 321.477 575.395C403.853 601.197 493.969 630.631 569.56 672.87C590.298 684.529 609.984 702.591 631.581 711.86C664.551 726.004 713.575 719.314 748.647 726.004L1156.61 680.707C1157.85 680.898 1169.03 681.758 1171.52 681.662C1183.75 680.993 1194.36 682.14 1206.4 683.287C1235.16 685.963 1262.4 679.846 1290.02 672.01L1298.9 667.614C1309.99 660.065 1283.8 646.208 1292.5 643.245C1365.99 618.017 1497.68 624.324 1579.1 617.252C1614.46 614.194 1650.2 612.092 1685.65 612.378C1687.94 612.378 1724.26 606.836 1723.3 599.382C1721.87 588.296 1676.86 583.423 1668.26 576.829C1654.21 566.221 1661.28 535.449 1650.48 527.231C1648.38 525.606 1643.6 544.146 1636.24 538.603Z" fill="#538687"/>
</svg>
