<svg viewBox="0 0 1518 1176" fill="none" xmlns="http://www.w3.org/2000/svg">
<path opacity="0.7" fill-rule="evenodd" clip-rule="evenodd" d="M590.829 946.906C592.38 949.499 593.913 952.379 595.337 955.443C600.201 965.823 608.655 1001.44 617.969 1006.85C622.025 1009.22 621.043 993.739 621.17 991.831C621.849 981.629 621.947 955.68 630.286 948.381C638.726 940.993 650.8 998.495 655.783 994.134C661.682 988.971 657.904 973.779 668.138 971.108C687.532 966.076 705.189 1038.99 718.985 1054.75C729.934 1067.26 734.985 1048.92 747.4 1052.33C756.904 1054.88 760.765 1070.27 769.703 1075.55C783.619 1083.76 794.491 1052.78 827.343 1090.21C851.554 1117.87 834.079 1164.6 850.815 1193.77C854.331 1199.94 876.554 1153.82 881.532 1156.74C887.431 1160.2 885.209 1174.89 888.769 1178.96C889.926 1180.28 900.414 1173.8 902.168 1173.34C904.311 1172.81 907.33 1174.93 908.506 1175.96C934.783 1198.5 933.764 1149.01 961.958 1155.67C1018.34 1169 1010.18 1245.65 1030.39 1268.74C1033.77 1272.6 1040.82 1260.14 1041.88 1258.68C1047.22 1251.75 1085.75 1251.44 1089.94 1253.16C1100.29 1257.39 1123.02 1256.89 1132.71 1262.52C1147.64 1271.27 1141.92 1301.06 1157.96 1307.58C1165.79 1310.79 1221.78 1305.6 1252.74 1318.2C1285.93 1331.8 1320.37 1401.61 1360.65 1425.17C1363.79 1427.01 1360.12 1413.07 1369.91 1417.07C1374.66 1419.02 1393.69 1441.07 1401.32 1434.39C1407.32 1429.14 1396.79 1413.21 1407.33 1408.74C1420.73 1403.12 1438.8 1416.67 1449.95 1420.29C1476.39 1428.85 1497.05 1412.03 1526 1418.84C1535.24 1420.98 1574.65 1443.43 1583.49 1435.68C1586.44 1433.1 1582.7 1421.74 1582.45 1418.28C1578.64 1353.09 1573.47 1302.66 1592.18 1238.87C1615.46 1159.58 1673.71 1031.1 1659.06 950.439C1649.53 897.895 1584.86 865.148 1544.95 838.742C1308.75 682.145 1105.38 662.584 846.404 607.815L750.627 699.996C676.056 700.878 509.373 655.312 455.091 646.338C404.414 637.891 316.286 615.077 267.672 634.638C214.437 655.999 77.2355 643.808 45.7669 670.543C45.1631 670.982 43.4221 675.559 45.2023 677.593C65.3633 701.345 100.638 703.787 131.132 711.849C134.643 723.863 138.147 735.972 139.222 738.534C140.462 741.49 144.294 734.274 145.915 731.509C146.563 730.403 149.875 725.259 153.783 719.773C156.008 720.879 158.138 721.978 160.159 723.262C164.12 725.632 168.087 727.907 172.067 729.992C172.284 741.116 173.189 751.999 180.194 756.104C182.496 757.503 184.77 746.352 187.648 737.637C192.016 739.651 196.485 741.577 200.96 743.407C201.781 749.783 202.011 756.406 202.342 760.068C202.54 762.858 203.437 769.527 205.566 767.753C210.448 763.48 210.426 743.653 212.995 749.666C213.739 751.44 219.432 778.157 221.104 777.502C225.935 775.429 223.161 759.537 232.086 762.142C242.048 765.007 240.24 789.31 248.53 794.267C250.469 795.354 251.085 790.414 251.421 788.234C252.723 780.18 253.955 773.174 256.109 765.272C269.434 770.852 282.619 777.092 295.321 784.833C316.681 797.747 338.551 811.652 360.084 826.301C361.357 835.963 363.017 845.555 362.706 850.228C362.459 853.947 362.212 857.665 361.964 861.384C361.825 863.482 360.478 869.33 361.552 867.582C364.463 862.7 371.369 839.503 380.492 844.898C394.415 853.007 382.925 877.432 391.298 886.896C393.969 889.947 401.123 864.468 406.738 877.962C407.984 880.823 408.932 883.855 409.88 886.887C412.557 895.589 415.78 898.964 419.549 891.265C423.889 882.168 426.501 922.088 435.165 917.11C438.553 915.132 440.076 897.994 441.416 889.368C442.23 890.092 442.948 890.81 443.762 891.535C455.314 902.168 476.868 893.45 486.113 904.217C495.618 915.384 490.139 922.873 503.21 929.394C503.516 936.31 503.822 943.226 503.645 950.206C503.438 963.409 503.451 968.965 503.655 968.787C509.96 963.268 511.063 943.803 516.039 933.791C520.19 934.737 525.396 935.658 531.473 936.445C535.27 947.042 535.845 964.319 539.679 968.597C542.705 972.054 549.784 953.466 551.983 952.08C558.091 948.081 568.877 980.308 571.318 978.172C575.996 974.077 569.324 951.988 578.001 952.566C584.771 953.016 586.768 958.991 589.24 952.068C589.469 950.072 590.149 948.489 590.829 946.906Z" fill="#A6D6D9"/>
<path fill-rule="evenodd" clip-rule="evenodd" d="M610.047 434.244C611.768 431.759 613.488 428.988 615.112 426.025C620.655 415.991 631.454 381.015 641.106 376.236C645.311 374.134 643.304 389.52 643.304 391.431C643.304 401.656 641.679 427.554 649.515 435.39C657.447 443.322 673.311 386.748 677.993 391.431C683.536 396.974 678.758 411.882 688.792 415.226C707.809 421.534 730.267 349.956 745.079 335.144C756.833 323.39 760.656 342.024 773.271 339.444C782.922 337.533 787.796 322.434 797.066 317.751C811.496 310.488 820.288 342.12 855.551 306.953C881.544 280.959 867.21 233.177 885.845 205.177C889.763 199.252 908.876 246.747 914.036 244.167C920.152 241.109 918.91 226.297 922.732 222.474C923.975 221.232 934.009 228.399 935.729 228.972C937.831 229.641 940.985 227.73 942.227 226.775C969.941 206.037 965.64 255.348 994.214 250.57C1051.36 241.014 1048.3 163.989 1070 142.296C1073.63 138.665 1079.84 151.566 1080.79 153.095C1085.67 160.358 1124.09 163.225 1128.39 161.791C1138.99 158.255 1161.64 160.262 1171.68 155.293C1187.16 147.552 1183.43 117.45 1199.87 112.002C1207.89 109.327 1263.42 118.214 1295.14 107.702C1329.17 96.3299 1368.16 28.9574 1409.92 8.12451C1413.17 6.49992 1408.58 20.1655 1418.61 16.8208C1423.49 15.1962 1443.94 -5.54112 1451.1 1.62617C1456.74 7.26443 1445.18 22.4591 1455.41 27.6195C1468.4 34.1179 1487.32 21.7901 1498.7 18.9232C1525.64 12.1382 1545.14 30.2953 1574.48 25.4215C1583.84 23.8925 1624.65 4.11083 1632.96 12.4249C1635.73 15.1962 1631.24 26.2816 1630.76 29.7219C1622.64 94.5142 1614.14 144.494 1628.57 209.382C1646.53 290.038 1696.13 422.107 1676.16 501.616C1663.16 553.412 1596.46 581.794 1554.89 605.494C1308.81 746.068 1104.59 752.089 842.554 789.55L753.106 691.215C678.758 685.385 509.419 719.788 454.661 725.14C403.534 730.205 314.086 747.119 266.878 724.375C215.178 699.529 77.4702 702.587 47.8454 673.822C47.2721 673.344 45.8387 668.662 47.75 666.75C69.443 644.388 104.801 644.293 135.764 638.272C140.065 626.518 144.365 614.668 145.607 612.183C147.041 609.316 150.385 616.77 151.819 619.637C152.392 620.784 155.355 626.136 158.891 631.87C161.184 630.914 163.382 629.958 165.485 628.811C169.594 626.709 173.703 624.702 177.812 622.886C178.768 611.801 180.392 601.002 187.655 597.371C190.044 596.129 191.573 607.405 193.867 616.293C198.358 614.572 202.946 612.948 207.533 611.419C208.775 605.112 209.444 598.518 210.017 594.886C210.4 592.115 211.738 585.521 213.744 587.432C218.331 592.019 216.994 611.801 219.956 605.972C220.816 604.252 228.27 577.972 229.895 578.736C234.577 581.125 230.755 596.798 239.833 594.791C249.963 592.593 249.772 568.224 258.373 563.828C260.379 562.872 260.666 567.842 260.857 570.04C261.622 578.163 262.386 585.234 264.011 593.262C277.677 588.579 291.246 583.228 304.434 576.347C326.605 564.879 349.349 552.456 371.807 539.268C373.718 529.712 376.012 520.251 376.012 515.568C376.012 511.841 376.012 508.114 376.012 504.387C376.012 502.285 375.056 496.36 376.012 498.176C378.592 503.241 383.943 526.845 393.404 522.067C407.834 514.899 397.991 489.766 406.974 480.879C409.841 478.012 415.288 503.91 421.787 490.817C423.22 488.046 424.367 485.083 425.514 482.121C428.763 473.616 432.203 470.462 435.452 478.394C439.179 487.759 444.435 448.1 452.749 453.643C455.999 455.841 456.381 473.042 457.145 481.739C458.005 481.07 458.77 480.401 459.63 479.732C471.862 469.889 492.791 480.019 502.729 469.889C512.955 459.377 507.985 451.541 521.46 445.902C522.224 439.022 522.989 432.141 523.275 425.165C523.944 411.977 524.327 406.434 524.518 406.626C530.443 412.551 530.252 432.046 534.552 442.366C538.757 441.698 544.013 441.124 550.129 440.742C554.62 430.421 556.341 413.22 560.45 409.206C563.699 405.957 569.528 424.974 571.631 426.503C577.46 430.899 590.361 399.458 592.655 401.752C597.051 406.148 588.928 427.745 597.624 427.745C604.409 427.745 606.798 421.916 608.805 428.988C608.9 430.994 609.474 432.619 610.047 434.244Z" fill="#538687"/>
</svg>
