<svg viewBox="0 0 3856 649" fill="none" xmlns="http://www.w3.org/2000/svg">
<path opacity="0.6" fill-rule="evenodd" clip-rule="evenodd" d="M3082.31 606.897C3086.99 611.711 3091.68 615.809 3095.73 618.063C3103.07 622.263 3117.76 628.614 3127.5 627.078C3134.21 625.951 3127.88 618.78 3129.15 619.394C3140.16 625.336 3147.76 635.58 3159.28 641.214C3165.36 644.185 3158.14 628.819 3168.77 632.2C3175.36 634.351 3185.86 645.824 3194.09 642.444C3196.12 641.624 3200.55 629.741 3206.75 634.761C3207.13 635.068 3212.32 643.058 3214.73 641.214C3218.02 638.551 3217.89 632.2 3224.22 630.97C3235.23 628.717 3232.45 643.571 3240.04 637.424C3250.3 629.126 3246.75 639.166 3244.86 643.878C3244.22 645.517 3241.06 649 3243.21 649C3269.29 649 3278.15 611.814 3301.95 631.073C3303.34 632.2 3311.95 622.263 3317.77 624.619C3321.32 626.053 3324.23 636.297 3327.27 638.756C3330.94 641.727 3337.27 626.053 3338.41 624.619C3341.06 621.341 3352.2 639.575 3352.71 639.985C3353.22 640.395 3363.47 620.112 3367.02 619.497C3372.97 618.268 3376.64 638.653 3379.68 636.195C3382.33 634.044 3387.9 613.146 3389.17 613.146C3391.95 613.146 3397.65 638.858 3398.66 638.858C3399.55 638.858 3404.99 623.799 3409.42 601.775C3477.28 609.458 3548.55 579.647 3613.49 562.744C3617.54 561.72 3631.85 555.574 3630.96 553.32L3154.85 404.473C3156.75 402.424 3158.39 400.375 3159.91 398.326C3175.99 376.096 3193.46 341.881 3153.58 328.769C3024.33 286.46 2730.26 326.003 2485.43 346.798C2398.33 337.681 2072.36 352.74 2008.68 356.12C1902.47 361.755 1791.33 358.067 1687.01 363.599C1658.78 365.135 1637.64 350.896 1606.75 352.535C1323.57 367.594 1050.51 362.267 757.196 359.603C722.763 359.296 690.102 370.769 655.669 371.282C596.424 372.204 545.028 360.73 484.896 369.028C441.222 375.072 400.206 395.765 355.646 402.629C330.201 406.521 278.425 400.785 256.904 413.59C237.789 424.961 242.726 485.811 242.473 519.002L185 526.992C217.408 550.144 229.814 567.867 277.665 565.408C285.261 564.998 292.35 559.261 299.692 559.774C333.999 562.027 339.822 578.316 344.632 579.033C355.266 580.569 356.785 569.301 363.495 568.993C367.672 568.788 377.8 578.52 383.876 579.34C392.484 580.467 390.079 570.018 391.345 567.662C391.472 567.457 439.576 567.662 452.615 562.335C458.945 559.774 449.957 547.686 461.224 547.173C465.781 546.968 484.39 554.139 485.276 549.325C485.656 547.378 478.567 535.598 482.744 534.676C484.517 534.266 486.542 534.163 488.314 534.368C495.91 535.495 503.632 538.876 511.227 540.002C514.772 540.515 521.861 527.607 525.659 526.788C537.559 524.227 553.636 542.871 563.004 538.466C583.765 528.734 583.385 538.056 606.678 541.949C610.349 542.564 595.031 518.695 625.034 525.148C629.464 526.07 658.707 535.393 659.214 532.524C661.872 516.441 649.086 504.25 667.315 510.602C667.442 510.602 690.735 523.1 694.659 519.412C696.052 518.08 693.393 513.675 688.709 507.836C690.229 507.836 692.127 507.221 694.533 505.992C700.862 502.714 706.812 498.821 713.522 496.26C717.826 494.621 688.076 525.558 694.153 525.353C703.9 524.944 747.701 496.875 729.852 512.651C728.839 513.573 711.243 530.988 715.42 530.168C730.991 527.095 800.11 490.626 766.69 520.334C746.309 538.466 783.527 528.119 793.528 525.046C809.985 519.924 777.197 543.793 794.54 543.178C802.389 542.871 812.137 538.466 817.833 534.368C823.783 530.066 823.403 532.934 829.1 536.212C832.391 538.056 835.556 540.207 839.227 541.539C842.012 542.564 845.557 526.583 848.215 526.48C852.899 526.275 867.457 539.285 874.293 541.744C878.091 543.076 879.484 544.305 882.902 542.768C892.902 538.261 865.558 515.724 877.078 515.314C903.536 514.29 920.626 524.841 914.17 503.738C913.41 501.382 965.06 502.816 970.123 501.689C973.288 500.87 964.3 499.026 961.515 497.489C926.323 478.128 974.934 485.606 987.34 484.07C1004.56 481.918 964.3 466.757 970.883 465.425C982.909 462.967 999.366 466.962 1011.65 467.269C1041.27 467.986 989.619 452.927 993.923 452.108C1005.7 449.752 1023.55 453.644 1034.81 456.206C1041.01 457.64 1055.57 466.04 1053.29 461.225C1051.52 457.537 1042.03 449.854 1033.67 441.761C1035.32 441.659 1036.96 441.556 1038.61 441.556C1042.28 441.556 1045.19 441.864 1047.72 442.376C1050.76 443.81 1054.05 445.347 1057.6 446.781C1063.17 451.801 1064.05 459.586 1072.92 466.962C1074.56 468.294 1081.27 463.684 1088.49 459.074C1128.49 474.03 1174.57 488.065 1184.82 488.167C1195.58 488.27 1210.9 468.703 1223.69 467.986C1249.39 466.655 1266.86 474.235 1291.92 470.035C1312.43 466.552 1308.76 489.192 1324.58 490.626C1332.81 491.445 1342.05 474.645 1346.23 480.484C1347.87 482.738 1333.32 490.318 1338 496.977C1339.01 498.411 1340.91 499.231 1342.56 500.255C1347.75 503.533 1347.11 501.689 1352.81 499.026C1382.43 485.094 1397.24 480.689 1433.96 478.743C1444.34 478.23 1399.9 494.314 1410.28 495.338C1423.07 496.567 1455.1 488.577 1431.3 499.846C1429.91 500.46 1402.06 511.831 1404.08 514.495C1406.11 517.261 1411.93 516.646 1414.59 516.748C1433.32 517.67 1449.4 514.29 1467.76 513.265C1474.47 512.958 1453.58 519.719 1454.08 525.148C1454.97 535.7 1481.93 526.48 1486.75 524.124C1493.96 520.744 1507.38 512.548 1507.38 512.548C1507.38 512.548 1502.32 533.036 1510.67 532.627C1524.47 531.91 1533.58 516.441 1544.34 511.319C1552.83 507.324 1544.47 536.007 1553.84 533.856C1569.16 530.271 1580.8 511.421 1593.46 497.899C1611.69 495.85 1625.87 497.284 1629.54 511.729C1630.55 515.929 1642.07 525.456 1647.77 524.739C1656.25 523.714 1662.08 513.675 1664.35 508.553C1665.87 504.148 1665.75 505.377 1664.35 508.553C1664.23 508.963 1664.1 509.475 1663.85 509.987C1657.77 528.836 1690.94 508.041 1697.9 504.763C1704.86 501.485 1694.99 525.353 1702.84 524.022C1711.07 522.587 1722.46 511.114 1722.46 511.114C1722.46 511.114 1711.7 522.075 1716.64 524.636C1730.31 531.91 1748.54 526.173 1762.21 522.997C1768.92 521.461 1749.55 533.241 1753.09 538.159C1758.03 544.92 1801.58 526.07 1800.44 526.685C1799.17 527.3 1769.05 543.895 1776.01 545.432C1832.21 557.418 1845.38 513.982 1851.08 513.675C1858.8 513.265 1871.33 532.934 1876.52 530.475C1878.93 529.349 1873.74 517.363 1877.03 515.826C1888.3 510.499 1923.11 555.266 1957.54 553.525C1974.12 552.705 1949.95 532.422 1952.98 528.632C1954.5 526.788 1958.3 529.553 1960.83 530.271C1969.82 532.934 1975.39 533.241 1978.81 531.5C1988.43 537.954 2010.46 540.31 2020.71 544.92C2023.62 546.149 2017.04 550.964 2024.89 553.73C2037.42 558.339 2091.6 557.827 2061.35 567.149C2055.9 568.788 2040.84 572.989 2046.41 574.218C2049.95 574.935 2142.62 576.267 2158.32 571.862C2166.8 569.506 2160.34 557.11 2167.43 556.7C2174.9 556.291 2179.84 563.769 2186.17 564.076C2191.36 564.281 2181.36 549.734 2186.04 551.578C2215.92 562.949 2213.76 563.564 2236.93 584.769C2238.7 586.408 2239.97 588.867 2242.5 589.379C2247.82 590.506 2246.68 580.979 2246.68 576.574C2246.68 571.247 2263.77 560.286 2273.26 564.076C2275.03 564.793 2290.98 554.652 2291.49 555.471C2293.77 558.544 2280.22 576.984 2293.39 579.75C2308.33 582.925 2333.27 560.901 2333.27 560.901C2333.27 560.901 2320.99 573.603 2326.81 576.574C2330.1 578.316 2353.65 562.744 2358.33 561.72C2360.23 561.31 2352 579.75 2364.28 582.311C2372 583.95 2383.52 576.062 2389.09 571.759C2390.99 570.12 2392.51 568.993 2392.51 568.993C2392.51 568.993 2391.25 570.12 2389.09 571.759C2386.05 574.32 2382 578.316 2381.37 581.389C2379.73 589.174 2391.62 596.345 2400.36 592.248C2414.28 585.691 2415.93 588.765 2422.64 601.57C2427.2 610.175 2450.62 584.769 2450.62 584.769C2450.62 584.769 2450.74 607.614 2461.12 608.638C2472.01 609.663 2481.63 593.477 2486.19 587.843C2489.86 583.335 2486.19 599.726 2490.87 603.619C2497.2 608.843 2503.03 592.248 2503.66 590.404C2504.17 588.662 2506.19 579.545 2509.74 580.364C2519.48 582.413 2521.76 598.292 2531.89 598.701C2535.69 598.906 2536.45 594.604 2536.57 592.862C2536.95 587.535 2535.94 582.208 2536.19 576.881C2537.21 549.017 2561 595.526 2563.79 587.33C2568.22 573.706 2567.71 563.359 2571.39 555.574C2590.63 563.871 2608.22 575.652 2630.25 579.34C2659.24 590.301 2699.62 598.804 2719.88 609.458C2726.33 612.941 2725.83 605.258 2733.04 608.126C2739.75 610.789 2747.1 619.087 2755.7 617.038C2776.08 612.224 2774.44 619.804 2797.1 626.873C2803.3 628.819 2810.14 628.717 2816.85 629.024C2821.28 629.229 2822.54 614.989 2829.51 621.443C2834.06 625.643 2836.47 633.429 2842.42 636.605C2847.86 639.473 2851.66 629.024 2857.23 626.36C2863.43 623.39 2890.78 618.882 2901.03 617.141C2901.92 617.038 2903.44 621.751 2904.58 622.058C2917.36 624.824 2921.41 620.521 2937.24 619.702C2941.92 619.497 2940.15 627.795 2944.33 629.434C2945.08 629.741 2945.84 630.048 2946.73 629.946C2958.38 628 2970.66 618.063 2982.3 614.785C2988.76 612.941 2983.44 626.565 2984.2 628.614C2987.62 637.936 3001.55 618.882 3009.27 618.473C3021.17 617.858 2999.27 643.263 3010.03 647.566C3011.17 648.078 3012.69 647.463 3013.95 647.361C3039.9 646.029 3049.65 622.365 3067.88 610.687C3068.13 610.687 3068.39 610.687 3068.64 610.687C3073.58 610.482 3078.01 608.945 3082.31 606.897ZM1982.86 525.353C1983.24 523.817 1983.24 522.075 1983.24 520.129C1987.04 521.256 1989.44 522.178 1989.95 522.895C1991.09 524.739 1987.04 525.046 1982.86 525.353Z" fill="#A6D6D9"/>
<path fill-rule="evenodd" clip-rule="evenodd" d="M3273.44 60.7984C3278.91 53.8532 3284.37 47.9424 3289.1 44.6915C3297.68 38.633 3314.82 29.4713 3326.2 31.6878C3334.03 33.3133 3326.64 43.6571 3328.12 42.7705C3340.98 34.1999 3349.84 19.423 3363.29 11.2957C3370.39 7.01034 3361.96 29.1757 3374.38 24.2993C3382.06 21.1962 3394.33 4.64603 3403.94 9.52242C3406.3 10.7046 3411.47 27.8458 3418.71 20.6051C3419.16 20.1618 3425.22 8.6358 3428.02 11.2957C3431.87 15.1377 3431.72 24.2993 3439.11 26.0726C3451.97 29.3235 3448.71 7.89696 3457.58 16.7631C3469.55 28.7324 3465.42 14.251 3463.2 7.45365C3462.46 5.08934 3458.76 0.0651855 3461.28 0.0651855C3491.72 0.0651855 3502.07 53.7054 3529.85 25.9248C3531.48 24.2993 3541.53 38.633 3548.32 35.2343C3552.46 33.1655 3555.86 18.3886 3559.41 14.8421C3563.69 10.5568 3571.08 33.1655 3572.41 35.2343C3575.52 39.9629 3588.52 13.66 3589.11 13.0689C3589.71 12.4778 3601.68 41.7361 3605.81 42.6227C3612.76 44.396 3617.05 14.9899 3620.59 18.5363C3623.7 21.6395 3630.2 51.7844 3631.68 51.7844C3634.93 51.7844 3641.58 14.6943 3642.76 14.6943C3643.8 14.6943 3650.15 36.4164 3655.32 68.1868C3734.54 57.1041 3817.74 100.105 3893.56 124.487C3898.29 125.965 3914.99 134.831 3913.95 138.082L3358.12 352.79C3360.34 355.746 3362.26 358.701 3364.03 361.657C3382.8 393.723 3403.2 443.078 3356.64 461.992C3205.75 523.021 2862.44 465.982 2576.61 435.985C2474.94 449.136 2094.38 427.414 2020.04 422.538C1896.05 414.41 1766.29 419.73 1644.51 411.75C1611.56 409.534 1586.87 430.074 1550.81 427.709C1220.21 405.987 901.431 413.671 559.005 417.513C518.806 417.957 480.677 401.407 440.478 400.668C371.313 399.338 311.311 415.888 241.111 403.919C190.124 395.2 142.241 365.351 90.219 355.45C60.5135 349.835 0.0679752 358.11 -25.0561 339.639C-47.3722 323.237 -41.6084 235.462 -41.904 187.584L-109 176.058C-71.1661 142.663 -56.6829 117.098 -0.818808 120.645C8.04851 121.236 16.3247 129.511 24.8964 128.772C64.9472 125.521 71.7454 102.026 77.3614 100.992C89.7757 98.7751 91.5491 115.03 99.3819 115.473C104.259 115.769 116.082 101.73 123.176 100.548C133.225 98.9228 130.418 113.995 131.895 117.394C132.043 117.69 188.203 117.394 203.425 125.078C210.814 128.772 200.321 146.209 213.475 146.948C218.795 147.243 240.52 136.9 241.555 143.845C241.998 146.652 233.722 163.646 238.599 164.976C240.668 165.567 243.032 165.715 245.101 165.419C253.969 163.794 262.984 158.917 271.851 157.292C275.989 156.553 284.265 175.172 288.699 176.354C302.591 180.048 321.36 153.154 332.297 159.508C356.534 173.546 356.091 160.099 383.284 154.484C387.57 153.597 369.687 188.028 404.713 178.718C409.886 177.388 444.025 163.941 444.616 168.079C447.72 191.279 432.793 208.863 454.075 199.701C454.222 199.701 481.415 181.674 485.997 186.993C487.623 188.914 484.519 195.268 479.051 203.691C480.824 203.691 483.041 204.578 485.849 206.351C493.239 211.08 500.185 216.695 508.017 220.389C513.042 222.753 478.312 178.127 485.406 178.423C496.785 179.014 547.92 219.503 527.082 196.746C525.9 195.416 505.357 170.295 510.234 171.478C528.412 175.911 609.105 228.517 570.089 185.663C546.295 159.508 589.744 174.433 601.42 178.866C620.632 186.254 582.355 151.824 602.602 152.711C611.765 153.154 623.145 159.508 629.795 165.419C636.741 171.625 636.298 167.488 642.948 162.759C646.791 160.099 650.486 156.996 654.771 155.075C658.023 153.597 662.161 176.649 665.264 176.797C670.733 177.093 687.728 158.326 695.709 154.78C700.143 152.859 701.768 151.085 705.759 153.302C717.434 159.804 685.512 192.313 698.96 192.904C729.848 194.382 749.8 179.162 742.262 209.602C741.376 213.001 801.673 210.932 807.585 212.557C811.28 213.74 800.787 216.399 797.535 218.616C756.45 246.544 813.201 235.757 827.684 237.974C847.783 241.077 800.787 262.947 808.472 264.868C822.512 268.414 841.724 262.651 856.06 262.208C890.642 261.174 830.344 282.896 835.369 284.078C849.114 287.476 869.952 281.861 883.105 278.167C890.347 276.098 907.342 263.981 904.682 270.926C902.613 276.246 891.529 287.329 881.775 299.002C883.696 299.15 885.617 299.298 887.539 299.298C891.824 299.298 895.224 298.855 898.179 298.116C901.726 296.047 905.569 293.831 909.707 291.762C916.21 284.521 917.244 273.291 927.589 262.651C929.511 260.73 937.343 267.38 945.767 274.029C992.468 252.455 1046.26 232.211 1058.23 232.063C1070.8 231.915 1088.68 260.139 1103.61 261.174C1133.61 263.095 1154 252.16 1183.26 258.218C1207.21 263.242 1202.92 230.585 1221.39 228.516C1231 227.334 1241.79 251.569 1246.66 243.146C1248.59 239.895 1231.59 228.96 1237.06 219.355C1238.24 217.286 1240.46 216.104 1242.38 214.626C1248.44 209.898 1247.7 212.557 1254.35 216.399C1288.93 236.496 1306.22 242.85 1349.08 245.658C1361.2 246.397 1309.33 223.197 1321.45 221.719C1336.37 219.946 1373.76 231.472 1345.98 215.217C1344.35 214.331 1311.84 197.928 1314.2 194.086C1316.57 190.096 1323.37 190.983 1326.47 190.835C1348.34 189.505 1367.11 194.382 1388.54 195.859C1396.37 196.303 1371.99 186.55 1372.58 178.718C1373.62 163.498 1405.09 176.797 1410.71 180.196C1419.13 185.072 1434.8 196.894 1434.8 196.894C1434.8 196.894 1428.89 167.34 1438.64 167.931C1454.75 168.965 1465.39 191.279 1477.95 198.667C1487.86 204.43 1478.1 163.055 1489.04 166.158C1506.92 171.33 1520.52 198.519 1535.3 218.025C1556.58 220.98 1573.13 218.911 1577.42 198.076C1578.6 192.017 1592.05 178.275 1598.7 179.309C1608.6 180.787 1615.4 195.268 1618.06 202.657C1619.83 209.011 1619.68 207.238 1618.06 202.657C1617.91 202.066 1617.76 201.327 1617.47 200.588C1610.37 173.399 1649.09 203.396 1657.22 208.124C1665.35 212.853 1653.82 178.423 1662.99 180.344C1672.59 182.412 1685.89 198.963 1685.89 198.963C1685.89 198.963 1673.33 183.151 1679.09 179.457C1695.06 168.965 1716.34 177.241 1732.3 181.821C1740.13 184.038 1717.52 167.044 1721.66 159.952C1727.42 150.199 1778.26 177.388 1776.93 176.502C1775.45 175.615 1740.28 151.676 1748.41 149.46C1814.03 132.171 1829.4 194.825 1836.05 195.268C1845.06 195.859 1859.69 167.488 1865.75 171.034C1868.56 172.66 1862.5 189.949 1866.34 192.165C1879.5 199.849 1920.14 135.274 1960.34 137.786C1979.7 138.968 1951.47 168.227 1955.02 173.694C1956.79 176.354 1961.22 172.364 1964.18 171.33C1974.67 167.488 1981.17 167.044 1985.16 169.557C1996.4 160.247 2022.11 156.848 2034.08 150.199C2037.48 148.426 2029.8 141.48 2038.96 137.491C2053.59 130.841 2116.84 131.58 2081.52 118.133C2075.17 115.769 2057.58 109.71 2064.08 107.937C2068.22 106.902 2176.4 104.981 2194.73 111.335C2204.63 114.734 2197.09 132.614 2205.37 133.205C2214.09 133.796 2219.85 123.009 2227.24 122.566C2233.3 122.27 2221.63 143.254 2227.09 140.594C2261.97 124.191 2259.46 123.305 2286.51 92.7165C2288.57 90.3522 2290.05 86.8058 2293.01 86.0669C2299.22 84.4415 2297.89 98.184 2297.89 104.538C2297.89 112.222 2317.84 128.033 2328.92 122.566C2330.99 121.532 2349.61 136.161 2350.2 134.979C2352.86 130.545 2337.05 103.947 2352.42 99.9572C2369.86 95.3764 2398.97 127.147 2398.97 127.147C2398.97 127.147 2384.64 108.823 2391.44 104.538C2395.28 102.026 2422.77 124.487 2428.23 125.965C2430.45 126.556 2420.85 99.9572 2435.18 96.263C2444.2 93.8987 2457.64 105.277 2464.15 111.483C2466.36 113.848 2468.14 115.473 2468.14 115.473C2468.14 115.473 2466.66 113.848 2464.15 111.483C2460.6 107.789 2455.87 102.026 2455.13 97.5929C2453.21 86.3624 2467.1 76.0186 2477.3 81.9294C2493.56 91.3866 2495.48 86.9535 2503.31 68.4824C2508.63 56.0697 2535.97 92.7165 2535.97 92.7165C2535.97 92.7165 2536.12 59.764 2548.24 58.2863C2560.95 56.8086 2572.18 80.1561 2577.5 88.2835C2581.79 94.7853 2577.5 71.1422 2582.97 65.527C2590.36 57.9908 2597.16 81.9294 2597.9 84.5892C2598.49 87.1013 2600.85 100.253 2604.99 99.0706C2616.37 96.1152 2619.03 73.211 2630.85 72.6199C2635.29 72.3244 2636.17 78.5307 2636.32 81.0428C2636.76 88.7268 2635.58 96.4108 2635.88 104.095C2637.06 144.288 2664.84 77.2008 2668.1 89.0223C2673.27 108.676 2672.68 123.6 2676.96 134.831C2699.43 122.861 2719.97 105.868 2745.68 100.548C2779.53 84.737 2826.67 72.4721 2850.32 57.1041C2857.86 52.08 2857.27 63.1627 2865.69 59.0251C2873.52 55.1831 2882.09 43.2138 2892.14 46.1692C2915.94 53.1144 2914.02 42.1794 2940.47 31.9834C2947.71 29.1757 2955.69 29.3235 2963.53 28.8802C2968.7 28.5847 2970.18 49.1246 2978.3 39.8151C2983.62 33.7566 2986.43 22.5261 2993.38 17.9453C2999.73 13.8077 3004.17 28.8802 3010.67 32.7222C3017.91 37.0075 3049.83 43.5094 3061.8 46.0214C3062.84 46.1692 3064.61 39.3718 3065.94 38.9285C3080.87 34.9387 3085.6 41.145 3104.07 42.3272C3109.54 42.6227 3107.47 30.6534 3112.35 28.2891C3113.23 27.8458 3114.12 27.4025 3115.16 27.5503C3128.75 30.3579 3143.09 44.6915 3156.68 49.4201C3164.22 52.08 3158.01 32.4267 3158.9 29.4713C3162.89 16.0243 3179.15 43.5094 3188.16 44.1004C3202.06 44.987 3176.49 8.34027 3189.05 2.13396C3190.38 1.39511 3192.15 2.28172 3193.63 2.42949C3223.93 4.35049 3235.31 38.4852 3256.59 55.3309C3256.89 55.3309 3257.18 55.3309 3257.48 55.3309C3263.24 55.6264 3268.41 57.843 3273.44 60.7984ZM1989.89 178.423C1990.34 180.639 1990.34 183.151 1990.34 185.959C1994.77 184.333 1997.58 183.004 1998.17 181.969C1999.5 179.309 1994.77 178.866 1989.89 178.423Z" fill="#83AFB1"/>
</svg>
