<svg viewBox="0 0 2185 640" fill="none" xmlns="http://www.w3.org/2000/svg">
<path fill-rule="evenodd" clip-rule="evenodd" d="M-66.459 63.1679C-69.522 57.4751 -72.6725 52.5693 -75.5562 49.7423C-80.7687 44.492 -91.4455 36.2398 -99.2389 37.0753C-104.612 37.7263 -100.554 46.1485 -101.466 45.3635C-109.329 37.8815 -113.997 25.976 -122.293 18.787C-126.668 14.9963 -122.926 32.4898 -130.807 27.8516C-135.678 24.9161 -142.467 11.4074 -149.301 14.3991C-150.982 15.1217 -155.898 27.7761 -160.121 21.7258C-160.38 21.3554 -163.448 12.1333 -165.551 13.9469C-168.445 16.5827 -169.126 23.564 -174.216 24.3606C-183.085 25.8725 -179.088 9.81415 -185.768 15.8966C-194.787 24.1079 -190.789 13.3996 -188.729 8.39388C-188.034 6.65034 -185.137 3.10421 -186.816 2.91635C-207.161 0.639949 -218.641 40.6764 -234.843 17.4631C-235.791 16.1049 -243.727 26.2587 -247.981 23.1646C-250.57 21.2812 -251.584 9.78462 -253.652 6.82123C-256.152 3.24046 -263.014 19.8889 -264.079 21.3634C-266.556 24.7289 -273.008 3.74489 -273.353 3.25099C-273.697 2.7571 -284.188 24.122 -287.029 24.4871C-291.822 25.3168 -292.183 2.62394 -294.855 5.05691C-297.193 7.18576 -304.104 29.6341 -305.092 29.5236C-307.265 29.2805 -308.552 0.564716 -309.342 0.476312C-310.033 0.398958 -316.129 16.4502 -322.291 40.2346C-374.284 25.8797 -433.547 52.3738 -486.288 65.2549C-489.574 66.0256 -501.49 71.5223 -501.075 74.0729L-147.906 278.986C-149.639 281.069 -151.175 283.174 -152.611 285.29C-167.884 308.282 -185.715 344.307 -156.215 362.178C-60.5732 419.892 166.133 490.417 359.694 488.967C426.523 506.575 682.686 518.504 732.778 520.352C816.332 523.44 902.593 537.19 984.652 540.225C1006.87 541.003 1021.61 558.475 1045.91 559.372C1268.69 567.566 1481.07 597.248 1709.57 625.775C1736.4 629.118 1763.29 619.378 1790.21 621.821C1836.55 625.981 1875.24 643.059 1923.17 639.202C1957.98 636.381 1992.52 617.252 2028.13 613.609C2048.46 611.558 2088.15 622.374 2106.51 610.199C2122.82 599.389 2134.02 443.927 2138.29 407.524L2184.11 403.772C2161.67 375.535 2154.17 355.002 2116.53 353.524C2110.56 353.31 2104.32 358.987 2098.66 357.784C2072.17 352.316 2069.62 333.932 2065.96 332.725C2057.85 330.111 2055.28 342.345 2050.01 342.096C2046.73 341.957 2040.02 330.392 2035.38 328.962C2028.8 326.974 2029.4 338.652 2028.12 341.127C2028 341.341 1990.49 336.917 1979.66 341.624C1974.41 343.883 1979.94 357.933 1971.09 357.512C1967.51 357.339 1953.87 347.845 1952.59 353.051C1952.05 355.154 1956.14 368.702 1952.76 369.349C1951.33 369.644 1949.74 369.58 1948.38 369.2C1942.59 367.3 1936.98 362.916 1931.2 361.017C1928.49 360.145 1921.38 373.692 1918.31 374.26C1908.72 376.031 1898.46 354.167 1890.61 358.183C1873.22 367.051 1874.66 356.854 1856.97 350.548C1854.18 349.553 1863.2 377.085 1840.58 367.384C1837.24 365.985 1815.57 353.202 1814.82 356.306C1810.77 373.724 1819.25 388.219 1805.81 379.657C1805.71 379.646 1789.07 363.897 1785.56 367.602C1784.31 368.942 1785.84 374.008 1788.78 380.825C1787.6 380.692 1786.04 381.201 1784.01 382.34C1778.67 385.385 1773.55 389.138 1768 391.363C1764.44 392.786 1791.45 361.431 1786.68 361.125C1779.03 360.724 1741.41 387.705 1757.27 371.95C1758.18 371.026 1774.04 353.45 1770.68 353.985C1758.16 355.998 1699.76 389.988 1729.48 360.302C1747.6 342.182 1717.3 350.288 1709.12 352.788C1695.65 356.973 1724.16 333.64 1710.55 332.8C1704.39 332.453 1696.25 336.436 1691.3 340.436C1686.13 344.638 1686.78 341.523 1682.74 337.428C1680.4 335.118 1678.19 332.48 1675.49 330.698C1673.44 329.331 1668.72 346.56 1666.63 346.44C1662.95 346.256 1653.19 330.707 1648.16 327.413C1645.36 325.62 1644.42 324.149 1641.57 325.537C1633.21 329.611 1651.78 356.731 1642.74 356.175C1621.97 354.99 1609.94 341.918 1612.38 365.641C1612.68 368.293 1572.57 362.211 1568.48 363.005C1565.91 363.628 1572.69 366.437 1574.68 368.366C1599.76 392.686 1562.75 380.236 1552.88 380.839C1539.19 381.697 1568.73 401.85 1563.43 402.737C1553.75 404.386 1541.4 398.564 1531.86 397.155C1508.83 393.782 1547.28 414.817 1543.82 415.341C1534.35 416.899 1520.9 411.069 1512.42 407.275C1507.76 405.159 1497.43 394.67 1498.62 400.153C1499.55 404.355 1506.01 413.615 1511.54 423.226C1510.24 423.195 1508.95 423.164 1507.66 423.02C1504.8 422.7 1502.56 422.108 1500.65 421.325C1498.46 419.486 1496.08 417.512 1493.49 415.629C1489.76 409.634 1490.02 401.012 1484.02 392.144C1482.9 390.539 1477.1 395.012 1470.9 399.442C1441.53 379.536 1407.3 360.111 1399.31 359.104C1390.93 358.052 1376.58 378.188 1366.52 377.859C1346.3 377.077 1333.61 367.233 1313.53 369.654C1297.11 371.686 1302.75 347.161 1290.58 344.206C1284.26 342.588 1274.99 360.219 1272.45 353.446C1271.44 350.829 1283.73 343.78 1280.89 336.064C1280.28 334.402 1278.9 333.337 1277.74 332.069C1274.09 328.018 1274.36 330.097 1269.59 332.523C1244.77 345.226 1232.67 348.768 1203.79 347.699C1195.63 347.355 1232.27 333.583 1224.3 331.553C1214.47 329.088 1188.51 335.061 1208.46 324.772C1209.62 324.219 1232.74 314.171 1231.49 311.071C1230.25 307.859 1225.63 308.025 1223.57 307.681C1209.07 305.033 1196.11 307.34 1181.66 306.862C1176.39 306.613 1193.52 301.017 1193.79 295.014C1194.39 283.357 1172.22 291.121 1168.18 293.287C1162.14 296.367 1150.66 304.19 1150.66 304.19C1150.66 304.19 1157.13 282.147 1150.56 281.867C1139.71 281.45 1130.7 297.63 1121.67 302.312C1114.56 305.956 1124.6 275.207 1117.03 276.75C1104.64 279.348 1093.24 299.017 1081.7 312.752C1067.23 313.41 1056.35 310.598 1055.25 294.426C1054.98 289.728 1047.16 278.267 1042.63 278.556C1035.89 278.94 1030.11 289.45 1027.71 294.872C1025.98 299.574 1026.23 298.235 1027.71 294.872C1027.85 294.433 1028.02 293.882 1028.28 293.342C1035.33 273.186 1006.9 293.113 1001.07 296.103C995.233 299.093 1005.87 273.76 999.581 274.536C992.985 275.392 982.688 286.989 982.688 286.989C982.688 286.989 992.428 275.899 988.891 272.657C979.118 263.482 964.192 268.186 953.135 270.478C947.712 271.579 964.269 260.341 962.108 254.635C959.086 246.784 922.797 263.669 923.762 263.093C924.825 262.529 950.368 246.947 945.125 244.653C902.746 226.593 887.141 273.111 882.659 272.951C876.584 272.727 869.222 250.047 864.871 252.292C862.856 253.319 865.434 266.926 862.677 268.325C853.233 273.187 831.57 221.019 804.493 219.925C791.455 219.376 807.828 243.747 804.992 247.642C803.58 249.533 800.957 246.166 799.07 245.158C792.385 241.45 788.077 240.627 785.196 242.239C778.483 234.317 761.588 229.808 754.154 223.854C752.033 222.251 757.76 217.542 751.977 213.821C742.765 207.668 700.432 203.5 725.181 195.911C729.629 194.587 741.897 191.293 737.703 189.457C735.026 188.361 662.895 178.811 650.107 182.275C643.201 184.12 646.716 198.287 641.135 198.118C635.257 197.915 632.324 189.278 627.423 188.388C623.399 187.71 629.416 204.547 625.988 202.115C604.076 187.028 605.83 186.541 590.361 161.247C589.179 159.293 588.494 156.485 586.581 155.701C582.572 154.001 582.291 164.556 581.75 169.39C581.095 175.236 566.417 185.773 559.475 180.785C558.18 179.843 544.491 189.581 544.196 188.637C542.796 185.066 555.628 166.012 545.696 161.827C534.432 157.038 512.271 179.032 512.271 179.032C512.271 179.032 523.411 166.164 519.233 162.395C516.879 160.196 496.597 175.229 492.817 175.945C491.285 176.229 499.969 156.711 490.704 152.828C484.88 150.355 474.924 158.006 470.05 162.242C468.368 163.875 467.044 164.979 467.044 164.979C467.044 164.979 468.17 163.853 470.05 162.242C472.735 159.697 476.386 155.666 477.257 152.348C479.497 143.948 471.094 135.039 463.777 138.774C452.108 144.753 451.201 141.237 447.539 126.598C445.04 116.757 423.65 142.594 423.65 142.594C423.65 142.594 426.356 117.512 418.383 115.481C410.015 113.407 400.522 130.33 396.274 136.116C392.857 140.742 397.734 123.074 394.557 118.393C390.261 112.107 383.68 129.812 382.96 131.78C382.351 133.647 379.651 143.476 376.987 142.267C369.633 139.168 369.805 121.543 361.955 120.209C359.017 119.653 357.896 124.309 357.583 126.209C356.633 132.022 356.769 137.956 355.917 143.78C351.706 174.271 338.849 121.153 335.67 129.904C330.54 144.469 329.665 155.869 325.845 164.092C311.852 153.306 299.57 138.841 282.839 132.871C261.568 118.311 231.107 105.455 216.613 91.9949C212.004 87.6089 211.455 96.0849 206.178 92.3071C201.271 88.7984 196.562 79.0512 189.594 80.5482C173.102 84.053 175.317 75.8773 158.506 66.142C153.906 63.4644 148.56 62.9801 143.363 62.0571C139.932 61.4455 137.196 76.962 132.556 69.2715C129.517 64.2643 128.596 55.5101 124.344 51.5055C120.45 47.8825 116.204 59.0183 111.531 61.4551C106.327 64.1739 84.4408 66.7337 76.2272 67.7498C75.5233 67.7849 74.9169 62.4808 74.0658 62.044C64.4304 57.8925 60.7413 62.2606 48.2953 61.7787C44.616 61.5947 47.0178 52.6431 43.9599 50.4796C43.4051 50.076 42.85 49.6724 42.1461 49.7075C32.8209 50.8269 22.0207 60.6602 12.532 63.2411C7.26872 64.7012 13.09 50.2129 12.749 47.8981C11.2271 37.3691 -1.97673 57.0645 -8.05157 56.8401C-17.4107 56.4759 2.7949 30.5064 -5.0716 24.8453C-5.89757 24.1837 -7.15801 24.7257 -8.15822 24.7276C-28.5681 23.9237 -39.0786 49.0429 -54.7344 60.268C-54.932 60.2459 -55.1294 60.2238 -55.3269 60.2017C-59.2038 59.9956 -62.8494 61.2951 -66.459 63.1679ZM781.281 248.631C780.796 250.284 780.583 252.196 780.344 254.332C777.519 252.764 775.756 251.542 775.449 250.711C774.786 248.587 777.985 248.604 781.281 248.631Z" fill="#A6D6D9"/>
</svg>
