<svg viewBox="0 0 1782 437" fill="none" xmlns="http://www.w3.org/2000/svg">
<path fill-rule="evenodd" clip-rule="evenodd" d="M1588.41 49.2689C1592.01 43.8953 1595.61 39.3135 1598.75 36.7755C1604.44 32.048 1615.86 24.8553 1623.54 26.4327C1628.83 27.5949 1623.98 35.5902 1624.96 34.896C1633.51 28.2007 1639.29 16.7966 1648.24 10.4344C1652.96 7.07981 1647.56 24.1349 1655.85 20.2721C1660.98 17.8162 1669.03 5.01905 1675.54 8.65106C1677.15 9.53117 1680.83 22.598 1685.61 16.9795C1685.9 16.6356 1689.84 7.74931 1691.76 9.75589C1694.39 12.6565 1694.4 19.671 1699.39 20.9509C1708.07 23.3046 1705.63 6.93743 1711.7 13.6312C1719.89 22.6678 1716.94 11.6262 1715.36 6.44627C1714.84 4.64422 1712.29 0.837143 1713.98 0.810807C1734.45 0.491678 1742.05 41.4429 1760.4 19.8866C1761.47 18.6253 1768.4 29.4919 1772.93 26.819C1775.69 25.1921 1777.8 13.8452 1780.14 11.0934C1782.97 7.76819 1788.21 24.9969 1789.13 26.5665C1791.27 30.1536 1799.7 9.88328 1800.09 9.42464C1800.48 8.96599 1808.88 31.2367 1811.67 31.872C1816.36 33.1565 1818.89 10.6023 1821.32 13.2798C1823.45 15.6226 1828.18 38.6293 1829.17 38.6138C1831.36 38.5798 1835.39 10.1189 1836.18 10.1065C1836.88 10.0957 1841.41 26.6565 1845.27 50.9214C1898.39 41.6077 1954.85 73.6511 2006.12 91.5199C2009.31 92.6014 2020.65 99.2131 2019.99 101.712L1648.84 271.891C1650.36 274.13 1651.69 276.372 1652.92 278.615C1665.92 302.964 1680.22 340.53 1649.14 355.496C1548.42 403.793 1316 452.301 1123.47 432.335C1055.26 443.468 799.136 430.83 749.096 427.876C665.63 422.955 578.45 428.387 496.476 423.555C474.291 422.204 457.942 438.185 433.668 436.754C211.125 423.592 15.4579 459.366 2.3141 280.711C1.45812 269.076 -0.860323 252.468 1.89726 250.841C6.18299 245.23 6.74447 236.623 13.5732 228.37C14.842 226.879 20.1878 231.887 25.931 236.889C57.0735 219.885 93.0014 203.825 101.048 203.586C109.493 203.342 121.853 224.759 131.901 225.394C152.096 226.55 165.678 217.966 185.425 222.297C201.582 225.891 198.311 200.939 210.707 199.161C217.152 198.156 224.695 216.593 227.873 210.095C229.126 207.586 217.569 199.394 221.131 191.984C221.901 190.388 223.377 189.46 224.651 188.309C228.669 184.626 228.204 186.67 232.721 189.541C256.213 204.561 267.915 209.244 296.764 210.944C304.921 211.382 269.767 194.168 277.897 192.909C287.912 191.396 313.189 199.826 294.315 187.675C293.211 187.014 271.154 174.799 272.698 171.833C274.241 168.755 278.822 169.362 280.907 169.216C295.598 167.969 308.275 171.505 322.701 172.411C327.973 172.669 311.461 165.459 311.765 159.458C312.279 147.796 333.603 157.647 337.419 160.189C343.141 163.834 353.815 172.718 353.815 172.718C353.815 172.718 349.488 150.158 356.053 150.508C366.897 151.131 374.317 168.099 382.852 173.623C389.578 177.931 382.526 146.362 389.916 148.623C402.001 152.394 411.468 173.064 421.637 187.84C435.981 189.879 447.085 188.122 449.718 172.128C450.441 167.478 459.319 156.818 463.803 157.54C470.479 158.567 475.222 169.581 477.099 175.209C478.367 180.054 478.247 178.698 477.099 175.209C476.992 174.758 476.884 174.194 476.677 173.631C471.583 152.893 497.975 175.449 503.496 178.983C509.018 182.518 500.857 156.283 507.04 157.658C513.524 159.141 522.664 171.67 522.664 171.67C522.664 171.67 514.029 159.699 517.861 156.81C528.467 148.612 542.875 154.723 553.661 158.062C558.954 159.677 543.548 146.906 546.245 141.433C550.004 133.908 584.511 154.187 583.606 153.523C582.602 152.859 558.667 134.904 564.106 133.122C608.018 119.2 619.1 166.999 623.577 167.268C629.645 167.626 639.144 145.755 643.26 148.406C645.168 149.621 641.3 162.919 643.91 164.575C652.845 170.319 679.401 120.463 706.458 121.965C719.489 122.667 700.86 145.359 703.31 149.507C704.534 151.524 707.467 148.424 709.442 147.601C716.451 144.55 720.818 144.142 723.531 146.024C730.972 138.78 748.221 135.909 756.19 130.693C758.455 129.3 753.205 124.064 759.318 120.914C769.076 115.671 811.614 115.573 787.704 105.65C783.403 103.907 771.506 99.454 775.857 98.0285C778.627 97.1934 851.341 94.5889 863.738 99.2606C870.437 101.758 865.582 115.524 871.154 115.89C877.024 116.251 880.77 107.933 885.733 107.516C889.804 107.227 882.204 123.411 885.849 121.318C909.104 108.397 907.404 107.744 925.223 84.0465C926.586 82.215 927.537 79.4848 929.516 78.8883C933.67 77.579 932.939 88.1123 933.015 92.9762C933.107 98.858 946.71 110.752 954.097 106.451C955.476 105.637 968.171 116.64 968.554 115.729C970.29 112.308 959.34 92.1132 969.627 88.898C981.297 85.2088 1001.25 109.223 1001.25 109.223C1001.25 109.223 991.395 95.347 995.914 91.9955C998.468 90.0323 1017.22 106.937 1020.91 108.011C1022.41 108.44 1015.63 88.1808 1025.23 85.2027C1031.26 83.2984 1040.44 91.8671 1044.89 96.5496C1046.4 98.3362 1047.62 99.5618 1047.62 99.5618C1047.62 99.5618 1046.6 98.3331 1044.89 96.5496C1042.46 93.759 1039.21 89.3972 1038.66 86.0116C1037.23 77.4352 1046.45 69.3717 1053.38 73.7893C1064.42 80.8581 1065.66 77.4446 1070.7 63.2235C1074.13 53.6663 1092.95 81.4315 1092.95 81.4315C1092.95 81.4315 1092.66 56.2059 1100.79 54.9478C1109.32 53.6834 1117.15 71.4374 1120.82 77.6028C1123.78 82.5348 1120.62 64.4818 1124.23 60.1262C1129.11 54.28 1133.96 72.5329 1134.49 74.5612C1134.92 76.4779 1136.67 86.5201 1139.43 85.5718C1147.05 83.1903 1148.57 65.63 1156.51 65.0537C1159.48 64.781 1160.16 69.5224 1160.28 71.4437C1160.67 77.3209 1159.97 83.2151 1160.26 89.0939C1161.54 119.848 1179.42 68.2038 1181.74 77.2187C1185.46 92.2084 1185.24 103.639 1188.25 112.191C1203.21 102.793 1216.82 89.5697 1234.05 85.2281C1256.62 72.7704 1288.17 62.8879 1303.88 50.8764C1308.89 46.9515 1308.62 55.4411 1314.24 52.1857C1319.46 49.1627 1325.08 39.9107 1331.87 42.0676C1347.95 47.1345 1346.53 38.7843 1364.2 30.7023C1369.03 28.4773 1374.4 28.5067 1379.66 28.0853C1383.13 27.8048 1384.37 43.5119 1389.73 36.3007C1393.23 31.6073 1394.99 22.9813 1399.6 19.402C1403.83 16.1683 1406.99 27.6593 1411.4 30.532C1416.32 33.7364 1437.86 38.3787 1445.94 40.1761C1446.64 40.2784 1447.75 35.0566 1448.64 34.7033C1458.63 31.4928 1461.88 36.194 1474.32 36.9052C1478 37.0741 1476.46 27.9337 1479.72 26.0728C1480.31 25.7242 1480.9 25.3755 1481.59 25.4778C1490.77 27.4844 1500.58 38.306 1509.78 41.7831C1514.88 43.7401 1510.47 28.7613 1511.03 26.4897C1513.55 16.1547 1524.81 37.0231 1530.88 37.3811C1540.23 37.9141 1522.6 10.1303 1530.97 5.24795C1531.86 4.66844 1533.06 5.32853 1534.06 5.42615C1554.45 6.57903 1562.51 32.5886 1577.02 45.2603C1577.22 45.2572 1577.42 45.2541 1577.62 45.251C1581.5 45.4169 1585 47.0593 1588.41 49.2689ZM726.817 152.761C727.141 154.453 727.171 156.376 727.205 158.525C730.166 157.234 732.038 156.187 732.424 155.389C733.286 153.339 730.101 153.049 726.817 152.761Z" fill="#C8EEF1"/>
</svg>
