<svg viewBox="0 0 3856 843" fill="none" xmlns="http://www.w3.org/2000/svg">
<path fill-rule="evenodd" clip-rule="evenodd" d="M3907.7 399.835C3858.1 438.825 3804.01 474.183 3741.9 492.818C3706.63 503.426 3645.66 506.197 3616.33 526.839C3611.64 530.088 3626.46 538.976 3616.61 544.232C3595.68 555.413 3568.64 561.337 3545.8 565.542C3501.65 573.665 3458.26 579.877 3413.25 580.546C3399.87 580.737 3386.59 581.597 3373.31 580.164C3365.57 579.304 3346.36 570.32 3349.99 577.201C3363.85 603.29 3345.78 600.519 3316.83 599.659C3256.34 597.843 3192.5 568.696 3131.15 574.525C3115.76 575.959 3125.99 590.771 3115.48 592.969C3102.77 595.549 3090.63 586.757 3078.59 590.389C3039.69 602.048 3002.71 615.713 2958.56 617.816C2899.31 620.587 2910.01 570.989 2849.43 582.17C2673.4 614.471 2499.19 656.137 2317.42 656.328C2263.14 656.328 2200.07 662.157 2150.47 635.591C2150.47 635.591 2139.39 631.29 2140.92 628.519C2143.21 624.314 2256.93 627.468 2321.63 616.478C2360.52 609.884 2526.04 582.075 2548.97 560.573C2566.37 544.232 2551.36 517.952 2585.19 511.071C2600.48 507.917 2616.73 508.873 2630.3 516.136C2635.75 519.098 2644.54 528.941 2647.4 523.399C2653.43 512.122 2640.52 494.538 2662.12 485.364C2687.64 474.47 2779.19 503.808 2791.8 489.951C2797.15 484.026 2793.04 477.05 2801.36 472.081C2812.44 465.487 2845.41 486.224 2851.82 474.279C2854.4 469.501 2850.76 470.839 2848.95 468.927C2834.42 453.446 2813.69 424.872 2811.68 402.893C2805.08 334.087 2899.5 288.216 2954.93 278.851C3024.4 267.097 3103.63 266.141 3163.16 308.38C3190.11 327.493 3198.04 353.008 3197.18 384.067C3197.18 384.544 3192.79 412.831 3200.15 410.538C3208.65 407.958 3215.82 388.367 3229.58 384.258C3238.18 381.678 3246.78 403.179 3253.37 397.063C3263.7 387.316 3271.53 368.012 3287.49 365.623C3310.9 362.087 3326.67 393.336 3353.62 374.415C3381.72 354.633 3319.12 316.312 3370.15 300.926C3395.57 293.281 3423.48 285.54 3447.94 298.728C3455.11 302.646 3465.34 324.053 3465.53 315.834C3467.53 246.933 3557.65 301.786 3600.65 288.885C3629.51 280.189 3638.97 242.537 3654.74 220.27C3709.12 143.628 3824.18 150.986 3906.36 158.249" fill="white"/>
<path fill-rule="evenodd" clip-rule="evenodd" d="M1671.79 703.25C1488.22 750.363 1105.39 729.243 919.037 669.994C841.917 645.434 712.811 592.874 636.36 586.662C615.145 584.942 655.186 615.331 633.875 616.669C545.001 622.116 442.939 552.068 356.549 545.092C351.293 544.709 349.859 556.368 343.074 556.559C324.344 557.133 293.286 557.037 275.32 553.597C242.637 547.29 -5.16023 439.972 -17.5835 425.35L-19.8771 422.675C-26.0887 397.159 -12.1363 361.609 -5.44685 338.292C3.63171 306.66 2.10262 277.035 32.5875 257.062C112.479 204.693 211.77 377.473 261.272 416.558C276.466 428.599 283.825 386.169 296.917 395.534C319.183 411.494 335.716 410.251 365.532 418.756C381.969 423.439 392.481 447.33 412.167 448.955C415.416 449.241 416.563 447.521 418.761 445.705C424.208 441.118 420.29 419.234 422.775 412.067C448.099 337.049 540.605 308.476 612.469 323.001C640.947 328.735 663.022 339.152 670.38 369.254C672.865 379.48 676.783 393.432 673.916 403.562C672.961 406.906 667.131 413.118 670.571 413.405C685.193 414.552 755.528 376.804 744.92 443.316C744.251 447.426 733.93 455.931 736.606 452.682C744.347 443.507 747.787 437.965 760.497 437.009C795.282 434.333 769.002 458.129 775.118 473.419C777.316 478.77 788.402 471.794 791.078 478.484C800.347 501.515 783.05 512.982 814.682 528.177C847.078 543.754 857.781 502.375 879.474 489.378C910.15 471.03 916.075 528.273 932.416 535.249C944.457 540.409 943.406 510.784 952.771 501.706C971.311 483.453 995.297 483.166 1019.38 486.989C1050.34 491.958 1057.7 515.18 1065.35 541.078C1066.87 546.334 1067.93 557.611 1072.99 555.508C1099.46 544.901 1096.79 521.583 1131.95 526.361C1153.17 529.228 1217.01 604.819 1253.89 620.587C1374.97 672.192 1513.73 698.281 1643.12 708.793" fill="white"/>
<path fill-rule="evenodd" clip-rule="evenodd" d="M2285.03 554.553C2212.11 576.532 1968.04 622.307 1903.44 607.495C1894.55 605.488 1956.48 587.044 1932.59 587.426C1852.22 588.478 1770.8 599.659 1689.95 602.717C1600.89 606.157 1513.16 600.901 1426.19 581.884C1393.03 574.621 1359.97 565.542 1330.25 549.105C1322.41 544.805 1307.7 534.675 1307.7 534.675C1307.7 534.675 1364.36 545.665 1392.75 551.208C1402.49 553.119 1427.34 561.338 1437.57 554.935C1450.95 546.525 1432.02 515.371 1454.29 509.255C1466.71 505.911 1473.21 521.87 1481.14 520.627C1504.08 516.996 1512.39 481.351 1540.97 498.074C1553.58 505.433 1555.21 534.197 1575.18 533.337C1597.06 532.382 1605.19 506.293 1627.26 507.248C1643.03 507.917 1661.28 526.648 1679.63 528.941C1736.78 536.013 1788.76 531.331 1846.2 524.354C1889.68 519.098 2058.83 483.549 2085.87 490.429C2106.42 495.685 2027.58 532.764 2037.04 537.542C2098.39 568.314 2395.31 495.207 2463.35 474.375" fill="white"/>
<path fill-rule="evenodd" clip-rule="evenodd" d="M2600.1 721.789C2586.82 722.172 2598.86 738.322 2586.34 739.277C2524.13 743.96 2468.51 756.479 2409.36 762.882C2365.2 767.66 2310.26 762.022 2266.68 754.568C2245.94 751.032 2217.27 746.827 2199.97 734.117C2198.64 733.161 2195.39 730.294 2197.11 730.008C2235.33 724.178 2275.09 739.277 2315.89 730.581C2325.35 728.574 2309.87 710.991 2315.42 701.721C2328.32 680.123 2354.6 710.895 2359.47 707.455C2365.97 702.868 2358.13 689.68 2371.51 689.68C2403.91 689.871 2436.02 700.765 2468.6 700.956C2567.42 701.434 2671.68 676.97 2767.15 651.359" fill="white"/>
<path fill-rule="evenodd" clip-rule="evenodd" d="M3037.31 173.635C3008.25 175.546 2987.23 196.666 2961.24 206.891C2879.43 238.905 2793.33 269.008 2708.09 293.759C2690.12 299.015 2695.09 276.175 2677.7 281.144C2572.77 311.629 2455.8 329.117 2345.52 349.473C2303.47 357.213 2255.31 347.561 2215.84 359.029C2126.3 385.022 2006.55 379.957 1914.34 371.643C1877.26 368.299 1839.8 368.968 1803.39 358.36C1795.07 355.971 1778.44 350.906 1778.44 350.906C1778.44 350.906 1807.3 358.36 1822.12 358.264C1857.86 358.073 2020.6 355.493 2043.92 343.357C2053.67 338.387 2023.56 323.861 2028.82 314.305C2034.84 303.411 2054.91 318.223 2061.89 322.141C2062.46 322.428 2063.41 323.575 2063.51 323.001C2063.89 314.018 2055.67 301.022 2065.52 292.994C2076.79 283.725 2094.95 311.916 2102.5 305.035C2113.59 294.81 2103.74 274.264 2122.76 264.325C2154.3 247.888 2203.42 298.537 2216.99 289.172C2217.46 288.885 2200.84 265.854 2200.84 265.759C2169.01 216.448 2184.3 173.826 2238.68 151.751C2408.5 82.8496 2631.45 125.089 2812.83 114.863C2926.45 108.461 3037.88 78.5492 3148.73 54.8494" fill="white"/>
<path fill-rule="evenodd" clip-rule="evenodd" d="M1940.81 463.576C1886.33 496.45 1580.91 442.265 1520.42 429.842C1461.55 417.705 1403.26 404.517 1345.83 386.647C1342.58 385.596 1301.77 367.821 1296.8 370.114C1294.7 371.07 1315.15 392.285 1295.08 399.261C1252.46 414.074 1154.89 353.104 1143.33 358.456C1140.94 359.507 1156.99 376.422 1137.4 378.62C1042.6 389.323 777.794 244.926 691.978 197.335C655.568 177.171 444.659 77.1157 430.42 46.3442C428.222 41.6615 439.402 51.6002 444.372 52.9381C457.177 56.5695 474.283 58.6719 487.567 56.8562C529.615 51.1224 566.789 31.054 607.117 18.9174C741.002 -21.315 965.386 13.5658 1101.37 46.9175C1179.16 66.0303 1207.35 70.4263 1179.74 145.635C1176.49 154.427 1172.76 172.871 1172.76 172.871C1172.76 172.871 1190.53 152.611 1202.67 148.12C1219.01 142.099 1234.49 144.966 1250.26 152.229C1295.37 172.871 1272.34 202.973 1276.06 236.134C1276.83 242.537 1287.63 230.305 1293.55 227.533C1304.64 222.373 1319.26 221.704 1331.2 223.615C1353.57 227.055 1403.83 248.844 1392.27 280.284C1387.01 294.428 1370.39 299.015 1357.96 304.749C1356.72 305.322 1354.71 305.513 1357.01 307.329C1365.89 314.401 1384.34 310.865 1394.85 313.732C1404.69 316.503 1404.41 339.247 1414.44 337.336C1430.11 334.374 1450.09 325.773 1465.76 335.329C1469.01 337.336 1463.08 348.23 1465.38 348.613C1491.85 352.722 1523.86 327.206 1553.39 331.793C1553.96 331.889 1668.64 398.21 1701.42 406.907C1794.4 431.753 1887.58 440.258 1982.85 455.071" fill="white"/>
<path fill-rule="evenodd" clip-rule="evenodd" d="M3912.96 580.833C3884.29 596.409 3803.92 643.045 3775.63 643.14C3771.33 643.14 3784.81 629.666 3783.08 626.703C3776.11 615.331 3750.59 630.908 3743.43 635.304C3741.61 636.451 3746.68 632.437 3747.92 630.717C3751.45 626.034 3749.06 624.696 3743.62 625.079C3698.99 628.806 3653.69 662.444 3610.02 673.338C3567.21 684.042 3524.3 694.076 3480.63 699.905C3464.76 702.007 3448.8 702.294 3432.94 704.205C3424.24 705.257 3412.01 705.926 3412.01 705.926C3435.52 704.014 3601.61 642.758 3603.14 636.355C3604.76 629.857 3579.06 618.198 3602.37 602.048C3614.8 593.447 3629.9 615.522 3631.14 614.758C3638.69 610.171 3629.8 589.624 3644.14 584.942C3652.83 582.075 3660.19 600.805 3670.22 594.689C3681.98 587.522 3675.58 547.959 3713.04 531.139C3750.59 514.32 3758.24 551.112 3777.26 547.959C3787.96 546.143 3792.26 531.522 3801.24 528.75C3808.31 526.552 3815.96 532.477 3823.51 530.757C3866.42 520.914 3951.95 461.76 3981.76 432.709" fill="white"/>
<path fill-rule="evenodd" clip-rule="evenodd" d="M3535.38 150.795C3533.47 146.877 3519.23 154.618 3517.7 155.191C3456.83 179.465 3400.07 204.693 3337.57 224.188C3319.7 229.731 3302.11 235.561 3284.15 240.912C3275.64 243.492 3258.82 245.881 3250.89 250.946C3250.51 251.233 3249.55 252.38 3249.93 251.997C3251.18 250.66 3312.91 215.97 3278.7 223.806C3242.1 232.12 3205.12 242.537 3167.46 247.124C3153.51 248.844 3138.51 246.837 3124.75 248.271C3121.69 248.557 3114.33 252.284 3115.67 249.513C3117.58 245.499 3117.48 247.506 3120.64 246.359C3204.06 215.97 3290.74 188.925 3362.7 135.027" fill="white"/>
<path fill-rule="evenodd" clip-rule="evenodd" d="M348.043 157.198C339.538 197.048 548.058 268.817 569.847 273.786C603.199 281.431 636.455 288.312 669.52 296.721C675.732 298.346 693.793 304.558 688.25 301.308C585.041 240.052 497.218 165.226 418.474 74.1532" fill="white"/>
<path fill-rule="evenodd" clip-rule="evenodd" d="M583.704 717.011C622.981 765.462 935.283 838.759 998.738 840.384C1057.8 841.913 1117.24 838.759 1176.3 841.148C1182.03 841.339 1197.61 844.971 1193.5 840.957C1184.9 832.548 1009.35 820.602 976.854 804.834C970.929 801.967 982.492 798.24 983.925 797.571C1008.49 786.677 993.864 765.94 977.714 754.663C961.755 743.578 935.857 743.578 924.867 762.404C923.147 765.271 926.014 774.827 923.529 772.438C905.945 755.236 905.563 724.178 876.034 754.376C875.078 755.428 867.242 729.052 867.146 728.67C861.508 702.199 829.876 671.618 800.634 669.325C780.948 667.796 737.753 698.472 758.299 718.54C761.166 721.407 777.221 739.851 777.125 739.755C769.098 737.175 747.596 714.144 741.193 727.332C737.18 735.55 741.48 740.711 729.917 738.895C709.275 735.741 693.029 717.967 672.387 716.629C599.472 711.851 538.502 692.164 468.454 661.775" fill="white"/>
</svg>
