<svg viewBox="0 0 2150 674" fill="none" xmlns="http://www.w3.org/2000/svg">
<path fill-rule="evenodd" clip-rule="evenodd" d="M481.978 714.146C533.869 706.884 620.355 672.098 647.208 672.958C702.731 674.679 755.673 698.378 810.718 697.518C848.848 696.945 881.722 674.392 920.138 673.819C983.497 672.767 1045.61 699.143 1108.88 701.15C1158.47 702.679 1207.21 697.041 1256.81 697.709L1224.89 705.737C1179.69 707.553 1136.59 727.525 1089.38 724.467C1053.93 722.174 1024.97 696.658 989.613 698.378C909.626 702.201 828.684 761.355 747.454 726.283C653.802 685.955 628.095 741.287 548.204 725.805C526.606 721.6 504.149 718.065 481.978 714.146ZM481.978 714.146C462.674 716.822 448.149 715.771 443.275 707.553C442.701 706.597 459.425 709.942 461.623 710.419C468.313 711.757 475.193 713 481.978 714.146ZM1520.76 656.235C1514.45 656.904 1508.14 657.668 1501.93 658.242C1480.43 660.153 1461.7 668.371 1440.96 672.767C1377.41 686.528 1304.5 678.597 1240.28 678.023L1213.9 661.395C1234.93 648.207 1274.78 664.262 1297.62 665.6C1358.68 669.231 1393.18 645.914 1442.59 642.378C1468.48 640.562 1494.76 653.081 1520.76 656.235ZM1520.76 656.235C1528.78 655.375 1536.81 654.515 1544.74 654.419C1545.41 654.419 1546.94 655.279 1546.37 655.47C1537.86 657.286 1529.36 657.286 1520.76 656.235ZM664.696 627.852L756.246 648.016C730.54 629.668 698.335 626.037 664.696 627.852ZM256.639 610.077C274.7 606.733 283.301 591.538 304.707 589.722C333.185 587.333 354.4 599.948 384.312 594.023C424.162 586.187 460.285 603.866 498.128 613.04C533.2 621.545 567.221 617.149 602.771 614.187L664.792 627.852C615.959 630.624 563.781 645.149 522.784 644.003C507.972 643.62 498.128 628.521 484.845 624.125C459.234 615.62 430.469 617.818 404.094 618.774C364.339 620.207 324.967 628.426 285.403 619.921C274.7 617.723 265.908 613.9 256.639 610.077ZM705.789 582.842C758.253 595.265 807.277 619.921 866.145 625.081C923.579 630.146 972.507 606.733 1028.7 607.497C1074.95 608.071 1114.52 634.16 1158.76 637.791C1206.45 641.614 1244.77 612.371 1290.07 611.798C1318.54 611.415 1346.16 626.992 1375.02 626.037C1416.5 624.603 1451.19 599.279 1491.32 594.692C1556.31 587.333 1620.81 602.91 1687.23 592.589L705.789 582.842C672.628 575.006 638.129 571.948 598.948 581.791L705.789 582.842ZM256.639 610.077C250.14 611.224 242.495 610.938 232.557 607.88C230.072 607.115 227.97 605.108 226.632 602.91C222.905 596.794 241.157 604.153 247.847 606.637C250.809 607.784 253.772 608.931 256.639 610.077ZM529.473 535.251L508.927 534.582C515.808 534.869 522.593 535.155 529.473 535.251L1018.47 552.261C1040.84 563.06 1063.29 573.763 1088.81 574.91C1110.02 575.866 1144.71 564.302 1176.73 557.804L1018.47 552.261C997.258 541.94 976.043 531.524 952.439 529.135C919.565 525.79 888.124 539.647 855.728 541.367C830.691 542.705 808.711 531.237 783.482 531.237C697.761 531.237 615.29 537.545 529.473 535.251ZM1726.51 560.098L1697.93 561.818C1707.87 561.531 1717.33 560.958 1726.51 560.098L1934.07 547.865C1908.08 543.947 1882.56 527.415 1855.99 533.626C1810.32 544.425 1771.71 555.797 1726.51 560.098ZM220.038 555.224C184.87 562.582 147.791 562.296 110.617 559.524C73.4428 556.753 36.1729 551.497 0.71875 548.821L220.038 555.224ZM1176.63 557.804C1189.25 555.224 1201.38 553.408 1212.09 553.408C1222.88 553.408 1232.15 555.224 1239.13 559.906L1176.63 557.804ZM2019.12 542.896L1934.07 547.865C1935.79 548.152 1937.51 548.343 1939.23 548.439C1966.18 550.637 1992.65 546.719 2019.12 542.896L2105.61 537.831C2076.46 534.391 2047.89 538.691 2019.12 542.896ZM860.506 500.084C888.22 496.261 915.838 493.681 943.169 497.121C966.104 500.083 988.466 504.862 1010.64 510.404L1337.94 532.957C1267.99 536.589 1174.24 546.91 1150.92 543.661C1102.86 536.876 1057.18 522.063 1010.54 510.404L860.506 500.084ZM219.847 525.121L287.601 527.51C299.26 530.664 310.823 534.009 322.387 536.111C372.653 545.476 430.374 542.323 480.258 534.295L287.601 527.51C271.547 523.21 255.396 519.196 239.055 519.005C231.792 519.005 225.58 521.776 219.847 525.121ZM1338.13 532.957L1418.22 538.5C1414.39 531.142 1380.66 530.855 1338.13 532.957ZM148.174 522.637C161.075 529.804 172.829 537.353 191.655 538.022C201.785 538.405 210.195 530.855 219.847 525.217L148.174 522.637C131.832 513.558 113.675 505.053 77.3609 512.029C72.6783 512.889 52.7055 513.94 46.1116 519.005L148.174 522.637ZM1255.09 501.23C1278.88 507.155 1302.01 513.654 1322.27 515.947C1373.97 521.776 1428.25 503.428 1480.05 501.708C1481.48 501.613 1483.01 501.613 1484.44 501.613L1255.09 501.23C1212.28 490.527 1166.98 481.449 1131.05 501.039L1255.09 501.23ZM1484.54 501.517C1491.8 501.326 1498.87 501.421 1505.94 501.517L1755.65 501.804C1666.78 527.224 1591.47 503.524 1505.94 501.517H1484.54ZM490.483 474.568C534.06 472.37 577.638 469.503 621.884 471.414C641.761 472.274 659.822 479.442 677.788 487.469L860.506 500.084C821.899 505.435 783.1 513.08 744.492 509.64C720.41 507.538 699.099 496.93 677.788 487.469L490.483 474.568ZM272.789 480.302C275.656 480.397 278.427 480.493 281.294 480.875C283.301 481.066 285.308 481.449 287.315 481.926L402.278 494.541C414.51 494.636 424.353 495.401 428.558 497.408L402.278 494.541C376.571 494.254 340.926 496.548 328.12 495.114C313.69 493.49 301.171 485.176 287.41 481.926L272.789 480.302C253.007 479.92 233.512 485.08 213.539 481.735C188.884 477.722 163.751 470.65 139.191 465.585L272.789 480.302ZM1104.96 442.841C1118.82 440.452 1132.29 435.673 1146.53 435.196C1173.67 434.336 1202.53 439.974 1231.49 446.186C1255.18 442.363 1278.79 439.878 1302.2 440.738C1323.99 441.503 1341.29 457.175 1360.4 465.967L1533.66 472.752C1488.74 492.916 1413.53 484.698 1367.76 468.93C1365.27 468.07 1362.79 467.018 1360.4 465.967L1168.22 458.418C1180.36 455.933 1192.5 453.448 1204.63 451.059L1104.96 442.841ZM1797.22 474.664C1823.69 477.053 1849.97 480.78 1878.07 481.64C1900.24 482.309 1921.65 478.295 1943.15 475.046L1797.22 474.664C1771.99 472.37 1746.57 471.128 1719.43 474.472L1797.22 474.664ZM1943.05 474.95L2054.48 475.237C2082.19 477.244 2109.62 478.486 2139.05 475.428L2054.48 475.237C2033.46 473.708 2012.34 471.797 1990.17 471.128C1974.3 470.65 1958.63 472.657 1943.05 474.95ZM490.483 474.568L283.492 460.329C353.54 480.206 421.868 478.104 490.483 474.568ZM955.115 450.104L927.21 448.957C934.091 447.523 943.838 448.192 955.115 450.104L1168.22 458.513C1132.77 465.681 1097.12 472.083 1061.38 471.51C1035.2 470.937 988.371 455.551 955.115 450.104ZM1376.93 425.544C1378.37 425.83 1379.9 426.213 1381.33 426.595C1406.84 433.667 1428.06 454.404 1454.24 456.984C1475.94 459.087 1495.91 450.773 1517.22 449.435C1624.92 442.554 1735.11 450.964 1842.33 424.11L1376.93 425.544ZM436.49 434.527L522.784 435.865C537.787 440.643 552.887 445.039 569.132 445.23C591.685 445.421 614.525 441.312 636.696 437.68L522.784 435.865C506.538 430.704 490.388 425.161 472.9 424.397C460.094 423.919 449.009 431.755 436.49 434.527ZM924.439 427.933C941.067 422.486 957.886 417.134 976.521 418.854C1005.86 421.53 1034.62 432.233 1063.58 439.496L1104.96 442.936C1096.93 444.274 1088.9 444.848 1080.49 443.319C1074.86 442.267 1069.22 440.929 1063.58 439.592L924.439 427.933ZM1941.62 435.1C1959.87 438.063 1977.17 441.598 1982.33 442.65C2008.51 447.906 2026.48 437.107 2051.23 435.96C2084.58 434.431 2115.45 441.025 2149.28 434.527L1941.62 435.1ZM804.984 418.09L597.993 400.984C604.778 382.922 677.693 387.892 685.816 388.274C727.673 390.09 766.28 404.424 804.984 418.09L924.439 427.933C904.179 434.527 884.111 441.216 860.889 435.482C841.967 430.8 823.523 424.493 804.984 418.09ZM417.377 434.24C421.104 435.005 424.449 435.482 427.316 435.578C430.469 435.674 433.527 435.291 436.585 434.622L417.377 434.24C389.568 428.697 340.544 408.342 324.393 432.711L417.377 434.24ZM1941.62 435.1L1890.11 435.196C1889.63 428.315 1916.58 431.086 1941.62 435.1ZM1302.97 425.735C1327.24 424.97 1353.23 420.288 1376.84 425.544L1302.97 425.735C1299.14 425.83 1295.42 425.926 1291.69 425.735H1302.97ZM1819.2 397.066H1819.01C1868.61 399.55 1934.64 409.393 1961.21 409.011C1983 408.629 2004.41 408.056 2024.76 400.793C2031.26 398.499 2038.9 395.25 2045.88 392.765C2049.61 391.81 2053.33 390.759 2057.06 389.516C2059.64 388.656 2051.8 390.854 2049.13 391.619C2048.08 392.001 2046.93 392.383 2045.78 392.765C1990.74 407.004 1949.65 391.523 1894.51 387.223C1869.76 385.311 1844.05 392.383 1820.35 396.875C1820.06 396.875 1819.58 396.97 1819.2 397.066ZM1798.75 396.492H1798.94H1799.52H1799.8H1799.9H1799.99H1800.09H1800.19H1800.28H1800.47H1800.76H1801.05H1801.14H1801.24C1804.96 396.492 1808.69 396.588 1812.42 396.779H1812.61H1812.99H1813.09C1814.42 396.875 1815.76 396.875 1817.2 396.97H1817.39L1818.53 397.066H1819.01C1799.99 400.506 1779.83 401.079 1759.67 401.462L1711.98 403.946C1727.46 402.131 1743.52 401.844 1759.67 401.462L1763.39 401.271L1818.92 397.066H1818.63H1818.53L1817.48 396.97H1817.2H1816.72H1815.86C1815.38 396.97 1814.9 396.97 1814.42 396.875H1813.76H1813.18H1813.09H1812.99H1812.8H1812.61H1812.51H1812.42C1808.6 396.683 1804.77 396.683 1801.24 396.588H1801.05H1800.57H1800.38H1800.28H1800.19H1800.09H1799.99H1799.8H1798.94L1798.75 396.492ZM686.771 331.7L576.969 327.495C614.621 324.533 650.935 326.826 686.771 331.7L1735.11 371.646C1668.5 376.233 1601.41 392.861 1535.57 400.315C1469.53 407.673 1409.14 381.393 1344.92 380.82C1271.62 380.151 1202.72 406.144 1128.37 402.8C1061.57 399.837 1008.53 362.854 944.698 350.717C902.172 342.69 860.22 363.809 818.649 355.973C774.403 347.564 731.017 337.721 686.771 331.7ZM1798.75 396.492H1798.08H1797.51H1797.22H1796.46H1795.69H1795.41H1794.93H1794.64H1794.16H1793.88H1793.4H1793.11H1792.64H1792.35H1791.87H1791.58H1790.15H1790.06H1789.29H1789.2H1788.43H1788.24H1787.67H1787.48H1786.9H1786.71H1785.95H1785.18H1784.99H1784.42H1784.23H1783.75H1783.56L1782.41 396.588H1782.22H1781.93H1781.65H1781.26H1780.98H1780.59H1780.31H1779.93H1779.64H1779.26H1778.97H1778.59H1778.3H1777.92H1777.63H1777.25H1777.06L1776.29 396.683H1776.1L1775.72 396.779H1775.43L1775.15 396.875H1774.86L1774.57 396.97H1774.29L1773.91 397.066H1773.71H1773.52L1773.14 397.161H1772.85L1772.66 398.404L1772.38 398.499L1772.09 398.595L1771.71 398.69H1771.61L1771.13 398.786L1770.66 398.881H1770.47L1770.08 398.977H1769.89L1769.61 399.073L1769.22 399.168H1769.13L1768.75 399.264H1768.65L1768.27 399.359H1768.17L1767.79 399.455L1767.41 399.55L1767.12 399.646L1766.64 399.837L1765.97 400.124L1765.69 400.219C1764.92 400.506 1764.25 400.793 1763.58 401.175H1763.49L1819.01 396.97H1818.63L1817.48 396.875H1817.2H1816.62H1815.76C1815.28 396.875 1814.81 396.875 1814.33 396.779H1813.66H1812.9H1812.7H1812.51C1808.4 396.588 1804.39 396.492 1800.28 396.492H1800.09H1799.99H1798.75ZM1798.18 396.492H1797.7H1797.61H1797.41H1797.32H1797.03H1796.55C1796.27 396.492 1795.98 396.492 1795.79 396.492H1795.6H1795.22H1795.12H1795.03H1794.93H1794.74H1794.55H1794.36H1794.26H1794.16H1793.97H1793.88H1793.59H1793.5H1793.3H1793.11H1792.73H1792.54H1791.78L1790.25 396.588H1789.58H1789.48H1789.39H1789.2H1788.72H1788.62H1788.53H1788.43H1788.34H1788.05H1787.86H1787.76H1787.67H1787.57H1787.28H1787H1786.9H1786.81H1786.71H1786.52H1786.04H1785.66H1785.37H1785.28H1785.18H1785.09H1784.99H1784.61H1784.51H1784.42H1784.32L1783.65 396.683L1782.32 396.779H1781.93H1781.84H1781.65H1781.55H1781.36H1781.26H1781.07H1780.98H1780.79H1780.59H1780.4H1780.31H1780.21H1780.02H1779.83H1779.73H1779.54H1779.35H1779.16H1778.97H1778.78H1778.59H1778.49H1778.3L1777.73 396.875L1776.77 396.97H1776.68H1776.39H1776.2H1776.1H1775.91H1775.82H1775.63H1775.53H1775.34H1775.15H1774.96H1774.86H1774.57H1774.38H1774.19L1773.91 397.066H1773.71H1773.43H1773.33H1773.24H1773.05H1772.85H1772.76H1772.66H1772.57H1772.47H1772.38H1772.19L1771.9 397.161L1771.42 397.257H1771.33L1771.04 397.352H1770.85L1770.56 397.448L1770.27 397.544C1770.18 397.544 1769.99 397.639 1769.89 397.639C1769.8 397.639 1769.61 397.735 1769.51 397.735C1769.41 397.735 1769.22 397.83 1769.13 397.83H1768.94L1768.75 397.926L1768.55 398.021L1768.27 398.117L1767.98 398.212L1767.5 398.404L1767.31 398.499L1767.02 398.595H1766.93L1766.64 398.69H1766.55L1766.26 398.786L1765.97 398.881L1765.69 398.977H1765.59L1765.3 399.073H1765.21L1764.92 399.168L1764.83 399.264H1764.73H1764.64H1764.54L1764.73 399.168H1764.83C1764.92 399.168 1765.02 399.073 1765.11 399.073C1765.21 399.073 1765.3 398.977 1765.4 398.977C1765.5 398.977 1765.59 398.881 1765.69 398.881L1765.78 398.786L1765.88 398.69C1765.97 398.69 1766.07 398.595 1766.16 398.595C1766.26 398.595 1766.36 398.499 1766.45 398.499C1766.55 398.499 1766.64 398.404 1766.74 398.404L1766.83 398.308H1766.93C1767.22 398.213 1767.41 398.117 1767.69 398.021H1767.79H1767.88H1767.98L1768.17 397.926C1768.27 397.926 1768.46 397.83 1768.55 397.83C1769.03 397.735 1769.51 397.544 1769.99 397.448H1770.08L1770.27 397.352H1770.37C1770.56 397.352 1770.66 397.257 1770.85 397.257L1771.33 397.161C1771.52 397.161 1771.71 397.066 1771.8 397.066L1772.09 396.97H1772.28H1772.38H1772.47H1772.57C1773.05 396.875 1773.62 396.779 1774.1 396.683H1774.19L1774.57 396.588H1774.67H1774.77L1775.05 396.492H1775.15H1775.24H1775.34H1775.53H1775.63H1775.72H1775.82H1776.01H1776.2H1776.29H1776.39H1776.49C1776.77 396.492 1777.06 396.397 1777.25 396.397H1777.44H1777.73H1777.82H1778.11H1778.3H1778.4H1778.78H1778.87H1778.97H1779.35H1779.45H1779.54H1779.93H1780.02H1780.12H1780.5H1780.59H1780.69H1780.98H1781.07H1781.17H1781.26H1781.55H1781.74H1781.84H1781.93H1782.03C1782.41 396.397 1782.79 396.301 1783.18 396.301H1783.27H1783.46H1783.75H1783.94H1784.13H1784.23H1784.32H1784.61H1784.9H1784.99H1785.28H1785.76H1786.14H1786.33H1786.42H1786.62H1786.9H1787H1787.09H1787.38H1787.57H1787.67H1787.86H1788.24H1788.34H1788.72H1789H1789.1H1789.67H1789.77H1789.86H1789.96C1790.44 396.301 1790.92 396.301 1791.39 396.301H1791.49H1791.68H1791.97H1792.16H1792.35H1792.54H1792.73H1792.92H1793.21H1793.4H1793.5H1793.69H1793.97H1794.16H1794.26H1794.45H1794.93H1795.03H1795.12H1795.79C1796.08 396.301 1796.36 396.301 1796.65 396.301H1797.13H1797.41H1797.51H1797.8H1798.18V396.492ZM489.91 391.141C509.405 396.11 530.811 396.301 552.122 394.008C573.433 391.81 594.648 387.223 613.665 382.54L489.91 391.141ZM1747.63 353.106L1736.73 352.724C1740.46 352.82 1744.09 352.915 1747.63 353.106L2005.27 363.045C1965.13 364.765 1923.08 377.571 1883.33 375.277C1835.64 372.601 1798.94 356.164 1747.63 353.106ZM1735.11 371.55L1828.09 375.086C1797.32 369.926 1766.26 369.448 1735.11 371.55ZM1323.04 327.209C1358.11 337.434 1393.08 353.202 1425.29 352.915C1464.57 352.437 1494.67 325.488 1532.7 320.615C1569.3 315.932 1605.81 328.355 1641.74 313.83L1323.04 327.209ZM1273.53 318.608H1272.77C1256.71 318.608 1240.95 322.144 1225.85 331.318L1323.04 327.209C1306.5 322.335 1289.87 318.703 1273.53 318.608ZM566.17 278.758L509.692 278.089C528.9 276.846 547.726 277.324 566.17 278.758L1184.28 286.403C1157.61 289.079 1116.9 296.628 1081.26 303.126L1321.03 288.887C1323.32 288.696 1325.62 288.505 1327.91 288.505L1321.03 288.887C1293.79 291.277 1263.79 302.935 1237.51 308.956C1204.06 316.601 1105.63 312.492 1062.62 306.471C1042.27 310.103 1025.16 312.874 1015.61 313.543C966.487 316.601 919.087 302.362 871.401 294.812C828.11 288.027 783.291 303.127 739.714 300.833C679.795 297.775 624.368 283.345 566.17 278.758ZM560.34 307.236L524.982 306.567C537.787 305.229 549.159 305.898 560.34 307.236L638.225 308.669C627.235 310.294 616.054 314.212 605.447 313.352C589.296 311.918 575.057 308.956 560.34 307.236ZM638.225 308.669L654.471 308.956C649.119 307.618 643.672 307.809 638.225 308.669ZM1184.28 286.403C1190.77 285.734 1196.41 285.447 1200.9 285.447C1205.49 285.447 1208.84 285.925 1210.94 286.785L1184.28 286.403ZM988.371 244.45L981.012 244.259C978.814 239.29 984.262 243.399 988.371 244.45L1655.31 265.57C1632.38 267.959 1607.82 274.648 1587.17 274.84C1468.48 276.369 1348.17 285.829 1230.63 277.993C1171.85 274.075 1119.87 264.901 1061.38 253.816C1037.49 249.324 1009.2 249.133 988.658 244.45C988.658 244.546 988.466 244.546 988.371 244.45ZM1671.08 264.805H1670.51C1665.44 264.805 1660.28 265.188 1655.22 265.665L1688.76 266.717C1683.22 265.379 1677.29 264.805 1671.08 264.805ZM761.12 260.887C716.396 250.757 673.106 256.587 628 257.256C605.829 257.543 585.952 249.515 564.354 248.942C533.678 248.177 498.893 258.88 468.217 261.747L761.12 260.887ZM627.426 230.116L729.68 230.689C739.905 232.792 750.13 234.607 760.356 235.467C775.741 236.71 790.936 234.512 806.131 231.167L729.68 230.785C707.318 226.198 684.86 220.559 661.734 221.993C651.604 222.471 639.276 227.344 627.426 230.116ZM1126.27 206.416C1127.51 204.027 1166.88 206.703 1210.27 212.054C1253.66 217.406 1300.86 225.624 1317.97 234.321L1126.27 206.416ZM1599.12 227.44C1588.99 230.498 1578.67 233.269 1568.25 233.269C1535.09 233.269 1500.78 229.925 1467.43 226.484L1599.12 227.44ZM806.035 231.071L1219.16 233.174C1142.52 205.269 1059.57 229.733 980.917 228.109C944.029 227.344 911.824 208.327 873.599 214.443C851.237 217.979 828.779 225.911 806.035 231.071ZM627.426 230.116C622.839 231.167 618.252 231.931 613.952 232.027C609.651 232.123 605.447 231.549 601.72 229.925L627.426 230.116ZM1599.12 227.44C1608.29 224.669 1617.37 221.706 1626.45 220.273C1643.94 217.597 1661.14 224.286 1678.34 228.013L1712.74 228.204C1705.67 229.351 1698.89 230.402 1693.82 230.211C1688.66 229.925 1683.5 229.16 1678.34 228.013L1599.12 227.44ZM1712.74 228.204L1743.61 228.396C1736.64 224.573 1724.31 226.389 1712.74 228.204ZM1521.23 177.938C1514.16 179.18 1496.1 183.194 1474.98 185.487C1459.31 187.208 1443.92 188.259 1428.25 189.214C1422.23 189.597 1407.42 187.59 1410.48 192.846C1414.78 200.395 1450.9 198.484 1458.16 199.44C1480.91 202.211 1503.94 204.6 1526.78 206.416C1531.56 206.798 1541.02 208.136 1541.02 208.136C1541.02 208.136 1521.71 207.467 1512.06 208.232C1491.32 209.761 1381.62 225.815 1369.1 217.501C1362.31 213.01 1392.99 215.208 1391.36 207.18C1391.17 206.129 1381.81 205.938 1380.66 205.843C1351.04 204.505 1320.36 202.116 1291.12 198.484C1289.97 198.293 1288.73 198.006 1287.58 198.006C1284.91 198.006 1282.23 198.484 1279.55 198.484C1252.6 198.58 952.534 180.327 943.074 174.02L1001.08 156.818C1033.38 176.791 1348.65 184.15 1406.94 180.709C1413.73 180.327 1503.08 178.607 1521.23 177.938C1523.53 177.556 1524.67 177.46 1524.48 177.747C1524.39 177.747 1523.24 177.842 1521.23 177.938ZM792.561 201.924L708.56 203.453C719.263 206.129 729.393 212.245 740.765 212.15C759.304 211.863 775.55 205.556 792.561 201.924L854.295 200.778C841.585 200.109 828.397 199.535 813.489 199.44C806.322 199.44 799.346 200.491 792.561 201.924ZM708.656 203.453L689.734 203.836C696.423 201.542 702.635 201.924 708.656 203.453ZM854.295 200.778L958.459 198.866C915.169 204.696 886.5 202.498 854.295 200.778ZM1175.96 137.992C1224.03 138.757 1272.1 138.374 1319.98 142.293C1341.29 144.013 1377.98 153.474 1407.99 158.73L1444.59 161.979C1435.8 162.839 1422.71 161.31 1407.99 158.73L1175.96 137.992C1141.46 137.419 1107.06 136.272 1072.66 132.45C1051.44 130.06 962.76 133.31 950.336 117.828L1175.96 137.992ZM1177.11 101.296C1188.48 99.48 1199.85 98.3332 1211.03 99.0977C1218.01 99.5755 1224.89 100.436 1231.77 101.582L1421.18 102.442C1384.39 104.545 1347.79 113.815 1310.13 113.241C1283.47 112.859 1257.77 105.692 1231.77 101.487L1177.11 101.296ZM1055.55 100.722L869.394 99.8623C918.991 99.48 966.296 100.531 1015.89 97.8554C1029.08 97.0909 1042.27 98.6199 1055.55 100.722L1177.11 101.296C1154.84 104.832 1132.29 110.757 1110.21 109.227C1092.06 107.985 1073.8 103.78 1055.55 100.722ZM1421.08 102.538C1426.82 102.251 1432.55 102.06 1438.38 102.156C1441.25 102.156 1445.64 102.442 1451.19 102.729L1622.72 103.494C1612.21 114.197 1494.95 105.118 1451.19 102.729L1421.08 102.538ZM1424.62 73.2C1436.18 74.06 1447.75 75.0157 1459.31 75.9713C1502.79 79.5072 1546.85 76.258 1590.52 76.258L1424.62 73.2C1273.44 61.6367 1128.18 55.2339 975.661 59.4387C957.313 59.9166 805.366 56.094 800.683 61.8278L1424.62 73.2ZM1590.52 76.1624C1595.2 76.1624 1599.88 76.1624 1604.66 76.258C1609.34 76.3535 1614.03 76.4491 1618.71 76.6402L1590.52 76.1624ZM1009.87 39.3703C1030.13 38.797 1047.33 38.3192 1057.75 38.7014C1101.23 39.9437 1145.29 36.3123 1189.05 39.9437C1211.7 41.855 1234.54 44.2441 1257.57 46.6332L1513.69 54.0872C1493.43 58.0053 1469.34 50.9336 1448.32 53.036C1385.44 59.2476 1321.12 53.1315 1257.57 46.6332L1009.87 39.3703ZM1772.66 43.4796L1788.91 43.9574C1807.54 50.4558 1840.9 57.1452 1850.36 45.6776L1788.91 43.8619C1782.98 41.7595 1778.49 39.7526 1776.77 38.3192C1776.68 38.3192 1774.96 40.7083 1772.66 43.4796ZM714.007 14.5238L1073.61 24.3668C1085.27 25.0358 1096.93 25.7047 1108.49 26.2781C1259.77 33.541 1412.29 35.8345 1563.09 46.5376C1626.45 51.0291 1704.43 37.8413 1763.78 51.6025C1765.3 51.9848 1769.41 47.3977 1772.57 43.4796L1073.52 24.3668C985.599 19.2064 896.821 11.179 808.806 10.9879C777.844 10.8923 745.543 14.3326 714.007 14.5238ZM1009.87 39.3703L856.971 34.8789C873.216 43.7663 953.203 40.9949 1009.87 39.3703ZM1279.65 9.45888L1367.57 11.4657C1427.77 15.8617 1487.21 19.4931 1548.66 15.4794L1367.57 11.4657C1349.79 10.2234 1331.92 8.78994 1313.86 7.64317C1302.49 6.7831 1291.02 8.02542 1279.65 9.45888ZM714.007 14.5238C709.324 14.5238 704.546 14.5238 699.864 14.4282C695.181 14.3326 690.498 14.1415 685.911 13.7593L714.007 14.5238ZM1190.87 7.5476C1207.59 10.4145 1223.46 13.1859 1236.26 13.4726C1250.69 13.8548 1265.22 11.3702 1279.65 9.55445L1190.87 7.5476C1160 2.29159 1126.36 -3.34667 1104.96 5.63633L1190.87 7.5476Z" fill="white"/>
</svg>
