<svg viewBox="0 0 256 212" fill="none" xmlns="http://www.w3.org/2000/svg">
<path fill-rule="evenodd" clip-rule="evenodd" d="M77.0044 0H253.334C254.444 0 255.499 0.832791 255.999 1.94318V66.6233C255.999 67.2895 255.555 67.9558 254.889 68.3999L231.848 81.3359V126.529C231.848 127.417 231.404 128.305 230.516 128.527L2.88603 211.418C2.66395 211.64 2.44188 211.64 2.2198 211.64H1.55356C1.44253 211.64 1.38701 211.584 1.33149 211.529C1.27597 211.473 1.22045 211.418 1.10941 211.418L0.221102 210.53V210.308C0.0933956 210.18 0.0391269 210.126 0.0160654 210.06C-0.000976562 210.012 -0.000976562 209.958 -0.000976562 209.863V208.531L75.2278 1.33247C75.4499 0.44416 76.1161 0 77.0044 0Z" fill="#19766A"/>
<path fill-rule="evenodd" clip-rule="evenodd" d="M253.775 66.9009C253.775 66.9009 253.997 66.6788 253.997 66.4567V1.72111C253.997 1.49903 253.775 1.27695 253.553 1.27695H77.0015C76.7794 1.27695 76.5574 1.49903 76.5574 1.72111L7.04706 193.43L72.6155 52.8545C72.8376 52.1883 73.5038 51.7441 74.3921 51.7441H229.624C230.735 51.7441 231.623 52.6324 231.623 53.7428V79.3927L253.775 66.9009ZM221.519 58.5175H227.015V55.686H218.465V75.6174H227.015V72.7859H221.519V66.8454H225.905V64.0139H221.519V58.5175ZM223.517 99.7684H226.571V79.8369H223.517V99.7684ZM223.739 123.864H226.571V103.71H223.073L220.464 112.038L219.353 116.424V103.71H216.522V123.642H219.797L222.407 114.426L223.739 109.595V123.864ZM212.746 55.9081V75.8395H215.8V55.9081H212.746ZM215.578 87.221V80.0035H212.524V99.9349H217.132C220.186 99.9349 221.741 98.1583 221.741 94.8827V92.2733C221.741 88.9976 220.186 87.221 217.132 87.221H215.578ZM211.47 123.864H214.301V103.71H210.803L208.194 112.038L207.083 116.424V103.71H204.252V123.642H207.528L210.137 114.426L211.47 109.595V123.864ZM210.803 68.1778C210.803 64.9022 209.249 63.1256 206.195 63.1256V63.3476H204.641V55.9081H201.587V75.8395H206.195C209.249 75.8395 210.803 74.0629 210.803 70.7872V68.1778ZM200.699 79.8369V82.6684H204.03V99.7684H207.083V82.6684H210.359V79.8369H200.699ZM198.978 110.539H202.031V108.318C202.031 105.043 200.477 103.266 197.423 103.266C194.37 103.266 192.815 105.043 192.815 108.318V118.867C192.815 122.143 194.37 123.919 197.423 123.919C200.477 123.919 202.031 122.143 202.031 118.867V116.258H198.978V119.089C198.978 120.644 198.533 121.088 197.423 121.088C196.535 121.088 195.869 120.644 195.869 119.089V108.318C195.869 106.764 196.313 106.32 197.423 106.32C198.311 106.32 198.978 106.764 198.978 108.318V110.539ZM195.869 55.686V64.236H192.371V55.686H189.317V75.6174H192.371V67.0675H195.869V75.6174H199.144V55.686H195.869ZM188.651 99.7684H191.705V93.8833L192.593 92.1067L195.646 99.9905H198.922L194.536 88.8311L198.922 79.8369H195.869L191.705 88.609V79.8369H188.651V99.7684ZM187.319 110.539H190.372V108.318C190.372 105.043 188.818 103.266 185.764 103.266C182.71 103.266 181.156 105.043 181.156 108.318V118.867C181.156 122.143 182.71 123.919 185.764 123.919C188.818 123.919 190.372 122.143 190.372 118.867V116.258H187.319V119.089C187.319 120.644 186.874 121.088 185.764 121.088C184.876 121.088 184.21 120.644 184.21 119.089V108.318C184.21 106.764 184.654 106.32 185.764 106.32C186.652 106.32 187.319 106.764 187.319 108.318V110.539ZM185.32 90.9963V88.1648H180.934V82.6684H186.43V79.8369H177.88V99.7684H186.43V96.9369H180.934V90.9963H185.32ZM186.874 68.1778C186.874 64.9022 185.32 63.1256 182.266 63.1256V63.3476H180.712V55.9081H177.658V75.8395H182.266C185.32 75.8395 186.874 74.0629 186.874 70.7872V68.1778ZM174.16 124.141C177.214 124.141 178.991 122.365 178.991 119.089V108.54C178.991 105.265 177.214 103.488 174.16 103.488C171.107 103.488 169.33 105.265 169.33 108.54V119.089C169.33 122.365 171.107 124.141 174.16 124.141ZM162.723 116.424C165.777 116.424 167.332 114.648 167.332 111.372V108.985C167.332 105.709 165.777 103.932 162.723 103.932H158.115V123.864H161.169V116.424H162.723ZM175.493 95.1603V84.6116C175.493 81.3359 173.716 79.6148 170.663 79.5593C167.609 79.5593 165.833 81.3359 165.833 84.6116V95.1603C165.833 98.4359 167.609 100.213 170.663 100.213C173.716 100.213 175.493 98.4359 175.493 95.1603ZM171.773 75.8395H174.882V55.8525H165.888L165.444 71.0093C165.444 72.7859 165 73.008 163.445 73.008V75.8395H163.889C166.943 75.8395 168.275 74.507 168.498 70.7872L168.942 58.7395H171.773V75.8395ZM154.673 99.7684H157.727V92.5509H159.281C162.335 92.5509 163.889 90.7742 163.889 87.4986V84.8892C163.889 81.6135 162.335 79.8369 159.281 79.8369H154.673V99.7684ZM151.12 75.8395H153.951L154.84 72.1197H158.782L159.226 75.8395H162.279L159.004 55.9081H154.396L151.12 75.8395ZM148.733 99.7684H152.008H152.064V79.8369H142.181V99.7684H145.235V82.6684H148.733V99.7684ZM145.846 55.686V64.236H142.348V55.686H139.294V75.6174H142.348V67.0675H145.846V75.6174H149.121V55.686H145.846ZM127.247 60.4606V71.0093C127.247 74.1184 128.746 76.0616 132.077 76.0616C135.13 76.0616 136.907 74.285 136.907 71.0093V60.4606C136.907 57.185 135.13 55.4084 132.077 55.4084C129.023 55.4084 127.247 57.185 127.247 60.4606ZM121.25 55.686L118.641 64.0139L117.531 68.622V55.9081H114.699V75.8395H117.975L120.584 66.6233L121.917 61.571V75.6174H124.748V55.686H121.25ZM108.148 55.686V72.7859V73.008H104.428V55.9081H101.375V75.8395H109.702V78.5044H112.756V73.008H111.424V55.686H108.148ZM91.6586 55.9081L88.383 75.8395H91.6586L92.1028 72.1197H96.0447L96.4888 75.8395H99.5424L96.2667 55.9081H91.6586ZM83.1642 55.686V64.236H79.6664V55.686H76.6129V75.6174H79.6664V67.0675H83.1642V75.6174H86.4398V55.686H83.1642ZM77.0015 0H253.331C254.442 0 255.496 0.832791 255.996 1.94318V66.6233C255.996 67.2895 255.552 67.9558 254.886 68.3999L231.845 81.3359V126.529C231.845 127.417 231.401 128.305 230.513 128.527L2.8831 211.418C2.66102 211.64 2.43895 211.64 2.21687 211.64H1.77271H1.55063C1.4396 211.64 1.38408 211.584 1.32856 211.529C1.27304 211.473 1.21752 211.418 1.10648 211.418L0.884403 211.196L0.662325 210.974L0.440246 210.752L0.218172 210.53V210.308C-0.00390541 210.085 -0.00390625 210.085 -0.00390625 209.863V209.641V209.197V208.975V208.531L75.2249 1.33247C75.447 0.44416 76.1132 0 77.0015 0ZM163.834 24.3175H159.448V36.3652H157.061V24.3175H152.675V22.3188H163.834V24.3175ZM170.885 29.814L173.716 22.5964H176.326L171.495 34.2L171.051 35.0883C170.385 36.1987 169.275 36.8649 167.998 36.8649H166.887V34.8662H167.776C168.442 34.8662 168.886 34.6442 169.33 33.9779L169.774 32.8675L164.944 22.5409H167.554L170.885 29.814ZM183.543 29.3698H180.711V29.3143H180.489V24.4841H183.543C184.431 24.4841 185.097 24.7062 185.542 25.1503C185.986 25.5945 186.208 26.2607 186.208 26.927C186.208 27.5932 185.986 28.2594 185.542 28.7036C185.097 29.1477 184.431 29.3698 183.543 29.3698ZM180.711 36.5873V31.313H180.767V31.5351H183.82C185.319 31.5351 186.652 31.0909 187.54 30.4247C188.429 29.5364 188.873 28.4815 188.873 27.149C188.873 25.8721 188.429 24.7617 187.54 23.8734C186.652 22.9851 185.375 22.5409 183.82 22.5409H178.324V36.5873H180.711ZM199.366 22.3188H201.809V36.3652H199.366V26.3162L193.259 36.3652H190.816V22.3188H193.259V32.4234L199.366 22.3188ZM211.192 24.7617C211.636 25.2059 211.858 25.65 211.858 26.3162C211.858 27.5932 211.025 28.4815 208.971 28.426H207.417V30.6468H209.193C210.081 30.6468 210.748 30.6468 211.192 31.0909C211.636 31.5351 211.858 31.9792 211.858 32.8675C211.858 33.5338 211.414 33.9779 210.97 34.4221C210.526 34.8662 209.859 35.0883 208.971 35.0883C208.083 35.0883 207.417 34.8662 206.972 34.4221C206.528 33.9779 206.306 33.5338 206.306 32.8675H203.919C203.919 33.7558 204.141 34.4221 204.585 35.0883C205.029 35.7545 205.473 36.1987 206.362 36.6428C206.972 36.8649 207.861 37.087 208.971 37.087C210.692 37.087 212.025 36.6429 212.913 35.9766C214.023 35.1438 214.468 34.2555 214.468 32.9231C214.468 32.2568 214.245 31.5906 213.801 30.9244C213.357 30.2581 212.913 29.814 212.025 29.5919C212.691 29.1477 213.135 28.7036 213.579 28.2594C214.023 27.8153 214.245 27.149 214.245 26.4828C214.245 25.4279 213.801 24.3175 212.913 23.6513C212.025 22.9851 210.748 22.5409 209.193 22.5409C208.36 22.5409 207.472 22.5409 206.806 22.9851C206.14 23.2071 205.473 23.6513 205.029 24.3175C204.585 24.7617 204.363 25.65 204.363 26.3162H206.75C206.75 25.65 206.972 25.2059 207.417 24.7617C207.861 24.3175 208.527 24.0955 209.193 24.0955C210.081 24.0955 210.748 24.3175 211.192 24.7617ZM220.019 22.3188L223.961 33.0896L227.903 22.3188H230.957V36.3652H228.569V31.7571L228.791 25.65L224.572 36.3652H222.851L218.687 25.65L218.909 31.7571V36.3652H216.466V22.3188H220.019ZM157.949 69.5103H154.839L156.394 59.1837L157.949 69.5103ZM160.78 87.4986V84.4451C160.78 82.8905 160.336 82.4464 159.226 82.4464H157.671V89.2198H159.226C160.336 89.4418 160.78 88.9977 160.78 87.4986ZM133.576 60.4606V71.2314C133.576 72.5639 132.91 73.2301 132.021 73.2301C131.133 73.2301 130.467 72.786 130.467 71.2314V60.4606C130.467 58.9061 130.911 58.462 132.021 58.462C132.91 58.462 133.576 58.9061 133.576 60.4606ZM162.723 106.542H161.169V113.315H162.723C163.834 113.315 164.278 112.871 164.278 111.316V108.263C164.278 107.208 163.612 106.542 162.723 106.542ZM206.417 72.786H204.863V65.9571H206.417C207.528 65.9571 207.972 66.4012 207.972 67.9558V70.7873C207.972 72.3418 207.528 72.786 206.417 72.786ZM93.6571 59.1837L92.1025 69.5103H95.2116L93.6571 59.1837ZM172.606 108.318C172.606 106.764 173.05 106.32 174.16 106.32C175.049 106.32 175.715 106.986 175.715 108.318V119.089C175.715 120.644 175.271 121.088 174.16 121.088C173.272 121.088 172.606 120.644 172.606 119.089V108.318ZM180.712 72.786H182.266C183.377 72.786 183.821 72.3418 183.821 70.7873V67.9558C183.821 66.4012 183.377 65.9571 182.266 65.9571H180.712V72.786ZM169.108 84.4451C169.108 82.8905 169.552 82.4464 170.663 82.4464C171.717 82.4464 172.162 82.8905 172.217 84.4451V95.2158C172.217 96.7704 171.773 97.2145 170.663 97.2145C169.774 97.2145 169.108 96.7704 169.108 95.2158V84.4451ZM218.687 95.1603V92.1067C218.687 90.5522 218.243 90.108 217.132 90.108H215.578V96.9369H217.132C218.021 96.9369 218.687 96.4927 218.687 95.1603Z" fill="#FEFEFE"/>
</svg>
