<svg width="352" height="192" viewBox="0 0 352 192" fill="none" xmlns="http://www.w3.org/2000/svg">
    <g>
        <path d="M190.375 140.313C189.675 140.113 188.975 139.913 188.275 139.613C186.275 138.613 184.175 137.613 182.275 136.613C181.875 136.413 181.775 135.713 181.475 135.313C181.875 135.113 182.275 134.913 182.675 134.713C185.275 133.313 187.775 131.913 190.275 130.413C193.275 128.613 196.075 126.613 198.975 124.713C200.075 123.913 201.375 123.313 201.275 121.613C201.275 121.413 202.075 120.913 202.375 121.013C206.375 121.613 210.475 121.913 214.075 124.013C218.475 126.613 222.875 128.913 227.275 131.513C229.275 132.713 230.775 134.413 230.575 137.213C231.475 137.213 232.475 137.213 233.375 137.213C240.375 136.813 247.475 136.213 254.475 135.913C261.975 135.713 269.375 135.613 276.875 135.913C286.675 136.313 296.375 137.413 305.875 139.513C311.675 140.813 317.475 141.813 323.175 143.513C329.975 145.513 336.675 148.113 342.675 152.113C344.175 153.113 345.275 154.913 346.275 156.513C346.775 157.313 346.675 158.513 346.775 159.613C347.075 159.613 347.575 159.513 348.075 159.413C348.675 163.813 347.075 166.513 342.875 169.113C336.775 172.713 330.275 175.413 323.375 177.113C316.875 178.813 310.275 180.313 303.675 181.513C298.275 182.513 292.775 182.913 287.275 183.513C282.175 184.113 277.075 184.813 271.975 185.213C267.175 185.613 262.275 185.713 257.475 185.713C253.575 185.713 249.675 185.513 245.775 185.313C242.575 185.113 239.275 184.413 236.175 184.813C233.575 185.113 231.075 186.513 228.475 187.513C226.775 188.113 225.275 189.013 223.575 189.513C221.375 190.213 219.175 191.113 216.875 191.413C211.575 192.313 206.475 191.313 201.775 188.913C197.775 186.913 196.375 183.013 197.575 178.313C196.375 178.213 195.275 178.013 194.075 177.913C188.975 177.113 183.875 176.413 178.875 175.413C174.175 174.513 169.675 173.113 164.975 172.213C159.775 171.213 154.475 170.413 149.175 169.813C142.375 169.013 136.175 171.213 130.375 174.613C128.775 175.513 127.075 176.313 125.375 177.113C125.175 177.213 124.975 177.213 124.875 177.313C123.275 179.713 121.275 178.713 119.175 178.213C117.375 177.713 115.375 177.513 113.575 177.113C112.975 177.013 112.475 176.413 111.875 176.213C110.175 175.613 108.375 175.013 106.675 174.613C100.775 173.113 94.875 171.513 88.975 170.413C85.775 169.813 82.475 169.813 79.175 169.813C76.975 169.813 75.575 168.213 73.775 167.413C73.575 167.313 73.575 166.513 73.475 165.913C70.375 166.213 67.075 166.413 63.875 166.913C59.575 167.613 55.275 168.313 51.075 169.413C48.675 170.013 46.575 171.213 44.275 172.013C40.275 173.313 36.075 174.313 32.075 175.513C27.875 176.713 23.675 177.913 19.475 179.013C16.075 179.913 12.675 181.013 9.175 181.413C7.175 181.613 4.975 180.613 2.975 180.013C2.875 180.013 2.775 179.113 2.875 178.813C5.875 174.413 8.675 169.913 13.475 167.013C16.875 164.913 20.075 162.613 23.275 160.313C25.775 158.513 25.675 156.113 22.975 154.113C19.675 151.613 16.575 149.013 13.275 146.513C10.375 144.413 7.375 142.413 4.375 140.413C1.875 138.813 0.875 136.213 0.075 133.613C-0.025 133.313 -0.025 132.913 0.075 132.513C0.375 131.613 4.175 129.713 5.075 129.913C6.475 130.313 7.875 130.613 9.175 131.113C13.975 132.813 18.675 134.513 23.475 136.213C24.575 136.613 25.575 137.113 26.675 137.413C30.775 138.613 34.875 139.713 38.875 140.913C42.075 141.913 45.575 142.513 48.275 144.213C50.975 145.913 53.575 145.413 56.275 145.513C60.675 145.613 64.975 145.513 69.375 145.513C79.875 145.413 90.375 145.313 100.875 145.113C105.875 145.013 110.875 144.413 115.975 144.413C123.375 144.313 130.675 144.613 138.075 144.613C143.775 144.613 149.475 144.613 155.075 144.313C162.375 144.013 169.675 143.513 176.975 142.913C181.475 142.513 185.875 141.813 190.275 141.213C190.275 140.613 190.375 140.513 190.375 140.313Z" fill="white"/>
        <path d="M190.375 140.313C189.675 140.113 188.975 139.913 188.275 139.613C186.275 138.613 184.175 137.613 182.275 136.613C181.875 136.413 181.775 135.713 181.475 135.313C181.875 135.113 182.275 134.913 182.675 134.713C185.275 133.313 187.775 131.913 190.275 130.413C193.275 128.613 196.075 126.613 198.975 124.713C200.075 123.913 201.375 123.313 201.275 121.613C201.275 121.413 202.075 120.913 202.375 121.013C206.375 121.613 210.475 121.913 214.075 124.013C218.475 126.613 222.875 128.913 227.275 131.513C229.275 132.713 230.775 134.413 230.575 137.213C231.475 137.213 232.475 137.213 233.375 137.213C240.375 136.813 247.475 136.213 254.475 135.913C261.975 135.713 269.375 135.613 276.875 135.913C286.675 136.313 296.375 137.413 305.875 139.513C311.675 140.813 317.475 141.813 323.175 143.513C329.975 145.513 336.675 148.113 342.675 152.113C344.175 153.113 345.275 154.913 346.275 156.513C346.775 157.313 347.536 157.824 348.075 159.413C349.455 163.483 347.075 166.513 342.875 169.113C336.775 172.713 330.275 175.413 323.375 177.113C316.875 178.813 310.275 180.313 303.675 181.513C298.275 182.513 292.775 182.913 287.275 183.513C282.175 184.113 277.075 184.813 271.975 185.213C267.175 185.613 262.275 185.713 257.475 185.713C253.575 185.713 249.675 185.513 245.775 185.313C242.575 185.113 239.275 184.413 236.175 184.813C233.575 185.113 231.075 186.513 228.475 187.513C226.775 188.113 225.275 189.013 223.575 189.513C221.375 190.213 219.175 191.113 216.875 191.413C211.575 192.313 206.475 191.313 201.775 188.913C197.775 186.913 196.375 183.013 197.575 178.313C196.375 178.213 195.275 178.013 194.075 177.913C188.975 177.113 183.875 176.413 178.875 175.413C174.175 174.513 169.675 173.113 164.975 172.213C159.775 171.213 154.475 170.413 149.175 169.813C142.375 169.013 136.175 171.213 130.375 174.613C128.775 175.513 127.075 176.313 125.375 177.113C125.175 177.213 124.975 177.213 124.875 177.313C123.275 179.713 121.275 178.713 119.175 178.213C117.375 177.713 115.375 177.513 113.575 177.113C112.975 177.013 112.475 176.413 111.875 176.213C110.175 175.613 108.375 175.013 106.675 174.613C100.775 173.113 94.875 171.513 88.975 170.413C85.775 169.813 82.475 169.813 79.175 169.813C76.975 169.813 75.575 168.213 73.775 167.413C73.575 167.313 73.575 166.513 73.475 165.913C70.375 166.213 67.075 166.413 63.875 166.913C59.575 167.613 55.275 168.313 51.075 169.413C48.675 170.013 46.575 171.213 44.275 172.013C40.275 173.313 36.075 174.313 32.075 175.513C27.875 176.713 23.675 177.913 19.475 179.013C16.075 179.913 12.675 181.013 9.175 181.413C7.175 181.613 4.975 180.613 2.975 180.013C2.875 180.013 2.775 179.113 2.875 178.813C5.875 174.413 8.675 169.913 13.475 167.013C16.875 164.913 20.075 162.613 23.275 160.313C25.775 158.513 25.675 156.113 22.975 154.113C19.675 151.613 16.575 149.013 13.275 146.513C10.375 144.413 7.375 142.413 4.375 140.413C1.875 138.813 0.875 136.213 0.075 133.613C-0.025 133.313 -0.025 132.913 0.075 132.513C0.375 131.613 4.175 129.713 5.075 129.913C6.475 130.313 7.875 130.613 9.175 131.113C13.975 132.813 18.675 134.513 23.475 136.213C24.575 136.613 25.575 137.113 26.675 137.413C30.775 138.613 34.875 139.713 38.875 140.913C42.075 141.913 45.575 142.513 48.275 144.213C50.975 145.913 53.575 145.413 56.275 145.513C60.675 145.613 64.975 145.513 69.375 145.513C79.875 145.413 90.375 145.313 100.875 145.113C105.875 145.013 110.875 144.413 115.975 144.413C123.375 144.313 130.675 144.613 138.075 144.613C143.775 144.613 149.475 144.613 155.075 144.313C162.375 144.013 169.675 143.513 176.975 142.913C181.475 142.513 185.875 141.813 190.275 141.213C190.275 140.613 190.375 140.513 190.375 140.313ZM88.675 164.913C88.875 164.613 89.175 164.413 89.475 164.013C87.075 163.213 82.175 165.113 81.475 167.213C82.875 167.013 83.975 166.813 85.175 166.613C85.575 166.913 85.975 167.313 86.475 167.413C88.375 167.813 90.175 167.513 91.975 166.613C91.575 166.913 91.175 167.213 90.875 167.613C93.575 167.913 96.075 169.913 99.075 167.913C98.575 168.513 98.275 168.813 97.975 169.213C100.975 170.013 103.775 170.813 106.675 171.613C107.175 171.713 107.775 171.513 108.175 171.713C109.875 172.913 111.675 173.213 113.675 172.713C114.375 174.013 116.275 174.613 117.975 174.113C118.275 175.813 119.375 175.013 120.075 174.713C121.475 174.113 122.675 173.213 123.975 172.613C127.275 171.113 130.475 169.813 133.775 168.413C134.275 168.213 134.675 167.913 135.375 167.613C133.275 166.713 131.575 167.113 129.975 167.813C127.275 169.013 124.575 170.413 121.875 171.613C122.675 171.013 123.475 170.413 124.375 170.013C126.175 169.013 128.075 168.113 129.975 167.113C128.675 166.513 127.375 166.013 126.275 166.213C124.575 166.513 122.975 167.413 121.275 168.013C122.175 167.413 123.075 166.813 124.075 166.113C121.575 164.313 119.475 166.813 117.075 166.513C117.375 166.213 117.775 165.913 118.075 165.613C118.075 165.413 117.975 165.213 117.975 165.113C116.075 165.313 114.075 165.513 112.075 165.713C112.475 165.413 112.975 165.113 113.575 164.813C110.975 163.813 108.875 165.113 106.575 165.513C106.875 165.113 107.175 164.913 107.475 164.513C102.775 163.313 98.375 164.313 94.075 165.713C95.075 165.213 96.075 164.613 96.975 164.113C96.975 164.013 96.875 163.813 96.875 163.713C94.875 163.913 92.975 164.113 90.975 164.413C90.175 164.513 89.375 164.713 88.675 164.913ZM211.375 135.613C212.075 136.113 212.975 136.413 213.575 137.013C215.575 138.913 216.375 139.113 219.375 137.613C217.675 136.213 216.175 135.013 214.675 133.813C216.075 134.713 217.575 135.613 218.975 136.513C219.675 137.013 220.475 137.813 221.175 137.813C223.775 137.813 226.375 137.513 228.975 137.413C229.075 137.213 229.075 137.013 229.175 136.813C228.275 136.313 227.275 135.213 226.575 135.413C225.075 135.713 224.375 134.913 223.375 134.313C222.275 133.613 221.275 132.713 220.075 132.113C215.775 130.013 211.375 127.913 206.975 125.813C205.075 124.913 204.175 125.113 202.775 127.013C205.775 128.713 208.775 130.413 211.775 132.013C208.875 130.713 205.875 129.613 203.175 128.113C201.475 127.213 200.575 127.813 199.175 129.113C201.175 130.113 202.875 131.013 204.675 132.013C206.975 133.313 209.175 134.513 211.375 135.613C207.775 134.013 204.075 132.413 200.375 130.713C198.475 129.813 197.275 130.013 196.175 131.513C196.575 131.713 197.075 131.813 197.475 132.013C200.175 133.213 202.875 134.513 205.575 135.713C203.475 134.913 201.375 134.213 199.475 133.213C195.775 131.213 192.775 132.713 189.575 135.113C190.275 136.013 190.875 137.113 191.675 137.513C193.775 138.613 196.575 137.913 198.275 140.213C198.275 140.213 198.375 140.213 198.475 140.213C200.475 140.013 202.475 139.713 204.475 139.513C204.575 139.313 204.575 139.013 204.675 138.813C201.175 137.313 197.775 135.813 194.275 134.313C194.875 134.213 195.475 134.313 195.975 134.513C199.075 135.913 202.175 137.513 205.375 138.813C206.375 139.213 207.675 139.213 208.775 139.313C208.875 139.113 208.875 138.913 208.975 138.713C208.475 138.213 208.075 137.713 207.575 137.113C207.975 137.313 208.475 137.513 208.775 137.813C210.375 139.413 212.075 139.013 214.275 138.413C213.175 137.513 212.275 136.613 211.375 135.613ZM257.775 167.313C258.175 167.013 258.575 166.613 259.075 166.513C261.275 165.813 263.575 165.213 265.775 164.513C266.875 164.213 268.175 164.013 268.475 162.113C262.175 163.413 256.175 164.613 250.075 165.813C251.175 167.713 251.775 168.013 254.175 168.113C254.275 168.513 254.175 169.313 254.475 169.413C256.375 170.213 258.275 171.113 260.275 171.513C264.575 172.513 268.075 169.313 267.575 164.713C264.175 165.613 260.975 166.413 257.775 167.313ZM264.675 152.413C267.175 154.613 270.375 154.613 273.375 155.413C273.275 154.713 272.875 154.213 272.675 153.713C272.075 152.313 271.375 150.913 271.175 149.413C270.975 147.913 271.675 146.613 273.075 145.813C273.275 145.713 273.275 144.913 273.075 144.713C272.775 144.213 272.275 143.913 271.775 143.413C270.375 144.013 268.875 144.613 267.375 145.113C266.575 145.413 265.475 145.313 264.775 145.713C263.975 146.213 262.975 147.113 262.975 147.813C263.075 149.213 263.775 150.613 264.175 152.013C261.375 149.813 261.875 147.313 263.575 144.813C261.775 144.013 259.675 144.113 257.375 145.113C254.675 146.313 254.375 148.213 256.375 150.413C258.375 152.713 261.175 153.213 263.975 153.513C264.175 153.613 264.375 152.813 264.675 152.413ZM78.875 151.013C79.675 150.713 80.375 150.413 81.175 150.213C81.875 150.013 82.775 149.813 83.475 150.013C84.275 150.213 84.975 151.013 85.375 149.513C83.775 149.413 82.075 149.513 80.575 149.113C76.175 148.113 72.375 149.313 68.675 151.613C67.475 152.313 67.375 153.113 68.475 154.013C69.175 154.613 69.975 155.113 70.675 155.713C70.575 155.813 70.475 156.013 70.375 156.113C69.275 155.213 67.375 154.413 67.175 153.313C66.975 152.413 68.575 151.013 69.575 149.613C67.675 150.013 65.675 150.413 63.775 150.813C63.175 150.913 62.675 151.313 62.075 151.613C62.475 152.213 62.675 153.013 63.275 153.513C64.175 154.313 65.175 155.013 66.075 155.713C65.075 156.413 64.175 156.813 63.575 157.513C63.175 157.813 62.875 158.813 63.075 159.013C63.675 159.613 64.475 160.213 65.275 160.513C65.475 160.613 66.175 159.913 66.375 159.413C66.975 157.813 69.875 156.313 71.475 156.813C71.675 156.913 71.775 157.213 71.875 157.513C67.575 158.313 67.575 158.313 68.075 160.713C72.175 160.513 76.175 160.313 80.475 160.213C80.175 159.513 79.875 159.013 79.775 158.613C79.075 156.613 78.775 156.313 76.675 157.013C75.675 157.413 74.775 158.113 73.775 158.613C73.475 158.813 73.075 159.013 72.775 159.213C73.075 156.913 74.975 156.613 76.475 155.813C75.475 154.913 74.475 154.313 73.775 153.313C73.375 152.813 73.375 151.613 73.775 151.113C74.375 150.213 77.775 150.313 78.875 151.013C77.675 151.213 76.475 151.313 75.275 151.513C74.475 151.613 73.975 151.813 74.375 152.713C74.875 153.813 77.775 156.313 79.475 155.913C79.875 155.813 80.275 155.613 80.475 155.313C80.575 155.113 80.375 154.613 80.175 154.413C79.075 153.613 78.775 152.413 78.875 151.013ZM256.075 144.613C242.175 143.613 228.775 144.213 215.275 145.313C215.375 145.813 215.475 146.213 215.575 146.813C213.975 146.113 212.675 146.613 212.075 147.713C211.575 148.613 211.575 150.013 211.875 151.013C212.175 152.013 213.075 152.813 213.675 153.613C214.075 154.213 214.575 154.713 215.075 155.213C214.975 155.313 214.775 155.513 214.675 155.613C213.875 154.813 213.175 153.913 212.375 153.113C209.675 150.113 209.675 148.613 212.475 145.513C210.275 145.513 208.275 145.513 206.275 145.513C206.375 145.713 206.375 145.913 206.475 146.013C206.175 146.313 205.875 146.713 205.475 146.713C204.375 146.913 203.175 146.813 202.075 147.113C199.675 147.713 199.075 149.013 200.475 151.113C201.275 152.313 202.475 153.313 203.475 154.413C203.875 154.813 204.275 155.113 204.675 155.413C204.575 155.613 204.375 155.713 204.275 155.913C202.975 154.813 201.675 153.713 200.475 152.513C198.375 150.313 198.475 149.113 200.275 146.813C200.275 146.713 200.275 146.613 200.175 146.213C195.875 146.513 191.575 146.713 187.175 147.013C184.175 147.213 181.075 147.413 178.075 147.613C177.675 147.613 177.275 148.213 176.575 148.713C175.675 149.013 174.375 149.413 172.875 149.913C173.775 149.213 174.475 148.613 175.375 147.913C174.775 147.813 174.475 147.713 174.175 147.713C169.675 148.513 164.975 146.913 160.675 149.613C159.375 150.413 157.775 150.713 156.275 151.113C154.175 151.813 153.875 152.813 155.175 154.513C155.575 155.013 155.975 155.513 156.375 155.913C156.275 156.013 156.175 156.113 156.075 156.213C155.675 155.713 155.375 155.313 154.975 154.813C153.175 152.613 153.575 151.313 156.375 150.413C157.575 150.013 158.775 149.513 159.875 149.113C159.875 148.913 159.775 148.713 159.775 148.513C155.475 148.713 151.175 148.013 146.975 149.713C145.075 150.513 144.675 151.213 145.475 153.113C145.575 153.413 145.675 153.713 145.875 154.313C143.875 151.813 143.875 151.313 146.275 149.013C143.775 148.413 137.475 150.013 135.875 151.813C134.875 152.913 134.875 154.113 135.875 155.213C136.575 156.013 137.175 156.713 137.875 157.413C137.375 157.213 136.975 156.913 136.575 156.613C133.375 153.613 133.675 151.813 137.775 150.113C138.575 149.813 139.375 149.413 140.275 149.013C140.275 148.813 140.175 148.713 140.175 148.513C139.675 148.413 139.075 148.213 138.575 148.213C132.175 148.213 125.775 148.213 119.375 148.313C118.575 148.313 117.675 148.713 116.875 149.013C116.175 149.213 115.475 149.613 114.775 149.813C114.075 150.013 113.375 150.013 112.675 150.213C111.375 150.613 110.975 151.313 111.875 152.513C112.475 153.313 113.075 154.213 113.875 155.213C110.275 152.713 109.975 151.413 112.575 149.013C110.775 148.913 108.975 148.913 107.175 149.113C106.375 149.213 105.275 149.713 105.075 150.313C104.875 150.913 105.375 151.913 105.775 152.713C105.875 153.013 106.375 153.213 106.675 153.413C105.175 153.113 104.375 152.213 104.175 150.813C104.075 150.313 103.875 149.713 103.575 149.413C102.575 148.713 98.875 149.913 98.475 151.113C98.375 151.513 98.575 152.313 98.875 152.713C99.575 153.413 100.575 154.013 101.375 154.713C98.275 154.113 97.175 152.313 98.075 149.713C96.175 148.413 94.975 150.113 93.575 150.813C92.075 151.513 91.975 152.313 93.375 153.313C94.875 154.313 96.475 155.113 98.175 156.013C97.275 156.113 96.375 156.213 95.475 156.313C94.675 156.413 93.675 156.313 93.075 156.713C92.675 157.013 92.775 158.113 92.575 159.313C92.075 158.513 91.475 157.613 91.575 157.513C92.375 156.613 93.375 155.913 94.275 155.113C91.075 152.013 91.075 152.013 92.575 149.713C91.075 149.813 89.475 150.113 87.975 150.513C87.075 150.713 86.275 151.213 85.475 151.513C86.175 152.213 86.875 153.013 87.675 153.713C87.975 154.013 88.575 154.113 88.975 154.413C89.475 154.813 89.775 155.413 90.275 156.013C85.575 157.313 85.575 157.313 86.075 160.213C90.275 160.213 94.575 160.213 98.275 160.213C98.675 159.013 98.675 157.613 99.275 157.313C100.775 156.613 102.475 156.413 104.075 156.113C104.275 156.113 104.575 156.713 104.875 157.013C104.475 157.113 104.175 157.313 103.775 157.313C102.675 157.413 101.575 157.313 100.475 157.613C100.175 157.713 99.775 159.113 99.875 159.213C100.775 159.813 101.775 160.613 102.775 160.713C108.975 161.313 115.175 161.613 121.375 162.213C123.975 162.413 126.475 163.013 128.975 163.413C136.975 164.413 144.975 165.313 152.975 166.513C160.775 167.713 168.475 169.313 176.275 170.613C187.075 172.513 197.875 174.313 208.675 176.013C217.075 177.413 225.575 178.913 233.975 179.913C240.575 180.713 247.275 181.313 253.875 181.213C266.275 181.113 278.575 180.113 290.775 178.413C292.975 178.113 295.175 177.713 297.775 177.313C296.175 176.213 295.075 175.513 293.975 174.713C288.675 170.713 284.975 165.813 284.775 158.913C284.675 155.213 285.775 151.913 288.675 149.513C289.075 149.213 289.675 149.113 290.175 148.913C288.075 147.113 286.275 146.713 284.875 147.613C281.275 149.913 280.975 153.413 282.375 157.313C281.575 156.713 280.875 156.013 280.575 155.313C279.175 152.013 281.775 149.613 282.575 146.613C281.775 146.513 281.075 146.313 280.375 146.413C278.775 146.513 277.175 146.713 275.575 146.713C272.975 146.813 271.575 148.313 272.075 150.813C272.575 153.113 273.575 155.113 275.875 156.313C276.575 156.713 277.075 157.913 277.275 158.713C277.375 159.013 276.275 159.613 275.675 160.013C274.975 160.513 274.075 160.713 273.675 161.313C271.375 164.413 270.575 167.813 271.475 171.613C272.075 174.313 272.075 174.313 269.675 175.713C269.575 175.813 269.475 176.013 269.275 176.113C268.075 177.413 266.475 177.613 264.875 177.313C263.975 177.113 262.975 176.813 262.075 176.813C257.175 176.813 253.575 174.213 249.875 171.413C246.275 168.713 244.375 163.913 239.475 162.813C238.775 162.613 238.075 161.813 237.475 161.313C234.875 158.913 235.075 156.913 238.075 155.013C237.475 153.713 238.475 152.113 236.775 150.913C234.975 149.713 234.875 147.613 235.775 146.513C236.775 145.313 240.275 144.913 241.675 146.113C240.575 146.313 239.475 146.213 238.375 146.313C237.275 146.413 236.375 146.813 236.275 148.113C236.175 149.613 238.575 152.513 239.975 152.513C241.975 152.513 243.975 152.313 246.075 152.213C245.875 150.513 243.775 149.013 245.575 147.313C246.875 146.113 248.675 145.813 250.475 146.113C249.575 146.613 248.575 146.713 247.675 147.213C246.975 147.613 246.075 148.413 245.975 149.113C245.875 150.913 247.475 152.313 249.275 152.313C251.275 152.413 253.375 152.513 255.375 152.613C255.875 152.613 256.375 152.613 257.375 152.613C254.975 149.813 252.775 147.713 256.075 144.613ZM331.475 151.713C331.775 153.113 331.875 154.013 332.075 154.913C332.575 157.013 332.775 159.113 331.075 160.813C329.375 162.413 327.575 163.713 325.275 164.513C322.075 165.513 317.775 164.413 315.975 161.813C314.275 159.313 313.575 154.113 316.375 151.213C316.675 150.913 316.875 150.513 317.475 149.613C316.275 149.713 315.575 149.613 314.875 149.813C310.175 151.413 306.675 154.613 303.775 158.513C303.075 159.413 302.075 160.113 301.275 160.813C301.075 160.613 300.975 160.513 300.775 160.313C300.675 153.513 305.275 149.913 310.275 146.113C308.375 145.513 306.375 144.713 304.475 144.913C302.775 145.113 301.075 146.113 299.475 147.013C297.475 148.113 296.275 150.513 293.575 150.513C287.275 156.013 287.075 164.613 293.875 169.813C299.875 174.413 306.775 174.613 313.875 173.613C316.075 173.313 318.375 172.813 320.575 172.213C322.875 171.613 325.175 170.713 327.475 170.013C327.475 169.913 327.375 169.713 327.375 169.613C322.675 170.613 317.975 171.213 313.175 170.513C310.375 170.113 308.275 168.913 306.575 166.913C306.275 166.513 306.475 165.413 306.775 164.713C306.875 164.513 308.275 164.513 308.575 164.813C310.875 167.513 314.075 167.513 317.175 167.213C323.575 166.513 327.653 165.667 334 164.513C339.5 163.513 344.925 162.4 345 159.613C345.075 156.826 336.875 153.513 331.475 151.713ZM49.675 153.413C49.375 153.013 48.675 152.413 48.775 152.113C48.975 151.313 49.575 150.713 50.275 149.513C48.875 149.713 47.675 149.713 46.775 150.213C45.175 151.113 43.875 152.313 42.375 153.313C41.475 154.013 40.675 154.713 39.875 155.313C41.475 156.013 42.775 156.413 43.875 157.113C45.875 158.213 47.875 158.413 49.875 157.013C50.675 156.413 51.675 156.113 52.975 155.413C51.875 156.513 51.075 157.313 50.375 158.013C50.075 158.313 49.675 158.513 49.375 158.713C49.675 159.013 49.975 159.513 50.375 159.513C52.775 160.013 55.175 160.613 57.575 160.813C59.175 160.913 60.875 160.513 62.675 160.313C61.475 158.213 61.475 158.213 64.575 155.413C63.875 153.513 59.375 153.513 62.175 149.913C61.475 149.713 60.675 149.313 60.475 149.513C58.975 150.913 57.075 150.313 55.475 150.813C54.375 151.113 54.475 151.913 55.275 152.613C56.075 153.313 56.875 154.013 57.675 154.713C57.475 154.813 57.375 155.013 57.175 155.113C55.875 153.613 54.475 152.213 52.975 150.513C49.375 151.113 49.175 151.313 49.675 153.413ZM207.875 187.713C207.975 188.113 207.975 188.513 208.175 188.613C209.775 188.913 211.475 189.613 212.975 189.413C215.175 189.213 217.275 188.513 219.375 187.713C222.175 186.613 224.875 185.213 227.775 183.913C224.075 181.913 221.075 184.013 217.775 184.513C219.075 183.913 220.375 183.313 221.875 182.613C219.475 181.213 217.575 182.913 215.475 183.013C216.175 182.513 216.675 182.213 217.375 181.713C213.475 180.113 209.675 181.313 205.975 181.013C206.575 180.813 207.275 180.713 207.875 180.513C206.975 179.913 206.175 179.713 205.275 179.613C203.375 179.313 203.275 179.413 203.675 181.313C203.675 181.413 203.575 181.413 203.575 181.513C203.475 182.113 203.275 182.913 203.475 183.413C203.775 184.213 204.575 184.913 204.675 185.713C205.075 187.813 206.275 187.913 207.875 187.713ZM7.675 135.613C9.275 140.513 31.175 150.013 38.475 148.713C28.075 144.413 17.875 140.013 7.675 135.613ZM10.275 134.713C10.475 135.213 10.575 135.413 10.675 135.413C15.575 137.813 20.475 140.413 25.475 142.613C30.575 144.813 35.875 146.613 40.975 148.713C42.875 149.513 43.875 148.713 45.375 147.613C44.975 147.313 44.675 147.213 44.475 147.113C41.575 146.113 38.675 145.313 35.775 144.213C31.275 142.613 26.775 141.013 22.475 139.013C19.275 137.513 16.175 135.913 12.775 135.113C11.975 135.113 11.275 135.013 10.275 134.713ZM322.575 161.313C326.275 161.513 329.875 159.113 329.775 155.113C329.775 153.913 329.875 152.913 328.175 152.913C327.675 152.913 327.175 152.113 326.675 151.713C326.075 151.313 325.575 150.713 324.975 150.613C321.775 150.013 318.075 152.513 317.875 155.613C317.675 160.013 318.175 161.213 322.575 161.313ZM51.275 163.913C51.275 163.713 51.275 163.613 51.375 163.413C50.675 163.213 49.975 162.913 49.375 163.013C48.275 163.213 47.175 163.713 46.075 164.113C39.975 166.113 33.875 168.013 27.775 169.913C23.575 171.313 19.375 172.613 15.175 174.013C14.375 174.313 13.675 174.813 12.975 175.113C13.075 175.313 13.175 175.513 13.275 175.713C25.975 172.013 39.075 169.213 51.275 163.913ZM266.175 159.513C266.175 159.413 266.175 159.213 266.075 159.113C258.175 158.313 250.375 157.413 242.475 156.613C243.475 160.213 243.675 160.513 246.975 160.513C251.875 160.513 256.875 160.313 261.775 160.113C263.275 160.113 264.675 159.813 266.175 159.513ZM269.175 160.913C269.175 160.813 269.075 160.713 269.075 160.513C261.175 160.813 253.275 161.113 244.875 161.413C246.275 162.713 247.275 163.713 248.375 164.613C248.875 165.013 249.775 165.313 250.475 165.113C254.475 164.313 258.575 163.413 262.575 162.513C264.775 162.113 266.975 161.513 269.175 160.913ZM47.975 162.713C47.975 162.413 47.975 162.213 47.875 161.913C47.375 161.813 46.775 161.613 46.275 161.813C45.075 162.113 43.975 162.513 42.875 162.913C37.775 164.613 32.675 166.313 27.575 167.913C23.475 169.213 19.375 170.213 15.375 171.513C14.575 171.813 13.875 172.713 13.175 173.313C13.275 173.513 13.475 173.713 13.575 173.913C25.075 170.113 36.475 166.413 47.975 162.713ZM40.175 161.713C40.075 161.513 40.075 161.313 39.975 161.113C31.875 162.813 23.475 163.613 17.175 170.013C21.475 168.913 25.775 167.713 29.975 166.613C29.975 166.413 29.875 166.313 29.875 166.113C28.575 166.313 27.275 166.613 25.975 166.813C25.975 166.613 25.875 166.413 25.875 166.113C30.575 164.713 35.375 163.213 40.175 161.713ZM268.975 157.713C260.075 156.113 251.575 153.713 242.875 155.613C244.975 157.013 266.075 158.913 268.975 157.713ZM87.875 155.213C86.575 153.913 85.375 152.313 83.875 151.413C83.075 150.913 81.375 151.113 80.375 151.613C79.275 152.213 80.075 153.313 80.875 153.913C81.875 154.613 83.075 155.313 84.375 156.113C83.375 156.213 82.575 156.213 81.775 156.313C80.275 156.613 80.075 158.613 81.575 159.613C82.375 160.113 83.575 160.013 84.775 160.113C83.975 157.613 84.575 156.713 87.875 155.213ZM23.375 147.013C24.475 148.013 25.475 148.913 26.575 149.613C27.475 150.213 28.575 150.713 29.575 150.713C32.875 150.913 36.275 151.013 39.575 151.013C39.975 151.013 40.375 150.813 40.775 150.713C40.775 150.613 40.775 150.413 40.775 150.313C34.975 149.413 29.275 148.213 23.375 147.013ZM242.775 163.013C241.475 160.613 240.375 158.513 239.075 156.513C238.875 156.213 237.575 156.113 237.375 156.313C236.875 157.013 236.475 157.913 236.575 158.713C236.875 160.613 240.275 163.113 242.775 163.013ZM30.275 152.513C30.075 152.713 29.975 152.913 29.775 153.113C30.675 154.013 31.475 155.613 32.475 155.713C35.775 155.913 37.875 154.813 38.275 153.113C35.575 152.913 32.875 152.713 30.275 152.513ZM37.275 158.913C37.075 156.713 35.875 156.613 34.475 156.913C33.675 157.013 32.975 157.013 32.175 157.213C31.775 157.313 31.275 157.613 31.075 157.913C30.575 158.713 30.175 159.513 29.575 160.713C32.275 160.113 34.775 159.513 37.275 158.913ZM40.675 160.313C40.675 160.113 40.575 159.913 40.575 159.613C38.675 159.913 36.875 160.313 34.975 160.613C34.975 160.813 35.075 161.113 35.075 161.313C36.875 161.013 38.775 160.613 40.675 160.313Z" fill="black"/>
        <path d="M121.075 158.213C121.475 158.813 121.875 159.413 122.275 160.113C122.175 160.213 121.975 160.413 121.875 160.513C121.375 159.913 120.275 159.213 120.375 158.613C120.475 157.813 121.275 157.013 121.975 155.913C121.275 154.713 118.775 153.313 120.875 150.913C121.975 149.713 125.075 149.413 126.775 150.613C125.875 150.713 125.375 150.713 124.875 150.813C123.975 150.913 123.075 150.913 122.175 151.113C120.975 151.413 120.575 152.313 121.275 153.513C122.175 155.013 123.175 156.413 125.175 156.613C125.575 156.613 126.075 156.913 126.475 157.013C126.475 157.213 126.475 157.413 126.475 157.613C124.775 157.613 123.075 157.613 121.375 157.613C121.175 157.713 121.075 157.913 121.075 158.213Z" fill="black"/>
        <path d="M132.475 156.313C131.975 157.313 131.375 158.413 130.775 159.613C131.075 159.713 130.875 159.713 130.875 159.613C130.575 157.513 129.475 155.813 128.475 154.113C128.175 153.513 128.575 152.113 129.075 151.413C130.075 150.213 131.475 149.513 133.175 150.113C131.375 151.113 128.075 150.713 129.075 154.213C129.675 156.213 130.975 156.913 132.475 156.313Z" fill="black"/>
        <path d="M233.775 145.913C232.475 146.713 231.175 147.513 229.875 148.313C228.375 149.313 228.175 150.613 229.375 152.013C229.975 152.713 230.675 153.413 231.175 154.213C230.775 153.913 230.375 153.613 229.975 153.313C226.875 150.413 226.875 149.613 230.275 147.313C231.275 146.613 232.275 146.013 233.275 145.313C233.475 145.513 233.575 145.713 233.775 145.913Z" fill="black"/>
        <path d="M171.875 158.613C170.775 158.713 169.675 158.713 168.575 158.913C166.475 159.313 165.875 160.613 166.875 162.413C167.375 163.313 168.075 164.113 168.675 165.113C166.375 163.413 165.475 161.413 166.075 159.913C166.675 158.313 169.075 157.913 171.875 158.613Z" fill="black"/>
        <path d="M161.476 158.213C160.576 158.313 159.676 158.313 158.776 158.413C156.576 158.713 156.176 159.813 157.576 161.613C158.176 162.313 158.876 162.813 159.476 163.413C159.376 163.513 159.276 163.613 159.176 163.713C158.576 163.113 157.776 162.613 157.376 161.913C156.876 161.113 155.976 159.713 156.276 159.413C156.976 158.513 157.776 157.413 159.276 157.713C159.976 157.913 160.676 157.713 161.476 157.713C161.476 157.913 161.476 158.113 161.476 158.213Z" fill="black"/>
        <path d="M189.875 157.113C188.875 157.413 187.775 157.613 186.875 158.013C185.275 158.713 184.975 159.713 186.175 161.113C186.875 161.913 187.875 162.513 188.775 163.213C188.475 163.513 188.175 163.813 187.975 164.013C187.075 163.013 186.275 161.913 185.375 160.913C184.475 159.813 184.675 158.813 185.775 158.213C186.975 157.513 188.475 157.213 189.775 156.713C189.775 156.813 189.775 157.013 189.875 157.113Z" fill="black"/>
        <path d="M181.476 158.813C179.976 159.113 177.676 157.813 177.076 159.913C176.476 161.913 178.376 163.013 179.776 164.013C177.976 163.613 176.976 162.313 176.376 160.813C176.176 160.213 176.876 158.713 177.376 158.513C178.676 158.113 180.176 158.213 181.576 158.113C181.576 158.513 181.476 158.713 181.476 158.813Z" fill="black"/>
        <path d="M197.776 162.413C197.076 161.813 196.176 161.413 195.676 160.613C195.376 160.013 195.376 158.713 195.776 158.413C196.876 157.513 198.276 156.813 199.576 156.113C199.676 156.313 199.776 156.513 199.876 156.713C199.276 157.013 198.676 157.413 197.976 157.713C195.376 158.913 195.176 159.813 197.376 161.613C197.576 161.813 197.776 161.913 197.976 162.113C197.976 162.213 197.876 162.313 197.776 162.413Z" fill="black"/>
        <path d="M138.875 157.913C140.475 157.513 142.075 157.113 143.675 156.713C143.675 156.813 143.775 157.013 143.775 157.113C142.475 157.613 140.775 157.713 140.075 158.613C139.575 159.213 140.275 160.913 140.475 162.113C139.275 161.313 138.575 160.013 138.875 157.913Z" fill="black"/>
        <path d="M283.175 159.013C280.075 160.413 279.875 161.613 281.875 164.613C280.175 163.513 279.375 161.513 280.175 160.113C280.775 158.813 281.775 158.413 283.175 159.013Z" fill="black"/>
        <path d="M225.275 146.913C221.375 149.713 221.075 150.513 222.075 153.513C221.075 152.713 220.675 151.113 221.275 149.713C221.875 148.113 222.975 146.913 225.275 146.913Z" fill="black"/>
        <path d="M186.476 147.913C184.776 149.813 179.976 148.213 180.776 153.013C179.576 151.713 179.876 150.513 181.076 149.813C182.676 148.913 184.476 148.213 186.176 147.513C186.276 147.613 186.376 147.813 186.476 147.913Z" fill="black"/>
        <path d="M205.875 163.813C205.175 163.013 204.475 162.213 203.975 161.313C203.775 161.013 203.875 160.213 204.175 159.913C205.675 158.313 207.575 157.513 210.175 157.413C208.475 158.113 207.175 158.513 205.975 159.213C203.975 160.313 203.875 161.113 205.575 162.813C205.875 163.113 206.275 163.213 206.575 163.413C206.275 163.413 206.075 163.613 205.875 163.813Z" fill="black"/>
        <path d="M164.875 156.013C162.275 153.113 163.575 150.513 168.075 149.513C165.775 151.113 162.175 152.013 164.875 156.013Z" fill="black"/>
        <path d="M149.875 162.313C149.175 161.713 148.375 161.113 147.775 160.413C146.975 159.313 147.975 158.713 148.575 158.013C148.875 157.713 148.775 157.113 148.775 156.813C149.575 157.113 150.675 157.513 151.875 157.913C151.175 158.013 150.575 158.013 150.075 158.213C149.475 158.413 148.475 158.813 148.475 159.213C148.375 159.813 148.975 160.513 149.375 161.113C149.575 161.413 149.975 161.613 150.275 161.913C150.075 162.113 149.975 162.213 149.875 162.313Z" fill="black"/>
        <path d="M193.975 147.913C193.175 149.113 191.975 150.013 191.775 151.113C191.575 152.113 192.375 153.413 192.775 154.513C191.575 153.813 190.875 152.613 191.075 151.213C191.275 149.713 192.075 148.413 193.975 147.913Z" fill="black"/>
        <path d="M117.975 156.413C114.775 157.613 114.775 157.613 115.675 159.813C115.575 159.913 115.375 159.913 115.275 160.013C114.975 159.213 114.175 158.313 114.375 157.613C114.875 155.513 116.575 156.413 117.975 156.413Z" fill="black"/>
        <path d="M227.375 167.413C225.175 168.613 225.175 169.613 227.275 172.813C225.575 171.713 224.775 170.113 225.275 168.613C225.775 167.513 226.175 167.313 227.375 167.413Z" fill="black"/>
        <path d="M213.475 162.013C211.775 159.513 213.275 157.413 216.875 157.013C214.775 157.913 212.375 158.613 213.475 162.013Z" fill="black"/>
        <path d="M232.575 157.513C229.875 158.613 229.775 158.813 230.375 162.113C230.175 162.113 230.075 162.113 229.875 162.213C229.775 161.113 229.175 159.813 229.575 159.013C229.975 158.113 231.275 157.613 232.275 156.913C232.375 157.113 232.475 157.313 232.575 157.513Z" fill="black"/>
        <path d="M273.976 167.513C273.876 166.413 273.376 165.113 273.676 164.213C274.076 163.313 275.376 162.913 276.276 162.313C276.376 162.413 276.476 162.613 276.576 162.713C275.776 163.213 274.476 163.613 274.176 164.413C273.776 165.213 274.376 166.413 274.476 167.413C274.276 167.413 274.176 167.513 273.976 167.513Z" fill="black"/>
        <path d="M221.575 161.413C221.675 160.613 221.575 159.713 221.975 159.113C222.775 158.013 224.075 157.713 225.575 158.113C224.675 158.313 223.675 158.413 222.975 158.913C222.375 159.413 222.175 160.413 221.875 161.213C221.675 161.313 221.575 161.313 221.575 161.413Z" fill="black"/>
        <path d="M113.176 156.513C110.576 156.513 110.576 156.513 110.176 158.713C110.076 158.113 109.676 157.213 109.976 156.913C110.776 155.613 112.076 156.113 113.176 156.513Z" fill="black"/>
        <path d="M56.8755 159.113C56.5755 157.313 58.2755 155.413 59.8755 155.313C58.9755 156.513 57.9755 157.813 56.8755 159.113Z" fill="black"/>
        <path d="M326.276 157.713C326.276 158.813 325.276 159.713 323.976 160.113C322.576 160.613 321.376 160.113 321.076 158.313C321.076 158.113 320.876 158.013 320.776 157.913C319.976 156.613 319.776 155.213 320.776 154.113C321.376 153.513 322.576 153.113 323.376 153.213C324.976 153.413 325.976 154.613 326.076 156.313C326.276 156.613 326.276 156.913 326.276 157.713Z" fill="black"/>
    </g>

    <g>
        <path d="M349.709 122.924C346.909 124.124 344.709 123.224 342.409 121.824C340.409 120.724 338.009 120.224 335.709 119.524C327.409 116.824 319.109 113.824 310.709 111.324C306.209 110.024 301.509 109.624 296.809 108.824C296.509 108.724 296.209 108.824 295.909 108.724C292.809 106.824 289.209 107.124 285.809 106.724C280.609 106.124 275.309 105.724 270.109 105.324C267.009 105.024 263.909 104.824 260.809 104.624C260.409 104.624 259.909 104.724 259.009 104.824C260.709 105.924 262.009 106.824 263.409 107.724C263.809 108.024 264.409 108.324 264.609 108.724C264.909 109.224 265.009 109.924 264.809 110.424C264.609 110.824 263.809 111.024 263.309 111.024C260.009 110.924 256.809 110.624 253.509 110.724C250.409 110.824 247.309 111.424 244.309 111.824C241.709 112.124 238.909 112.224 236.409 112.924C233.109 113.824 229.909 114.824 227.509 117.524C227.309 117.724 226.709 117.924 226.409 117.824C224.109 117.424 221.809 116.924 219.409 116.624C217.209 116.324 215.909 115.124 214.709 113.424C214.209 112.624 213.309 111.924 212.609 111.324C211.909 110.824 211.009 110.624 210.509 110.024C208.009 107.124 205.009 107.624 201.809 108.224C193.109 109.824 184.409 111.424 175.709 112.924C166.909 114.424 158.109 115.824 149.309 117.324C146.409 117.824 143.409 117.924 140.709 118.924C138.209 119.824 135.909 121.524 133.709 123.124C131.809 124.524 130.209 126.324 128.309 127.824C127.509 128.424 126.309 128.724 125.309 128.924C120.509 129.824 116.309 128.024 113.009 124.824C110.509 122.424 107.909 122.724 105.109 122.824C104.009 122.824 102.909 122.824 101.809 122.824C99.4093 122.824 97.0093 122.924 94.6093 122.824C91.4093 122.724 88.2093 122.524 85.0093 122.224C76.9093 121.424 68.9093 120.524 60.8093 119.424C57.9093 119.024 55.0093 118.124 52.1093 117.524C50.1093 117.124 48.1093 116.924 46.2093 116.324C41.5093 115.024 36.8093 113.524 32.1093 112.124C26.9093 110.524 21.7093 109.024 16.6093 107.324C13.9093 106.424 11.3093 105.024 8.70928 104.024C6.70928 103.224 4.50928 102.624 2.50928 101.724C0.60928 100.824 -0.0907204 98.224 0.00927956 96.124C0.10928 92.724 2.70928 91.424 5.00928 90.224C8.90928 88.124 13.0093 86.224 17.2093 84.624C21.4093 83.024 25.7093 81.624 30.1093 80.724C38.8093 78.824 47.6093 77.324 56.3093 75.524C63.9093 73.924 71.7093 74.324 79.4093 74.024C84.1093 73.824 88.7093 73.724 93.4093 73.824C98.1093 73.924 102.809 74.424 107.609 74.724C108.809 74.824 110.109 74.724 111.609 74.724C110.909 72.724 112.109 72.024 113.309 71.324C114.809 70.424 116.409 69.524 117.809 68.524C121.309 66.024 125.409 64.624 129.509 63.624C133.609 62.624 137.809 62.524 141.309 65.624C142.709 66.824 144.109 67.824 145.509 69.024C148.109 71.324 151.209 72.524 154.509 73.424C155.709 73.724 156.809 74.124 158.009 74.424C159.409 74.724 160.109 75.624 160.409 77.224C158.209 77.924 156.109 78.624 154.009 79.324C154.009 79.524 154.109 79.724 154.109 79.924C154.909 80.124 155.709 80.324 156.509 80.424C165.509 81.624 174.409 82.824 183.409 83.824C193.709 85.024 204.009 85.924 214.309 86.924C221.109 87.624 228.009 88.424 234.809 89.024C237.809 89.324 240.809 89.124 243.809 89.224C248.009 89.424 252.309 89.724 256.509 89.924C259.009 90.124 261.509 90.424 264.009 90.524C271.909 90.724 279.809 90.924 287.709 89.424C293.209 88.324 298.609 86.924 304.109 85.424C306.809 84.724 309.509 83.824 312.109 82.724C315.309 81.524 318.309 79.924 321.509 78.724C324.309 77.624 327.109 76.824 329.909 75.724C333.309 74.424 336.709 73.224 340.009 71.624C343.009 70.224 345.909 69.324 349.109 70.424C350.309 70.824 350.609 71.924 350.209 73.024C346.809 81.024 341.509 87.124 333.709 91.324C331.409 92.624 329.809 95.424 328.309 97.824C327.509 99.124 328.009 100.724 329.809 101.524C330.909 102.024 331.909 102.724 333.009 103.024C337.509 104.324 341.309 106.624 344.709 109.824C347.309 112.224 349.809 114.924 350.709 118.624C351.009 119.924 352.009 121.424 350.209 122.624C349.609 122.224 349.709 122.724 349.709 122.924Z" fill="white"/>
        <path d="M349.709 122.924C346.909 124.124 344.709 123.224 342.409 121.824C340.409 120.724 338.009 120.224 335.709 119.524C327.409 116.824 319.109 113.824 310.709 111.324C306.209 110.024 301.509 109.624 296.809 108.824C296.509 108.724 296.209 108.824 295.909 108.724C292.809 106.824 289.209 107.124 285.809 106.724C280.609 106.124 275.309 105.724 270.109 105.324C267.009 105.024 263.909 104.824 260.809 104.624C260.409 104.624 259.909 104.724 259.009 104.824C260.709 105.924 262.009 106.824 263.409 107.724C263.809 108.024 264.409 108.324 264.609 108.724C264.909 109.224 265.009 109.924 264.809 110.424C264.609 110.824 263.809 111.024 263.309 111.024C260.009 110.924 256.809 110.624 253.509 110.724C250.409 110.824 247.309 111.424 244.309 111.824C241.709 112.124 238.909 112.224 236.409 112.924C233.109 113.824 229.909 114.824 227.509 117.524C227.309 117.724 226.709 117.924 226.409 117.824C224.109 117.424 221.809 116.924 219.409 116.624C217.209 116.324 215.909 115.124 214.709 113.424C214.209 112.624 213.309 111.924 212.609 111.324C211.909 110.824 211.009 110.624 210.509 110.024C208.009 107.124 205.009 107.624 201.809 108.224C193.109 109.824 184.409 111.424 175.709 112.924C166.909 114.424 158.109 115.824 149.309 117.324C146.409 117.824 143.409 117.924 140.709 118.924C138.209 119.824 135.909 121.524 133.709 123.124C131.809 124.524 130.209 126.324 128.309 127.824C127.509 128.424 126.309 128.724 125.309 128.924C120.509 129.824 116.309 128.024 113.009 124.824C110.509 122.424 107.909 122.724 105.109 122.824C104.009 122.824 102.909 122.824 101.809 122.824C99.4093 122.824 97.0093 122.924 94.6093 122.824C91.4093 122.724 88.2093 122.524 85.0093 122.224C76.9093 121.424 68.9093 120.524 60.8093 119.424C57.9093 119.024 55.0093 118.124 52.1093 117.524C50.1093 117.124 48.1093 116.924 46.2093 116.324C41.5093 115.024 36.8093 113.524 32.1093 112.124C26.9093 110.524 21.7093 109.024 16.6093 107.324C13.9093 106.424 11.3093 105.024 8.70928 104.024C6.70928 103.224 4.50928 102.624 2.50928 101.724C0.60928 100.824 -0.0907204 98.224 0.00927956 96.124C0.10928 92.724 2.70928 91.424 5.00928 90.224C8.90928 88.124 13.0093 86.224 17.2093 84.624C21.4093 83.024 25.7093 81.624 30.1093 80.724C38.8093 78.824 47.6093 77.324 56.3093 75.524C63.9093 73.924 71.7093 74.324 79.4093 74.024C84.1093 73.824 88.7093 73.724 93.4093 73.824C98.1093 73.924 102.809 74.424 107.609 74.724C108.809 74.824 110.109 74.724 111.609 74.724C110.909 72.724 112.109 72.024 113.309 71.324C114.809 70.424 116.409 69.524 117.809 68.524C121.309 66.024 125.409 64.624 129.509 63.624C133.609 62.624 137.809 62.524 141.309 65.624C142.709 66.824 144.109 67.824 145.509 69.024C148.109 71.324 151.209 72.524 154.509 73.424C155.709 73.724 156.809 74.124 158.009 74.424C159.409 74.724 160.109 75.624 160.409 77.224C158.209 77.924 156.109 78.624 154.009 79.324C154.009 79.524 154.109 79.724 154.109 79.924C154.909 80.124 155.709 80.324 156.509 80.424C165.509 81.624 174.409 82.824 183.409 83.824C193.709 85.024 204.009 85.924 214.309 86.924C221.109 87.624 228.009 88.424 234.809 89.024C237.809 89.324 240.809 89.124 243.809 89.224C248.009 89.424 252.309 89.724 256.509 89.924C259.009 90.124 261.509 90.424 264.009 90.524C271.909 90.724 279.809 90.924 287.709 89.424C293.209 88.324 298.609 86.924 304.109 85.424C306.809 84.724 309.509 83.824 312.109 82.724C315.309 81.524 318.309 79.924 321.509 78.724C324.309 77.624 327.109 76.824 329.909 75.724C333.309 74.424 336.709 73.224 340.009 71.624C343.009 70.224 345.909 69.324 349.109 70.424C350.309 70.824 350.609 71.924 350.209 73.024C346.809 81.024 341.509 87.124 333.709 91.324C331.409 92.624 329.809 95.424 328.309 97.824C327.509 99.124 328.009 100.724 329.809 101.524C330.909 102.024 331.909 102.724 333.009 103.024C337.509 104.324 341.309 106.624 344.709 109.824C347.309 112.224 349.809 114.924 350.709 118.624C351.009 119.924 352.009 121.424 350.209 122.624C349.609 122.224 349.709 122.724 349.709 122.924ZM249.309 106.424C247.909 105.824 246.409 105.324 245.009 104.624C242.509 103.324 240.009 101.824 237.309 104.324C241.909 107.224 246.409 110.424 252.509 107.924C251.309 107.324 250.309 106.824 249.309 106.424C250.309 106.624 251.309 106.824 252.309 107.124C254.309 107.524 256.209 108.024 258.209 108.424C258.309 108.224 258.309 107.924 258.409 107.724C254.509 106.324 250.909 103.824 246.309 104.524C247.209 105.124 248.309 105.724 249.309 106.424ZM131.409 75.524C131.709 75.924 131.909 76.724 132.209 76.824C134.009 77.424 135.809 77.024 137.409 76.024C137.209 76.424 137.009 76.824 136.709 77.524C138.809 77.524 140.609 77.524 142.309 77.524C142.909 77.824 143.509 78.324 143.909 78.224C146.309 77.524 148.609 76.724 151.009 75.924C151.009 75.724 150.909 75.424 150.909 75.224C148.409 73.724 145.909 72.024 142.709 73.324C143.109 73.024 143.509 72.624 144.309 71.924C143.109 71.724 142.309 71.424 141.609 71.524C139.609 71.924 137.709 72.524 135.709 73.124C137.509 72.224 139.309 71.424 141.209 70.524C139.209 68.124 126.709 72.124 125.209 75.824C127.409 75.924 129.409 77.124 131.409 75.524ZM329.509 86.024C324.409 87.824 319.309 89.624 314.209 91.324C320.709 92.424 326.209 90.124 331.609 86.024C330.609 86.124 330.009 86.124 329.509 86.024C330.409 85.824 331.409 85.424 332.409 85.324C336.009 84.824 337.909 82.224 339.909 79.624C340.009 79.524 339.809 79.224 339.709 78.724C330.009 83.024 319.709 85.424 310.209 90.324C311.009 90.524 311.609 90.524 312.309 90.324C315.209 89.624 318.109 88.924 321.009 88.124C323.809 87.424 326.709 86.724 329.509 86.024ZM67.0093 99.624C65.6093 99.724 64.3093 100.824 62.4093 99.424C63.7093 99.124 64.5093 98.824 65.4093 98.724C67.2093 98.524 67.8093 97.524 67.1093 95.924C66.7093 95.124 66.2093 94.324 65.8093 93.524C65.9093 93.424 66.1093 93.324 66.2093 93.224C66.8093 94.024 67.4093 94.724 67.9093 95.524C68.9093 97.424 69.6093 97.424 71.0093 95.724C71.8093 94.724 72.8093 93.924 73.9093 93.124C75.5093 92.024 77.3093 91.124 78.9093 90.024C79.2093 89.824 79.5093 89.224 79.6093 88.824C80.1093 86.824 77.9093 83.424 75.9093 83.224C74.8093 83.124 73.7093 83.324 72.3093 83.424C74.5093 86.324 74.6093 88.424 72.7093 90.424C71.2093 91.924 70.7093 92.124 69.5093 91.324C73.2093 89.124 74.1093 87.424 72.5093 84.924C71.4093 83.224 68.9093 82.924 66.9093 84.324C68.8093 87.724 68.3093 89.624 65.1093 91.924C64.3093 92.524 63.3093 93.124 62.9093 93.924C61.9093 96.224 61.2093 98.624 60.5093 101.024C60.3093 101.524 60.6093 102.424 60.9093 102.924C61.3093 103.524 62.1093 103.924 62.6093 104.524C62.9093 104.924 63.0093 105.924 62.8093 106.024C61.3093 107.024 59.7093 107.924 58.2093 108.924C58.1093 108.724 58.0093 108.524 57.8093 108.224C58.5093 107.924 59.3093 107.624 60.0093 107.224C62.8093 106.024 62.9093 105.124 60.5093 103.324C60.2093 103.124 59.9093 103.024 59.3093 102.624C56.3093 107.624 51.5093 109.824 45.5093 110.824C46.2093 111.224 46.5093 111.424 46.7093 111.424C49.1093 111.924 51.6093 112.324 54.1093 113.024C61.1093 114.824 68.2093 114.724 75.3093 115.024C84.0093 115.324 92.7093 115.224 101.409 115.224C105.709 115.224 109.909 115.024 114.209 114.824C115.909 114.724 117.609 114.724 119.209 114.624C124.709 114.124 130.309 113.624 135.809 113.024C141.409 112.424 147.009 111.924 152.609 111.024C164.409 109.124 176.209 106.924 188.009 104.924C194.709 103.724 201.409 102.524 208.209 101.724C214.409 100.924 220.709 100.424 227.009 99.824C230.809 99.424 234.509 98.824 238.309 98.924C249.409 99.324 260.409 100.024 271.509 100.624C275.709 100.824 279.909 101.424 284.009 101.524C288.109 101.524 292.209 101.224 296.309 100.824C297.209 100.724 298.009 99.524 298.809 98.924C298.009 98.524 297.309 98.024 296.509 97.624C295.409 97.124 294.309 96.624 293.109 96.124C292.709 95.924 292.209 95.724 291.809 95.824C290.809 95.924 289.809 96.224 289.209 96.324C288.709 97.424 288.409 98.324 288.009 99.124C287.709 97.224 286.709 96.324 285.209 96.024C282.709 95.424 283.709 98.624 281.909 98.824C282.909 97.424 282.709 96.324 281.309 96.224C279.809 96.024 278.209 95.724 276.709 95.824C275.509 95.924 273.709 95.724 273.909 97.924C273.909 98.224 273.609 98.624 273.309 98.724C271.709 99.424 270.109 99.824 268.209 99.024C269.709 98.924 270.909 98.924 272.109 98.724C272.609 98.624 273.009 98.024 273.209 97.524C273.309 97.324 272.609 96.524 272.209 96.524C269.609 96.524 266.909 96.424 264.309 96.624C262.809 96.724 261.409 97.624 260.309 95.924C260.209 95.724 259.909 95.624 259.709 95.724C258.409 95.924 257.009 96.224 255.709 96.524C254.609 96.824 253.409 97.124 252.309 97.424C252.309 97.324 252.309 97.224 252.209 97.124C252.709 96.924 253.109 96.624 253.609 96.424C253.609 96.224 253.609 96.024 253.509 95.824C251.109 95.724 248.709 95.524 246.309 95.424C246.409 96.224 246.409 96.624 246.409 97.024C245.709 97.024 245.209 97.024 244.709 97.024C245.409 95.824 244.909 95.424 243.809 95.324C242.809 95.224 241.909 95.124 240.909 95.024C239.709 94.924 239.009 95.124 238.309 96.424C237.809 97.424 236.509 97.924 235.609 98.724C235.509 98.524 235.309 98.324 235.209 98.124C235.909 97.724 236.709 97.324 237.309 96.824C237.709 96.524 237.809 95.824 238.009 95.324C237.509 95.124 237.109 94.824 236.609 94.824C235.609 94.724 234.609 94.824 233.509 94.724C232.609 94.624 231.909 94.824 231.609 95.924C231.109 97.624 229.609 97.824 228.209 98.224C228.809 97.624 229.609 97.324 230.209 96.824C230.609 96.424 230.909 95.724 231.009 95.124C231.009 94.824 230.509 94.324 230.109 94.224C227.809 93.924 225.509 93.624 223.309 93.424C222.009 95.924 219.809 97.424 217.809 97.024C218.809 96.524 219.909 96.224 220.909 95.624C221.409 95.324 221.909 94.524 221.909 94.024C221.909 93.624 221.009 93.024 220.509 93.024C215.809 92.424 211.109 92.024 206.409 91.524C205.609 91.424 204.809 91.524 204.509 91.524C203.409 93.024 202.609 94.224 201.809 95.524C202.209 95.924 202.809 96.424 203.009 97.124C203.209 97.724 203.109 98.824 202.709 99.024C200.609 100.224 198.209 100.524 195.809 100.324C196.309 99.924 196.909 99.624 197.409 99.524C198.709 99.224 200.009 99.024 201.309 98.824C202.709 98.624 202.709 97.724 201.909 96.924C201.109 96.224 200.109 95.724 199.109 95.124C200.009 94.624 201.109 94.224 201.909 93.624C202.309 93.224 202.509 92.324 202.509 91.724C202.509 91.424 201.609 90.924 201.109 90.924C200.109 90.924 199.009 91.124 198.009 91.224C198.209 94.324 197.609 95.024 194.509 95.924C194.109 96.024 193.409 96.324 193.409 96.624C193.409 98.124 192.509 98.924 191.209 99.324C190.009 99.624 188.809 99.924 187.509 100.124C187.009 100.224 186.409 99.824 185.809 99.624C187.409 99.224 188.909 99.124 190.309 98.824C191.009 98.624 192.009 97.924 192.109 97.424C192.209 96.824 191.409 96.124 190.909 95.524C190.609 95.124 190.209 94.924 189.809 94.624C189.909 94.424 190.009 94.324 190.109 94.124C190.709 94.324 191.209 94.524 191.809 94.824C193.309 95.524 194.909 95.424 196.209 94.424C196.709 94.024 197.109 93.124 196.909 92.624C196.709 91.924 196.109 90.924 195.509 90.824C193.509 90.424 191.409 90.424 189.109 90.324C190.009 92.524 189.009 93.724 187.109 94.424C186.709 94.624 186.309 95.024 185.909 95.124C184.909 95.424 184.609 95.924 184.609 97.124C184.709 98.824 183.109 99.524 181.809 100.024C180.009 100.824 179.009 100.624 177.909 99.524C180.009 99.524 182.409 99.724 183.309 97.624C184.309 95.224 181.709 94.624 180.509 93.224C181.409 93.424 182.209 93.724 183.009 94.224C184.409 95.124 188.109 93.724 188.209 92.124C188.209 91.424 187.609 90.024 187.109 89.924C184.709 89.424 182.209 89.224 180.209 88.924C180.109 90.524 180.409 91.824 179.909 92.524C179.009 93.824 177.609 94.724 175.809 94.524C176.309 93.924 176.909 93.624 177.609 93.224C180.109 91.924 180.309 90.424 177.809 89.324C175.209 88.224 172.109 87.924 169.009 87.324C169.309 89.424 170.409 91.424 168.409 92.324C167.009 92.924 165.309 92.824 163.609 93.124C164.709 94.424 166.209 95.824 165.309 97.824C165.009 98.424 164.009 98.924 163.209 98.924C162.309 98.924 161.409 98.424 160.609 98.124C160.709 97.824 160.809 97.624 160.809 97.324C161.409 97.424 162.109 97.624 162.709 97.624C163.209 97.624 163.909 97.824 164.209 97.524C164.509 97.224 164.609 96.424 164.409 96.124C164.009 95.224 163.309 94.424 162.709 93.624C162.309 93.124 161.909 92.724 161.309 92.224C163.109 92.224 164.609 92.324 166.009 92.224C167.309 92.124 168.609 91.724 168.609 90.124C168.609 88.524 167.509 87.424 166.009 87.224C165.209 87.124 164.409 86.924 163.509 86.724C162.409 86.524 161.309 86.424 159.809 86.124C161.209 88.824 160.509 90.624 158.709 92.224C158.309 92.524 157.909 93.024 157.909 93.424C157.909 96.224 154.609 98.724 151.309 97.924C152.009 97.524 152.409 97.224 152.809 97.124C153.609 96.824 154.409 96.624 155.209 96.324C157.509 95.424 157.709 94.124 155.909 92.424C155.409 91.924 154.809 91.524 154.309 91.024C154.809 90.824 155.209 90.824 155.409 91.024C156.409 91.824 157.509 92.024 158.209 91.024C158.909 90.024 159.509 88.624 159.309 87.524C159.209 86.724 157.909 85.924 156.909 85.524C155.809 85.124 154.609 85.124 153.409 85.024C152.409 84.924 151.509 85.024 151.009 85.024C151.309 86.524 152.109 88.324 151.609 89.324C151.009 90.424 149.209 90.824 147.909 91.624C149.409 95.324 149.409 96.624 147.609 97.624C146.609 98.124 145.509 98.924 144.509 97.424C146.309 97.124 148.509 96.924 148.009 94.724C147.709 93.224 146.309 91.924 145.509 90.724C146.709 90.524 148.109 90.324 149.509 89.824C150.109 89.624 150.909 88.524 150.809 88.324C150.109 87.024 149.409 85.324 148.209 84.824C146.309 84.024 144.009 84.124 141.809 83.924C143.909 87.924 142.809 89.724 137.209 90.924C137.409 90.524 137.609 90.024 138.009 89.824C138.709 89.424 139.709 89.424 140.309 88.924C141.009 88.324 142.109 87.124 141.909 86.724C141.309 85.424 140.309 83.624 139.209 83.424C136.409 82.924 133.509 83.224 130.409 83.224C131.009 84.324 131.509 85.124 131.809 86.024C132.209 87.224 132.409 88.824 131.009 89.324C129.609 89.824 128.009 89.724 126.509 89.824C126.509 89.624 126.509 89.524 126.509 89.324C127.409 89.224 128.209 89.024 129.109 89.024C131.109 88.924 131.809 88.024 131.309 86.124C130.509 83.124 126.109 81.524 122.609 83.124C123.109 84.724 125.309 86.224 123.609 87.924C122.409 89.024 120.509 89.524 119.009 90.224C118.909 90.024 118.809 89.824 118.809 89.624C119.709 89.324 120.509 88.824 121.409 88.624C122.609 88.324 123.909 87.724 123.509 86.424C123.109 85.024 122.209 83.124 121.109 82.724C119.209 82.124 117.009 82.524 114.909 82.524C116.709 87.924 115.309 89.724 109.709 89.524C110.809 89.124 112.009 88.924 113.209 88.524C115.109 87.924 115.709 86.724 115.109 84.824C114.609 83.224 113.809 82.224 111.909 82.424C109.209 82.724 106.509 82.824 103.509 82.924C104.009 83.624 104.309 84.024 104.609 84.424C106.109 86.324 106.009 87.024 103.809 88.124C103.109 88.524 102.309 88.824 101.509 89.224C101.509 89.324 101.609 89.524 101.609 89.624C102.309 89.624 103.009 89.424 103.609 89.524C105.009 89.724 106.409 89.824 107.709 90.424C108.209 90.624 108.509 91.824 108.609 92.624C108.709 93.524 108.409 94.424 108.209 95.324C108.009 95.024 107.809 94.824 107.509 94.524C107.209 95.324 107.109 96.124 106.609 96.824C104.109 100.724 100.409 103.024 96.2093 104.524C91.6093 106.224 87.2093 108.424 82.4093 109.224C79.3093 109.724 76.2093 111.024 73.1093 109.424C73.2093 109.124 73.5093 108.724 73.5093 108.424C72.4093 105.424 72.3093 101.924 69.4093 99.724C68.3093 98.724 67.7093 98.524 67.0093 99.624ZM42.5093 82.524C42.5093 82.724 42.5093 82.924 42.5093 83.024C43.4093 83.424 44.3093 83.724 45.0093 84.324C46.8093 85.524 48.8093 86.724 50.2093 88.224C51.6093 89.724 51.2093 90.724 49.4093 92.424C47.5093 88.124 43.2093 87.024 39.4093 85.624C35.6093 84.224 31.3093 83.424 27.1093 86.024C31.6093 87.924 32.9093 91.224 31.3093 95.524C30.5093 97.724 24.7093 101.124 22.3093 100.424C16.9093 98.824 14.8093 94.924 16.2093 88.724C11.1093 91.224 2 93.6689 2 96C2 100.624 12.6093 100.824 17.7093 102.224C20.4093 102.924 23.3093 102.624 26.1093 102.724C31.0093 102.824 36.0093 102.924 39.8093 98.824C40.3093 98.324 41.1093 98.124 41.8093 97.824C40.1093 103.924 35.5093 105.624 30.2093 106.624C30.4093 106.724 30.5093 106.924 30.6093 106.924C33.7093 107.924 36.7093 108.824 39.8093 109.824C40.6093 110.024 41.5093 110.524 42.1093 110.324C43.9093 109.724 45.7093 108.824 47.4093 107.924C52.9093 105.124 55.9093 100.124 58.4093 94.824C59.5093 92.424 57.8093 87.324 55.9093 85.724C54.1093 84.224 52.3093 82.624 50.6093 81.024C50.4093 80.824 50.1093 80.624 49.8093 80.724C47.5093 81.324 45.0093 81.924 42.5093 82.524ZM76.6093 107.624C82.1093 108.924 101.309 99.524 102.909 94.924C96.4093 93.124 90.0093 94.424 83.6093 95.824C87.7093 96.324 92.0093 95.724 95.9093 97.224C92.6093 97.224 89.2093 97.224 85.8093 97.224C82.4093 97.124 79.0093 97.624 75.7093 98.824C81.1093 99.024 86.5093 99.224 91.9093 99.424C91.9093 99.624 91.9093 99.724 91.9093 99.924C86.3093 100.224 80.7093 99.624 75.1093 100.824C79.0093 101.124 83.0093 100.024 86.9093 101.324C83.3093 101.724 79.6093 102.124 76.0093 102.524C76.0093 102.724 76.0093 102.924 76.1093 103.124C79.2093 102.924 82.4093 103.024 85.5093 103.724C85.2093 104.024 84.8093 104.124 84.5093 104.124C82.0093 104.124 79.6093 104.124 77.1093 104.324C76.7093 104.324 76.3093 105.124 75.9093 105.524C76.3093 105.824 76.7093 106.324 77.2093 106.524C77.9093 106.824 78.7093 106.824 79.4093 106.924C79.4093 107.124 79.4093 107.224 79.3093 107.424C78.5093 107.424 77.5093 107.524 76.6093 107.624ZM300.809 102.224C299.509 104.824 299.609 105.124 302.209 105.524C303.109 105.724 304.109 105.824 305.009 106.124C309.509 107.524 314.009 108.924 318.509 110.324C325.409 112.424 332.309 114.524 339.309 116.624C340.809 117.124 342.409 117.524 344.009 117.924C344.109 117.724 344.209 117.524 344.309 117.324C343.609 116.824 343.109 116.224 342.309 115.924C339.609 115.024 336.809 114.224 334.109 113.224C333.209 112.924 332.509 112.124 331.609 111.924C328.209 111.124 325.009 109.624 321.409 109.324C318.609 109.024 315.509 108.324 313.209 106.124C312.609 105.524 311.609 105.224 310.709 105.024C308.009 104.224 305.309 103.524 302.609 102.824C302.009 102.524 301.409 102.324 300.809 102.224ZM297.909 92.024C297.909 92.324 298.009 92.524 298.009 92.824C298.509 92.924 299.109 93.124 299.609 93.024C301.409 92.624 303.209 92.224 304.909 91.524C310.409 89.324 315.709 86.924 321.209 84.924C327.509 82.624 333.809 80.524 340.209 78.324C341.309 77.924 341.809 77.224 341.709 75.824C339.709 76.524 337.909 77.124 336.209 77.824C335.609 78.124 335.109 78.724 334.409 78.924C329.109 80.524 323.909 82.024 318.609 83.524C316.909 84.024 315.309 84.624 313.709 85.224C311.109 86.324 308.609 87.524 306.009 88.624C303.409 89.724 300.609 90.824 297.909 92.024ZM29.3093 92.624C29.0093 90.624 26.5093 87.624 24.5093 87.424C22.2093 87.224 18.1093 90.024 18.0093 92.024C17.8093 95.224 20.2093 98.024 21.7093 97.824C24.0093 97.524 26.4093 97.224 28.1093 95.424C28.8093 94.724 28.9093 93.624 29.3093 92.624ZM85.1093 89.824C85.2093 89.924 85.3093 90.024 85.5093 90.124C86.3093 90.124 87.0093 90.024 87.8093 90.024C89.5093 89.824 91.2093 89.924 92.7093 89.424C94.3093 88.924 95.8093 88.024 97.1093 87.124C97.7093 86.724 98.4093 85.524 98.2093 84.924C98.0093 83.824 97.2093 82.824 95.7093 82.824C94.2093 82.824 92.6093 82.624 91.1093 82.624C89.6093 82.624 88.0093 82.624 86.0093 82.624C89.0093 85.724 87.8093 87.924 85.1093 89.824ZM340.209 112.824C340.409 112.524 340.609 112.124 340.709 111.824C339.509 110.924 338.309 109.724 337.009 109.124C335.309 108.424 333.509 108.124 331.709 107.824C325.309 106.424 318.809 105.124 312.409 103.824C312.209 104.024 312.109 104.224 311.909 104.424C312.309 104.624 312.709 104.924 313.209 105.024C322.209 107.624 331.209 110.224 340.209 112.824ZM138.909 68.424C138.209 66.924 136.909 66.624 135.409 67.124C131.709 68.324 128.009 69.424 124.409 70.924C122.509 71.624 120.709 72.724 119.809 75.024C121.509 75.124 123.209 75.224 124.709 74.624C127.209 73.624 129.409 72.124 131.909 71.024C134.109 70.024 136.509 69.324 138.909 68.424ZM219.209 105.924C220.109 106.424 220.509 106.724 221.009 107.024C223.709 108.324 226.409 109.424 229.109 110.824C231.809 112.124 234.209 110.124 236.809 110.324C233.109 108.424 229.509 106.824 225.809 105.224C225.109 104.924 224.309 104.524 223.609 104.624C222.309 104.724 221.009 105.324 219.209 105.924ZM77.7093 83.624C80.0093 85.624 81.6093 87.624 79.9093 91.024C81.7093 90.724 83.1093 90.524 84.0093 90.424C84.7093 89.524 85.0093 88.824 85.5093 88.424C87.3093 86.924 87.5093 85.224 85.8093 83.524C84.6093 82.224 80.2093 82.224 77.7093 83.624ZM244.509 109.224C240.009 105.024 232.309 103.124 228.809 105.224C232.409 108.624 239.809 110.624 244.509 109.224ZM229.509 111.524C226.309 110.124 223.309 108.824 220.309 107.524C219.509 107.124 218.809 106.524 218.009 106.024C218.109 105.924 218.109 105.724 218.209 105.624C217.309 105.724 216.509 105.824 215.309 106.024C215.709 106.624 215.809 107.224 216.209 107.424C218.309 109.024 220.409 110.724 222.709 111.924C224.709 113.024 227.109 113.924 229.509 111.524ZM135.709 65.924C135.109 65.824 134.409 65.724 133.809 65.724C129.309 65.824 125.309 67.424 121.609 69.924C119.209 71.524 116.709 73.124 114.509 74.524C116.609 75.024 118.909 74.924 120.609 72.624C121.109 71.924 122.109 71.324 122.909 71.024C127.109 69.224 131.409 67.624 135.709 65.924ZM60.4093 85.824C61.2093 88.024 62.0093 90.024 62.7093 92.224C63.7093 91.624 64.4093 91.324 65.1093 90.924C67.2093 89.724 67.8093 87.124 66.4093 85.224C66.2093 84.924 65.6093 84.424 65.3093 84.524C63.7093 84.824 62.1093 85.324 60.4093 85.824ZM98.1093 83.024C100.909 86.824 97.7093 87.824 95.2093 89.224C96.6093 89.324 97.9093 89.424 99.0093 89.124C100.409 88.724 101.609 87.924 102.909 87.424C104.409 86.824 104.709 86.024 104.009 84.624C103.009 82.624 101.809 82.224 98.1093 83.024ZM307.609 94.324C307.609 94.524 307.709 94.724 307.709 94.924C311.309 95.224 314.909 95.524 318.609 95.924C321.409 96.224 322.109 95.624 321.709 92.424C317.009 93.024 312.309 93.724 307.609 94.324ZM332.109 106.924C332.209 106.624 332.309 106.324 332.409 106.024C326.509 103.224 320.409 101.024 313.609 101.724C319.709 103.524 325.909 105.224 332.109 106.924ZM90.2093 93.024C90.2093 92.924 90.2093 92.824 90.2093 92.724C89.8093 92.724 89.3093 92.624 88.9093 92.624C85.6093 92.824 82.4093 92.924 79.1093 93.224C77.8093 93.324 76.5093 93.624 75.3093 94.224C74.3093 94.724 73.5093 95.724 72.6093 96.524C72.7093 96.624 72.8093 96.624 72.9093 96.724C78.8093 95.424 84.5093 94.224 90.2093 93.024ZM309.309 97.324C309.309 97.524 309.309 97.724 309.209 97.924C309.609 98.024 310.009 98.224 310.409 98.324C313.409 98.924 316.509 99.424 319.509 99.924C320.109 100.024 320.709 99.724 321.309 99.524C320.909 98.724 320.509 97.424 320.009 97.324C316.509 97.224 312.909 97.324 309.309 97.324ZM128.509 121.824C126.009 120.724 123.509 120.524 120.909 121.624C122.509 122.224 124.109 122.524 125.709 123.024C127.009 123.324 127.909 123.324 128.509 121.824ZM92.9093 92.624C92.9093 92.724 92.9093 92.724 92.9093 92.824C95.0093 93.024 97.0093 93.124 99.1093 93.324C100.509 93.424 101.809 93.724 103.209 93.924C103.709 94.024 104.209 93.824 104.709 93.624C104.809 93.624 104.909 92.824 104.809 92.824C104.309 92.724 103.909 92.624 103.409 92.524C103.009 92.524 102.609 92.524 102.209 92.524C99.0093 92.624 95.9093 92.624 92.9093 92.624ZM126.509 124.524C126.509 124.324 126.409 124.224 126.409 124.024C123.509 123.224 120.609 122.424 117.709 121.624C117.809 122.224 118.109 122.524 118.409 122.724C120.409 123.624 122.409 124.524 124.409 125.124C125.009 125.324 125.809 124.724 126.509 124.524ZM334.309 112.724C337.109 113.624 340.009 114.424 342.809 115.324C340.909 113.224 336.709 111.924 334.309 112.724ZM224.809 114.224C224.909 114.024 224.909 113.924 225.009 113.724C222.509 112.524 220.109 111.224 217.609 110.024C219.709 112.124 221.509 114.624 224.809 114.224ZM119.409 124.024C121.309 126.624 122.709 127.124 123.709 125.624C122.209 125.024 120.809 124.524 119.409 124.024ZM216.809 110.124C217.009 109.924 217.109 109.724 217.309 109.524C215.809 108.624 215.009 106.624 213.009 106.324C212.909 106.524 212.709 106.624 212.609 106.824C213.909 107.924 215.409 109.024 216.809 110.124Z" fill="black"/>
        <path d="M211.309 92.7241C212.509 93.6241 212.909 95.4241 212.009 96.1241C210.409 97.4241 208.609 98.4241 206.809 99.5241C206.609 99.6241 206.109 99.4241 205.609 99.4241C206.709 98.7241 207.409 98.1241 208.209 97.5241C207.209 96.7241 206.209 95.9241 205.009 94.9241C206.409 94.5241 207.409 95.4241 208.609 96.0241C209.109 96.3241 210.009 96.5241 210.509 96.2241C211.009 95.9241 211.409 95.1241 211.509 94.5241C211.709 94.0241 211.409 93.4241 211.309 92.7241Z" fill="black"/>
        <path d="M136.709 97.6241C138.009 97.1241 139.209 96.9241 140.309 96.4241C141.909 95.6241 141.909 94.3241 140.509 93.3241C139.909 92.9241 139.209 92.6241 138.609 92.4241C137.909 92.2241 137.309 92.0241 136.509 91.8241C138.309 90.9241 142.209 92.5241 142.509 94.4241C142.609 94.8241 142.409 95.4241 142.209 95.8241C141.309 97.4241 138.509 98.5241 136.709 97.6241Z" fill="black"/>
        <path d="M169.809 93.324C172.109 92.824 174.809 94.424 175.509 96.224C175.909 97.424 175.709 98.424 174.409 99.024C173.009 99.624 171.609 99.724 170.209 98.824C171.209 98.724 171.809 98.824 172.409 98.624C173.209 98.324 174.309 98.024 174.509 97.424C174.709 96.824 174.109 95.724 173.609 95.124C173.009 94.424 172.009 94.124 171.209 93.724C170.809 93.524 170.209 93.424 169.809 93.324Z" fill="black"/>
        <path d="M110.509 92.824C112.809 93.624 114.309 95.724 113.909 97.024C113.509 98.324 111.009 99.224 108.709 98.624C109.709 98.424 110.209 98.324 110.709 98.124C111.509 97.824 112.909 97.524 113.109 97.024C113.309 96.224 112.709 95.124 112.209 94.324C111.809 93.624 111.009 93.224 110.509 92.824Z" fill="black"/>
        <path d="M127.909 91.4241C128.909 92.3241 130.009 93.2241 131.009 94.2241C131.809 95.0241 131.609 96.0241 130.609 96.4241C129.309 96.9241 127.909 97.1241 126.509 97.4241C126.409 97.1241 126.409 96.9241 126.309 96.6241C127.209 96.5241 128.209 96.4241 129.109 96.2241C130.809 95.9241 131.009 95.0241 129.909 93.7241C129.509 93.3241 129.109 93.0241 128.709 92.6241C128.309 92.3241 127.909 91.9241 127.509 91.6241C127.709 91.7241 127.809 91.6241 127.909 91.4241Z" fill="black"/>
        <path d="M119.209 97.8241C119.909 97.0241 121.309 96.3241 121.309 95.5241C121.509 93.1241 119.209 92.4241 117.609 91.4241C120.109 91.9241 122.509 94.3241 122.109 95.8241C121.909 97.1241 120.309 98.1241 119.209 97.8241Z" fill="black"/>
        <path d="M67.009 99.624C67.609 100.324 68.209 100.924 68.709 101.624C69.309 102.524 70.109 103.424 69.309 104.524C68.509 105.624 67.309 106.024 65.709 106.024C69.309 104.024 69.309 104.024 67.309 100.624C67.109 100.324 67.109 99.924 67.009 99.624Z" fill="black"/>
        <path d="M112.709 102.324C113.109 103.224 113.309 104.324 112.109 105.124C110.809 106.024 109.409 106.824 107.809 105.624C109.009 105.424 110.309 105.524 111.209 105.024C111.909 104.424 112.209 103.224 112.709 102.324Z" fill="black"/>
        <path d="M99.5088 108.324C100.709 107.924 102.009 107.824 102.609 107.024C103.209 106.424 103.009 105.124 103.109 103.824C103.309 104.724 103.909 105.624 103.809 106.424C103.609 107.924 101.809 108.624 99.5088 108.324Z" fill="black"/>
        <path d="M127.809 102.424C127.509 102.924 127.409 103.624 126.909 103.924C125.709 104.824 124.409 105.424 122.809 104.924C124.509 104.324 126.709 104.624 127.109 102.024C127.309 102.124 127.609 102.324 127.809 102.424Z" fill="black"/>
        <path d="M133.109 104.824C135.909 103.724 135.609 102.024 134.309 100.024C134.609 100.024 134.909 100.024 135.109 100.024C135.209 101.224 135.609 102.424 135.409 103.624C135.309 104.224 134.409 104.724 133.809 105.324C133.709 105.124 133.409 105.024 133.109 104.824Z" fill="black"/>
        <path d="M22.8085 89.0239C23.9085 90.1239 25.0085 90.7239 25.5085 91.7239C25.9085 92.5239 24.2085 94.3239 23.2085 94.2239C21.3085 94.0239 21.7085 92.1239 21.3085 90.9239C21.1085 90.6239 22.0085 89.9239 22.8085 89.0239Z" fill="black"/>
    </g>

    <g>
        <path d="M74.8 39.2196C69.6 39.2196 64.4 39.2196 59.2 39.2196C59.3 39.3196 59.3 39.4196 59.4 39.6196C58.4 40.2196 57.5 41.0196 56.4 41.2196C54 41.8196 51.5 41.8196 49.2 42.6196C45.5 43.8196 41.8 45.4196 38.1 46.6196C36.5 47.1196 34.8 47.3196 33.2 47.7196C30.8 48.4196 28.4 49.3196 25.9 50.0196C20.8 51.5196 15.7 52.9196 10.6 54.3196C10.6 54.5196 10.3 54.5196 10.1 54.6196C8.6 54.8196 7.2 54.1196 5.5 55.1196C4.2 55.8196 2.1 55.1196 0 54.9196C1.2 52.0196 2.7 49.7196 4.6 47.6196C8.8 43.1196 13.9 39.9196 19.1 36.9196C21.2 35.6196 22.2 32.0196 20.5 29.3196C19 26.9196 17 24.8196 15 22.7196C13.5 21.2196 11.4 20.2196 10.1 18.5196C6.8 14.1196 1.6 10.8196 2.1 4.31962C2.2 3.31962 2.4 2.71961 3.4 2.21961C4.2 1.91961 4.7 1.01962 5.4 0.519615C5.8 0.219615 6.5 -0.0803848 6.9 0.0196152C7.9 0.419615 9 0.919615 9.6 1.71962C11.3 4.11962 13.9 4.91962 16.2 6.21961C21.4 9.21961 26.6 12.0196 31.9 14.7196C35.8 16.7196 39.9 18.5196 43.9 20.4196C44.4 20.7196 45.1 20.9196 45.4 21.3196C46.6 23.1196 48.3 22.6196 49.9 22.5196C52.2 22.3196 54.6 22.1196 56.9 22.1196C65.4 21.9196 73.9 21.9196 82.4 21.7196C85 21.6196 87.6 21.2196 90.2 21.1196C93.8 21.1196 97.5 21.3196 101.1 21.4196C108.5 21.5196 115.8 21.6196 123.2 21.4196C130.4 21.3196 137.7 21.0196 144.9 20.5196C154.1 19.9196 163.4 18.9196 172.6 18.2196C175.5 18.0196 178.5 18.2196 181.5 18.2196C181.5 18.1196 181.6 17.9196 181.6 17.8196C180.9 17.6196 180.1 17.4196 179.4 17.3196C178.2 17.0196 176.9 16.8196 175.7 16.5196C175.3 16.4196 174.7 15.9196 174.7 15.5196C174.7 15.1196 175.2 14.6196 175.6 14.3196C181.9 10.9196 188.3 7.71962 194.6 4.31962C196.3 3.41962 198 2.51962 198.9 0.519615C199.1 0.219615 200.1 -0.0803849 200.6 0.119615C206.3 2.11962 212.5 2.81962 217.8 6.01962C220.3 7.51962 223.1 8.51962 225.8 9.61962C228.5 10.6196 230.5 12.3196 231.6 14.9196C232 15.9196 232.5 16.1196 233.5 16.0196C241.1 15.2196 248.8 16.0196 256.4 16.4196C261 16.6196 265.6 16.9196 270.2 17.4196C276.7 18.1196 283.2 19.0196 289.7 19.9196C294.7 20.6196 299.7 21.3196 304.5 22.4196C309 23.4196 313.3 24.9196 317.8 26.2196C321.2 27.2196 324.7 28.0196 328.1 29.2196C332.7 30.8196 337.4 32.3196 341.8 34.3196C344.6 35.6196 347.1 37.6196 349.6 39.4196C351.1 40.5196 350.4 42.9196 348.7 43.6196C347.6 44.0196 346.6 44.7196 345.5 45.1196C344.3 45.6196 343 45.8196 341.8 46.3196C335.8 48.8196 329.8 51.3196 323.8 53.7196C321 54.8196 318.2 55.7196 315.3 56.5196C313.3 57.1196 311.2 57.2196 309.1 57.6196C304.9 58.4196 300.8 59.3196 296.6 60.1196C294.4 60.5196 292.1 60.7196 289.9 61.1196C287.6 61.5196 285.3 61.9196 283 62.3196C281 62.6196 279 62.9196 277 63.2196C275.1 63.5196 273.2 63.9196 271.4 64.3196C269.4 64.6196 267.5 65.1196 265.5 65.1196C257.9 65.2196 250.3 65.4196 242.7 65.3196C236.5 65.2196 230.3 64.6196 224.1 64.7196C222.2 64.7196 220.3 66.1196 218.6 67.0196C215.7 68.6196 212.7 69.6196 209.4 69.8196C207 69.9196 204.5 70.4196 202.1 70.2196C199.9 70.0196 197.4 70.1196 195.5 68.6196C192.7 66.4196 193 62.8196 196.3 61.2196C196.7 61.0196 197 60.8196 197.7 60.4196C197 60.0196 196.6 59.7196 196.2 59.6196C191.2 58.6196 186.1 57.8196 181 56.8196C177 56.0196 173.1 55.1196 169.1 54.3196C165 53.5196 160.8 52.7196 156.7 51.9196C154.1 51.4196 151.5 50.8196 148.9 50.2196C148.6 50.1196 148.3 50.0196 148 50.1196C145.1 51.5196 142.3 50.1196 139.9 49.2196C138.4 48.6196 136.8 48.0196 135.2 47.4196C132.6 46.4196 130 46.8196 127.6 47.9196C123.6 49.8196 119.6 51.8196 115.7 53.8196C115 54.2196 114.4 54.8196 113.8 55.3196C113.6 55.5196 113.4 55.9196 113.2 55.9196C109.8 56.1196 106.4 56.6196 103.8 53.6196C101.1 50.5196 97.3 49.1196 93.4 48.4196C87.2 47.3196 81 46.4196 74.8 45.6196C73.1 45.4196 71.3 45.7196 69.6 45.5196C68.8 45.4196 68.1 44.9196 67.3 44.6196C67.9 44.0196 68.3 43.2196 69 42.8196C70.8 41.7196 72.8 40.8196 74.7 39.9196C75 39.5196 74.9 39.3196 74.8 39.2196Z" fill="white"/>
        <path d="M74.8 39.2196C69.6 39.2196 64.4 39.2196 59.2 39.2196C59.3 39.3196 59.3 39.4196 59.4 39.6196C58.4 40.2196 57.5 41.0196 56.4 41.2196C54 41.8196 51.5 41.8196 49.2 42.6196C45.5 43.8196 41.8 45.4196 38.1 46.6196C36.5 47.1196 34.8 47.3196 33.2 47.7196C30.8 48.4196 28.4 49.3196 25.9 50.0196C20.8 51.5196 15.7 52.9196 10.6 54.3196C10.6 54.5196 10.3 54.5196 10.1 54.6196C8.6 54.8196 7.2 54.1196 5.5 55.1196C4.2 55.8196 2.1 55.1196 0 54.9196C1.2 52.0196 2.7 49.7196 4.6 47.6196C8.8 43.1196 13.9 39.9196 19.1 36.9196C21.2 35.6196 22.2 32.0196 20.5 29.3196C19 26.9196 17 24.8196 15 22.7196C13.5 21.2196 11.4 20.2196 10.1 18.5196C6.8 14.1196 1.6 10.8196 2.1 4.31962C2.2 3.31962 2.4 2.71961 3.4 2.21961C4.2 1.91961 4.7 1.01962 5.4 0.519615C5.8 0.219615 6.5 -0.0803848 6.9 0.0196152C7.9 0.419615 9 0.919615 9.6 1.71962C11.3 4.11962 13.9 4.91962 16.2 6.21961C21.4 9.21961 26.6 12.0196 31.9 14.7196C35.8 16.7196 39.9 18.5196 43.9 20.4196C44.4 20.7196 45.1 20.9196 45.4 21.3196C46.6 23.1196 48.3 22.6196 49.9 22.5196C52.2 22.3196 54.6 22.1196 56.9 22.1196C65.4 21.9196 73.9 21.9196 82.4 21.7196C85 21.6196 87.6 21.2196 90.2 21.1196C93.8 21.1196 97.5 21.3196 101.1 21.4196C108.5 21.5196 115.8 21.6196 123.2 21.4196C130.4 21.3196 137.7 21.0196 144.9 20.5196C154.1 19.9196 163.4 18.9196 172.6 18.2196C175.5 18.0196 178.5 18.2196 181.5 18.2196C181.5 18.1196 181.6 17.9196 181.6 17.8196C180.9 17.6196 180.1 17.4196 179.4 17.3196C178.2 17.0196 176.9 16.8196 175.7 16.5196C175.3 16.4196 174.7 15.9196 174.7 15.5196C174.7 15.1196 175.2 14.6196 175.6 14.3196C181.9 10.9196 188.3 7.71962 194.6 4.31962C196.3 3.41962 198 2.51962 198.9 0.519615C199.1 0.219615 200.1 -0.0803849 200.6 0.119615C206.3 2.11962 212.5 2.81962 217.8 6.01962C220.3 7.51962 223.1 8.51962 225.8 9.61962C228.5 10.6196 230.5 12.3196 231.6 14.9196C232 15.9196 232.5 16.1196 233.5 16.0196C241.1 15.2196 248.8 16.0196 256.4 16.4196C261 16.6196 265.6 16.9196 270.2 17.4196C276.7 18.1196 283.2 19.0196 289.7 19.9196C294.7 20.6196 299.7 21.3196 304.5 22.4196C309 23.4196 313.3 24.9196 317.8 26.2196C321.2 27.2196 324.7 28.0196 328.1 29.2196C332.7 30.8196 337.4 32.3196 341.8 34.3196C344.6 35.6196 347.1 37.6196 349.6 39.4196C351.1 40.5196 350.4 42.9196 348.7 43.6196C347.6 44.0196 346.6 44.7196 345.5 45.1196C344.3 45.6196 343 45.8196 341.8 46.3196C335.8 48.8196 329.8 51.3196 323.8 53.7196C321 54.8196 318.2 55.7196 315.3 56.5196C313.3 57.1196 311.2 57.2196 309.1 57.6196C304.9 58.4196 300.8 59.3196 296.6 60.1196C294.4 60.5196 292.1 60.7196 289.9 61.1196C287.6 61.5196 285.3 61.9196 283 62.3196C281 62.6196 279 62.9196 277 63.2196C275.1 63.5196 273.2 63.9196 271.4 64.3196C269.4 64.6196 267.5 65.1196 265.5 65.1196C257.9 65.2196 250.3 65.4196 242.7 65.3196C236.5 65.2196 230.3 64.6196 224.1 64.7196C222.2 64.7196 220.3 66.1196 218.6 67.0196C215.7 68.6196 212.7 69.6196 209.4 69.8196C207 69.9196 204.5 70.4196 202.1 70.2196C199.9 70.0196 197.4 70.1196 195.5 68.6196C192.7 66.4196 193 62.8196 196.3 61.2196C196.7 61.0196 197 60.8196 197.7 60.4196C197 60.0196 196.6 59.7196 196.2 59.6196C191.2 58.6196 186.1 57.8196 181 56.8196C177 56.0196 173.1 55.1196 169.1 54.3196C165 53.5196 160.8 52.7196 156.7 51.9196C154.1 51.4196 151.5 50.8196 148.9 50.2196C148.6 50.1196 148.3 50.0196 148 50.1196C145.1 51.5196 142.3 50.1196 139.9 49.2196C138.4 48.6196 136.8 48.0196 135.2 47.4196C132.6 46.4196 130 46.8196 127.6 47.9196C123.6 49.8196 119.6 51.8196 115.7 53.8196C115 54.2196 114.4 54.8196 113.8 55.3196C113.6 55.5196 113.4 55.9196 113.2 55.9196C109.8 56.1196 106.4 56.6196 103.8 53.6196C101.1 50.5196 97.3 49.1196 93.4 48.4196C87.2 47.3196 81 46.4196 74.8 45.6196C73.1 45.4196 71.3 45.7196 69.6 45.5196C68.8 45.4196 68.1 44.9196 67.3 44.6196C67.9 44.0196 68.3 43.2196 69 42.8196C70.8 41.7196 72.8 40.8196 74.7 39.9196C75 39.5196 74.9 39.3196 74.8 39.2196ZM95.4 42.6196C96.4 42.0196 97.4 41.4196 98.4 40.8196C95.3 39.3196 88.4 40.9196 86.2 43.6196C88.2 44.3196 90.1 44.7196 92.1 43.7196C92 44.0196 91.8 44.3196 91.4 45.1196C93.7 45.1196 95.6 45.1196 97.6 45.1196C97.8 45.5196 97.8 46.0196 98.1 46.2196C99.7 47.2196 101.4 47.2196 103 46.1196C102.6 46.6196 102.2 47.0196 101.8 47.5196C102.8 48.1196 103.6 48.7196 104.6 49.1196C105.3 49.4196 106.1 49.4196 106.8 49.5196C105.8 50.7196 107.1 51.2196 107.7 51.5196C108.3 51.8196 109.3 52.0196 109.9 51.6196C113.6 49.5196 117.3 47.3196 121 45.1196C121.3 45.0196 121.4 44.6196 121.6 44.4196C118.8 43.3196 116.3 43.1196 113.9 44.9196C113.2 45.4196 112.5 45.7196 111.7 46.1196C112.9 45.2196 114 44.3196 115.3 43.3196C113.9 42.4196 112.7 42.0196 111.3 42.7196C109.7 43.4196 108.1 43.9196 106.5 44.5196C107.7 43.8196 108.9 43.1196 110.5 42.2196C108.5 41.5196 106.9 40.9196 105.2 41.7196C102.8 42.8196 100.5 44.0196 98.2 45.1196C100.1 43.9196 102 42.7196 104.3 41.3196C100.7 40.1196 98.1 41.8196 95.4 42.6196ZM205.9 67.2196C205 67.4196 204.2 67.7196 203.2 68.0196C206.6 69.3196 216.1 65.9196 217.9 63.6196C217 63.5196 216.2 63.6196 215.4 63.9196C212.6 65.0196 209.9 66.1196 207.1 67.2196C207.8 66.9196 208.4 66.5196 209.1 66.2196C210.9 65.4196 212.8 64.5196 215 63.5196C212 61.6196 209.7 63.5196 207.2 63.6196C207.9 63.2196 208.5 62.9196 209.3 62.5196C204.2 60.5196 201.3 61.1196 200.5 64.4196C201 64.5196 201.5 64.5196 201.6 64.5196C201.1 64.9196 200.5 65.4196 199.8 65.9196C200.6 66.4196 201.3 67.0196 202.1 67.5196C202.3 67.6196 202.8 67.4196 203.2 67.4196C204.1 67.3196 205 67.2196 205.9 67.2196ZM200.8 12.7196C200.5 12.6196 200.1 12.5196 199.9 12.3196C198.7 11.3196 197.6 10.3196 196.3 9.41961C194.1 7.81961 192.5 8.01961 190.7 9.91961C191.7 10.4196 192.7 10.7196 193.6 11.4196C195 12.4196 196.3 13.6196 197.6 14.7196C195.4 13.4196 193.3 12.0196 191.1 10.7196C190 10.0196 189 10.2196 188 11.2196C188.2 11.5196 188.3 11.7196 188.6 11.9196C191.2 13.9196 193.8 16.1196 196.5 18.0196C197.2 18.5196 198.4 18.3196 199.8 18.5196C198.9 16.9196 198.2 15.8196 197.6 14.6196C197.9 14.9196 198.3 15.2196 198.6 15.6196C200.1 17.4196 201.8 18.4196 204.3 18.3196C209.9 17.9196 215.5 17.8196 221.1 17.4196C223.7 17.2196 226.4 16.7196 229.5 16.3196C228.7 15.6196 228.4 15.1196 228 15.0196C226.7 14.6196 225.7 13.9196 225 12.7196C224.6 12.0196 223.7 11.4196 222.9 11.1196C221.2 10.3196 219.5 9.61962 217.8 9.01962C216.3 8.41962 214.8 8.01961 213.3 7.41961C215.2 8.91961 217.2 10.1196 219.1 11.5196C221 12.8196 223.7 13.3196 224.2 16.5196C222.9 15.1196 221.9 14.0196 220.8 13.0196C219.8 12.2196 218.6 11.6196 217.4 11.0196C214.1 9.31962 210.8 7.61962 207.5 6.01962C205.8 5.21962 203.9 4.81962 202.2 4.01962C200.7 3.31962 200.3 3.41962 199.8 5.01962C201.6 5.71962 203.4 6.21962 205.1 7.11962C207.2 8.21962 209.1 10.0196 211.3 10.7196C214 11.6196 215.6 13.7196 217.6 15.3196C217.9 15.5196 217.9 16.1196 218 16.5196C217.8 16.6196 217.7 16.7196 217.5 16.8196C215.6 13.3196 212.2 11.7196 208.8 10.2196C208.2 9.91962 207.6 9.51962 207.1 9.11962C204.6 7.21962 201.8 6.11961 198.7 5.71961C198.2 5.61961 197.7 6.01962 197.1 6.11962C197.4 6.51962 197.6 7.01962 198 7.31962C199.6 8.31962 201.2 9.31961 202.9 10.3196C200.9 9.41961 198.8 8.41962 196.8 7.51962C196.1 7.21962 195.3 7.21962 194.2 7.11962C196.7 9.11962 198.7 10.9196 200.8 12.7196ZM41 31.2196C43.3 31.8196 45.3 32.3196 47.3 33.0196C48.6 33.5196 50.4 33.9196 51 34.9196C51.9 36.3196 52.6 36.2196 53.7 35.8196C54.3 35.6196 55 35.5196 55.6 35.6196C61.6 35.7196 67.6 35.8196 73.6 36.0196C79.6 36.1196 85.7 35.9196 91.7 36.4196C98.7 37.0196 105.7 38.1196 112.7 39.3196C119.9 40.6196 127.1 42.4196 134.3 43.9196C140.5 45.2196 146.7 46.4196 152.9 47.7196C159.6 49.1196 166.4 50.5196 173.1 51.8196C183.7 53.8196 194.2 55.9196 204.8 57.7196C211.3 58.8196 217.8 59.7196 224.3 60.4196C229.5 61.0196 234.7 61.2196 239.9 61.5196C244.1 61.7196 248.4 62.1196 252.6 62.0196C258.9 61.8196 265.3 61.4196 271.6 60.8196C274.3 60.6196 277 59.9196 279.7 59.5196C278.6 55.4196 278.7 54.9196 280.9 54.5196C280.8 54.8196 280.7 55.0196 280.5 55.1196C279.4 56.2196 279.6 57.6196 280.5 58.5196C280.9 59.0196 282.2 58.9196 283 58.9196C283.6 58.9196 284.3 58.7196 284.9 58.6196C285.9 58.4196 286.9 58.3196 287.9 58.1196C288.8 57.9196 289.8 57.6196 290.3 57.5196C287.7 55.8196 284.6 54.4196 282.4 52.0196C280.3 49.7196 279.2 46.4196 277.7 43.6196C276.2 44.8196 276.2 45.6196 277.9 47.7196C276.5 50.3196 279.3 51.0196 280.1 52.6196C277.9 51.7196 276.4 49.9196 275.5 47.8196C274.3 44.9196 274.6 43.9196 277.2 41.7196C273.7 37.8196 273.7 33.5196 276.6 29.0196C275.1 29.1196 273.7 29.1196 272.5 29.4196C270.3 29.9196 268.6 32.5196 268.6 34.9196C268.6 37.6196 270.4 39.9196 272.6 40.7196C273.4 41.0196 274.1 42.0196 274.3 42.8196C274.4 43.2196 273.4 44.1196 272.7 44.5196C272 44.9196 271.1 45.1196 270.5 45.3196C270.3 46.1196 270.3 46.8196 270 47.3196C268.8 49.5196 269.1 50.7196 271.2 52.2196C271.8 52.7196 272.6 53.0196 273.3 53.4196C271.5 53.2196 270.1 52.5196 268.9 51.0196C267.6 49.3196 268.9 47.8196 269.1 46.0196C267.4 47.0196 267.3 48.5196 267 50.0196C266.8 50.9196 266.4 51.8196 266 52.7196C265.5 53.2196 265.6 54.1196 265.2 54.5196C264.4 55.4196 263.3 56.2196 262.3 56.9196C261.6 57.4196 260.8 57.9196 260 58.0196C257.9 58.1196 255.7 58.3196 253.6 57.9196C249.7 57.1196 245.8 55.9196 241.9 54.9196C241.4 54.8196 240.5 54.9196 240.2 55.3196C239.4 56.1196 238.7 57.1196 238 58.0196C237.8 57.9196 237.6 57.8196 237.5 57.7196C237.9 57.1196 238.1 56.5196 238.6 55.9196C240 54.3196 240 53.9196 238.2 52.8196C237.7 52.5196 237.2 52.3196 236.7 52.1196C235.1 51.5196 234.3 52.0196 234.2 53.7196C234.2 54.5196 234.3 55.3196 234.3 56.2196C232.6 54.6196 232.8 53.6196 235.2 50.2196C234.9 49.9196 234.6 49.6196 234.4 49.3196C232.7 46.7196 231 44.0196 229.2 41.4196C228.9 40.9196 228.2 40.1196 228.1 40.2196C227.4 40.5196 226.3 41.1196 226.3 41.6196C226.4 42.8196 226.8 44.0196 227.3 45.2196C227.5 45.7196 228 46.1196 228.4 46.6196C228.3 46.7196 228.1 46.8196 228 46.9196C226.3 45.8196 225.3 44.3196 225 42.2196C224.7 40.3196 226.1 39.5196 227.5 38.7196C227.1 37.2196 226.5 36.7196 225.1 37.8196C224.1 35.4196 221.8 33.8196 222.4 30.9196C222.9 28.3196 224.5 26.6196 227 24.8196C225 24.9196 223.5 24.8196 222 25.1196C220.6 25.3196 219.2 26.0196 217.7 26.2196C216.4 26.4196 215.9 27.1196 215.5 28.2196C214.6 30.7196 215.5 32.8196 216.9 34.8196C217.2 35.3196 217.6 35.8196 217.9 36.3196C217.7 36.4196 217.5 36.6196 217.3 36.7196C216.4 35.1196 215.3 33.5196 214.5 31.8196C213.5 29.5196 214.3 27.4196 215.9 25.4196C215.2 25.3196 214.8 25.2196 214.4 25.2196C212 25.3196 209.5 25.5196 207.1 25.6196C205.1 25.6196 204.1 26.5196 204.1 28.5196C204.1 31.0196 205.7 32.8196 207 34.7196C207.2 35.1196 207.5 35.4196 207.7 35.8196C207.5 35.9196 207.4 36.0196 207.2 36.0196C205.3 32.8196 201.5 30.4196 203.8 25.7196C201.8 25.3196 196.9 25.9196 195.4 26.6196C193.7 27.4196 193.1 28.7196 193.7 30.4196C194.4 32.2196 195.4 33.8196 196.3 35.5196C195.4 34.9196 194.7 34.1196 194.1 33.3196C191.3 28.7196 191.5 27.8196 195.8 24.8196C193 25.4196 189.9 23.1196 187.4 26.0196C187.2 26.2196 186.8 26.2196 186.6 26.2196C184.7 26.4196 183.6 28.4196 184.4 30.1196C185 31.3196 185.8 32.5196 186.6 33.7196C184.8 33.0196 183.1 30.8196 183.2 29.2196C183.3 28.2196 183.5 27.1196 184 26.3196C184.5 25.6196 185.5 25.2196 186.6 24.5196C183.7 24.9196 181 23.6196 178.2 25.9196C175.9 27.8196 174.9 30.3196 177.3 33.2196C177.7 33.7196 178 34.1196 178.4 34.6196C178.3 34.7196 178.1 34.8196 178 34.9196C176.4 33.8196 175.3 32.3196 174.9 30.4196C174.4 28.1196 175.5 26.4196 177.3 25.0196C175.8 25.0196 174.3 25.2196 172.9 25.4196C172.7 25.4196 172.6 25.8196 172.3 26.0196C171.8 26.4196 171.3 27.0196 170.7 27.1196C167.7 27.8196 167 29.1196 168.2 31.9196C168.6 32.9196 169.2 33.9196 169.7 34.9196C169.6 35.0196 169.4 35.0196 169.3 35.1196C168 33.8196 167.1 32.2196 166.6 30.3196C166.1 28.3196 167.5 27.2196 168.8 25.9196C166.2 25.8196 163.6 25.9196 161.1 26.1196C159.1 26.3196 158.5 27.0196 158.8 29.1196C158.9 29.9196 159.4 30.8196 159.8 31.5196C160.2 32.3196 160.7 33.0196 161.1 33.7196C158.1 31.8196 157.2 28.6196 158.7 25.4196C157.9 25.4196 157.1 25.3196 156.4 25.4196C155.6 25.5196 154.9 25.9196 154.1 26.1196C150.5 27.0196 149.7 29.3196 151.9 32.4196C152.3 32.9196 152.6 33.5196 152.9 34.0196C149.8 31.8196 148.3 29.2196 151.4 25.8196C147.6 25.6196 144.6 26.7196 143.2 28.7196C141.5 31.1196 143.2 32.8196 144.6 34.7196C140.8 33.5196 140.7 30.0196 144.4 25.9196C142.6 25.9196 141 25.7196 139.5 26.0196C138.5 26.1196 137.5 27.0196 136.5 27.2196C134.4 27.7196 133.8 29.0196 135.1 30.8196C135.8 31.8196 136.7 32.8196 137.4 33.8196C135.4 32.8196 133.6 31.5196 133.4 29.2196C133.3 28.2196 134.4 27.2196 135.1 25.9196C133.2 26.1196 131 26.2196 129 26.5196C126.4 27.0196 125.8 28.6196 127.5 30.7196C128.7 32.2196 130.1 33.6196 131.5 35.0196C130.5 35.3196 128.9 35.3196 128.3 36.1196C127.7 36.8196 128.2 38.4196 128.2 39.4196C125.9 38.4196 126.1 36.5196 129.1 34.0196C127.7 31.7196 124.4 30.0196 126.3 25.9196C124.4 26.2196 122.9 26.1196 121.7 26.6196C118.4 28.0196 118.3 29.6196 121.1 31.8196C121.5 32.1196 121.9 32.6196 122.3 33.0196C120.3 32.6196 118.9 31.5196 118.1 29.8196C117.2 27.9196 119.5 27.3196 120.3 25.8196C118.8 25.8196 117.5 25.7196 116.3 25.8196C115.5 25.9196 114.7 26.5196 113.9 26.9196C113.3 27.2196 112.4 27.3196 112.3 27.7196C112.1 28.2196 112.5 29.1196 112.9 29.6196C113.8 30.6196 114.8 31.4196 115.8 32.3196C115.7 32.4196 115.5 32.6196 115.4 32.7196C113.6 31.9196 112 30.6196 111.3 28.7196C110.7 27.1196 112.2 26.5196 113.2 25.4196C109.4 25.2196 105.6 25.1196 101.6 24.9196C102.3 26.7196 101.4 26.6196 100.3 26.6196C99.4 26.6196 98.5 27.1196 97.6 27.3196C98.1 28.2196 98.5 29.1196 99 30.0196C99.1 30.2196 99.5 30.3196 99.7 30.6196C100 31.0196 100.4 31.6196 100.3 31.8196C100 32.2196 99.5 32.4196 99 32.6196C97.9 33.0196 96.9 33.4196 95.8 33.8196C95.5 33.9196 95.2 34.0196 94.9 34.0196C94.8 33.9196 94.7 33.7196 94.6 33.6196C95.2 33.1196 95.7 32.5196 96.4 32.1196C97.1 31.7196 97.9 31.5196 98.4 31.3196C97.7 29.9196 96.3 28.2196 96.7 27.1196C97.1 26.0196 99.2 25.5196 100.5 24.8196C98.1 24.9196 95.7 25.2196 93.3 25.7196C92.3 25.9196 92.3 26.9196 92.8 27.8196C93.2 28.5196 93.6 29.2196 94.1 30.0196C91.9 29.4196 91.1 28.0196 91.5 25.9196C91.8 24.4196 91.4 24.1196 90 24.6196C88.4 25.1196 86.8 25.7196 85.2 26.3196C84.3 26.6196 84.1 27.2196 84.8 27.9196C85.2 28.3196 85.6 28.6196 86.1 28.9196C87.6 29.7196 89.1 30.4196 90.9 31.3196C89.6 31.6196 88.5 31.8196 87.5 32.0196C87.5 32.2196 87.4 32.5196 87.4 32.7196C88.5 33.2196 89.6 33.7196 90.7 34.2196C89.7 35.0196 87.6 34.5196 86.6 33.3196C85.4 31.8196 86.9 31.4196 87.7 30.8196C86.3 29.9196 84.8 29.3196 83.8 28.2196C82.1 26.4196 84.6 25.8196 85.4 24.6196C82.1 24.8196 78.9 23.1196 75.9 26.0196C76.5 26.5196 77 27.0196 77.6 27.5196C78.2 27.9196 78.9 28.2196 79.5 28.5196C75.6 27.7196 74.9 26.9196 75.7 24.0196C74.5 24.6196 73.6 25.1196 72.6 25.5196C71.5 25.9196 70.4 26.2196 69.3 26.5196C69.9 27.5196 70.5 28.5196 71.2 29.6196C70.7 29.8196 70 30.3196 69.4 30.3196C66.2 30.3196 65.9 30.5196 66.6 33.4196C66.1 32.8196 65.4 32.0196 65.5 31.5196C66.1 29.2196 68.5 29.9196 70.3 29.1196C70.1 28.8196 69.7 28.7196 69.4 28.4196C67.8 26.9196 68.1 26.0196 70.1 25.2196C70.7 25.0196 71.3 24.7196 71.9 24.4196C70.4 24.0196 69.1 24.0196 67.7 24.0196C67.1 24.0196 66.5 24.0196 66 24.2196C65.1 24.6196 64.4 25.1196 63.5 25.5196C62.9 25.8196 62 26.0196 61.7 26.5196C61.5 26.9196 61.9 27.7196 62 28.4196C61.3 28.0196 60.5 27.3196 60.6 26.9196C60.8 26.2196 61.5 25.7196 62.2 25.2196C62.7 24.8196 63.4 24.6196 64 24.4196C62.9 23.9196 62 23.8196 61.1 23.8196C58.8 23.8196 56.6 24.0196 54.3 24.0196C50.9 23.9196 50.9 23.9196 50.2 27.1196C49.9 28.3196 48.8 28.9196 47.7 28.5196C45.7 28.3196 42.9 29.1196 41 31.2196ZM321 47.0196C320.7 46.9196 320.6 46.8196 320.5 46.8196C316.7 46.8196 313.3 45.8196 310.5 43.0196C310.2 42.7196 309.7 42.7196 309.4 42.5196C308.7 41.9196 307.6 41.3196 307.5 40.5196C307.1 38.5196 307.4 36.5196 308.8 34.9196C310 33.5196 311.3 32.2196 312.6 30.8196C310.7 30.2196 308.8 29.2196 306.8 31.0196C306.3 31.4196 305.4 31.4196 304.7 31.4196C300 31.2196 296.2 33.1196 292.9 36.2196C291.2 37.8196 289.4 39.3196 287.6 40.9196C287.5 40.8196 287.3 40.6196 287.2 40.5196C288.8 34.9196 292.8 31.3196 298.1 29.0196C297.3 28.8196 296.7 28.7196 296 28.8196C292.9 29.2196 289.9 29.9196 287 31.4196C283.1 33.4196 279.8 38.8196 281.1 43.0196C282.3 46.8196 284.2 50.1196 288.3 51.8196C294.6 54.4196 300.8 54.6196 307.3 52.9196C308.7 52.6196 310 52.1196 311.3 51.7196C311.3 51.6196 311.3 51.4196 311.3 51.3196C306.9 51.0196 302.9 49.9196 300.1 47.3196C300 45.6196 299.9 44.4196 299.8 43.1196C307.3 50.3196 314.5 51.7196 321 47.0196ZM263.8 48.8196C259.4 49.1196 255.1 49.5196 250.8 49.8196C250.8 49.7196 250.8 49.7196 250.8 49.6196C255.2 49.1196 259.7 48.6196 264.1 48.1196C264.1 47.9196 264.1 47.7196 264.2 47.5196C263.4 47.3196 262.6 47.0196 261.8 47.0196C255.8 47.0196 249.7 47.0196 243.7 47.0196C246.4 46.7196 249.1 46.8196 251.8 46.7196C254.4 46.6196 257 46.4196 260.2 46.2196C253.7 43.6196 237.2 42.3196 234.4 44.1196C235.5 45.3196 236.5 46.5196 237.7 47.6196C238 47.9196 238.7 47.8196 239.1 47.7196C240.1 47.5196 241.2 47.2196 242.2 46.9196C242.2 47.0196 242.2 47.0196 242.2 47.1196C241.2 47.5196 240.2 47.9196 239 48.4196C241.6 50.6196 243.8 52.2196 246.8 50.6196C246.4 50.9196 245.9 51.1196 245.3 51.5196C248.8 52.9196 251.7 53.9196 254.6 51.8196C254 52.3196 253.4 52.7196 252.5 53.5196C256.5 54.1196 259.9 54.1196 263.2 53.0196C263.3 51.6196 263.5 50.4196 263.8 48.8196ZM274.9 27.8196C273 27.5196 271 27.1196 269.1 26.8196C267.2 26.5196 265.3 25.7196 263.4 25.9196C261.1 26.1196 258.6 24.9196 256.4 27.1196C254.9 28.7196 252.9 29.7196 252.3 32.1196C251.3 35.9196 251.6 36.5196 255.3 37.2196C257.3 37.6196 259.2 37.8196 261.6 38.1196C260.8 33.7196 260.8 29.9196 266 28.1196C265.2 28.8196 264.7 29.4196 264.1 29.7196C261.5 31.5196 261.7 34.8196 262.3 37.4196C262.4 37.7196 262.6 38.2196 262.8 38.3196C265 39.1196 267.2 39.8196 269.5 40.5196C269.6 40.4196 269.8 40.3196 269.9 40.1196C268.4 37.6196 267 35.1196 268.1 32.2196C269.3 29.2196 271.9 28.3196 274.9 27.8196ZM232.1 39.5196C233 42.9196 233 42.8196 236.1 42.7196C238.7 42.6196 241.3 42.6196 243.8 42.9196C249.9 43.6196 256 44.6196 262.1 45.4196C263.2 45.5196 264.3 45.5196 265.3 45.6196C265.3 45.4196 265.3 45.3196 265.4 45.1196C262.6 43.3196 259.4 42.5196 256.1 42.0196C252.8 41.5196 249.6 40.5196 246.3 40.1196C243.1 39.7196 239.8 39.6196 236.7 39.4196C238.8 39.3196 241 39.2196 243.2 39.1196C243.2 38.9196 243.2 38.8196 243.2 38.6196C239 38.0196 234.8 37.4196 230.6 36.9196C231.4 39.3196 233.3 38.9196 234.8 39.3196C233.9 39.4196 233 39.4196 232.1 39.5196ZM234.4 34.9196C233.1 31.5196 233.5 28.6196 235.3 25.8196C235.8 25.0196 235.6 24.3196 234.6 24.2196C230 23.7196 225 25.8196 223.1 30.6196C222.2 32.8196 222.8 34.5196 225.2 34.7196C228.1 35.1196 231.1 34.9196 234.4 34.9196ZM319.6 43.0196C323.5 42.7196 326.4 39.9196 326.1 36.2196C326.1 35.6196 325.6 34.5196 325.3 34.4196C322 33.8196 319.3 30.2196 315.3 32.7196C313.1 34.1196 312 34.8196 311.9 37.2196C311.8 39.4196 312.9 40.9196 314.9 41.6196C316.3 42.2196 318 42.5196 319.6 43.0196ZM246.8 25.5196C246.7 25.3196 246.6 25.1196 246.5 24.9196C244.4 24.8196 242.3 24.6196 240.3 24.6196C239 24.6196 237.6 24.8196 236.6 25.5196C234.5 26.8196 233.6 31.5196 234.7 33.7196C234.9 34.2196 235.5 34.7196 236 34.8196C238.2 35.0196 240.5 35.1196 243 35.2196C242.1 31.0196 242.6 27.5196 246.8 25.5196ZM255.6 26.8196C255.6 26.5196 255.6 26.3196 255.6 26.0196C253.2 25.6196 250.8 25.3196 248.4 24.9196C248.3 24.9196 248.1 24.9196 248.1 25.0196C247 25.9196 245.9 26.8196 244.9 27.7196C243.4 29.1196 242.8 32.1196 243.6 34.0196C243.8 34.5196 244.4 35.2196 244.9 35.3196C246.6 35.7196 248.4 35.9196 250.2 36.0196C250.6 36.0196 251.3 35.4196 251.3 35.1196C251.1 31.6196 252.3 28.7196 255.6 26.8196ZM278.1 40.4196C277.7 35.0196 282.3 32.6196 284.8 28.8196C283.7 28.9196 282.6 29.3196 282 28.9196C280.1 27.9196 278.8 29.1196 277.7 30.1196C274.8 32.7196 274.9 37.4196 278.1 40.4196ZM29.9 20.0196C30 19.7196 30.2 19.4196 30.3 19.1196C23.3 14.8196 16.4 10.4196 9.2 6.01962C9 7.91962 9 7.91962 10.6 9.01962C15.3 12.0196 19.9 15.1196 24.6 18.0196C26.3 18.9196 28.2 19.3196 29.9 20.0196ZM30.9 40.8196C30.6 40.9196 30.2 40.9196 29.9 41.0196C26.1 41.9196 22.3 42.9196 18.4 43.7196C15.1 44.4196 12.5 45.9196 10.5 48.7196C17.9 47.6196 24.3 43.9196 30.9 40.8196ZM194.8 18.0196C194.9 17.8196 195.1 17.6196 195.2 17.4196C192.8 15.6196 190.4 13.7196 187.9 12.1196C186.5 11.2196 185.3 11.8196 184.2 13.7196C187.4 16.0196 190.1 19.4196 194.8 18.0196ZM330.9 42.7196C333.1 42.0196 335.3 41.4196 337.4 40.5196C338 40.3196 338.5 39.3196 338.5 38.6196C338.5 38.2196 337.8 37.5196 337.2 37.3196C335.8 36.8196 334.4 36.4196 332.9 36.1196C332.5 36.0196 331.6 36.4196 331.6 36.7196C331.3 38.7196 331.1 40.6196 330.9 42.7196ZM37.4 25.7196C31.6 22.5196 25.6 19.6196 18.8 19.0196C24.8 21.8196 30.6 25.1196 37.4 25.7196ZM38.7 33.3196C38.7 33.0196 38.8 32.7196 38.8 32.4196C37.9 32.1196 36.9 31.6196 36 31.6196C34.1 31.6196 32.2 31.8196 30.3 31.9196C27.6 32.1196 27.3 32.4196 27.6 35.3196C31.3 34.6196 35 33.9196 38.7 33.3196ZM34.1 36.8196C29.4 35.9196 19.8 39.6196 18.2 43.1196C23.6 40.9196 28.7 38.9196 34.1 36.8196ZM22 17.4196C18.6 15.3196 15.1 13.1196 11.7 10.9196C11.6 11.1196 11.4 11.2196 11.3 11.4196C13.3 13.6196 15.3 15.8196 17.4 17.9196C17.6 18.1196 17.9 18.2196 18.2 18.2196C19.4 17.9196 20.7 17.6196 22 17.4196ZM38.7 28.5196C34.3 27.4196 30 26.3196 25.4 25.1196C26.6 27.9196 37 30.3196 38.7 28.5196ZM36.9 30.8196C36.9 30.6196 36.9 30.3196 36.9 30.1196C33.7 29.6196 30.6 29.1196 27.3 28.5196C27.6 29.5196 27.8 30.3196 28.1 31.3196C31.1 31.1196 34 31.0196 36.9 30.8196ZM76.8 42.1196C79.3 42.9196 85.3 41.4196 86.3 39.8196C82.9 39.3196 79.7 39.6196 76.8 42.1196ZM115.1 49.0196C115.2 49.2196 115.3 49.4196 115.4 49.7196C118.5 48.3196 121.5 47.0196 124.6 45.6196C124.5 45.4196 124.4 45.1196 124.3 44.9196C120.7 45.0196 118 47.3196 115.1 49.0196ZM89 40.3196C86.8 41.0196 84.6 41.6196 82.1 42.4196C84.5 43.6196 87.4 42.8196 89 40.3196Z" fill="black"/>
        <path d="M84.2 31.0195C83.7 31.1195 83.1 31.1195 82.6 31.2195C79.4 31.7195 79.2 32.0195 80.5 34.9195C78.9 34.4195 77.4 34.1195 76 33.4195C75.3 33.1195 75 32.1195 74.5 31.5195C75.2 31.2195 75.9 30.8195 76.6 30.5195C76.8 30.8195 77 31.1195 77.2 31.3195C76.7 31.5195 76.1 31.7195 75.6 31.9195C77.3 33.7195 77.9 33.7195 79 32.2195C80.1 30.7195 82.3 30.0195 84.2 31.0195Z" fill="black"/>
        <path d="M104.1 36.4195C103.4 35.5195 102.8 34.7195 102.1 33.8195C102.9 33.2195 103.7 32.7195 104.8 32.0195C104.6 30.8195 102 29.5195 103.9 27.8195C104.8 27.0195 106.2 26.9195 107.4 26.5195C107.5 26.7195 107.5 27.0195 107.6 27.2195C106.9 27.4195 106.3 27.5195 105.6 27.7195C103.8 28.2195 103.5 29.1195 104.5 30.6195C105.1 31.5195 105.9 32.2195 106.7 33.1195C105.5 33.2195 104.2 33.4195 102.3 33.6195C103.3 34.8195 103.9 35.5195 104.5 36.2195C104.4 36.2195 104.3 36.3195 104.1 36.4195Z" fill="black"/>
        <path d="M157.3 37.1197C155.5 37.4197 153.4 36.3197 152.6 38.3197C152.3 39.3197 153 40.6197 153.2 41.5197C151.8 40.9197 151 39.4197 151.8 38.0197C152.8 36.2197 155.1 35.8197 157.3 37.1197Z" fill="black"/>
        <path d="M213.1 38.8196C207.6 39.9196 206.6 40.3196 207.5 45.2196C206.3 43.2196 206.3 41.2196 207.3 40.1196C208.3 39.0196 211.5 38.2196 213.1 38.8196Z" fill="black"/>
        <path d="M197.3 44.8196C195.9 43.4196 195.2 41.7196 196.1 39.9196C196.9 38.2196 198.3 37.2196 200.4 37.1196C196.9 38.7196 195.1 40.9196 197.3 44.8196Z" fill="black"/>
        <path d="M144.9 36.4196C143.2 37.2196 141.3 37.5196 140.3 38.6196C138.6 40.5196 141.2 41.4196 141.9 42.8196C140 41.7196 138.9 40.2196 139.3 38.9196C139.6 37.6196 142.5 36.2196 144.9 36.4196Z" fill="black"/>
        <path d="M223.7 39.4197C219.2 40.6197 218 41.2197 219.8 46.6197C218.5 45.1197 218.1 42.7197 218.8 41.3197C219.4 40.1197 221.8 39.1197 223.7 39.4197Z" fill="black"/>
        <path d="M63.8003 30.2197C62.2003 30.7197 60.5003 31.1197 58.7003 31.6197C59.2003 32.3197 59.5004 32.8197 59.9004 33.3197C59.8004 33.4197 59.7003 33.5197 59.5003 33.6197C59.0003 33.1197 58.3003 32.6197 58.1003 32.0197C58.0003 31.7197 58.8003 30.9197 59.3003 30.7197C60.7003 30.2197 62.2003 30.0197 63.7003 29.7197C63.8003 29.9197 63.8003 30.1197 63.8003 30.2197Z" fill="black"/>
        <path d="M172.9 36.6197C171.7 37.3197 169.9 37.7197 169.4 38.7197C168.9 39.7197 169.6 41.3197 169.7 42.3197C168.5 41.2197 167.9 39.4197 168.6 38.2197C169.3 37.0197 171.6 36.1197 172.9 36.6197Z" fill="black"/>
        <path d="M136.4 41.6195C133.4 39.8195 132.6 38.4195 133.4 37.0195C134.2 35.6195 136.1 35.5195 137.3 36.4195C136.3 36.6195 134.4 36.6195 134 37.3195C133 39.3195 135.4 40.0195 136.4 41.6195Z" fill="black"/>
        <path d="M163.6 35.4197C162.5 36.1197 160.9 36.6197 160.4 37.6197C159.9 38.6197 160.6 40.1197 160.6 41.5197C160.1 40.3197 159 38.9197 159.3 37.9197C159.8 36.2197 161.8 35.8197 163.6 35.4197Z" fill="black"/>
        <path d="M123.3 39.7196C122.2 38.9196 120.5 38.4196 121 36.4196C121.4 35.2196 122.7 34.7196 124.3 35.2196C123.5 35.7196 122 36.2196 121.8 36.9196C121.7 37.7196 122.8 38.8196 123.3 39.7196Z" fill="black"/>
        <path d="M148 41.6196C146.3 40.6196 145.5 39.0196 146.2 37.8196C146.9 36.7196 148.8 36.3196 149.8 36.9196C148.9 37.4196 147.2 37.7196 146.9 38.5196C146.7 39.3196 147.7 40.6196 148 41.6196Z" fill="black"/>
        <path d="M54.2 28.5197C54.1 28.0197 53.7 27.4197 53.9 27.0197C54.3 26.1197 57.3 25.6197 58.4 26.2197C57.6 27.6197 54.8999 25.7197 54.7999 28.3197C54.5999 28.4197 54.4 28.4197 54.2 28.5197Z" fill="black"/>
        <path d="M112.8 34.5197C111.7 34.7197 110.6 34.8197 109 35.0197C109.8 36.0197 110.2 36.6197 110.7 37.1197C110.6 37.2197 110.5 37.3197 110.4 37.4197C109.8 36.8197 109.1 36.3197 108.7 35.6197C108.6 35.4197 108.9 34.5197 109.2 34.5197C110.3 34.2197 111.5 34.1197 112.7 33.9197C112.7 34.1197 112.8 34.3197 112.8 34.5197Z" fill="black"/>
        <path d="M180.7 36.5195C176.9 38.7195 176.9 38.7195 177.6 41.1195C177.5 41.1195 177.3 41.1195 177.2 41.2195C177.1 40.3195 176.6 39.2195 176.9 38.5195C177.5 36.9195 179.1 36.6195 180.7 36.5195Z" fill="black"/>
        <path d="M118.6 34.9197C114.9 35.4197 114.7 35.6197 115.9 37.7197C115.7 37.8197 115.6 37.9197 115.4 38.0197C115.1 37.3197 114.4 36.5197 114.5 35.9197C114.8 34.6197 116.9 34.1197 118.6 34.9197Z" fill="black"/>
        <path d="M187 37.4195C184.8 39.9195 186.8 41.6195 188.1 43.4195C186.6 42.2195 185.2 40.9195 185.4 38.7195C185.5 38.1195 186.1 37.6195 186.5 37.0195C186.7 37.2195 186.8 37.3195 187 37.4195Z" fill="black"/>
        <path d="M47.4004 31.6196C48.4004 30.8196 49.5004 30.0196 50.5004 29.1196C50.6004 29.3196 50.8004 29.5196 50.9004 29.6196C49.9004 30.5196 48.9004 31.3196 47.9004 32.2196C47.7004 32.0196 47.6004 31.8196 47.4004 31.6196Z" fill="black"/>
        <path d="M202.9 10.2197C204.2 10.8197 205.7 11.3197 206.8 12.2197C208.4 13.5197 209.6 15.2197 211 16.7197C210.8 16.7197 209.4 15.4197 208.6 14.6197C207.8 13.7197 206.9 12.9197 206 12.2197C205.1 11.5197 204 10.9197 202.9 10.2197Z" fill="black"/>
        <path d="M200.8 12.7197C202.3 13.7197 203.9 14.6197 205.4 15.7197C205.6 15.8197 205.5 16.4197 205.6 17.1197C203.8 15.4197 202.3 14.1197 200.8 12.7197Z" fill="black"/>
        <path d="M319.1 40.3197C317 40.3197 316.3 39.6197 316.3 37.4197C316.3 35.8197 317.2 34.7197 318.7 34.7197C320.4 34.7197 322.1 35.9197 322.1 37.2197C322.1 38.9197 320.7 40.3197 319.1 40.3197Z" fill="black"/>
    </g>
</svg>
