<svg viewBox="0 0 352 192" fill="none" xmlns="http://www.w3.org/2000/svg">
    <g>
        <path d="M349.709 122.924C346.909 124.124 344.709 123.224 342.409 121.824C340.409 120.724 338.009 120.224 335.709 119.524C327.409 116.824 319.109 113.824 310.709 111.324C306.209 110.024 301.509 109.624 296.809 108.824C296.509 108.724 296.209 108.824 295.909 108.724C292.809 106.824 289.209 107.124 285.809 106.724C280.609 106.124 275.309 105.724 270.109 105.324C267.009 105.024 263.909 104.824 260.809 104.624C260.409 104.624 259.909 104.724 259.009 104.824C260.709 105.924 262.009 106.824 263.409 107.724C263.809 108.024 264.409 108.324 264.609 108.724C264.909 109.224 265.009 109.924 264.809 110.424C264.609 110.824 263.809 111.024 263.309 111.024C260.009 110.924 256.809 110.624 253.509 110.724C250.409 110.824 247.309 111.424 244.309 111.824C241.709 112.124 238.909 112.224 236.409 112.924C233.109 113.824 229.909 114.824 227.509 117.524C227.309 117.724 226.709 117.924 226.409 117.824C224.109 117.424 221.809 116.924 219.409 116.624C217.209 116.324 215.909 115.124 214.709 113.424C214.209 112.624 213.309 111.924 212.609 111.324C211.909 110.824 211.009 110.624 210.509 110.024C208.009 107.124 205.009 107.624 201.809 108.224C193.109 109.824 184.409 111.424 175.709 112.924C166.909 114.424 158.109 115.824 149.309 117.324C146.409 117.824 143.409 117.924 140.709 118.924C138.209 119.824 135.909 121.524 133.709 123.124C131.809 124.524 130.209 126.324 128.309 127.824C127.509 128.424 126.309 128.724 125.309 128.924C120.509 129.824 116.309 128.024 113.009 124.824C110.509 122.424 107.909 122.724 105.109 122.824C104.009 122.824 102.909 122.824 101.809 122.824C99.4093 122.824 97.0093 122.924 94.6093 122.824C91.4093 122.724 88.2093 122.524 85.0093 122.224C76.9093 121.424 68.9093 120.524 60.8093 119.424C57.9093 119.024 55.0093 118.124 52.1093 117.524C50.1093 117.124 48.1093 116.924 46.2093 116.324C41.5093 115.024 36.8093 113.524 32.1093 112.124C26.9093 110.524 21.7093 109.024 16.6093 107.324C13.9093 106.424 11.3093 105.024 8.70928 104.024C6.70928 103.224 4.50928 102.624 2.50928 101.724C0.60928 100.824 -0.0907204 98.224 0.00927956 96.124C0.10928 92.724 2.70928 91.424 5.00928 90.224C8.90928 88.124 13.0093 86.224 17.2093 84.624C21.4093 83.024 25.7093 81.624 30.1093 80.724C38.8093 78.824 47.6093 77.324 56.3093 75.524C63.9093 73.924 71.7093 74.324 79.4093 74.024C84.1093 73.824 88.7093 73.724 93.4093 73.824C98.1093 73.924 102.809 74.424 107.609 74.724C108.809 74.824 110.109 74.724 111.609 74.724C110.909 72.724 112.109 72.024 113.309 71.324C114.809 70.424 116.409 69.524 117.809 68.524C121.309 66.024 125.409 64.624 129.509 63.624C133.609 62.624 137.809 62.524 141.309 65.624C142.709 66.824 144.109 67.824 145.509 69.024C148.109 71.324 151.209 72.524 154.509 73.424C155.709 73.724 156.809 74.124 158.009 74.424C159.409 74.724 160.109 75.624 160.409 77.224C158.209 77.924 156.109 78.624 154.009 79.324C154.009 79.524 154.109 79.724 154.109 79.924C154.909 80.124 155.709 80.324 156.509 80.424C165.509 81.624 174.409 82.824 183.409 83.824C193.709 85.024 204.009 85.924 214.309 86.924C221.109 87.624 228.009 88.424 234.809 89.024C237.809 89.324 240.809 89.124 243.809 89.224C248.009 89.424 252.309 89.724 256.509 89.924C259.009 90.124 261.509 90.424 264.009 90.524C271.909 90.724 279.809 90.924 287.709 89.424C293.209 88.324 298.609 86.924 304.109 85.424C306.809 84.724 309.509 83.824 312.109 82.724C315.309 81.524 318.309 79.924 321.509 78.724C324.309 77.624 327.109 76.824 329.909 75.724C333.309 74.424 336.709 73.224 340.009 71.624C343.009 70.224 345.909 69.324 349.109 70.424C350.309 70.824 350.609 71.924 350.209 73.024C346.809 81.024 341.509 87.124 333.709 91.324C331.409 92.624 329.809 95.424 328.309 97.824C327.509 99.124 328.009 100.724 329.809 101.524C330.909 102.024 331.909 102.724 333.009 103.024C337.509 104.324 341.309 106.624 344.709 109.824C347.309 112.224 349.809 114.924 350.709 118.624C351.009 119.924 352.009 121.424 350.209 122.624C349.609 122.224 349.709 122.724 349.709 122.924Z"
              fill="white"/>
        <path d="M349.709 122.924C346.909 124.124 344.709 123.224 342.409 121.824C340.409 120.724 338.009 120.224 335.709 119.524C327.409 116.824 319.109 113.824 310.709 111.324C306.209 110.024 301.509 109.624 296.809 108.824C296.509 108.724 296.209 108.824 295.909 108.724C292.809 106.824 289.209 107.124 285.809 106.724C280.609 106.124 275.309 105.724 270.109 105.324C267.009 105.024 263.909 104.824 260.809 104.624C260.409 104.624 259.909 104.724 259.009 104.824C260.709 105.924 262.009 106.824 263.409 107.724C263.809 108.024 264.409 108.324 264.609 108.724C264.909 109.224 265.009 109.924 264.809 110.424C264.609 110.824 263.809 111.024 263.309 111.024C260.009 110.924 256.809 110.624 253.509 110.724C250.409 110.824 247.309 111.424 244.309 111.824C241.709 112.124 238.909 112.224 236.409 112.924C233.109 113.824 229.909 114.824 227.509 117.524C227.309 117.724 226.709 117.924 226.409 117.824C224.109 117.424 221.809 116.924 219.409 116.624C217.209 116.324 215.909 115.124 214.709 113.424C214.209 112.624 213.309 111.924 212.609 111.324C211.909 110.824 211.009 110.624 210.509 110.024C208.009 107.124 205.009 107.624 201.809 108.224C193.109 109.824 184.409 111.424 175.709 112.924C166.909 114.424 158.109 115.824 149.309 117.324C146.409 117.824 143.409 117.924 140.709 118.924C138.209 119.824 135.909 121.524 133.709 123.124C131.809 124.524 130.209 126.324 128.309 127.824C127.509 128.424 126.309 128.724 125.309 128.924C120.509 129.824 116.309 128.024 113.009 124.824C110.509 122.424 107.909 122.724 105.109 122.824C104.009 122.824 102.909 122.824 101.809 122.824C99.4093 122.824 97.0093 122.924 94.6093 122.824C91.4093 122.724 88.2093 122.524 85.0093 122.224C76.9093 121.424 68.9093 120.524 60.8093 119.424C57.9093 119.024 55.0093 118.124 52.1093 117.524C50.1093 117.124 48.1093 116.924 46.2093 116.324C41.5093 115.024 36.8093 113.524 32.1093 112.124C26.9093 110.524 21.7093 109.024 16.6093 107.324C13.9093 106.424 11.3093 105.024 8.70928 104.024C6.70928 103.224 4.50928 102.624 2.50928 101.724C0.60928 100.824 -0.0907204 98.224 0.00927956 96.124C0.10928 92.724 2.70928 91.424 5.00928 90.224C8.90928 88.124 13.0093 86.224 17.2093 84.624C21.4093 83.024 25.7093 81.624 30.1093 80.724C38.8093 78.824 47.6093 77.324 56.3093 75.524C63.9093 73.924 71.7093 74.324 79.4093 74.024C84.1093 73.824 88.7093 73.724 93.4093 73.824C98.1093 73.924 102.809 74.424 107.609 74.724C108.809 74.824 110.109 74.724 111.609 74.724C110.909 72.724 112.109 72.024 113.309 71.324C114.809 70.424 116.409 69.524 117.809 68.524C121.309 66.024 125.409 64.624 129.509 63.624C133.609 62.624 137.809 62.524 141.309 65.624C142.709 66.824 144.109 67.824 145.509 69.024C148.109 71.324 151.209 72.524 154.509 73.424C155.709 73.724 156.809 74.124 158.009 74.424C159.409 74.724 160.109 75.624 160.409 77.224C158.209 77.924 156.109 78.624 154.009 79.324C154.009 79.524 154.109 79.724 154.109 79.924C154.909 80.124 155.709 80.324 156.509 80.424C165.509 81.624 174.409 82.824 183.409 83.824C193.709 85.024 204.009 85.924 214.309 86.924C221.109 87.624 228.009 88.424 234.809 89.024C237.809 89.324 240.809 89.124 243.809 89.224C248.009 89.424 252.309 89.724 256.509 89.924C259.009 90.124 261.509 90.424 264.009 90.524C271.909 90.724 279.809 90.924 287.709 89.424C293.209 88.324 298.609 86.924 304.109 85.424C306.809 84.724 309.509 83.824 312.109 82.724C315.309 81.524 318.309 79.924 321.509 78.724C324.309 77.624 327.109 76.824 329.909 75.724C333.309 74.424 336.709 73.224 340.009 71.624C343.009 70.224 345.909 69.324 349.109 70.424C350.309 70.824 350.609 71.924 350.209 73.024C346.809 81.024 341.509 87.124 333.709 91.324C331.409 92.624 329.809 95.424 328.309 97.824C327.509 99.124 328.009 100.724 329.809 101.524C330.909 102.024 331.909 102.724 333.009 103.024C337.509 104.324 341.309 106.624 344.709 109.824C347.309 112.224 349.809 114.924 350.709 118.624C351.009 119.924 352.009 121.424 350.209 122.624C349.609 122.224 349.709 122.724 349.709 122.924ZM249.309 106.424C247.909 105.824 246.409 105.324 245.009 104.624C242.509 103.324 240.009 101.824 237.309 104.324C241.909 107.224 246.409 110.424 252.509 107.924C251.309 107.324 250.309 106.824 249.309 106.424C250.309 106.624 251.309 106.824 252.309 107.124C254.309 107.524 256.209 108.024 258.209 108.424C258.309 108.224 258.309 107.924 258.409 107.724C254.509 106.324 250.909 103.824 246.309 104.524C247.209 105.124 248.309 105.724 249.309 106.424ZM131.409 75.524C131.709 75.924 131.909 76.724 132.209 76.824C134.009 77.424 135.809 77.024 137.409 76.024C137.209 76.424 137.009 76.824 136.709 77.524C138.809 77.524 140.609 77.524 142.309 77.524C142.909 77.824 143.509 78.324 143.909 78.224C146.309 77.524 148.609 76.724 151.009 75.924C151.009 75.724 150.909 75.424 150.909 75.224C148.409 73.724 145.909 72.024 142.709 73.324C143.109 73.024 143.509 72.624 144.309 71.924C143.109 71.724 142.309 71.424 141.609 71.524C139.609 71.924 137.709 72.524 135.709 73.124C137.509 72.224 139.309 71.424 141.209 70.524C139.209 68.124 126.709 72.124 125.209 75.824C127.409 75.924 129.409 77.124 131.409 75.524ZM329.509 86.024C324.409 87.824 319.309 89.624 314.209 91.324C320.709 92.424 326.209 90.124 331.609 86.024C330.609 86.124 330.009 86.124 329.509 86.024C330.409 85.824 331.409 85.424 332.409 85.324C336.009 84.824 337.909 82.224 339.909 79.624C340.009 79.524 339.809 79.224 339.709 78.724C330.009 83.024 319.709 85.424 310.209 90.324C311.009 90.524 311.609 90.524 312.309 90.324C315.209 89.624 318.109 88.924 321.009 88.124C323.809 87.424 326.709 86.724 329.509 86.024ZM67.0093 99.624C65.6093 99.724 64.3093 100.824 62.4093 99.424C63.7093 99.124 64.5093 98.824 65.4093 98.724C67.2093 98.524 67.8093 97.524 67.1093 95.924C66.7093 95.124 66.2093 94.324 65.8093 93.524C65.9093 93.424 66.1093 93.324 66.2093 93.224C66.8093 94.024 67.4093 94.724 67.9093 95.524C68.9093 97.424 69.6093 97.424 71.0093 95.724C71.8093 94.724 72.8093 93.924 73.9093 93.124C75.5093 92.024 77.3093 91.124 78.9093 90.024C79.2093 89.824 79.5093 89.224 79.6093 88.824C80.1093 86.824 77.9093 83.424 75.9093 83.224C74.8093 83.124 73.7093 83.324 72.3093 83.424C74.5093 86.324 74.6093 88.424 72.7093 90.424C71.2093 91.924 70.7093 92.124 69.5093 91.324C73.2093 89.124 74.1093 87.424 72.5093 84.924C71.4093 83.224 68.9093 82.924 66.9093 84.324C68.8093 87.724 68.3093 89.624 65.1093 91.924C64.3093 92.524 63.3093 93.124 62.9093 93.924C61.9093 96.224 61.2093 98.624 60.5093 101.024C60.3093 101.524 60.6093 102.424 60.9093 102.924C61.3093 103.524 62.1093 103.924 62.6093 104.524C62.9093 104.924 63.0093 105.924 62.8093 106.024C61.3093 107.024 59.7093 107.924 58.2093 108.924C58.1093 108.724 58.0093 108.524 57.8093 108.224C58.5093 107.924 59.3093 107.624 60.0093 107.224C62.8093 106.024 62.9093 105.124 60.5093 103.324C60.2093 103.124 59.9093 103.024 59.3093 102.624C56.3093 107.624 51.5093 109.824 45.5093 110.824C46.2093 111.224 46.5093 111.424 46.7093 111.424C49.1093 111.924 51.6093 112.324 54.1093 113.024C61.1093 114.824 68.2093 114.724 75.3093 115.024C84.0093 115.324 92.7093 115.224 101.409 115.224C105.709 115.224 109.909 115.024 114.209 114.824C115.909 114.724 117.609 114.724 119.209 114.624C124.709 114.124 130.309 113.624 135.809 113.024C141.409 112.424 147.009 111.924 152.609 111.024C164.409 109.124 176.209 106.924 188.009 104.924C194.709 103.724 201.409 102.524 208.209 101.724C214.409 100.924 220.709 100.424 227.009 99.824C230.809 99.424 234.509 98.824 238.309 98.924C249.409 99.324 260.409 100.024 271.509 100.624C275.709 100.824 279.909 101.424 284.009 101.524C288.109 101.524 292.209 101.224 296.309 100.824C297.209 100.724 298.009 99.524 298.809 98.924C298.009 98.524 297.309 98.024 296.509 97.624C295.409 97.124 294.309 96.624 293.109 96.124C292.709 95.924 292.209 95.724 291.809 95.824C290.809 95.924 289.809 96.224 289.209 96.324C288.709 97.424 288.409 98.324 288.009 99.124C287.709 97.224 286.709 96.324 285.209 96.024C282.709 95.424 283.709 98.624 281.909 98.824C282.909 97.424 282.709 96.324 281.309 96.224C279.809 96.024 278.209 95.724 276.709 95.824C275.509 95.924 273.709 95.724 273.909 97.924C273.909 98.224 273.609 98.624 273.309 98.724C271.709 99.424 270.109 99.824 268.209 99.024C269.709 98.924 270.909 98.924 272.109 98.724C272.609 98.624 273.009 98.024 273.209 97.524C273.309 97.324 272.609 96.524 272.209 96.524C269.609 96.524 266.909 96.424 264.309 96.624C262.809 96.724 261.409 97.624 260.309 95.924C260.209 95.724 259.909 95.624 259.709 95.724C258.409 95.924 257.009 96.224 255.709 96.524C254.609 96.824 253.409 97.124 252.309 97.424C252.309 97.324 252.309 97.224 252.209 97.124C252.709 96.924 253.109 96.624 253.609 96.424C253.609 96.224 253.609 96.024 253.509 95.824C251.109 95.724 248.709 95.524 246.309 95.424C246.409 96.224 246.409 96.624 246.409 97.024C245.709 97.024 245.209 97.024 244.709 97.024C245.409 95.824 244.909 95.424 243.809 95.324C242.809 95.224 241.909 95.124 240.909 95.024C239.709 94.924 239.009 95.124 238.309 96.424C237.809 97.424 236.509 97.924 235.609 98.724C235.509 98.524 235.309 98.324 235.209 98.124C235.909 97.724 236.709 97.324 237.309 96.824C237.709 96.524 237.809 95.824 238.009 95.324C237.509 95.124 237.109 94.824 236.609 94.824C235.609 94.724 234.609 94.824 233.509 94.724C232.609 94.624 231.909 94.824 231.609 95.924C231.109 97.624 229.609 97.824 228.209 98.224C228.809 97.624 229.609 97.324 230.209 96.824C230.609 96.424 230.909 95.724 231.009 95.124C231.009 94.824 230.509 94.324 230.109 94.224C227.809 93.924 225.509 93.624 223.309 93.424C222.009 95.924 219.809 97.424 217.809 97.024C218.809 96.524 219.909 96.224 220.909 95.624C221.409 95.324 221.909 94.524 221.909 94.024C221.909 93.624 221.009 93.024 220.509 93.024C215.809 92.424 211.109 92.024 206.409 91.524C205.609 91.424 204.809 91.524 204.509 91.524C203.409 93.024 202.609 94.224 201.809 95.524C202.209 95.924 202.809 96.424 203.009 97.124C203.209 97.724 203.109 98.824 202.709 99.024C200.609 100.224 198.209 100.524 195.809 100.324C196.309 99.924 196.909 99.624 197.409 99.524C198.709 99.224 200.009 99.024 201.309 98.824C202.709 98.624 202.709 97.724 201.909 96.924C201.109 96.224 200.109 95.724 199.109 95.124C200.009 94.624 201.109 94.224 201.909 93.624C202.309 93.224 202.509 92.324 202.509 91.724C202.509 91.424 201.609 90.924 201.109 90.924C200.109 90.924 199.009 91.124 198.009 91.224C198.209 94.324 197.609 95.024 194.509 95.924C194.109 96.024 193.409 96.324 193.409 96.624C193.409 98.124 192.509 98.924 191.209 99.324C190.009 99.624 188.809 99.924 187.509 100.124C187.009 100.224 186.409 99.824 185.809 99.624C187.409 99.224 188.909 99.124 190.309 98.824C191.009 98.624 192.009 97.924 192.109 97.424C192.209 96.824 191.409 96.124 190.909 95.524C190.609 95.124 190.209 94.924 189.809 94.624C189.909 94.424 190.009 94.324 190.109 94.124C190.709 94.324 191.209 94.524 191.809 94.824C193.309 95.524 194.909 95.424 196.209 94.424C196.709 94.024 197.109 93.124 196.909 92.624C196.709 91.924 196.109 90.924 195.509 90.824C193.509 90.424 191.409 90.424 189.109 90.324C190.009 92.524 189.009 93.724 187.109 94.424C186.709 94.624 186.309 95.024 185.909 95.124C184.909 95.424 184.609 95.924 184.609 97.124C184.709 98.824 183.109 99.524 181.809 100.024C180.009 100.824 179.009 100.624 177.909 99.524C180.009 99.524 182.409 99.724 183.309 97.624C184.309 95.224 181.709 94.624 180.509 93.224C181.409 93.424 182.209 93.724 183.009 94.224C184.409 95.124 188.109 93.724 188.209 92.124C188.209 91.424 187.609 90.024 187.109 89.924C184.709 89.424 182.209 89.224 180.209 88.924C180.109 90.524 180.409 91.824 179.909 92.524C179.009 93.824 177.609 94.724 175.809 94.524C176.309 93.924 176.909 93.624 177.609 93.224C180.109 91.924 180.309 90.424 177.809 89.324C175.209 88.224 172.109 87.924 169.009 87.324C169.309 89.424 170.409 91.424 168.409 92.324C167.009 92.924 165.309 92.824 163.609 93.124C164.709 94.424 166.209 95.824 165.309 97.824C165.009 98.424 164.009 98.924 163.209 98.924C162.309 98.924 161.409 98.424 160.609 98.124C160.709 97.824 160.809 97.624 160.809 97.324C161.409 97.424 162.109 97.624 162.709 97.624C163.209 97.624 163.909 97.824 164.209 97.524C164.509 97.224 164.609 96.424 164.409 96.124C164.009 95.224 163.309 94.424 162.709 93.624C162.309 93.124 161.909 92.724 161.309 92.224C163.109 92.224 164.609 92.324 166.009 92.224C167.309 92.124 168.609 91.724 168.609 90.124C168.609 88.524 167.509 87.424 166.009 87.224C165.209 87.124 164.409 86.924 163.509 86.724C162.409 86.524 161.309 86.424 159.809 86.124C161.209 88.824 160.509 90.624 158.709 92.224C158.309 92.524 157.909 93.024 157.909 93.424C157.909 96.224 154.609 98.724 151.309 97.924C152.009 97.524 152.409 97.224 152.809 97.124C153.609 96.824 154.409 96.624 155.209 96.324C157.509 95.424 157.709 94.124 155.909 92.424C155.409 91.924 154.809 91.524 154.309 91.024C154.809 90.824 155.209 90.824 155.409 91.024C156.409 91.824 157.509 92.024 158.209 91.024C158.909 90.024 159.509 88.624 159.309 87.524C159.209 86.724 157.909 85.924 156.909 85.524C155.809 85.124 154.609 85.124 153.409 85.024C152.409 84.924 151.509 85.024 151.009 85.024C151.309 86.524 152.109 88.324 151.609 89.324C151.009 90.424 149.209 90.824 147.909 91.624C149.409 95.324 149.409 96.624 147.609 97.624C146.609 98.124 145.509 98.924 144.509 97.424C146.309 97.124 148.509 96.924 148.009 94.724C147.709 93.224 146.309 91.924 145.509 90.724C146.709 90.524 148.109 90.324 149.509 89.824C150.109 89.624 150.909 88.524 150.809 88.324C150.109 87.024 149.409 85.324 148.209 84.824C146.309 84.024 144.009 84.124 141.809 83.924C143.909 87.924 142.809 89.724 137.209 90.924C137.409 90.524 137.609 90.024 138.009 89.824C138.709 89.424 139.709 89.424 140.309 88.924C141.009 88.324 142.109 87.124 141.909 86.724C141.309 85.424 140.309 83.624 139.209 83.424C136.409 82.924 133.509 83.224 130.409 83.224C131.009 84.324 131.509 85.124 131.809 86.024C132.209 87.224 132.409 88.824 131.009 89.324C129.609 89.824 128.009 89.724 126.509 89.824C126.509 89.624 126.509 89.524 126.509 89.324C127.409 89.224 128.209 89.024 129.109 89.024C131.109 88.924 131.809 88.024 131.309 86.124C130.509 83.124 126.109 81.524 122.609 83.124C123.109 84.724 125.309 86.224 123.609 87.924C122.409 89.024 120.509 89.524 119.009 90.224C118.909 90.024 118.809 89.824 118.809 89.624C119.709 89.324 120.509 88.824 121.409 88.624C122.609 88.324 123.909 87.724 123.509 86.424C123.109 85.024 122.209 83.124 121.109 82.724C119.209 82.124 117.009 82.524 114.909 82.524C116.709 87.924 115.309 89.724 109.709 89.524C110.809 89.124 112.009 88.924 113.209 88.524C115.109 87.924 115.709 86.724 115.109 84.824C114.609 83.224 113.809 82.224 111.909 82.424C109.209 82.724 106.509 82.824 103.509 82.924C104.009 83.624 104.309 84.024 104.609 84.424C106.109 86.324 106.009 87.024 103.809 88.124C103.109 88.524 102.309 88.824 101.509 89.224C101.509 89.324 101.609 89.524 101.609 89.624C102.309 89.624 103.009 89.424 103.609 89.524C105.009 89.724 106.409 89.824 107.709 90.424C108.209 90.624 108.509 91.824 108.609 92.624C108.709 93.524 108.409 94.424 108.209 95.324C108.009 95.024 107.809 94.824 107.509 94.524C107.209 95.324 107.109 96.124 106.609 96.824C104.109 100.724 100.409 103.024 96.2093 104.524C91.6093 106.224 87.2093 108.424 82.4093 109.224C79.3093 109.724 76.2093 111.024 73.1093 109.424C73.2093 109.124 73.5093 108.724 73.5093 108.424C72.4093 105.424 72.3093 101.924 69.4093 99.724C68.3093 98.724 67.7093 98.524 67.0093 99.624ZM42.5093 82.524C42.5093 82.724 42.5093 82.924 42.5093 83.024C43.4093 83.424 44.3093 83.724 45.0093 84.324C46.8093 85.524 48.8093 86.724 50.2093 88.224C51.6093 89.724 51.2093 90.724 49.4093 92.424C47.5093 88.124 43.2093 87.024 39.4093 85.624C35.6093 84.224 31.3093 83.424 27.1093 86.024C31.6093 87.924 32.9093 91.224 31.3093 95.524C30.5093 97.724 24.7093 101.124 22.3093 100.424C16.9093 98.824 14.8093 94.924 16.2093 88.724C11.1093 91.224 2 93.6689 2 96C2 100.624 12.6093 100.824 17.7093 102.224C20.4093 102.924 23.3093 102.624 26.1093 102.724C31.0093 102.824 36.0093 102.924 39.8093 98.824C40.3093 98.324 41.1093 98.124 41.8093 97.824C40.1093 103.924 35.5093 105.624 30.2093 106.624C30.4093 106.724 30.5093 106.924 30.6093 106.924C33.7093 107.924 36.7093 108.824 39.8093 109.824C40.6093 110.024 41.5093 110.524 42.1093 110.324C43.9093 109.724 45.7093 108.824 47.4093 107.924C52.9093 105.124 55.9093 100.124 58.4093 94.824C59.5093 92.424 57.8093 87.324 55.9093 85.724C54.1093 84.224 52.3093 82.624 50.6093 81.024C50.4093 80.824 50.1093 80.624 49.8093 80.724C47.5093 81.324 45.0093 81.924 42.5093 82.524ZM76.6093 107.624C82.1093 108.924 101.309 99.524 102.909 94.924C96.4093 93.124 90.0093 94.424 83.6093 95.824C87.7093 96.324 92.0093 95.724 95.9093 97.224C92.6093 97.224 89.2093 97.224 85.8093 97.224C82.4093 97.124 79.0093 97.624 75.7093 98.824C81.1093 99.024 86.5093 99.224 91.9093 99.424C91.9093 99.624 91.9093 99.724 91.9093 99.924C86.3093 100.224 80.7093 99.624 75.1093 100.824C79.0093 101.124 83.0093 100.024 86.9093 101.324C83.3093 101.724 79.6093 102.124 76.0093 102.524C76.0093 102.724 76.0093 102.924 76.1093 103.124C79.2093 102.924 82.4093 103.024 85.5093 103.724C85.2093 104.024 84.8093 104.124 84.5093 104.124C82.0093 104.124 79.6093 104.124 77.1093 104.324C76.7093 104.324 76.3093 105.124 75.9093 105.524C76.3093 105.824 76.7093 106.324 77.2093 106.524C77.9093 106.824 78.7093 106.824 79.4093 106.924C79.4093 107.124 79.4093 107.224 79.3093 107.424C78.5093 107.424 77.5093 107.524 76.6093 107.624ZM300.809 102.224C299.509 104.824 299.609 105.124 302.209 105.524C303.109 105.724 304.109 105.824 305.009 106.124C309.509 107.524 314.009 108.924 318.509 110.324C325.409 112.424 332.309 114.524 339.309 116.624C340.809 117.124 342.409 117.524 344.009 117.924C344.109 117.724 344.209 117.524 344.309 117.324C343.609 116.824 343.109 116.224 342.309 115.924C339.609 115.024 336.809 114.224 334.109 113.224C333.209 112.924 332.509 112.124 331.609 111.924C328.209 111.124 325.009 109.624 321.409 109.324C318.609 109.024 315.509 108.324 313.209 106.124C312.609 105.524 311.609 105.224 310.709 105.024C308.009 104.224 305.309 103.524 302.609 102.824C302.009 102.524 301.409 102.324 300.809 102.224ZM297.909 92.024C297.909 92.324 298.009 92.524 298.009 92.824C298.509 92.924 299.109 93.124 299.609 93.024C301.409 92.624 303.209 92.224 304.909 91.524C310.409 89.324 315.709 86.924 321.209 84.924C327.509 82.624 333.809 80.524 340.209 78.324C341.309 77.924 341.809 77.224 341.709 75.824C339.709 76.524 337.909 77.124 336.209 77.824C335.609 78.124 335.109 78.724 334.409 78.924C329.109 80.524 323.909 82.024 318.609 83.524C316.909 84.024 315.309 84.624 313.709 85.224C311.109 86.324 308.609 87.524 306.009 88.624C303.409 89.724 300.609 90.824 297.909 92.024ZM29.3093 92.624C29.0093 90.624 26.5093 87.624 24.5093 87.424C22.2093 87.224 18.1093 90.024 18.0093 92.024C17.8093 95.224 20.2093 98.024 21.7093 97.824C24.0093 97.524 26.4093 97.224 28.1093 95.424C28.8093 94.724 28.9093 93.624 29.3093 92.624ZM85.1093 89.824C85.2093 89.924 85.3093 90.024 85.5093 90.124C86.3093 90.124 87.0093 90.024 87.8093 90.024C89.5093 89.824 91.2093 89.924 92.7093 89.424C94.3093 88.924 95.8093 88.024 97.1093 87.124C97.7093 86.724 98.4093 85.524 98.2093 84.924C98.0093 83.824 97.2093 82.824 95.7093 82.824C94.2093 82.824 92.6093 82.624 91.1093 82.624C89.6093 82.624 88.0093 82.624 86.0093 82.624C89.0093 85.724 87.8093 87.924 85.1093 89.824ZM340.209 112.824C340.409 112.524 340.609 112.124 340.709 111.824C339.509 110.924 338.309 109.724 337.009 109.124C335.309 108.424 333.509 108.124 331.709 107.824C325.309 106.424 318.809 105.124 312.409 103.824C312.209 104.024 312.109 104.224 311.909 104.424C312.309 104.624 312.709 104.924 313.209 105.024C322.209 107.624 331.209 110.224 340.209 112.824ZM138.909 68.424C138.209 66.924 136.909 66.624 135.409 67.124C131.709 68.324 128.009 69.424 124.409 70.924C122.509 71.624 120.709 72.724 119.809 75.024C121.509 75.124 123.209 75.224 124.709 74.624C127.209 73.624 129.409 72.124 131.909 71.024C134.109 70.024 136.509 69.324 138.909 68.424ZM219.209 105.924C220.109 106.424 220.509 106.724 221.009 107.024C223.709 108.324 226.409 109.424 229.109 110.824C231.809 112.124 234.209 110.124 236.809 110.324C233.109 108.424 229.509 106.824 225.809 105.224C225.109 104.924 224.309 104.524 223.609 104.624C222.309 104.724 221.009 105.324 219.209 105.924ZM77.7093 83.624C80.0093 85.624 81.6093 87.624 79.9093 91.024C81.7093 90.724 83.1093 90.524 84.0093 90.424C84.7093 89.524 85.0093 88.824 85.5093 88.424C87.3093 86.924 87.5093 85.224 85.8093 83.524C84.6093 82.224 80.2093 82.224 77.7093 83.624ZM244.509 109.224C240.009 105.024 232.309 103.124 228.809 105.224C232.409 108.624 239.809 110.624 244.509 109.224ZM229.509 111.524C226.309 110.124 223.309 108.824 220.309 107.524C219.509 107.124 218.809 106.524 218.009 106.024C218.109 105.924 218.109 105.724 218.209 105.624C217.309 105.724 216.509 105.824 215.309 106.024C215.709 106.624 215.809 107.224 216.209 107.424C218.309 109.024 220.409 110.724 222.709 111.924C224.709 113.024 227.109 113.924 229.509 111.524ZM135.709 65.924C135.109 65.824 134.409 65.724 133.809 65.724C129.309 65.824 125.309 67.424 121.609 69.924C119.209 71.524 116.709 73.124 114.509 74.524C116.609 75.024 118.909 74.924 120.609 72.624C121.109 71.924 122.109 71.324 122.909 71.024C127.109 69.224 131.409 67.624 135.709 65.924ZM60.4093 85.824C61.2093 88.024 62.0093 90.024 62.7093 92.224C63.7093 91.624 64.4093 91.324 65.1093 90.924C67.2093 89.724 67.8093 87.124 66.4093 85.224C66.2093 84.924 65.6093 84.424 65.3093 84.524C63.7093 84.824 62.1093 85.324 60.4093 85.824ZM98.1093 83.024C100.909 86.824 97.7093 87.824 95.2093 89.224C96.6093 89.324 97.9093 89.424 99.0093 89.124C100.409 88.724 101.609 87.924 102.909 87.424C104.409 86.824 104.709 86.024 104.009 84.624C103.009 82.624 101.809 82.224 98.1093 83.024ZM307.609 94.324C307.609 94.524 307.709 94.724 307.709 94.924C311.309 95.224 314.909 95.524 318.609 95.924C321.409 96.224 322.109 95.624 321.709 92.424C317.009 93.024 312.309 93.724 307.609 94.324ZM332.109 106.924C332.209 106.624 332.309 106.324 332.409 106.024C326.509 103.224 320.409 101.024 313.609 101.724C319.709 103.524 325.909 105.224 332.109 106.924ZM90.2093 93.024C90.2093 92.924 90.2093 92.824 90.2093 92.724C89.8093 92.724 89.3093 92.624 88.9093 92.624C85.6093 92.824 82.4093 92.924 79.1093 93.224C77.8093 93.324 76.5093 93.624 75.3093 94.224C74.3093 94.724 73.5093 95.724 72.6093 96.524C72.7093 96.624 72.8093 96.624 72.9093 96.724C78.8093 95.424 84.5093 94.224 90.2093 93.024ZM309.309 97.324C309.309 97.524 309.309 97.724 309.209 97.924C309.609 98.024 310.009 98.224 310.409 98.324C313.409 98.924 316.509 99.424 319.509 99.924C320.109 100.024 320.709 99.724 321.309 99.524C320.909 98.724 320.509 97.424 320.009 97.324C316.509 97.224 312.909 97.324 309.309 97.324ZM128.509 121.824C126.009 120.724 123.509 120.524 120.909 121.624C122.509 122.224 124.109 122.524 125.709 123.024C127.009 123.324 127.909 123.324 128.509 121.824ZM92.9093 92.624C92.9093 92.724 92.9093 92.724 92.9093 92.824C95.0093 93.024 97.0093 93.124 99.1093 93.324C100.509 93.424 101.809 93.724 103.209 93.924C103.709 94.024 104.209 93.824 104.709 93.624C104.809 93.624 104.909 92.824 104.809 92.824C104.309 92.724 103.909 92.624 103.409 92.524C103.009 92.524 102.609 92.524 102.209 92.524C99.0093 92.624 95.9093 92.624 92.9093 92.624ZM126.509 124.524C126.509 124.324 126.409 124.224 126.409 124.024C123.509 123.224 120.609 122.424 117.709 121.624C117.809 122.224 118.109 122.524 118.409 122.724C120.409 123.624 122.409 124.524 124.409 125.124C125.009 125.324 125.809 124.724 126.509 124.524ZM334.309 112.724C337.109 113.624 340.009 114.424 342.809 115.324C340.909 113.224 336.709 111.924 334.309 112.724ZM224.809 114.224C224.909 114.024 224.909 113.924 225.009 113.724C222.509 112.524 220.109 111.224 217.609 110.024C219.709 112.124 221.509 114.624 224.809 114.224ZM119.409 124.024C121.309 126.624 122.709 127.124 123.709 125.624C122.209 125.024 120.809 124.524 119.409 124.024ZM216.809 110.124C217.009 109.924 217.109 109.724 217.309 109.524C215.809 108.624 215.009 106.624 213.009 106.324C212.909 106.524 212.709 106.624 212.609 106.824C213.909 107.924 215.409 109.024 216.809 110.124Z"
              fill="black"/>
        <path d="M211.309 92.7241C212.509 93.6241 212.909 95.4241 212.009 96.1241C210.409 97.4241 208.609 98.4241 206.809 99.5241C206.609 99.6241 206.109 99.4241 205.609 99.4241C206.709 98.7241 207.409 98.1241 208.209 97.5241C207.209 96.7241 206.209 95.9241 205.009 94.9241C206.409 94.5241 207.409 95.4241 208.609 96.0241C209.109 96.3241 210.009 96.5241 210.509 96.2241C211.009 95.9241 211.409 95.1241 211.509 94.5241C211.709 94.0241 211.409 93.4241 211.309 92.7241Z"
              fill="black"/>
        <path d="M136.709 97.6241C138.009 97.1241 139.209 96.9241 140.309 96.4241C141.909 95.6241 141.909 94.3241 140.509 93.3241C139.909 92.9241 139.209 92.6241 138.609 92.4241C137.909 92.2241 137.309 92.0241 136.509 91.8241C138.309 90.9241 142.209 92.5241 142.509 94.4241C142.609 94.8241 142.409 95.4241 142.209 95.8241C141.309 97.4241 138.509 98.5241 136.709 97.6241Z"
              fill="black"/>
        <path d="M169.809 93.324C172.109 92.824 174.809 94.424 175.509 96.224C175.909 97.424 175.709 98.424 174.409 99.024C173.009 99.624 171.609 99.724 170.209 98.824C171.209 98.724 171.809 98.824 172.409 98.624C173.209 98.324 174.309 98.024 174.509 97.424C174.709 96.824 174.109 95.724 173.609 95.124C173.009 94.424 172.009 94.124 171.209 93.724C170.809 93.524 170.209 93.424 169.809 93.324Z"
              fill="black"/>
        <path d="M110.509 92.824C112.809 93.624 114.309 95.724 113.909 97.024C113.509 98.324 111.009 99.224 108.709 98.624C109.709 98.424 110.209 98.324 110.709 98.124C111.509 97.824 112.909 97.524 113.109 97.024C113.309 96.224 112.709 95.124 112.209 94.324C111.809 93.624 111.009 93.224 110.509 92.824Z"
              fill="black"/>
        <path d="M127.909 91.4241C128.909 92.3241 130.009 93.2241 131.009 94.2241C131.809 95.0241 131.609 96.0241 130.609 96.4241C129.309 96.9241 127.909 97.1241 126.509 97.4241C126.409 97.1241 126.409 96.9241 126.309 96.6241C127.209 96.5241 128.209 96.4241 129.109 96.2241C130.809 95.9241 131.009 95.0241 129.909 93.7241C129.509 93.3241 129.109 93.0241 128.709 92.6241C128.309 92.3241 127.909 91.9241 127.509 91.6241C127.709 91.7241 127.809 91.6241 127.909 91.4241Z"
              fill="black"/>
        <path d="M119.209 97.8241C119.909 97.0241 121.309 96.3241 121.309 95.5241C121.509 93.1241 119.209 92.4241 117.609 91.4241C120.109 91.9241 122.509 94.3241 122.109 95.8241C121.909 97.1241 120.309 98.1241 119.209 97.8241Z"
              fill="black"/>
        <path d="M67.009 99.624C67.609 100.324 68.209 100.924 68.709 101.624C69.309 102.524 70.109 103.424 69.309 104.524C68.509 105.624 67.309 106.024 65.709 106.024C69.309 104.024 69.309 104.024 67.309 100.624C67.109 100.324 67.109 99.924 67.009 99.624Z"
              fill="black"/>
        <path d="M112.709 102.324C113.109 103.224 113.309 104.324 112.109 105.124C110.809 106.024 109.409 106.824 107.809 105.624C109.009 105.424 110.309 105.524 111.209 105.024C111.909 104.424 112.209 103.224 112.709 102.324Z"
              fill="black"/>
        <path d="M99.5088 108.324C100.709 107.924 102.009 107.824 102.609 107.024C103.209 106.424 103.009 105.124 103.109 103.824C103.309 104.724 103.909 105.624 103.809 106.424C103.609 107.924 101.809 108.624 99.5088 108.324Z"
              fill="black"/>
        <path d="M127.809 102.424C127.509 102.924 127.409 103.624 126.909 103.924C125.709 104.824 124.409 105.424 122.809 104.924C124.509 104.324 126.709 104.624 127.109 102.024C127.309 102.124 127.609 102.324 127.809 102.424Z"
              fill="black"/>
        <path d="M133.109 104.824C135.909 103.724 135.609 102.024 134.309 100.024C134.609 100.024 134.909 100.024 135.109 100.024C135.209 101.224 135.609 102.424 135.409 103.624C135.309 104.224 134.409 104.724 133.809 105.324C133.709 105.124 133.409 105.024 133.109 104.824Z"
              fill="black"/>
        <path d="M22.8085 89.0239C23.9085 90.1239 25.0085 90.7239 25.5085 91.7239C25.9085 92.5239 24.2085 94.3239 23.2085 94.2239C21.3085 94.0239 21.7085 92.1239 21.3085 90.9239C21.1085 90.6239 22.0085 89.9239 22.8085 89.0239Z"
              fill="black"/>
    </g>
</svg>
