<svg viewBox="0 0 391 186" fill="none" xmlns="http://www.w3.org/2000/svg">
<path d="M91.0248 57.1673C91.6222 53.7665 92.0895 51.3232 92.4265 49.8373C92.4418 49.7914 92.5337 49.3778 92.7022 48.5965C92.886 47.7999 93.1464 46.7659 93.4835 45.4945C94.5404 40.9908 95.8578 34.4344 97.4357 25.8254C98.1403 22.1029 98.6382 19.6596 98.9292 18.4954C99.0365 18.0971 99.1284 17.6988 99.205 17.3006C99.2815 16.9023 99.3505 16.6112 99.4118 16.4274C99.7181 14.6811 99.9939 13.4939 100.239 12.8658C100.499 12.2377 100.89 11.8318 101.411 11.648C101.947 11.4488 102.874 11.3493 104.191 11.3493C104.39 11.3493 104.697 11.3646 105.11 11.3952C105.524 11.4259 105.815 11.4412 105.983 11.4412L108.051 11.5331L113.796 13.4173L118.69 13.8768C119.41 13.9228 120.015 14.2292 120.506 14.796C120.996 15.3627 121.241 15.9985 121.241 16.7031V16.9789C121.18 17.5457 121.149 17.9899 121.149 18.3116L121.517 71.4825C121.517 72.1719 121.486 72.8919 121.425 73.6425C121.394 73.9488 121.363 74.5156 121.333 75.3428C121.302 76.1547 121.271 76.7521 121.241 77.1351C121.241 78.0695 121.141 78.69 120.942 78.9963C120.758 79.318 120.352 79.4789 119.724 79.4789C119.525 79.4789 119.058 79.4176 118.323 79.295C118.093 79.2644 117.702 79.2338 117.151 79.2031C116.599 79.1725 116.17 79.1419 115.864 79.1112C110.196 78.9427 107.217 77.7479 106.926 75.5267L107.017 72.7923L107.109 70.6324L108.051 37.9807L108.166 34.3961L108.534 28.5597L108.626 27.25C108.12 27.5564 107.837 27.7785 107.776 27.9164L105.983 35.0625L103.548 44.943L97.8952 70.7243C97.5582 72.3634 96.3634 73.1829 94.3107 73.1829C93.4375 73.1829 92.595 73.0221 91.7831 72.7004L90.2665 72.057L85.4641 70.8162C84.9127 70.6324 84.5374 70.3873 84.3382 70.0809C84.1697 69.7132 83.9553 68.7711 83.6948 67.2546L78.2261 42.6912L77.1921 37.4062L76.25 32.9026L76.0662 31.6618L75.3998 31.7537V49.079L75.9743 73.8263L76.1581 76.9513V77.4108C76.1581 79.1725 75.6832 80.0533 74.7335 80.0533C74.6109 80.0533 74.519 80.0227 74.4577 79.9614L72.2059 79.295L67.4035 79.2031C65.121 79.1112 63.4589 78.1078 62.4173 76.193L62.0266 75.5267L61.7509 69.5983L61.659 62.3603L62.5092 19.4375C62.5092 19.1311 62.5705 18.4724 62.693 17.4614C62.693 16.9559 62.7543 16.6419 62.8768 16.5193C63.2445 16.0751 64.2479 15.8529 65.8869 15.8529C66.7601 15.8529 67.5184 15.9525 68.1618 16.1517L69.6553 16.5193C69.8698 16.5193 70.3293 16.5653 71.034 16.6572C71.7387 16.7491 72.3131 16.795 72.7573 16.795C73.8909 16.795 74.8024 16.7644 75.4917 16.7031C76.0585 16.6419 76.9393 16.6112 78.1342 16.6112C80.7843 16.6112 82.5842 16.9099 83.534 17.5074C84.4838 18.1048 85.0965 19.3456 85.3722 21.2298L87.8309 35.5221L89.6232 46.3447L91.0248 57.1673Z" fill="#161515"/>
<path d="M134.522 68.1967L141.301 66.0138C141.423 65.9525 141.607 65.9219 141.852 65.9219C143.154 65.9219 143.912 66.6495 144.127 68.1048C144.265 69.4988 144.441 70.3796 144.655 70.7472C144.885 71.1149 145.337 71.2987 146.011 71.2987C146.808 71.2987 147.436 71.0766 147.895 70.6324C148.355 70.1881 148.791 69.4069 149.205 68.2886C149.649 67.0938 150.025 65.5772 150.331 63.739C150.637 61.9007 150.79 60.3382 150.79 59.0515C150.79 57.6115 149.787 56.8915 147.78 56.8915H146.838C143.192 57.3971 140.558 57.6498 138.934 57.6498C138.061 57.6498 137.249 57.4583 136.498 57.0754C135.916 56.7843 135.518 56.4779 135.303 56.1562C135.104 55.8192 134.936 55.1835 134.798 54.2491L130.294 26.3998L128.961 20.1039C128.778 19.3532 128.686 18.5337 128.686 17.6452C128.686 16.7108 128.716 16.1746 128.778 16.0368L129.145 15.2096C129.452 14.3824 130.049 13.9688 130.938 13.9688C131.259 13.9688 131.481 13.9994 131.604 14.0607C131.788 14.1373 132.01 14.2062 132.27 14.2675C133.051 14.5738 134.522 14.727 136.682 14.727C136.743 14.727 136.835 14.7117 136.958 14.6811C137.08 14.6504 137.18 14.6351 137.256 14.6351C139.095 14.6351 140.642 15.6538 141.898 17.6912C143.154 19.7286 143.989 22.6008 144.403 26.3079L145.62 36.5561C146.172 41.6878 146.708 44.7668 147.229 45.7932C147.474 46.2528 147.834 46.6357 148.309 46.9421C148.784 47.2332 149.236 47.3787 149.665 47.3787H152.215C153.226 47.3787 153.854 47.3174 154.099 47.1949C154.513 46.8732 154.858 46.1226 155.133 44.943L155.983 41.7491C156.213 40.7227 156.811 37.705 157.776 32.6958L158.994 25.6415C159.177 24.3395 159.461 22.4553 159.844 19.989C160.319 16.5423 161.575 14.8189 163.612 14.8189C164.225 14.8189 164.784 14.8496 165.29 14.9108L170.184 15.4853C171.44 15.6232 172.52 16.1593 173.424 17.0938C174.343 18.0129 174.802 19.0469 174.802 20.1958C174.802 20.9311 174.366 22.3097 173.493 24.3318C173.462 24.4697 173.362 24.7224 173.194 25.0901L164.164 59.1434C163.444 61.9773 162.907 64.5509 162.555 66.864C162.142 70.0962 161.812 72.1949 161.567 73.1599C161.337 74.1097 160.916 75.1207 160.303 76.193C159.675 77.3726 158.703 78.3759 157.385 79.2031C156.42 79.8159 155.279 80.2218 153.961 80.421C152.659 80.6201 150.384 80.7426 147.137 80.7886L144.678 80.9035H143.644C140.458 80.9035 137.862 80.6278 135.855 80.0763C133.848 79.5401 132.684 78.7742 132.362 77.7785L131.604 75.159L130.57 72.6085C130.447 72.2408 130.386 71.988 130.386 71.8502C130.386 71.6204 130.447 71.1838 130.57 70.5404C130.968 69.4988 131.497 68.8707 132.155 68.6562L134.522 68.1967Z" fill="#161515"/>
<path d="M177.422 72.057L176.388 69.5983C176.327 69.4145 176.296 69.1311 176.296 68.7482C176.296 67.9363 176.51 67.2163 176.939 66.5882C177.307 66.144 177.682 65.83 178.065 65.6461C178.203 65.5849 178.992 65.3934 180.432 65.0717L186.085 64.0377C186.207 63.9764 186.391 63.9458 186.636 63.9458C187.371 63.9458 187.9 64.099 188.221 64.4053C188.543 64.6964 188.796 65.2708 188.98 66.1287L189.554 68.5643C189.554 68.7175 189.838 68.9703 190.404 69.3226C191.002 69.5677 191.661 69.6903 192.381 69.6903C193.866 69.6903 195.375 69.2843 196.907 68.4724C198.5 67.5839 199.772 66.4887 200.721 65.1866C201.687 63.8845 202.169 62.5977 202.169 61.3263C202.169 59.7944 201.602 58.4081 200.469 57.1673C199.366 55.8805 198.079 54.7929 196.608 53.9044C195.153 53.0159 193.897 52.5717 192.84 52.5717L189.462 52.4798C187.961 52.4798 187.21 51.5377 187.21 49.6535C187.21 49.5922 187.226 49.4773 187.256 49.3088C187.287 49.1403 187.302 49.0331 187.302 48.9871L187.67 46.9191L187.302 44.1847V43.909C187.302 43.4648 187.394 43.0588 187.578 42.6912C188.145 42.0172 188.65 41.6342 189.095 41.5423C189.278 41.481 190.152 41.4504 191.714 41.4504C194.548 41.4504 197.091 39.9798 199.343 37.0386C200.538 35.5527 201.135 34.0745 201.135 32.6039C201.135 31.118 200.859 29.7163 200.308 28.3989C199.772 27.0815 199.059 26.0322 198.171 25.2509C197.282 24.4544 196.325 24.0561 195.299 24.0561C193.828 24.0561 192.557 24.4237 191.484 25.159C190.427 25.879 189.876 26.7598 189.83 27.8015L189.738 30.4439C189.646 31.3937 189.118 31.8686 188.153 31.8686C187.846 31.8686 187.402 31.7996 186.82 31.6618C185.502 31.4167 183.526 31.2941 180.892 31.2941C180.708 31.3554 180.424 31.386 180.041 31.386C177.667 31.386 176.48 30.758 176.48 29.5018C176.48 29.1955 176.572 28.5674 176.756 27.6176L177.881 23.4816C178.295 21.8425 179.206 20.4179 180.616 19.2077C182.025 17.9822 183.848 17.0401 186.085 16.3814C188.336 15.7227 190.841 15.3934 193.598 15.3934C195.452 15.3934 197.459 15.4853 199.619 15.6691C201.794 15.8529 203.395 16.121 204.421 16.4733C205.463 16.8257 206.466 17.4384 207.431 18.3116C208.917 19.6596 210.242 21.1838 211.406 22.8842C212.586 24.5846 213.505 26.2773 214.164 27.9623C214.822 29.6474 215.152 31.1639 215.152 32.512C215.152 34.6259 214.493 36.6633 213.176 38.6241C211.873 40.5695 210.112 42.1627 207.891 43.4035C205.685 44.629 203.341 45.2953 200.859 45.4026C200.293 45.4026 200.009 45.5634 200.009 45.8851C200.009 46.0996 200.254 46.2528 200.744 46.3447L203.479 46.7353C205.93 47.0876 208.143 48.0297 210.119 49.5616C212.096 51.0781 213.627 53.0083 214.715 55.352C215.818 57.6805 216.369 60.2004 216.369 62.9118C216.369 65.3321 216.055 67.2469 215.427 68.6562C214.738 70.2494 213.528 71.8119 211.797 73.3438C210.066 74.8756 208.266 75.9479 206.397 76.5607C204.053 77.3879 201.074 78.1078 197.459 78.7206C192.327 79.6091 188.88 80.0533 187.119 80.0533C185.25 80.0533 183.427 79.701 181.65 78.9963C179.873 78.2917 178.869 77.5104 178.64 76.6526L177.422 72.057Z" fill="#161515"/>
<path d="M229.26 79.295L224.848 77.227C223.899 76.7981 223.424 74.3778 223.424 69.966C223.424 68.4801 223.485 65.4087 223.608 60.7518C224.236 43.5643 224.55 32.0524 224.55 26.216C224.55 23.765 224.519 22.0417 224.458 21.046C224.396 20.3413 224.366 19.4911 224.366 18.4954C224.366 17.2393 224.611 16.2053 225.101 15.3934C225.607 14.5815 226.242 14.1756 227.008 14.1756C227.054 14.1756 227.161 14.1909 227.33 14.2215C227.498 14.2521 227.644 14.2675 227.767 14.2675L230.478 14.8189C231.045 14.9415 231.834 15.0028 232.845 15.0028C233.81 15.0028 235.097 14.9108 236.705 14.727L248.929 13.2335H249.228C250.024 13.2335 250.836 13.7313 251.664 14.727C253.487 16.8257 254.398 19.4605 254.398 22.6314C254.398 23.3055 254.268 23.811 254.007 24.148C253.946 24.2705 253.793 24.3931 253.548 24.5156C253.226 24.7607 252.881 24.8833 252.514 24.8833C252.299 24.9752 249.726 25.3275 244.793 25.9403L240.083 26.4917L238.865 26.6756C238.758 28.5597 238.666 29.8771 238.589 30.6278C238.39 32.8643 238.29 34.7485 238.29 36.2803C238.29 37.5058 238.352 38.2564 238.474 38.5322C238.612 38.7926 238.964 38.9228 239.531 38.9228C239.93 38.9228 240.902 38.8232 242.449 38.6241L247.528 38.0726C248.784 37.9501 249.565 37.8888 249.871 37.8888C252.736 37.8888 254.306 39.9568 254.582 44.0928C254.704 46.1149 254.766 46.9957 254.766 46.7353C254.827 47.0417 254.858 47.4782 254.858 48.045C254.858 48.8416 254.758 49.3778 254.559 49.6535C254.36 49.9292 253.931 50.1131 253.272 50.205L249.32 50.5956C248.906 50.5956 245.927 50.9403 240.381 51.6296C239.876 51.6296 239.056 51.7215 237.923 51.9053V54.4559L237.831 64.704C237.831 66.0215 238.237 66.6801 239.049 66.6801C239.294 66.6801 239.922 66.6189 240.933 66.4963C244.793 65.7917 247.964 65.3551 250.446 65.1866H250.813C251.487 65.1866 252.085 65.401 252.606 65.83C253.479 66.4427 254.199 67.1703 254.766 68.0129C255.332 68.8401 255.616 69.5907 255.616 70.2647C255.616 70.6324 255.585 71.0383 255.524 71.4825C255.463 71.8655 255.432 72.5242 255.432 73.4586C255.432 74.4697 255.463 75.0977 255.524 75.3428C255.646 75.9556 255.708 76.3615 255.708 76.5607C255.708 76.8824 255.424 77.1964 254.858 77.5028L248.47 78.261L240.565 79.3869L237.463 79.6627C233.94 80.0456 231.926 80.2371 231.42 80.2371C231.037 80.2371 230.692 80.1452 230.386 79.9614L229.26 79.295Z" fill="#161515"/>
<path d="M275.813 0.434744L278.433 0.319855C279.061 0.319855 279.475 0.733458 279.674 1.56066C280.332 4.25674 282.117 5.60478 285.028 5.60478C287.371 5.60478 288.689 4.63205 288.98 2.68658C289.164 1.93597 289.256 1.49173 289.256 1.35386C289.301 1.29259 289.355 1.21599 289.416 1.12408C289.478 1.03217 289.524 0.955578 289.554 0.894303C290.029 0.511338 291.032 0.319855 292.564 0.319855C293.422 0.319855 294.364 0.419426 295.391 0.618568C295.528 0.633887 295.766 0.664524 296.103 0.71048C296.455 0.741117 296.685 0.771754 296.792 0.802391C297.696 0.848347 298.278 0.940259 298.539 1.07813C298.814 1.21599 298.952 1.49939 298.952 1.92831C298.952 3.04657 298.608 4.33334 297.918 5.7886C297.183 7.56557 295.528 8.96722 292.955 9.99357C290.397 11.0199 287.287 11.5331 283.626 11.5331C281.297 11.5331 279.038 11.2267 276.847 10.614C274.657 10.0012 273.025 9.20466 271.953 8.22427C271.187 7.55025 270.551 6.60049 270.046 5.375C269.556 4.13419 269.311 2.89338 269.311 1.65258C269.311 1.49939 269.326 1.36152 269.357 1.23897C269.387 1.11642 269.403 1.03217 269.403 0.986215C269.586 0.618568 270.559 0.434744 272.321 0.434744H275.813ZM274.963 18.0129L277.031 18.3116C277.889 18.4495 278.464 18.6945 278.755 19.0469C279.046 19.3839 279.191 19.9507 279.191 20.7472V27.4338C279.191 29.0729 279.099 31.0184 278.915 33.2702C278.287 42.8444 277.973 49.8373 277.973 54.2491C277.973 64.4206 279.858 69.5064 283.626 69.5064C285.035 69.5064 286.383 68.6562 287.67 66.9559C288.543 65.7917 289.072 64.5049 289.256 63.0956C289.547 61.8395 289.738 60.0855 289.83 57.8336C290.136 53.1308 290.29 50.7181 290.29 50.5956L290.106 27.8015C290.106 27.6176 290.014 25.833 289.83 22.4476C289.769 21.8808 289.738 21 289.738 19.8051C289.738 18.4418 289.792 17.4767 289.899 16.9099C290.006 16.3431 290.213 15.9678 290.519 15.784C290.826 15.5849 291.346 15.4853 292.082 15.4853H297.16C301.066 15.4853 303.395 15.9525 304.145 16.8869C304.574 17.3312 304.789 18.1507 304.789 19.3456C304.789 19.7898 304.727 20.8851 304.605 22.6314C304.237 26.0322 304.053 31.1792 304.053 38.0726C304.053 42.9746 304.145 48.7114 304.329 55.2831C304.452 60.7059 304.513 64.1909 304.513 65.7381C304.513 69.5524 304.666 72.0953 304.972 73.3667L305.823 77.1351C305.96 77.4415 306.029 77.9393 306.029 78.6287C306.029 79.1955 305.907 79.5555 305.662 79.7086C305.417 79.8771 304.842 79.9614 303.938 79.9614H303.203C301.824 79.9614 300.002 80.084 297.734 80.329C296.846 80.4516 296.248 80.5129 295.942 80.5129C294.717 80.5129 293.843 80.1452 293.323 79.4099C292.817 78.69 292.342 77.1428 291.898 74.7684C291.852 74.4926 291.791 74.1863 291.714 73.8493C291.653 73.5123 291.561 73.0374 291.438 72.4246C288.926 75.3505 286.636 77.1351 284.568 77.7785C282.714 78.4066 280.516 78.7206 277.973 78.7206C275.262 78.7206 273.148 78.3989 271.631 77.7555C270.13 77.0968 268.889 75.9786 267.909 74.4007C266.653 72.4399 265.665 69.8894 264.945 66.7491C264.225 63.5934 263.865 60.2157 263.865 56.6158C263.865 56.9222 263.926 52.3113 264.049 42.7831L264.324 31.2022C264.401 25.9479 264.654 21.7123 265.083 18.4954C265.221 17.5457 265.573 16.8716 266.14 16.4733C266.706 16.0597 267.58 15.8529 268.759 15.8529C269.127 15.8529 269.403 15.8836 269.586 15.9449C271.517 16.144 272.803 16.458 273.447 16.8869L274.963 18.0129Z" fill="#161515"/>
<path d="M14.6691 146.209L21.1719 134.628L26.7096 125.965C28.3487 123.483 29.5512 121.737 30.3171 120.726C31.0984 119.715 31.7494 119.072 32.2702 118.796C32.8064 118.505 33.5264 118.359 34.4302 118.359C37.1569 118.359 39.5083 119.141 41.4844 120.703C42.4954 121.5 43.0009 122.189 43.0009 122.771C43.0009 123.399 41.9363 125.13 39.807 127.964C39.6232 128.209 36.8888 132.192 31.6039 139.913C30.3018 141.858 29.3903 143.145 28.8695 143.773C27.69 145.489 27.1002 146.676 27.1002 147.335C27.1002 147.901 27.2457 148.491 27.5368 149.104C27.8431 149.701 28.6703 151.057 30.0184 153.171L33.8787 159.398C35.1654 161.435 36.8275 164.315 38.8649 168.038C40.795 171.392 42.1737 173.935 43.0009 175.666C43.5677 176.938 43.8511 177.911 43.8511 178.585C43.8511 179.488 43.5141 180.331 42.8401 181.112C42.1661 181.893 41.3695 182.399 40.4504 182.629L38.3824 183.203L35.9467 183.961C35.8088 184.023 35.6173 184.053 35.3722 184.053C33.5034 184.053 31.2745 181.947 28.6857 177.734L25.5836 172.564C25.5224 172.442 25.1471 171.76 24.4577 170.519C23.7837 169.278 23.0025 167.793 22.114 166.062C20.5515 163.274 19.64 161.673 19.3796 161.259L16.1857 155.63L14.5772 152.711L14.4853 156.273L14.3015 162.96C14.1942 164.629 14.0947 169.432 14.0028 177.367V179.527C13.9568 181.135 13.7423 182.223 13.3594 182.79C12.9764 183.372 12.2488 183.663 11.1765 183.663C9.98162 183.663 8.76379 183.418 7.52298 182.927C5.66943 182.238 4.63542 181.893 4.42096 181.893C3.02697 181.572 1.9853 181.35 1.29596 181.227C0.54535 181.059 0.170044 180.43 0.170044 179.343V179.159C0.170044 179.236 0.185363 178.738 0.216 177.665C0.246637 176.593 0.261956 175.49 0.261956 174.357L0.353867 168.796L0.560669 131.71C0.560669 131.327 0.621943 130.139 0.744492 128.148C0.867041 125.345 1.0815 122.518 1.38787 119.669C1.49511 118.673 2.25338 118.176 3.66269 118.176C4.59713 118.176 5.53922 118.267 6.48898 118.451C7.8217 118.773 9.26165 119.026 10.8088 119.21C12.4632 119.439 13.5202 119.815 13.9798 120.335C14.4393 120.856 14.6691 121.921 14.6691 123.529V126.631L14.5772 131.066L14.3934 140.855L14.4853 143.957L14.6691 146.209Z" fill="#161515"/>
<path d="M79.4669 119.393C79.421 119.393 79.7656 119.455 80.5009 119.577C82.8906 119.914 85.1578 121.507 87.3024 124.357C89.447 127.191 91.155 130.806 92.4265 135.202C93.6979 139.599 94.3336 144.179 94.3336 148.943C94.3336 160.769 90.9789 170.741 84.2693 178.86C80.9145 182.95 77.4985 184.995 74.0211 184.995C72.8263 184.995 71.8842 184.965 71.1949 184.903C67.2273 184.597 64.1866 184.061 62.0726 183.295C59.9586 182.544 57.9749 181.258 56.1213 179.435C49.7947 173.2 46.6314 164.79 46.6314 154.205C46.6314 149.609 47.114 144.861 48.079 139.959C49.0441 135.041 50.3768 130.599 52.0772 126.631C53.5631 123.491 55.3554 120.918 57.454 118.911C59.3689 117.165 62.3484 116.291 66.3925 116.291C70.3906 116.291 73.2476 116.667 74.9632 117.417L79.4669 119.393ZM68.7362 174.449C69.6707 174.449 70.7047 173.866 71.8382 172.702C72.9718 171.538 73.9139 170.083 74.6645 168.336C77.4372 162.117 78.8235 155.4 78.8235 148.185C78.8235 142.011 77.69 136.275 75.4228 130.974C74.2586 128.202 73.0025 126.815 71.6544 126.815C70.7047 126.815 69.6094 127.612 68.3686 129.205C67.1278 130.798 66.0631 132.797 65.1746 135.202C62.7849 141.651 61.5901 148.552 61.5901 155.905C61.5901 158.984 61.9347 161.956 62.6241 164.821C63.3134 167.67 64.2172 169.991 65.3355 171.783C66.4537 173.56 67.5873 174.449 68.7362 174.449Z" fill="#161515"/>
<path d="M117.082 161.075L117.174 163.051L117.725 182.353C117.725 183.058 117.511 183.716 117.082 184.329C116.653 184.942 116.147 185.317 115.565 185.455C115.32 185.516 114.6 185.547 113.405 185.547C109.377 185.547 106.175 185.018 103.801 183.961C103.004 183.578 102.491 183.104 102.261 182.537C102.031 181.985 101.916 180.951 101.916 179.435C101.916 178.424 101.947 177.673 102.008 177.183C102.207 175.666 102.307 174.127 102.307 172.564V172.472L102.008 127.39V122.013C102.008 120.205 102.292 119.018 102.858 118.451C103.701 117.502 105.807 117.027 109.177 117.027C110.372 117.027 111.468 117.126 112.463 117.325C114.256 117.632 115.136 117.785 115.106 117.785H115.749C116.638 117.785 117.365 117.754 117.932 117.693C120.613 117.448 122.489 117.325 123.562 117.325C127.207 117.325 130.286 118.229 132.799 120.037C134.668 121.446 136.33 123.055 137.785 124.862C139.24 126.654 140.366 128.485 141.163 130.354C141.975 132.223 142.381 133.992 142.381 135.662C142.381 138.419 141.729 141.483 140.427 144.853C139.125 148.223 137.425 151.248 135.326 153.929C133.978 155.691 132.661 156.978 131.374 157.79C129.03 159.26 125.798 160.355 121.677 161.075C121.111 161.198 120.36 161.259 119.426 161.259C118.614 161.259 117.832 161.198 117.082 161.075ZM117.082 148.001C117.082 149.701 117.327 150.551 117.817 150.551C118.415 150.551 119.234 150.214 120.276 149.54C121.333 148.851 122.244 148.055 123.01 147.151C124.082 145.941 124.979 144.393 125.699 142.509C126.419 140.625 126.778 138.848 126.778 137.178C126.778 134.681 126.204 132.728 125.055 131.319C123.922 129.894 122.359 129.182 120.368 129.182C119.05 129.182 118.185 129.282 117.771 129.481C117.373 129.665 117.174 130.063 117.174 130.676V130.974L117.082 132.56V148.001Z" fill="#161515"/>
<path d="M162.44 154.297L162.165 159.674L161.797 181.043V182.445C161.797 183.517 161.322 184.053 160.372 184.053C160.28 184.053 160.127 184.038 159.913 184.007C159.698 183.977 159.537 183.961 159.43 183.961C158.45 183.701 157.446 183.571 156.42 183.571C153.601 183.479 151.817 183.356 151.066 183.203C150.086 183.019 149.458 182.361 149.182 181.227C148.738 179.756 148.516 177.336 148.516 173.966V169.462L148.906 128.699C148.952 126.54 149.182 124.778 149.596 123.415C150.025 122.051 150.545 121.369 151.158 121.369L155.386 121.278H155.96C158.565 121.278 160.349 121.714 161.314 122.587C161.805 123.001 162.149 123.752 162.348 124.839C162.486 125.666 162.555 128.684 162.555 133.892V144.508C162.555 145.136 162.9 145.45 163.589 145.45C164.309 145.45 165.749 145.267 167.909 144.899C168.721 140.181 169.456 136.558 170.115 134.03C170.789 131.503 171.685 129.006 172.803 126.54C174.075 123.537 175.829 120.964 178.065 118.819C179.919 117.073 182.906 116.199 187.027 116.199C191.147 116.199 193.997 116.575 195.574 117.325L200.101 119.21C200.27 119.301 200.614 119.393 201.135 119.485C203.571 119.822 205.846 121.4 207.96 124.219C210.089 127.022 211.789 130.645 213.061 135.087C214.332 139.53 214.968 144.118 214.968 148.851C214.968 160.677 211.613 170.65 204.904 178.768C203.096 180.944 201.403 182.506 199.825 183.456C198.248 184.421 196.547 184.903 194.724 184.903C193.545 184.903 192.572 184.865 191.806 184.789C187.9 184.513 184.905 183.992 182.822 183.226C180.754 182.46 178.762 181.166 176.847 179.343C175.147 177.734 173.646 175.82 172.344 173.598C171.088 171.546 170.138 169.677 169.494 167.992C168.866 166.307 168.399 164.384 168.093 162.224C167.786 160.064 167.534 157.047 167.335 153.171L162.44 154.297ZM189.462 174.357C190.351 174.357 191.354 173.775 192.472 172.61C193.591 171.431 194.533 169.975 195.299 168.244C198.117 161.826 199.527 155.078 199.527 148.001C199.527 141.72 198.37 135.976 196.057 130.767C194.893 128.071 193.637 126.723 192.289 126.723C191.354 126.723 190.259 127.52 189.003 129.113C187.762 130.691 186.72 132.659 185.878 135.018C183.442 141.498 182.224 148.43 182.224 155.813C182.224 158.892 182.569 161.864 183.258 164.729C183.948 167.593 184.851 169.914 185.97 171.691C187.103 173.468 188.267 174.357 189.462 174.357Z" fill="#161515"/>
<path d="M275.124 176.425C273.5 178.018 272.397 179.021 271.815 179.435C269.272 181.38 266.01 182.353 262.027 182.353C259.468 182.353 257.247 181.847 255.363 180.836C254 180.208 253.027 179.504 252.445 178.722C251.878 177.941 251.373 176.639 250.928 174.816C250.3 176.195 249.741 177.221 249.251 177.895C248.761 178.569 248.033 179.305 247.068 180.101C244.249 182.292 241.239 183.387 238.038 183.387C235.725 183.387 233.373 182.966 230.983 182.123C228.594 181.265 226.863 180.247 225.79 179.067C223.232 176.095 221.953 168.88 221.953 157.422C221.953 152.168 222.229 144.945 222.78 135.754C223.102 131.005 223.263 128.186 223.263 127.298C223.508 123.33 223.883 120.948 224.389 120.152C224.634 119.646 225.354 119.393 226.549 119.393C230.072 119.393 233.335 120.113 236.337 121.553C237.41 122.059 237.946 122.809 237.946 123.805C237.946 126.9 237.662 131.61 237.096 137.937C236.468 144.233 236.154 150.475 236.154 156.664C236.154 162.01 236.345 165.839 236.728 168.153C237.004 169.593 237.586 170.734 238.474 171.576C239.363 172.419 240.443 172.84 241.714 172.84C243.43 172.84 244.9 172.028 246.126 170.404C247.137 169.041 247.642 166.782 247.642 163.626L247.734 146.783L247.826 137.27C247.826 136.949 247.888 134.597 248.01 130.216C248.255 126.264 248.631 123.882 249.136 123.07C249.396 122.564 250.116 122.312 251.296 122.312C254.835 122.312 258.097 123.032 261.085 124.472C262.157 124.962 262.693 125.774 262.693 126.907V133.594C262.693 134.651 262.601 136.596 262.417 139.43C262.034 145.236 261.843 151.164 261.843 157.215C261.843 163.051 262.004 166.659 262.325 168.038C262.601 169.233 263.229 170.228 264.21 171.025C265.205 171.806 266.331 172.197 267.587 172.197C268.782 172.197 270.069 171.438 271.448 169.922C272.244 169.033 272.78 168.076 273.056 167.05C273.332 166.008 273.516 164.269 273.608 161.834L273.906 154.688L273.791 131.801C273.791 131.618 273.73 129.458 273.608 125.322C273.608 124.908 273.592 124.311 273.562 123.529C273.531 122.748 273.516 122.181 273.516 121.829C273.516 119.516 273.699 118.176 274.067 117.808C274.45 117.425 275.492 117.233 277.192 117.233C280.501 117.233 283.358 117.609 285.763 118.359C287.034 118.727 287.8 119.171 288.061 119.692C288.336 120.213 288.474 121.461 288.474 123.438C288.474 124.311 288.444 125 288.382 125.506C288.137 133.226 288.015 144.485 288.015 159.283L288.199 169.738L288.681 177.367L289.623 181.135C289.746 181.748 289.807 182.246 289.807 182.629C289.807 183.195 289.669 183.555 289.393 183.709C289.133 183.877 288.551 183.961 287.647 183.961H286.889C285.51 183.961 283.687 184.084 281.42 184.329C280.685 184.452 280.087 184.513 279.628 184.513C278.402 184.513 277.544 184.153 277.054 183.433C276.564 182.728 276.074 181.173 275.584 178.768C275.538 178.493 275.476 178.186 275.4 177.849C275.339 177.512 275.247 177.037 275.124 176.425Z" fill="#161515"/>
<path d="M314.21 146.209L320.712 134.628L326.25 125.965C327.889 123.483 329.092 121.737 329.858 120.726C330.639 119.715 331.29 119.072 331.811 118.796C332.347 118.505 333.067 118.359 333.971 118.359C336.697 118.359 339.049 119.141 341.025 120.703C342.036 121.5 342.541 122.189 342.541 122.771C342.541 123.399 341.477 125.13 339.347 127.964C339.164 128.209 336.429 132.192 331.144 139.913C329.842 141.858 328.931 143.145 328.41 143.773C327.23 145.489 326.641 146.676 326.641 147.335C326.641 147.901 326.786 148.491 327.077 149.104C327.384 149.701 328.211 151.057 329.559 153.171L333.419 159.398C334.706 161.435 336.368 164.315 338.405 168.038C340.335 171.392 341.714 173.935 342.541 175.666C343.108 176.938 343.392 177.911 343.392 178.585C343.392 179.488 343.055 180.331 342.381 181.112C341.707 181.893 340.91 182.399 339.991 182.629L337.923 183.203L335.487 183.961C335.349 184.023 335.158 184.053 334.913 184.053C333.044 184.053 330.815 181.947 328.226 177.734L325.124 172.564C325.063 172.442 324.688 171.76 323.998 170.519C323.324 169.278 322.543 167.793 321.654 166.062C320.092 163.274 319.18 161.673 318.92 161.259L315.726 155.63L314.118 152.711L314.026 156.273L313.842 162.96C313.735 164.629 313.635 169.432 313.543 177.367V179.527C313.497 181.135 313.283 182.223 312.9 182.79C312.517 183.372 311.789 183.663 310.717 183.663C309.522 183.663 308.304 183.418 307.063 182.927C305.21 182.238 304.176 181.893 303.961 181.893C302.567 181.572 301.526 181.35 300.836 181.227C300.086 181.059 299.71 180.43 299.71 179.343V179.159C299.71 179.236 299.726 178.738 299.756 177.665C299.787 176.593 299.802 175.49 299.802 174.357L299.894 168.796L300.101 131.71C300.101 131.327 300.162 130.139 300.285 128.148C300.407 125.345 300.622 122.518 300.928 119.669C301.036 118.673 301.794 118.176 303.203 118.176C304.138 118.176 305.08 118.267 306.029 118.451C307.362 118.773 308.802 119.026 310.349 119.21C312.004 119.439 313.061 119.815 313.52 120.335C313.98 120.856 314.21 121.921 314.21 123.529V126.631L314.118 131.066L313.934 140.855L314.026 143.957L314.21 146.209Z" fill="#161515"/>
<path d="M358.971 122.013L361.039 122.312C361.896 122.449 362.471 122.695 362.762 123.047C363.053 123.384 363.199 123.951 363.199 124.747V131.434C363.199 133.073 363.107 135.018 362.923 137.27C362.295 146.844 361.981 153.837 361.981 158.249C361.981 168.421 363.865 173.506 367.633 173.506C369.043 173.506 370.391 172.656 371.677 170.956C372.551 169.792 373.079 168.505 373.263 167.096C373.554 165.839 373.745 164.085 373.837 161.834C374.144 157.131 374.297 154.718 374.297 154.596L374.113 131.801C374.113 131.495 374.052 129.335 373.929 125.322C373.868 124.51 373.837 123.346 373.837 121.829C373.837 119.516 374.021 118.176 374.389 117.808C374.772 117.425 375.813 117.233 377.514 117.233C380.746 117.233 383.595 117.609 386.062 118.359C387.302 118.727 388.068 119.179 388.359 119.715C388.65 120.251 388.796 121.492 388.796 123.438C388.796 123.652 388.781 123.981 388.75 124.426C388.719 124.87 388.704 125.23 388.704 125.506C388.459 133.226 388.336 144.485 388.336 159.283L388.52 169.738L388.98 177.367L389.83 181.135C389.968 181.441 390.037 181.939 390.037 182.629C390.037 183.195 389.914 183.555 389.669 183.709C389.424 183.877 388.85 183.961 387.946 183.961H387.21C385.832 183.961 384.009 184.084 381.742 184.329C380.853 184.452 380.256 184.513 379.949 184.513C378.724 184.513 377.851 184.145 377.33 183.41C376.824 182.69 376.35 181.143 375.905 178.768C375.859 178.493 375.798 178.186 375.721 177.849C375.66 177.512 375.568 177.037 375.446 176.425C372.934 179.35 370.643 181.135 368.575 181.778C366.722 182.407 364.524 182.721 361.981 182.721C359.269 182.721 357.155 182.399 355.639 181.756C354.138 181.097 352.897 179.979 351.916 178.401C350.66 176.44 349.672 173.889 348.952 170.749C348.232 167.593 347.872 164.216 347.872 160.616C347.872 160.922 347.934 156.311 348.056 146.783L348.332 135.202C348.408 129.948 348.661 125.712 349.09 122.495C349.228 121.546 349.58 120.872 350.147 120.473C350.714 120.06 351.587 119.853 352.767 119.853C353.134 119.853 353.41 119.884 353.594 119.945C355.524 120.144 356.811 120.458 357.454 120.887L358.971 122.013Z" fill="#161515"/>
</svg>
