<svg width="813" height="103" viewBox="0 0 813 103" fill="none" xmlns="http://www.w3.org/2000/svg">
<path d="M37.3484 71.7351C38.1022 67.4437 38.6918 64.3605 39.1171 62.4855C39.1364 62.4275 39.2524 61.9056 39.465 60.9197C39.697 59.9145 40.0256 58.6097 40.4509 57.0053C41.7847 51.3222 43.4471 43.0488 45.4381 32.1851C46.3273 27.4878 46.9556 24.4046 47.3228 22.9355C47.4581 22.4329 47.5741 21.9303 47.6708 21.4277C47.7674 20.9251 47.8544 20.5579 47.9317 20.3259C48.3183 18.1222 48.6663 16.6241 48.9756 15.8316C49.3042 15.039 49.7971 14.5268 50.4544 14.2948C51.1309 14.0435 52.3004 13.9179 53.9628 13.9179C54.2141 13.9179 54.6007 13.9372 55.1226 13.9759C55.6446 14.0145 56.0118 14.0339 56.2245 14.0339L58.8341 14.1498L66.083 16.5275L72.259 17.1074C73.1676 17.1654 73.9311 17.552 74.5497 18.2672C75.1683 18.9824 75.4775 19.7847 75.4775 20.6739V21.0218C75.4002 21.737 75.3616 22.2976 75.3616 22.7035L75.8255 89.7993C75.8255 90.6692 75.7868 91.5777 75.7095 92.5249C75.6709 92.9115 75.6322 93.6268 75.5935 94.6706C75.5549 95.6951 75.5162 96.449 75.4775 96.9322C75.4775 98.1114 75.3519 98.8943 75.1006 99.2809C74.8686 99.6868 74.3564 99.8898 73.5638 99.8898C73.3125 99.8898 72.723 99.8125 71.7951 99.6578C71.5051 99.6192 71.0122 99.5805 70.3163 99.5418C69.6204 99.5032 69.0792 99.4645 68.6926 99.4259C61.5403 99.2132 57.7806 97.7055 57.4133 94.9026L57.5293 91.4521L57.6453 88.7265L58.8341 47.5238L58.9791 43.0005L59.443 35.6356L59.559 33.9828C58.9211 34.3694 58.5635 34.6497 58.4861 34.8237L56.2245 43.8413L53.1509 56.3094L46.018 88.8425C45.5928 90.9108 44.085 91.945 41.4947 91.945C40.3929 91.945 39.3297 91.742 38.3052 91.3361L36.3915 90.5242L30.3314 88.9585C29.6355 88.7265 29.1619 88.4172 28.9106 88.0306C28.698 87.5667 28.4274 86.3779 28.0988 84.4641L21.1978 53.4679L19.893 46.7989L18.7042 41.1157L18.4722 39.55L17.6314 39.666V61.5286L18.3562 92.7569L18.5882 96.7003V97.2802C18.5882 99.5032 17.989 100.615 16.7905 100.615C16.6358 100.615 16.5199 100.576 16.4425 100.499L13.601 99.6578L7.54089 99.5418C4.66066 99.4259 2.56331 98.1597 1.24885 95.7434L0.755922 94.9026L0.407975 87.4217L0.291992 78.2881L1.36483 24.1243C1.36483 23.7377 1.44215 22.9065 1.59679 21.6307C1.59679 20.9928 1.67412 20.5965 1.82876 20.4419C2.29269 19.8813 3.55883 19.601 5.62718 19.601C6.72901 19.601 7.68587 19.7267 8.49774 19.978L10.3825 20.4419C10.6531 20.4419 11.233 20.4999 12.1222 20.6159C13.0114 20.7318 13.7363 20.7898 14.2969 20.7898C15.7273 20.7898 16.8775 20.7512 17.7473 20.6739C18.4626 20.5965 19.5741 20.5579 21.0818 20.5579C24.426 20.5579 26.6973 20.9348 27.8958 21.6887C29.0943 22.4426 29.8675 24.0083 30.2154 26.386L33.318 44.4212L35.5796 58.0782L37.3484 71.7351Z" fill="#161515"/>
<path d="M89.8617 85.653L98.4154 82.8984C98.57 82.8211 98.802 82.7824 99.1113 82.7824C100.754 82.7824 101.711 83.7006 101.982 85.537C102.156 87.296 102.378 88.4075 102.649 88.8715C102.939 89.3354 103.509 89.5674 104.359 89.5674C105.365 89.5674 106.157 89.2871 106.737 88.7265C107.317 88.1659 107.868 87.1801 108.39 85.7689C108.95 84.2612 109.424 82.3475 109.811 80.0278C110.197 77.7082 110.391 75.7365 110.391 74.1127C110.391 72.2957 109.124 71.3871 106.592 71.3871H105.403C100.803 72.025 97.4778 72.344 95.4288 72.344C94.327 72.344 93.3025 72.1024 92.3553 71.6191C91.6207 71.2518 91.1181 70.8652 90.8475 70.4593C90.5962 70.034 90.3836 69.2318 90.2096 68.0526L84.5265 32.91L82.8447 24.9652C82.6128 24.018 82.4968 22.9838 82.4968 21.8627C82.4968 20.6835 82.5355 20.007 82.6128 19.833L83.0767 18.7891C83.4633 17.7453 84.2172 17.2234 85.3384 17.2234C85.7443 17.2234 86.0246 17.262 86.1792 17.3394C86.4112 17.436 86.6915 17.523 87.0201 17.6003C88.006 17.9869 89.8617 18.1802 92.5873 18.1802C92.6646 18.1802 92.7806 18.1609 92.9352 18.1222C93.0899 18.0836 93.2155 18.0643 93.3121 18.0643C95.6318 18.0643 97.5842 19.3497 99.1693 21.9207C100.754 24.4916 101.808 28.1161 102.33 32.794L103.867 45.726C104.562 52.2017 105.239 56.0871 105.896 57.3823C106.206 57.9622 106.66 58.4454 107.259 58.832C107.858 59.1993 108.429 59.383 108.97 59.383H112.188C113.464 59.383 114.257 59.3056 114.566 59.151C115.088 58.7451 115.523 57.7979 115.871 56.3094L116.944 52.279C117.234 50.9839 117.987 47.1758 119.205 40.8548L120.742 31.9531C120.974 30.3101 121.332 27.9324 121.815 24.8202C122.414 20.4709 123.999 18.2962 126.57 18.2962C127.343 18.2962 128.049 18.3349 128.687 18.4122L134.863 19.1371C136.448 19.3111 137.811 19.9876 138.951 21.1668C140.111 22.3266 140.691 23.6314 140.691 25.0812C140.691 26.009 140.14 27.7488 139.038 30.3004C139 30.4744 138.874 30.7933 138.661 31.2572L127.266 74.2287C126.357 77.8048 125.681 81.0523 125.236 83.9712C124.714 88.0499 124.299 90.6982 123.989 91.916C123.7 93.1145 123.168 94.3903 122.395 95.7434C121.602 97.2319 120.375 98.498 118.712 99.5418C117.494 100.315 116.054 100.827 114.392 101.079C112.749 101.33 109.878 101.485 105.78 101.543L102.678 101.688H101.373C97.3522 101.688 94.0757 101.34 91.5434 100.644C89.0111 99.9671 87.542 99.0006 87.1361 97.7441L86.1792 94.4386L84.8744 91.2201C84.7198 90.7562 84.6425 90.4372 84.6425 90.2633C84.6425 89.9733 84.7198 89.4224 84.8744 88.6105C85.377 87.296 86.0439 86.5035 86.8751 86.2329L89.8617 85.653Z" fill="#161515"/>
<path d="M141.621 90.5242L140.316 87.4217C140.239 87.1897 140.2 86.8321 140.2 86.3489C140.2 85.3243 140.471 84.4158 141.012 83.6233C141.476 83.0627 141.95 82.6664 142.433 82.4345C142.607 82.3571 143.602 82.1155 145.42 81.7096L152.552 80.4048C152.707 80.3274 152.939 80.2888 153.248 80.2888C154.176 80.2888 154.843 80.4821 155.249 80.8687C155.655 81.236 155.974 81.9609 156.206 83.0434L156.931 86.1169C156.931 86.3102 157.288 86.6292 158.004 87.0737C158.758 87.383 159.589 87.5377 160.497 87.5377C162.372 87.5377 164.276 87.0254 166.209 86.0009C168.22 84.8797 169.824 83.4976 171.023 81.8545C172.24 80.2115 172.849 78.5877 172.849 76.9833C172.849 75.0502 172.134 73.3008 170.704 71.7351C169.312 70.1113 167.688 68.7389 165.832 67.6177C163.996 66.4965 162.411 65.936 161.077 65.936L156.815 65.82C154.92 65.82 153.973 64.6312 153.973 62.2535C153.973 62.1762 153.993 62.0312 154.031 61.8186C154.07 61.606 154.089 61.4706 154.089 61.4127L154.553 58.8031L154.089 55.3526V55.0046C154.089 54.444 154.205 53.9318 154.437 53.4679C155.152 52.6173 155.79 52.1341 156.351 52.0181C156.583 51.9408 157.685 51.9021 159.656 51.9021C163.232 51.9021 166.441 50.0464 169.283 46.3349C170.791 44.4599 171.545 42.5945 171.545 40.7388C171.545 38.8638 171.197 37.095 170.501 35.4326C169.824 33.7702 168.925 32.4461 167.804 31.4602C166.683 30.455 165.475 29.9524 164.18 29.9524C162.324 29.9524 160.72 30.4164 159.366 31.3442C158.033 32.2528 157.337 33.3643 157.279 34.6787L157.163 38.0132C157.047 39.2117 156.38 39.8109 155.162 39.8109C154.775 39.8109 154.215 39.724 153.48 39.55C151.818 39.2407 149.324 39.0861 145.999 39.0861C145.767 39.1634 145.41 39.202 144.927 39.202C141.93 39.202 140.432 38.4095 140.432 36.8244C140.432 36.4378 140.548 35.6452 140.78 34.4468L142.201 29.2276C142.723 27.1592 143.873 25.3615 145.652 23.8344C147.43 22.2879 149.73 21.0991 152.552 20.2679C155.394 19.4367 158.555 19.0211 162.034 19.0211C164.373 19.0211 166.905 19.1371 169.631 19.3691C172.376 19.601 174.396 19.9393 175.691 20.3839C177.005 20.8285 178.272 21.6017 179.489 22.7035C181.364 24.4046 183.036 26.328 184.506 28.4737C185.994 30.6193 187.154 32.7553 187.985 34.8817C188.816 37.008 189.232 38.9217 189.232 40.6228C189.232 43.2904 188.401 45.8614 186.738 48.3356C185.095 50.7906 182.872 52.801 180.069 54.3667C177.286 55.9132 174.328 56.754 171.197 56.8893C170.481 56.8893 170.124 57.0923 170.124 57.4982C170.124 57.7689 170.433 57.9622 171.052 58.0782L174.502 58.5711C177.595 59.0157 180.388 60.2045 182.882 62.1375C185.375 64.0513 187.309 66.4869 188.681 69.4444C190.073 72.3826 190.769 75.5625 190.769 78.984C190.769 82.0382 190.372 84.4545 189.58 86.2329C188.71 88.2432 187.183 90.2149 184.999 92.148C182.814 94.081 180.543 95.4341 178.185 96.2074C175.227 97.2512 171.467 98.1597 166.905 98.9329C160.43 100.054 156.08 100.615 153.857 100.615C151.499 100.615 149.199 100.17 146.956 99.2809C144.714 98.3917 143.448 97.4058 143.158 96.3233L141.621 90.5242Z" fill="#161515"/>
<path d="M204.66 99.6578L199.093 97.0482C197.894 96.507 197.295 93.4528 197.295 87.8856C197.295 86.0106 197.372 82.1348 197.527 76.2584C198.319 54.5697 198.716 40.0429 198.716 32.678C198.716 29.5852 198.677 27.4105 198.6 26.154C198.522 25.2648 198.484 24.192 198.484 22.9355C198.484 21.3504 198.793 20.0456 199.412 19.0211C200.05 17.9966 200.852 17.4843 201.818 17.4843C201.876 17.4843 202.012 17.5037 202.224 17.5423C202.437 17.581 202.62 17.6003 202.775 17.6003L206.197 18.2962C206.912 18.4509 207.907 18.5282 209.183 18.5282C210.401 18.5282 212.025 18.4122 214.054 18.1802L229.48 16.2955H229.857C230.862 16.2955 231.887 16.9238 232.931 18.1802C235.231 20.8285 236.381 24.1533 236.381 28.1547C236.381 29.0053 236.217 29.6432 235.888 30.0684C235.811 30.2231 235.617 30.3777 235.308 30.5324C234.902 30.8416 234.467 30.9963 234.003 30.9963C233.733 31.1123 230.485 31.5569 224.261 32.3301L218.317 33.026L216.78 33.2579C216.645 35.6356 216.529 37.298 216.432 38.2452C216.181 41.0674 216.055 43.4451 216.055 45.3781C216.055 46.9245 216.132 47.8717 216.287 48.2197C216.461 48.5483 216.906 48.7126 217.621 48.7126C218.123 48.7126 219.351 48.5869 221.303 48.3356L227.711 47.6397C229.296 47.4851 230.282 47.4078 230.669 47.4078C234.284 47.4078 236.265 50.0174 236.613 55.2366C236.768 57.7882 236.845 58.8997 236.845 58.5711C236.922 58.9577 236.961 59.5086 236.961 60.2238C236.961 61.229 236.835 61.9056 236.584 62.2535C236.333 62.6015 235.791 62.8334 234.96 62.9494L229.973 63.4423C229.451 63.4423 225.691 63.8773 218.694 64.7471C218.056 64.7471 217.022 64.8631 215.591 65.0951V68.3136L215.475 81.2456C215.475 82.9081 215.987 83.7393 217.012 83.7393C217.321 83.7393 218.114 83.6619 219.39 83.5073C224.261 82.6181 228.262 82.0672 231.394 81.8545H231.858C232.708 81.8545 233.462 82.1252 234.119 82.6664C235.221 83.4396 236.13 84.3578 236.845 85.421C237.56 86.4648 237.918 87.412 237.918 88.2626C237.918 88.7265 237.879 89.2387 237.802 89.7993C237.724 90.2826 237.686 91.1138 237.686 92.293C237.686 93.5688 237.724 94.3613 237.802 94.6706C237.956 95.4438 238.034 95.9561 238.034 96.2074C238.034 96.6133 237.676 97.0096 236.961 97.3962L228.9 98.353L218.926 99.7738L215.011 100.122C210.565 100.605 208.023 100.847 207.385 100.847C206.902 100.847 206.467 100.731 206.081 100.499L204.66 99.6578Z" fill="#161515"/>
<path d="M261.03 0.144978L264.335 0C265.128 0 265.65 0.521921 265.901 1.56576C266.732 4.96791 268.984 6.66898 272.657 6.66898C275.614 6.66898 277.277 5.4415 277.644 2.98655C277.876 2.03936 277.992 1.47877 277.992 1.3048C278.05 1.22748 278.118 1.13083 278.195 1.01485C278.272 0.898863 278.33 0.802211 278.369 0.72489C278.968 0.24163 280.234 0 282.167 0C283.25 0 284.439 0.125648 285.734 0.376943C285.908 0.396273 286.207 0.434934 286.633 0.492925C287.077 0.531586 287.367 0.570247 287.503 0.608907C288.643 0.666898 289.378 0.782881 289.706 0.956854C290.054 1.13083 290.228 1.48844 290.228 2.02969C290.228 3.44081 289.793 5.06456 288.923 6.90095C287.995 9.14327 285.908 10.912 282.66 12.2071C279.432 13.5023 275.508 14.1498 270.888 14.1498C267.95 14.1498 265.099 13.7632 262.334 12.99C259.57 12.2168 257.511 11.2116 256.158 9.97448C255.192 9.12394 254.39 7.92546 253.752 6.37903C253.133 4.81327 252.824 3.24751 252.824 1.68174C252.824 1.48844 252.843 1.31447 252.882 1.15982C252.92 1.00518 252.94 0.898863 252.94 0.840872C253.172 0.376943 254.399 0.144978 256.622 0.144978H261.03ZM259.957 22.3266L262.566 22.7035C263.649 22.8775 264.374 23.1868 264.741 23.6314C265.108 24.0567 265.292 24.7719 265.292 25.7771V34.2148C265.292 36.2831 265.176 38.7381 264.944 41.5797C264.151 53.6612 263.755 62.4855 263.755 68.0526C263.755 80.888 266.133 87.3057 270.888 87.3057C272.666 87.3057 274.368 86.2329 275.991 84.0872C277.093 82.6181 277.76 80.9943 277.992 79.2159C278.359 77.6309 278.601 75.4175 278.717 72.576C279.103 66.6415 279.297 63.597 279.297 63.4423L279.065 34.6787C279.065 34.4468 278.949 32.1948 278.717 27.9228C278.64 27.2075 278.601 26.096 278.601 24.5883C278.601 22.8679 278.669 21.65 278.804 20.9348C278.939 20.2196 279.2 19.746 279.587 19.514C279.973 19.2627 280.631 19.1371 281.558 19.1371H287.966C292.896 19.1371 295.834 19.7267 296.781 20.9058C297.322 21.4664 297.593 22.5006 297.593 24.0083C297.593 24.5689 297.516 25.951 297.361 28.1547C296.897 32.4461 296.665 38.9411 296.665 47.6397C296.665 53.8255 296.781 61.0647 297.013 69.3574C297.168 76.2004 297.245 80.5981 297.245 82.5504C297.245 87.3637 297.438 90.5725 297.825 92.177L298.898 96.9322C299.072 97.3188 299.159 97.9471 299.159 98.817C299.159 99.5322 299.004 99.9864 298.695 100.18C298.386 100.392 297.661 100.499 296.52 100.499H295.592C293.853 100.499 291.552 100.653 288.691 100.963C287.57 101.117 286.816 101.195 286.43 101.195C284.883 101.195 283.781 100.731 283.124 99.8028C282.486 98.8943 281.887 96.9419 281.326 93.9457C281.268 93.5978 281.191 93.2111 281.095 92.7859C281.017 92.3606 280.901 91.7614 280.747 90.9882C277.576 94.6803 274.686 96.9323 272.077 97.7441C269.738 98.5367 266.964 98.9329 263.755 98.9329C260.334 98.9329 257.666 98.527 255.752 97.7151C253.858 96.8839 252.292 95.4728 251.055 93.4818C249.47 91.0075 248.223 87.789 247.315 83.8262C246.406 79.8442 245.952 75.5818 245.952 71.0392C245.952 71.4258 246.029 65.6073 246.184 53.5838L246.532 38.9701C246.628 32.3397 246.947 26.9949 247.489 22.9355C247.663 21.737 248.107 20.8865 248.822 20.3839C249.538 19.862 250.639 19.601 252.128 19.601C252.592 19.601 252.94 19.6397 253.172 19.717C255.607 19.9683 257.231 20.3646 258.043 20.9058L259.957 22.3266Z" fill="#161515"/>
<path d="M353.559 52.859L361.765 38.2452L368.753 27.3138C370.821 24.1823 372.339 21.9787 373.305 20.7028C374.291 19.427 375.113 18.6152 375.77 18.2672C376.446 17.8999 377.355 17.7163 378.495 17.7163C381.936 17.7163 384.903 18.7022 387.397 20.6739C388.673 21.679 389.311 22.5489 389.311 23.2835C389.311 24.076 387.967 26.2603 385.28 29.8365C385.048 30.1457 381.598 35.1716 374.929 44.9142C373.286 47.3691 372.136 48.9929 371.478 49.7854C369.99 51.9504 369.246 53.4485 369.246 54.2797C369.246 54.995 369.429 55.7392 369.797 56.5124C370.183 57.2663 371.227 58.977 372.928 61.6446L377.799 69.5024C379.423 72.0734 381.521 75.7075 384.091 80.4048C386.527 84.6381 388.267 87.847 389.311 90.0313C390.026 91.6357 390.384 92.8632 390.384 93.7137C390.384 94.8542 389.958 95.9174 389.108 96.9033C388.257 97.8891 387.252 98.527 386.092 98.817L383.483 99.5418L380.409 100.499C380.235 100.576 379.993 100.615 379.684 100.615C377.326 100.615 374.513 97.9568 371.246 92.6409L367.332 86.1169C367.255 85.9622 366.781 85.1021 365.911 83.5363C365.061 81.9705 364.075 80.0955 362.954 77.9111C360.982 74.393 359.832 72.373 359.503 71.8511L355.473 64.7471L353.443 61.0647L353.327 65.559L353.095 73.9967C352.96 76.1037 352.834 82.1638 352.718 92.177V94.9026C352.66 96.9323 352.39 98.3047 351.906 99.0199C351.423 99.7545 350.505 100.122 349.152 100.122C347.644 100.122 346.107 99.8125 344.542 99.1939C342.203 98.324 340.898 97.8891 340.627 97.8891C338.868 97.4832 337.554 97.2029 336.684 97.0482C335.737 96.8356 335.263 96.0431 335.263 94.6706V94.4386C335.263 94.5353 335.282 93.907 335.321 92.5539C335.36 91.2008 335.379 89.809 335.379 88.3785L335.495 81.3616L335.756 34.5627C335.756 34.0795 335.833 32.5814 335.988 30.0684C336.142 26.531 336.413 22.9645 336.8 19.3691C336.935 18.1126 337.892 17.4843 339.67 17.4843C340.849 17.4843 342.038 17.6003 343.237 17.8323C344.918 18.2382 346.736 18.5572 348.688 18.7891C350.776 19.0791 352.109 19.5527 352.689 20.2099C353.269 20.8672 353.559 22.2106 353.559 24.2403V28.1547L353.443 33.7509L353.211 46.103L353.327 50.0174L353.559 52.859Z" fill="#161515"/>
<path d="M432.951 19.0211C432.893 19.0211 433.328 19.0984 434.256 19.2531C437.272 19.6783 440.133 21.6887 442.839 25.2842C445.545 28.8603 447.7 33.4222 449.305 38.9701C450.909 44.5179 451.712 50.2977 451.712 56.3094C451.712 71.2325 447.478 83.8166 439.011 94.0617C434.778 99.2229 430.467 101.804 426.079 101.804C424.572 101.804 423.383 101.765 422.513 101.688C417.506 101.301 413.669 100.624 411.002 99.6578C408.334 98.7106 405.831 97.0869 403.492 94.7866C395.508 86.9191 391.517 76.3067 391.517 62.9494C391.517 57.1503 392.126 51.1579 393.343 44.9722C394.561 38.7671 396.243 33.1613 398.389 28.1547C400.264 24.192 402.525 20.9445 405.174 18.4122C407.59 16.2085 411.35 15.1067 416.453 15.1067C421.498 15.1067 425.103 15.5803 427.268 16.5275L432.951 19.0211ZM419.41 88.4945C420.59 88.4945 421.894 87.76 423.325 86.2909C424.755 84.8218 425.944 82.9854 426.891 80.7817C430.39 72.9336 432.139 64.4572 432.139 55.3526C432.139 47.5624 430.709 40.3232 427.848 33.6349C426.379 30.1361 424.794 28.3867 423.093 28.3867C421.894 28.3867 420.512 29.3919 418.947 31.4022C417.381 33.4126 416.037 35.9352 414.916 38.9701C411.901 47.1082 410.393 55.8165 410.393 65.0951C410.393 68.9805 410.828 72.7306 411.698 76.3454C412.567 79.9408 413.708 82.8694 415.119 85.131C416.53 87.3734 417.961 88.4945 419.41 88.4945Z" fill="#161515"/>
<path d="M478.042 71.6191L478.158 74.1127L478.854 98.469C478.854 99.3582 478.583 100.189 478.042 100.963C477.501 101.736 476.863 102.209 476.128 102.383C475.819 102.461 474.91 102.499 473.403 102.499C468.319 102.499 464.279 101.832 461.282 100.499C460.277 100.015 459.63 99.4162 459.34 98.701C459.05 98.0051 458.905 96.7003 458.905 94.7866C458.905 93.5108 458.943 92.5636 459.021 91.945C459.272 90.0313 459.398 88.0886 459.398 86.1169V86.0009L459.021 29.1116V22.3266C459.021 20.0456 459.378 18.5475 460.094 17.8323C461.157 16.6338 463.815 16.0346 468.067 16.0346C469.575 16.0346 470.957 16.1602 472.214 16.4115C474.475 16.7981 475.587 16.9914 475.548 16.9914H476.36C477.481 16.9914 478.399 16.9528 479.115 16.8754C482.497 16.5661 484.865 16.4115 486.219 16.4115C490.819 16.4115 494.705 17.552 497.875 19.833C500.233 21.6114 502.33 23.6411 504.167 25.9221C506.003 28.1837 507.424 30.4937 508.429 32.852C509.454 35.2103 509.966 37.443 509.966 39.55C509.966 43.0294 509.144 46.8955 507.501 51.1482C505.858 55.4009 503.713 59.2187 501.064 62.6015C499.363 64.8245 497.701 66.4482 496.077 67.4727C493.12 69.3285 489.041 70.7106 483.841 71.6191C483.126 71.7737 482.179 71.8511 480.999 71.8511C479.975 71.8511 478.989 71.7737 478.042 71.6191ZM478.042 55.1206C478.042 57.2663 478.351 58.3391 478.97 58.3391C479.724 58.3391 480.758 57.9138 482.072 57.0633C483.406 56.1934 484.556 55.1883 485.523 54.0478C486.876 52.5207 488.007 50.5683 488.915 48.1907C489.824 45.813 490.278 43.5707 490.278 41.4637C490.278 38.3128 489.553 35.8482 488.103 34.0698C486.673 32.2721 484.701 31.3732 482.188 31.3732C480.526 31.3732 479.434 31.4989 478.912 31.7502C478.409 31.9821 478.158 32.4847 478.158 33.2579V33.6349L478.042 35.6356V55.1206Z" fill="#161515"/>
<path d="M532.904 63.0654L532.556 69.8504L532.092 96.8163V98.585C532.092 99.9381 531.493 100.615 530.294 100.615C530.178 100.615 529.985 100.595 529.714 100.557C529.444 100.518 529.241 100.499 529.105 100.499C527.868 100.17 526.602 100.006 525.307 100.006C521.75 99.8898 519.498 99.7352 518.551 99.5418C517.314 99.3099 516.521 98.4787 516.173 97.0482C515.613 95.1925 515.333 92.1383 515.333 87.8856V82.2025L515.825 30.7643C515.883 28.0387 516.173 25.8157 516.695 24.0953C517.237 22.3749 517.894 21.5147 518.667 21.5147L524.002 21.3987H524.727C528.013 21.3987 530.265 21.9497 531.483 23.0515C532.102 23.5734 532.537 24.5206 532.788 25.8931C532.962 26.9369 533.049 30.745 533.049 37.3173V50.7133C533.049 51.5058 533.484 51.9021 534.354 51.9021C535.262 51.9021 537.079 51.6701 539.805 51.2062C540.829 45.2524 541.757 40.6808 542.588 37.4913C543.439 34.3018 544.57 31.1509 545.981 28.0387C547.585 24.25 549.799 21.0025 552.621 18.2962C554.96 16.0926 558.729 14.9907 563.929 14.9907C569.129 14.9907 572.724 15.4643 574.715 16.4115L580.428 18.7891C580.64 18.9051 581.075 19.0211 581.732 19.1371C584.806 19.5624 587.676 21.5534 590.344 25.1102C593.031 28.6476 595.177 33.2193 596.781 38.8251C598.385 44.4309 599.188 50.2204 599.188 56.1934C599.188 71.1165 594.954 83.7006 586.488 93.9457C584.207 96.6906 582.071 98.6623 580.08 99.8608C578.089 101.079 575.943 101.688 573.643 101.688C572.154 101.688 570.927 101.639 569.96 101.543C565.031 101.195 561.252 100.537 558.623 99.5708C556.013 98.6043 553.5 96.9709 551.084 94.6706C548.938 92.6409 547.044 90.2246 545.401 87.4217C543.816 84.8314 542.617 82.4731 541.805 80.3468C541.013 78.2204 540.423 75.7945 540.037 73.0689C539.65 70.3433 539.331 66.5352 539.08 61.6446L532.904 63.0654ZM567.003 88.3785C568.124 88.3785 569.39 87.644 570.801 86.1749C572.212 84.6864 573.401 82.8501 574.367 80.6657C577.924 72.5663 579.703 64.0512 579.703 55.1206C579.703 47.1951 578.243 39.9463 575.324 33.3739C573.855 29.9718 572.27 28.2707 570.569 28.2707C569.39 28.2707 568.008 29.2759 566.423 31.2862C564.857 33.2773 563.542 35.7612 562.479 38.7381C559.406 46.9149 557.869 55.6619 557.869 64.9791C557.869 68.8645 558.304 72.6146 559.174 76.2294C560.044 79.8442 561.184 82.7727 562.595 85.0151C564.026 87.2574 565.495 88.3785 567.003 88.3785Z" fill="#161515"/>
<path d="M672.723 90.9882C670.674 92.9985 669.282 94.2647 668.547 94.7866C665.339 97.2415 661.221 98.469 656.195 98.469C652.967 98.469 650.164 97.8311 647.787 96.5553C646.066 95.7628 644.839 94.8736 644.104 93.8877C643.389 92.9019 642.751 91.2588 642.19 88.9585C641.398 90.6982 640.692 91.9933 640.074 92.8439C639.455 93.6944 638.537 94.6223 637.319 95.6274C633.762 98.3917 629.964 99.7738 625.924 99.7738C623.005 99.7738 620.038 99.2422 617.022 98.1791C614.007 97.0965 611.822 95.8111 610.469 94.3226C607.241 90.5725 605.627 81.4679 605.627 67.0088C605.627 60.3785 605.975 51.2642 606.671 39.666C607.077 33.6735 607.28 30.1167 607.28 28.9956C607.589 23.989 608.063 20.9831 608.701 19.978C609.01 19.3401 609.918 19.0211 611.426 19.0211C615.872 19.0211 619.99 19.9296 623.778 21.7467C625.131 22.3846 625.808 23.3318 625.808 24.5883C625.808 28.493 625.45 34.4371 624.735 42.4205C623.943 50.3653 623.546 58.2425 623.546 66.0519C623.546 72.7983 623.788 77.6308 624.271 80.5497C624.619 82.3668 625.354 83.8069 626.475 84.8701C627.596 85.9333 628.959 86.4648 630.563 86.4648C632.728 86.4648 634.584 85.4403 636.13 83.3913C637.406 81.6709 638.044 78.8197 638.044 74.8376L638.16 53.5838L638.276 41.5797C638.276 41.1737 638.353 38.2065 638.508 32.678C638.817 27.6908 639.291 24.6849 639.929 23.6604C640.257 23.0225 641.166 22.7035 642.654 22.7035C647.12 22.7035 651.237 23.6121 655.007 25.4291C656.36 26.0477 657.036 27.0722 657.036 28.5027V36.9404C657.036 38.2742 656.92 40.7291 656.688 44.3053C656.205 51.6315 655.963 59.1123 655.963 66.7478C655.963 74.1127 656.166 78.665 656.572 80.4048C656.92 81.9125 657.713 83.169 658.95 84.1742C660.206 85.16 661.627 85.653 663.212 85.653C664.72 85.653 666.344 84.6961 668.084 82.7824C669.089 81.6612 669.765 80.4531 670.113 79.158C670.461 77.8435 670.693 75.6495 670.809 72.576L671.186 63.5583L671.041 34.6787C671.041 34.4468 670.964 31.7212 670.809 26.502C670.809 25.98 670.79 25.2262 670.751 24.2403C670.713 23.2545 670.693 22.5392 670.693 22.0946C670.693 19.1757 670.925 17.4843 671.389 17.0204C671.872 16.5371 673.187 16.2955 675.332 16.2955C679.508 16.2955 683.113 16.7691 686.148 17.7163C687.752 18.1802 688.719 18.7408 689.047 19.398C689.395 20.0553 689.569 21.6307 689.569 24.1243C689.569 25.2262 689.531 26.096 689.453 26.7339C689.144 36.4764 688.989 50.6843 688.989 69.3574L689.221 82.5504L689.83 92.177L691.019 96.9322C691.174 97.7055 691.251 98.3337 691.251 98.817C691.251 99.5322 691.077 99.9864 690.729 100.18C690.4 100.392 689.666 100.499 688.525 100.499H687.569C685.829 100.499 683.529 100.653 680.668 100.963C679.74 101.117 678.986 101.195 678.406 101.195C676.859 101.195 675.777 100.74 675.158 99.8318C674.54 98.9426 673.921 96.9806 673.303 93.9457C673.245 93.5978 673.167 93.2111 673.071 92.7859C672.993 92.3606 672.878 91.7614 672.723 90.9882Z" fill="#161515"/>
<path d="M719.669 52.859L727.875 38.2452L734.863 27.3138C736.931 24.1823 738.449 21.9787 739.415 20.7028C740.401 19.427 741.222 18.6152 741.88 18.2672C742.556 17.8999 743.465 17.7163 744.605 17.7163C748.046 17.7163 751.013 18.7022 753.507 20.6739C754.783 21.679 755.421 22.5489 755.421 23.2835C755.421 24.076 754.077 26.2603 751.39 29.8365C751.158 30.1457 747.708 35.1716 741.039 44.9142C739.396 47.3691 738.246 48.9929 737.588 49.7854C736.1 51.9504 735.356 53.4485 735.356 54.2797C735.356 54.995 735.539 55.7392 735.907 56.5124C736.293 57.2663 737.337 58.977 739.038 61.6446L743.909 69.5024C745.533 72.0734 747.63 75.7075 750.201 80.4048C752.637 84.6381 754.377 87.847 755.421 90.0313C756.136 91.6357 756.493 92.8632 756.493 93.7137C756.493 94.8542 756.068 95.9174 755.218 96.9033C754.367 97.8891 753.362 98.527 752.202 98.817L749.592 99.5418L746.519 100.499C746.345 100.576 746.103 100.615 745.794 100.615C743.436 100.615 740.623 97.9568 737.356 92.6409L733.442 86.1169C733.365 85.9622 732.891 85.1021 732.021 83.5363C731.171 81.9705 730.185 80.0955 729.064 77.9111C727.092 74.393 725.942 72.373 725.613 71.8511L721.583 64.7471L719.553 61.0647L719.437 65.559L719.205 73.9967C719.07 76.1037 718.944 82.1638 718.828 92.177V94.9026C718.77 96.9323 718.5 98.3047 718.016 99.0199C717.533 99.7545 716.615 100.122 715.262 100.122C713.754 100.122 712.217 99.8125 710.651 99.1939C708.312 98.324 707.008 97.8891 706.737 97.8891C704.978 97.4832 703.663 97.2029 702.794 97.0482C701.846 96.8356 701.373 96.0431 701.373 94.6706V94.4386C701.373 94.5353 701.392 93.907 701.431 92.5539C701.469 91.2008 701.489 89.809 701.489 88.3785L701.605 81.3616L701.866 34.5627C701.866 34.0795 701.943 32.5814 702.098 30.0684C702.252 26.531 702.523 22.9645 702.91 19.3691C703.045 18.1126 704.002 17.4843 705.78 17.4843C706.959 17.4843 708.148 17.6003 709.347 17.8323C711.028 18.2382 712.845 18.5572 714.798 18.7891C716.885 19.0791 718.219 19.5527 718.799 20.2099C719.379 20.8672 719.669 22.2106 719.669 24.2403V28.1547L719.553 33.7509L719.321 46.103L719.437 50.0174L719.669 52.859Z" fill="#161515"/>
<path d="M773.777 22.3266L776.387 22.7035C777.469 22.8775 778.194 23.1868 778.561 23.6314C778.929 24.0567 779.112 24.7719 779.112 25.7771V34.2148C779.112 36.2831 778.996 38.7381 778.764 41.5797C777.972 53.6612 777.576 62.4855 777.576 68.0526C777.576 80.888 779.953 87.3057 784.708 87.3057C786.487 87.3057 788.188 86.2329 789.812 84.0872C790.913 82.6181 791.58 80.9943 791.812 79.2159C792.18 77.6309 792.421 75.4175 792.537 72.576C792.924 66.6415 793.117 63.597 793.117 63.4423L792.885 34.6787C792.885 34.2921 792.808 31.5665 792.653 26.502C792.576 25.4775 792.537 24.0083 792.537 22.0946C792.537 19.1757 792.769 17.4843 793.233 17.0204C793.716 16.5371 795.031 16.2955 797.177 16.2955C801.255 16.2955 804.851 16.7691 807.963 17.7163C809.529 18.1802 810.495 18.7505 810.862 19.427C811.23 20.1036 811.413 21.6694 811.413 24.1243C811.413 24.395 811.394 24.8106 811.355 25.3711C811.317 25.9317 811.297 26.386 811.297 26.7339C810.988 36.4764 810.833 50.6843 810.833 69.3574L811.065 82.5504L811.645 92.177L812.718 96.9322C812.892 97.3188 812.979 97.9471 812.979 98.817C812.979 99.5322 812.824 99.9864 812.515 100.18C812.206 100.392 811.481 100.499 810.341 100.499H809.413C807.673 100.499 805.373 100.653 802.512 100.963C801.391 101.117 800.637 101.195 800.25 101.195C798.704 101.195 797.602 100.731 796.945 99.8028C796.307 98.8943 795.707 96.9419 795.147 93.9457C795.089 93.5978 795.012 93.2111 794.915 92.7859C794.838 92.3606 794.722 91.7614 794.567 90.9882C791.397 94.6803 788.507 96.9323 785.897 97.7441C783.558 98.5367 780.784 98.9329 777.576 98.9329C774.154 98.9329 771.486 98.527 769.573 97.7151C767.678 96.8839 766.113 95.4728 764.875 93.4818C763.29 91.0075 762.044 87.789 761.135 83.8262C760.227 79.8442 759.772 75.5818 759.772 71.0392C759.772 71.4258 759.85 65.6073 760.004 53.5838L760.352 38.9701C760.449 32.3397 760.768 26.9949 761.309 22.9355C761.483 21.737 761.928 20.8865 762.643 20.3839C763.358 19.862 764.46 19.601 765.948 19.601C766.412 19.601 766.76 19.6397 766.992 19.717C769.428 19.9683 771.052 20.3646 771.863 20.9058L773.777 22.3266Z" fill="#161515"/>
</svg>
